M48
; DRILL file {KiCad 8.0.4} date 2024-08-16T19:06:45+0900
; FORMAT={3:3/ absolute / metric / suppress leading zeros}
; #@! TF.CreationDate,2024-08-16T19:06:45+09:00
; #@! TF.GenerationSoftware,Kicad,Pcbnew,8.0.4
; #@! TF.FileFunction,MixedPlating,1,2
FMAT,2
METRIC,TZ
; #@! TA.AperFunction,Plated,PTH,ViaDrill
T1C0.300
; #@! TA.AperFunction,Plated,PTH,ComponentDrill
T2C0.500
; #@! TA.AperFunction,Plated,PTH,ComponentDrill
T3C3.200
; #@! TA.AperFunction,NonPlated,NPTH,ComponentDrill
T4C1.152
%
G90
G05
T1
X1000Y-7000
X1000Y-9250
X1000Y-11750
X1000Y-14250
X1000Y-16750
X1000Y-19250
X1000Y-21750
X1000Y-24250
X1000Y-26750
X1000Y-29250
X1000Y-31750
X1000Y-33250
X1000Y-35750
X1000Y-38250
X1000Y-40750
X1000Y-43250
X1000Y-45750
X1000Y-48250
X1000Y-50750
X1000Y-53250
X1000Y-55750
X1000Y-57250
X1000Y-59750
X1000Y-62250
X1000Y-64750
X1000Y-67250
X1000Y-69750
X1000Y-72250
X1000Y-74750
X1000Y-77250
X1000Y-79750
X1000Y-82250
X2500Y-31750
X2500Y-55750
X2750Y-9250
X2750Y-33250
X2750Y-57250
X4000Y-82000
X6750Y-1000
X6750Y-7000
X6750Y-83250
X7500Y-13000
X7500Y-15000
X7500Y-17000
X7500Y-25000
X7500Y-27000
X7500Y-29000
X7500Y-37000
X7500Y-39000
X7500Y-41000
X7500Y-49000
X7500Y-51000
X7500Y-53000
X7500Y-61000
X7500Y-63000
X7500Y-65000
X7500Y-73000
X7500Y-75000
X7500Y-77000
X7500Y-89000
X7750Y-9250
X7750Y-33250
X7750Y-57250
X8000Y-31750
X8000Y-55750
X8000Y-86000
X8500Y-2500
X8500Y-5500
X9500Y-1000
X9500Y-4000
X9500Y-7000
X9750Y-11750
X9750Y-18250
X9750Y-23750
X9750Y-30250
X9750Y-35750
X9750Y-42250
X9750Y-47750
X9750Y-54250
X9750Y-59750
X9750Y-66250
X9750Y-71750
X9750Y-78250
X10000Y-89000
X10250Y-8750
X10250Y-33250
X10250Y-57250
X10500Y-31750
X10500Y-55750
X12000Y-27250
X12000Y-51250
X12000Y-75250
X12250Y-17750
X12250Y-23750
X12250Y-29000
X12250Y-30000
X12250Y-41750
X12250Y-53000
X12250Y-54000
X12250Y-65750
X12250Y-71750
X12250Y-77000
X12250Y-78000
X12500Y-7250
X12500Y-9250
X12500Y-47750
X12500Y-89000
X12750Y-13250
X12750Y-28000
X12750Y-33250
X12750Y-37250
X12750Y-52000
X12750Y-57250
X12750Y-61250
X12750Y-76000
X13000Y-31750
X13000Y-55750
X13500Y-1000
X13750Y-2500
X13750Y-5500
X14000Y-13250
X14000Y-37250
X14000Y-61250
X14500Y-24250
X14500Y-30000
X14500Y-54000
X14500Y-72250
X14500Y-78000
X14750Y-17500
X14750Y-19750
X14750Y-41500
X14750Y-43750
X14750Y-48500
X14750Y-65500
X14750Y-67750
X15000Y-9250
X15000Y-89000
X15250Y-33250
X15250Y-57250
X16000Y-1000
X16000Y-31750
X16000Y-55750
X16000Y-79750
X16500Y-21000
X16500Y-23500
X16500Y-26500
X16500Y-45000
X16500Y-47500
X16500Y-50500
X16500Y-69000
X16500Y-71500
X16500Y-74500
X17500Y-9250
X17500Y-89000
X17750Y-33250
X17750Y-57250
X18500Y-1000
X18500Y-31750
X18500Y-55750
X18750Y-79250
X19500Y-19000
X19500Y-21750
X19500Y-43000
X19500Y-45750
X19500Y-67000
X19500Y-69750
X20000Y-9250
X20000Y-89000
X20250Y-20500
X20250Y-33250
X20250Y-44500
X20250Y-57250
X20250Y-68500
X20450Y-23250
X20450Y-47250
X20500Y-10750
X20500Y-11750
X20500Y-34750
X20500Y-35750
X20500Y-58750
X20500Y-59750
X20500Y-71200
X21000Y-1000
X21000Y-25250
X21000Y-31750
X21000Y-49250
X21000Y-55750
X21000Y-73250
X21250Y-23750
X21250Y-47750
X21250Y-71750
X21250Y-79250
X21750Y-17750
X21750Y-41500
X21750Y-65500
X22000Y-4000
X22000Y-86000
X22050Y-19750
X22050Y-43750
X22050Y-67750
X22250Y-22250
X22250Y-28750
X22250Y-46250
X22250Y-52750
X22250Y-70250
X22250Y-76750
X22500Y-9500
X22500Y-14750
X22500Y-16500
X22500Y-38750
X22500Y-40500
X22500Y-62750
X22500Y-64500
X22500Y-89000
X22750Y-33250
X22750Y-57250
X23000Y-25250
X23250Y-6750
X23250Y-83250
X23500Y-1000
X23500Y-80750
X23750Y-22500
X23750Y-46500
X23750Y-70500
X24500Y-33250
X24500Y-57250
X24750Y-28000
X24750Y-29750
X24750Y-31750
X24750Y-52000
X24750Y-54000
X24750Y-55750
X24750Y-76000
X24750Y-78500
X25000Y-9500
X25000Y-13750
X25000Y-37750
X25000Y-49250
X25000Y-61750
X25000Y-73250
X25250Y-25250
X25500Y-15500
X25500Y-39500
X25500Y-63500
X26000Y-8000
X26000Y-82000
X26250Y-31750
X26250Y-33250
X26250Y-55750
X26250Y-57250
X27000Y-28000
X27000Y-52000
X27000Y-76000
X27500Y-10250
X28000Y-34750
X28000Y-58750
X29000Y-6750
X29000Y-9250
X29000Y-11750
X29000Y-14250
X29000Y-16750
X29000Y-19250
X29000Y-21750
X29000Y-24250
X29000Y-26750
X29000Y-29250
X29000Y-31750
X29000Y-33250
X29000Y-35750
X29000Y-38250
X29000Y-40750
X29000Y-43250
X29000Y-45750
X29000Y-48250
X29000Y-50750
X29000Y-53250
X29000Y-55750
X29000Y-57250
X29000Y-59750
X29000Y-62250
X29000Y-64750
X29000Y-67250
X29000Y-69750
X29000Y-72250
X29000Y-74750
X29000Y-77250
X29000Y-79750
X29000Y-82250
T2
X1600Y-4000
X1600Y-86000
X2303Y-2303
X2303Y-5697
X2303Y-84303
X2303Y-87697
X4000Y-1600
X4000Y-6400
X4000Y-83600
X4000Y-88400
X5697Y-2303
X5697Y-5697
X5697Y-84303
X5697Y-87697
X6400Y-4000
X6400Y-86000
X23600Y-4000
X23600Y-86000
X24303Y-2303
X24303Y-5697
X24303Y-84303
X24303Y-87697
X26000Y-1600
X26000Y-6400
X26000Y-83600
X26000Y-88400
X27697Y-2303
X27697Y-5697
X27697Y-84303
X27697Y-87697
X28400Y-4000
X28400Y-86000
T3
X4000Y-4000
X4000Y-86000
X26000Y-4000
X26000Y-86000
T4
X10000Y-86000
X19000Y-4000
X20000Y-86000
M30
