M48
; DRILL file {KiCad 8.0.4} date 2024-08-16T18:46:30+0900
; FORMAT={-:-/ absolute / inch / decimal}
; #@! TF.CreationDate,2024-08-16T18:46:30+09:00
; #@! TF.GenerationSoftware,Kicad,Pcbnew,8.0.4
; #@! TF.FileFunction,Plated,1,2,PTH
FMAT,2
INCH
; #@! TA.AperFunction,Plated,PTH,ViaDrill
T1C0.0118
; #@! TA.AperFunction,Plated,PTH,ComponentDrill
T2C0.0197
; #@! TA.AperFunction,Plated,PTH,ComponentDrill
T3C0.1260
%
G90
G05
T1
X0.0394Y-0.2756
X0.0394Y-0.3642
X0.0394Y-0.4626
X0.0394Y-0.561
X0.0394Y-0.6594
X0.0394Y-0.7579
X0.0394Y-0.8563
X0.0394Y-0.9547
X0.0394Y-1.0531
X0.0394Y-1.1516
X0.0394Y-1.25
X0.0394Y-1.3091
X0.0394Y-1.4075
X0.0394Y-1.5059
X0.0394Y-1.6043
X0.0394Y-1.7028
X0.0394Y-1.8012
X0.0394Y-1.8996
X0.0394Y-1.998
X0.0394Y-2.0965
X0.0394Y-2.1949
X0.0394Y-2.2539
X0.0394Y-2.3524
X0.0394Y-2.4508
X0.0394Y-2.5492
X0.0394Y-2.6476
X0.0394Y-2.7461
X0.0394Y-2.8445
X0.0394Y-2.9429
X0.0394Y-3.0413
X0.0394Y-3.1398
X0.0394Y-3.2382
X0.0984Y-1.25
X0.0984Y-2.1949
X0.1083Y-0.3642
X0.1083Y-1.3091
X0.1083Y-2.2539
X0.1575Y-3.2283
X0.2657Y-0.0394
X0.2657Y-0.2756
X0.2657Y-3.2776
X0.2953Y-0.5118
X0.2953Y-0.5906
X0.2953Y-0.6693
X0.2953Y-0.9843
X0.2953Y-1.063
X0.2953Y-1.1417
X0.2953Y-1.4567
X0.2953Y-1.5354
X0.2953Y-1.6142
X0.2953Y-1.9291
X0.2953Y-2.0079
X0.2953Y-2.0866
X0.2953Y-2.4016
X0.2953Y-2.4803
X0.2953Y-2.5591
X0.2953Y-2.874
X0.2953Y-2.9528
X0.2953Y-3.0315
X0.2953Y-3.5039
X0.3051Y-0.3642
X0.3051Y-1.3091
X0.3051Y-2.2539
X0.315Y-1.25
X0.315Y-2.1949
X0.315Y-3.3858
X0.3346Y-0.0984
X0.3346Y-0.2165
X0.374Y-0.0394
X0.374Y-0.1575
X0.374Y-0.2756
X0.3839Y-0.4626
X0.3839Y-0.7185
X0.3839Y-0.935
X0.3839Y-1.1909
X0.3839Y-1.4075
X0.3839Y-1.6634
X0.3839Y-1.8799
X0.3839Y-2.1358
X0.3839Y-2.3524
X0.3839Y-2.6083
X0.3839Y-2.8248
X0.3839Y-3.0807
X0.3937Y-3.5039
X0.4035Y-0.3445
X0.4035Y-1.3091
X0.4035Y-2.2539
X0.4134Y-1.25
X0.4134Y-2.1949
X0.4724Y-1.0728
X0.4724Y-2.0177
X0.4724Y-2.9626
X0.4823Y-0.6988
X0.4823Y-0.935
X0.4823Y-1.1417
X0.4823Y-1.1811
X0.4823Y-1.6437
X0.4823Y-2.0866
X0.4823Y-2.126
X0.4823Y-2.5886
X0.4823Y-2.8248
X0.4823Y-3.0315
X0.4823Y-3.0709
X0.4921Y-0.2854
X0.4921Y-0.3642
X0.4921Y-1.8799
X0.4921Y-3.5039
X0.502Y-0.5217
X0.502Y-1.1024
X0.502Y-1.3091
X0.502Y-1.4665
X0.502Y-2.0472
X0.502Y-2.2539
X0.502Y-2.4114
X0.502Y-2.9921
X0.5118Y-1.25
X0.5118Y-2.1949
X0.5315Y-0.0394
X0.5413Y-0.0984
X0.5413Y-0.2165
X0.5512Y-0.5217
X0.5512Y-1.4665
X0.5512Y-2.4114
X0.5709Y-0.9547
X0.5709Y-1.1811
X0.5709Y-2.126
X0.5709Y-2.8445
X0.5709Y-3.0709
X0.5807Y-0.689
X0.5807Y-0.7776
X0.5807Y-1.6339
X0.5807Y-1.7224
X0.5807Y-1.9094
X0.5807Y-2.5787
X0.5807Y-2.6673
X0.5906Y-0.3642
X0.5906Y-3.5039
X0.6004Y-1.3091
X0.6004Y-2.2539
X0.6299Y-0.0394
X0.6299Y-1.25
X0.6299Y-2.1949
X0.6299Y-3.1398
X0.6496Y-0.8268
X0.6496Y-0.9252
X0.6496Y-1.0433
X0.6496Y-1.7717
X0.6496Y-1.8701
X0.6496Y-1.9882
X0.6496Y-2.7165
X0.6496Y-2.815
X0.6496Y-2.9331
X0.689Y-0.3642
X0.689Y-3.5039
X0.6988Y-1.3091
X0.6988Y-2.2539
X0.7283Y-0.0394
X0.7283Y-1.25
X0.7283Y-2.1949
X0.7382Y-3.1201
X0.7677Y-0.748
X0.7677Y-0.8563
X0.7677Y-1.6929
X0.7677Y-1.8012
X0.7677Y-2.6378
X0.7677Y-2.7461
X0.7874Y-0.3642
X0.7874Y-3.5039
X0.7972Y-0.8071
X0.7972Y-1.3091
X0.7972Y-1.752
X0.7972Y-2.2539
X0.7972Y-2.6969
X0.8051Y-0.9154
X0.8051Y-1.8602
X0.8071Y-0.4232
X0.8071Y-0.4626
X0.8071Y-1.3681
X0.8071Y-1.4075
X0.8071Y-2.313
X0.8071Y-2.3524
X0.8071Y-2.8031
X0.8268Y-0.0394
X0.8268Y-0.9941
X0.8268Y-1.25
X0.8268Y-1.939
X0.8268Y-2.1949
X0.8268Y-2.8839
X0.8366Y-0.935
X0.8366Y-1.8799
X0.8366Y-2.8248
X0.8366Y-3.1201
X0.8563Y-0.6988
X0.8563Y-1.6339
X0.8563Y-2.5787
X0.8661Y-0.1575
X0.8661Y-3.3858
X0.8681Y-0.7776
X0.8681Y-1.7224
X0.8681Y-2.6673
X0.876Y-0.876
X0.876Y-1.1319
X0.876Y-1.8209
X0.876Y-2.0768
X0.876Y-2.7657
X0.876Y-3.0217
X0.8858Y-0.374
X0.8858Y-0.5807
X0.8858Y-0.6496
X0.8858Y-1.5256
X0.8858Y-1.5945
X0.8858Y-2.4705
X0.8858Y-2.5394
X0.8858Y-3.5039
X0.8957Y-1.3091
X0.8957Y-2.2539
X0.9055Y-0.9941
X0.9154Y-0.2657
X0.9154Y-3.2776
X0.9252Y-0.0394
X0.9252Y-3.1791
X0.935Y-0.8858
X0.935Y-1.8307
X0.935Y-2.7756
X0.9646Y-1.3091
X0.9646Y-2.2539
X0.9744Y-1.1024
X0.9744Y-1.1713
X0.9744Y-1.25
X0.9744Y-2.0472
X0.9744Y-2.126
X0.9744Y-2.1949
X0.9744Y-2.9921
X0.9744Y-3.0906
X0.9843Y-0.374
X0.9843Y-0.5413
X0.9843Y-1.4862
X0.9843Y-1.939
X0.9843Y-2.4311
X0.9843Y-2.8839
X0.9941Y-0.9941
X1.0039Y-0.6102
X1.0039Y-1.5551
X1.0039Y-2.5
X1.0236Y-0.315
X1.0236Y-3.2283
X1.0335Y-1.25
X1.0335Y-1.3091
X1.0335Y-2.1949
X1.0335Y-2.2539
X1.063Y-1.1024
X1.063Y-2.0472
X1.063Y-2.9921
X1.0827Y-0.4035
X1.1024Y-1.3681
X1.1024Y-2.313
X1.1417Y-0.2657
X1.1417Y-0.3642
X1.1417Y-0.4626
X1.1417Y-0.561
X1.1417Y-0.6594
X1.1417Y-0.7579
X1.1417Y-0.8563
X1.1417Y-0.9547
X1.1417Y-1.0531
X1.1417Y-1.1516
X1.1417Y-1.25
X1.1417Y-1.3091
X1.1417Y-1.4075
X1.1417Y-1.5059
X1.1417Y-1.6043
X1.1417Y-1.7028
X1.1417Y-1.8012
X1.1417Y-1.8996
X1.1417Y-1.998
X1.1417Y-2.0965
X1.1417Y-2.1949
X1.1417Y-2.2539
X1.1417Y-2.3524
X1.1417Y-2.4508
X1.1417Y-2.5492
X1.1417Y-2.6476
X1.1417Y-2.7461
X1.1417Y-2.8445
X1.1417Y-2.9429
X1.1417Y-3.0413
X1.1417Y-3.1398
X1.1417Y-3.2382
T2
X0.063Y-0.1575
X0.063Y-3.3858
X0.0907Y-0.0907
X0.0907Y-0.2243
X0.0907Y-3.319
X0.0907Y-3.4526
X0.1575Y-0.063
X0.1575Y-0.252
X0.1575Y-3.2913
X0.1575Y-3.4803
X0.2243Y-0.0907
X0.2243Y-0.2243
X0.2243Y-3.319
X0.2243Y-3.4526
X0.252Y-0.1575
X0.252Y-3.3858
X0.9291Y-0.1575
X0.9291Y-3.3858
X0.9568Y-0.0907
X0.9568Y-0.2243
X0.9568Y-3.319
X0.9568Y-3.4526
X1.0236Y-0.063
X1.0236Y-0.252
X1.0236Y-3.2913
X1.0236Y-3.4803
X1.0904Y-0.0907
X1.0904Y-0.2243
X1.0904Y-3.319
X1.0904Y-3.4526
X1.1181Y-0.1575
X1.1181Y-3.3858
T3
X0.1575Y-0.1575
X0.1575Y-3.3858
X1.0236Y-0.1575
X1.0236Y-3.3858
M30
