%TF.GenerationSoftware,KiCad,Pcbnew,8.0.4*%
%TF.CreationDate,2024-08-16T18:46:30+09:00*%
%TF.ProjectId,accel-brake-sig-converter-board,61636365-6c2d-4627-9261-6b652d736967,rev?*%
%TF.SameCoordinates,Original*%
%TF.FileFunction,Legend,Top*%
%TF.FilePolarity,Positive*%
%FSLAX46Y46*%
G04 Gerber Fmt 4.6, Leading zero omitted, Abs format (unit mm)*
G04 Created by KiCad (PCBNEW 8.0.4) date 2024-08-16 18:46:30*
%MOMM*%
%LPD*%
G01*
G04 APERTURE LIST*
G04 Aperture macros list*
%AMRoundRect*
0 Rectangle with rounded corners*
0 $1 Rounding radius*
0 $2 $3 $4 $5 $6 $7 $8 $9 X,Y pos of 4 corners*
0 Add a 4 corners polygon primitive as box body*
4,1,4,$2,$3,$4,$5,$6,$7,$8,$9,$2,$3,0*
0 Add four circle primitives for the rounded corners*
1,1,$1+$1,$2,$3*
1,1,$1+$1,$4,$5*
1,1,$1+$1,$6,$7*
1,1,$1+$1,$8,$9*
0 Add four rect primitives between the rounded corners*
20,1,$1+$1,$2,$3,$4,$5,0*
20,1,$1+$1,$4,$5,$6,$7,0*
20,1,$1+$1,$6,$7,$8,$9,0*
20,1,$1+$1,$8,$9,$2,$3,0*%
G04 Aperture macros list end*
%ADD10C,0.150000*%
%ADD11C,0.120000*%
%ADD12C,0.000000*%
%ADD13RoundRect,0.058333X0.741667X-0.291667X0.741667X0.291667X-0.741667X0.291667X-0.741667X-0.291667X0*%
%ADD14C,0.900000*%
%ADD15C,6.500000*%
%ADD16C,2.000000*%
%ADD17RoundRect,0.250000X0.275000X-0.250000X0.275000X0.250000X-0.275000X0.250000X-0.275000X-0.250000X0*%
%ADD18RoundRect,0.112500X0.387500X0.337500X-0.387500X0.337500X-0.387500X-0.337500X0.387500X-0.337500X0*%
%ADD19RoundRect,0.250000X-0.250000X-0.275000X0.250000X-0.275000X0.250000X0.275000X-0.250000X0.275000X0*%
%ADD20RoundRect,0.225000X-0.300000X0.225000X-0.300000X-0.225000X0.300000X-0.225000X0.300000X0.225000X0*%
%ADD21RoundRect,0.056250X0.393750X-0.393750X0.393750X0.393750X-0.393750X0.393750X-0.393750X-0.393750X0*%
%ADD22RoundRect,0.272222X0.340278X0.652778X-0.340278X0.652778X-0.340278X-0.652778X0.340278X-0.652778X0*%
%ADD23RoundRect,0.064286X-0.225714X-0.160714X0.225714X-0.160714X0.225714X0.160714X-0.225714X0.160714X0*%
%ADD24RoundRect,0.052632X-0.447368X-0.797368X0.447368X-0.797368X0.447368X0.797368X-0.447368X0.797368X0*%
%ADD25RoundRect,0.056250X0.443750X-0.393750X0.443750X0.393750X-0.443750X0.393750X-0.443750X-0.393750X0*%
%ADD26RoundRect,0.107143X-0.642857X1.242857X-0.642857X-1.242857X0.642857X-1.242857X0.642857X1.242857X0*%
%ADD27RoundRect,0.107692X-0.642308X0.592308X-0.642308X-0.592308X0.642308X-0.592308X0.642308X0.592308X0*%
%ADD28RoundRect,0.055000X1.345000X-0.495000X1.345000X0.495000X-1.345000X0.495000X-1.345000X-0.495000X0*%
%ADD29RoundRect,0.095000X1.855000X-0.855000X1.855000X0.855000X-1.855000X0.855000X-1.855000X-0.855000X0*%
%ADD30RoundRect,0.056250X0.393750X0.393750X-0.393750X0.393750X-0.393750X-0.393750X0.393750X-0.393750X0*%
%ADD31C,1.300000*%
%ADD32RoundRect,0.060000X-0.440000X0.240000X-0.440000X-0.240000X0.440000X-0.240000X0.440000X0.240000X0*%
%ADD33RoundRect,0.250000X-0.275000X0.250000X-0.275000X-0.250000X0.275000X-0.250000X0.275000X0.250000X0*%
%ADD34RoundRect,0.225000X0.300000X-0.225000X0.300000X0.225000X-0.300000X0.225000X-0.300000X-0.225000X0*%
%ADD35RoundRect,0.225000X0.225000X0.300000X-0.225000X0.300000X-0.225000X-0.300000X0.225000X-0.300000X0*%
%ADD36RoundRect,0.225000X-0.225000X-0.300000X0.225000X-0.300000X0.225000X0.300000X-0.225000X0.300000X0*%
%ADD37RoundRect,0.272222X-0.340278X-0.652778X0.340278X-0.652778X0.340278X0.652778X-0.340278X0.652778X0*%
%ADD38RoundRect,0.271739X-0.353261X-0.678261X0.353261X-0.678261X0.353261X0.678261X-0.353261X0.678261X0*%
G04 APERTURE END LIST*
D10*
X13750000Y-61250000D02*
X15250000Y-61250000D01*
X10500000Y-56500000D02*
X13500000Y-56500000D01*
X13500000Y-59500000D01*
X10500000Y-59500000D01*
X10500000Y-56500000D01*
X14250000Y-44250000D02*
X15250000Y-44250000D01*
X12000000Y-11500000D02*
X13750000Y-13250000D01*
X12500000Y-68500000D02*
X14000000Y-68500000D01*
X14000000Y-71500000D01*
X12500000Y-71500000D01*
X12500000Y-68500000D01*
X15250000Y-37250000D02*
X18250000Y-37250000D01*
X18250000Y-40500000D01*
X15250000Y-40500000D01*
X15250000Y-37250000D01*
X13750000Y-13250000D02*
X15250000Y-13250000D01*
X15250000Y-65250000D02*
X16750000Y-65250000D01*
X16750000Y-68250000D01*
X15250000Y-68250000D01*
X15250000Y-65250000D01*
X10500000Y-32500000D02*
X13500000Y-32500000D01*
X13500000Y-35500000D01*
X10500000Y-35500000D01*
X10500000Y-32500000D01*
X15250000Y-61250000D02*
X18250000Y-61250000D01*
X18250000Y-64500000D01*
X15250000Y-64500000D01*
X15250000Y-61250000D01*
X14250000Y-20250000D02*
X15250000Y-20250000D01*
X15250000Y-13250000D02*
X18250000Y-13250000D01*
X18250000Y-16500000D01*
X15250000Y-16500000D01*
X15250000Y-13250000D01*
X14000000Y-68500000D02*
X14250000Y-68250000D01*
X12500000Y-44500000D02*
X14000000Y-44500000D01*
X14000000Y-47500000D01*
X12500000Y-47500000D01*
X12500000Y-44500000D01*
X15250000Y-17250000D02*
X16750000Y-17250000D01*
X16750000Y-20250000D01*
X15250000Y-20250000D01*
X15250000Y-17250000D01*
X12000000Y-35500000D02*
X13750000Y-37250000D01*
X12000000Y-59500000D02*
X13750000Y-61250000D01*
X10500000Y-8500000D02*
X13500000Y-8500000D01*
X13500000Y-11500000D01*
X10500000Y-11500000D01*
X10500000Y-8500000D01*
X14000000Y-20500000D02*
X14250000Y-20250000D01*
X13750000Y-37250000D02*
X15250000Y-37250000D01*
X15250000Y-41250000D02*
X16750000Y-41250000D01*
X16750000Y-44250000D01*
X15250000Y-44250000D01*
X15250000Y-41250000D01*
X14250000Y-68250000D02*
X15250000Y-68250000D01*
X12500000Y-20500000D02*
X14000000Y-20500000D01*
X14000000Y-23500000D01*
X12500000Y-23500000D01*
X12500000Y-20500000D01*
X14000000Y-44500000D02*
X14250000Y-44250000D01*
X12454819Y-78428570D02*
X11454819Y-78428570D01*
X11454819Y-77761904D02*
X11454819Y-77571428D01*
X11454819Y-77571428D02*
X11502438Y-77476190D01*
X11502438Y-77476190D02*
X11597676Y-77380952D01*
X11597676Y-77380952D02*
X11788152Y-77333333D01*
X11788152Y-77333333D02*
X12121485Y-77333333D01*
X12121485Y-77333333D02*
X12311961Y-77380952D01*
X12311961Y-77380952D02*
X12407200Y-77476190D01*
X12407200Y-77476190D02*
X12454819Y-77571428D01*
X12454819Y-77571428D02*
X12454819Y-77761904D01*
X12454819Y-77761904D02*
X12407200Y-77857142D01*
X12407200Y-77857142D02*
X12311961Y-77952380D01*
X12311961Y-77952380D02*
X12121485Y-77999999D01*
X12121485Y-77999999D02*
X11788152Y-77999999D01*
X11788152Y-77999999D02*
X11597676Y-77952380D01*
X11597676Y-77952380D02*
X11502438Y-77857142D01*
X11502438Y-77857142D02*
X11454819Y-77761904D01*
X11454819Y-76904761D02*
X12264342Y-76904761D01*
X12264342Y-76904761D02*
X12359580Y-76857142D01*
X12359580Y-76857142D02*
X12407200Y-76809523D01*
X12407200Y-76809523D02*
X12454819Y-76714285D01*
X12454819Y-76714285D02*
X12454819Y-76523809D01*
X12454819Y-76523809D02*
X12407200Y-76428571D01*
X12407200Y-76428571D02*
X12359580Y-76380952D01*
X12359580Y-76380952D02*
X12264342Y-76333333D01*
X12264342Y-76333333D02*
X11454819Y-76333333D01*
X11454819Y-75999999D02*
X11454819Y-75428571D01*
X12454819Y-75714285D02*
X11454819Y-75714285D01*
X12454819Y-30428570D02*
X11454819Y-30428570D01*
X11454819Y-29761904D02*
X11454819Y-29571428D01*
X11454819Y-29571428D02*
X11502438Y-29476190D01*
X11502438Y-29476190D02*
X11597676Y-29380952D01*
X11597676Y-29380952D02*
X11788152Y-29333333D01*
X11788152Y-29333333D02*
X12121485Y-29333333D01*
X12121485Y-29333333D02*
X12311961Y-29380952D01*
X12311961Y-29380952D02*
X12407200Y-29476190D01*
X12407200Y-29476190D02*
X12454819Y-29571428D01*
X12454819Y-29571428D02*
X12454819Y-29761904D01*
X12454819Y-29761904D02*
X12407200Y-29857142D01*
X12407200Y-29857142D02*
X12311961Y-29952380D01*
X12311961Y-29952380D02*
X12121485Y-29999999D01*
X12121485Y-29999999D02*
X11788152Y-29999999D01*
X11788152Y-29999999D02*
X11597676Y-29952380D01*
X11597676Y-29952380D02*
X11502438Y-29857142D01*
X11502438Y-29857142D02*
X11454819Y-29761904D01*
X11454819Y-28904761D02*
X12264342Y-28904761D01*
X12264342Y-28904761D02*
X12359580Y-28857142D01*
X12359580Y-28857142D02*
X12407200Y-28809523D01*
X12407200Y-28809523D02*
X12454819Y-28714285D01*
X12454819Y-28714285D02*
X12454819Y-28523809D01*
X12454819Y-28523809D02*
X12407200Y-28428571D01*
X12407200Y-28428571D02*
X12359580Y-28380952D01*
X12359580Y-28380952D02*
X12264342Y-28333333D01*
X12264342Y-28333333D02*
X11454819Y-28333333D01*
X11454819Y-27999999D02*
X11454819Y-27428571D01*
X12454819Y-27714285D02*
X11454819Y-27714285D01*
X11333333Y-85954819D02*
X11333333Y-84954819D01*
X11333333Y-84954819D02*
X11714285Y-84954819D01*
X11714285Y-84954819D02*
X11809523Y-85002438D01*
X11809523Y-85002438D02*
X11857142Y-85050057D01*
X11857142Y-85050057D02*
X11904761Y-85145295D01*
X11904761Y-85145295D02*
X11904761Y-85288152D01*
X11904761Y-85288152D02*
X11857142Y-85383390D01*
X11857142Y-85383390D02*
X11809523Y-85431009D01*
X11809523Y-85431009D02*
X11714285Y-85478628D01*
X11714285Y-85478628D02*
X11333333Y-85478628D01*
X12333333Y-85954819D02*
X12333333Y-85288152D01*
X12333333Y-85478628D02*
X12380952Y-85383390D01*
X12380952Y-85383390D02*
X12428571Y-85335771D01*
X12428571Y-85335771D02*
X12523809Y-85288152D01*
X12523809Y-85288152D02*
X12619047Y-85288152D01*
X13095238Y-85954819D02*
X13000000Y-85907200D01*
X13000000Y-85907200D02*
X12952381Y-85859580D01*
X12952381Y-85859580D02*
X12904762Y-85764342D01*
X12904762Y-85764342D02*
X12904762Y-85478628D01*
X12904762Y-85478628D02*
X12952381Y-85383390D01*
X12952381Y-85383390D02*
X13000000Y-85335771D01*
X13000000Y-85335771D02*
X13095238Y-85288152D01*
X13095238Y-85288152D02*
X13238095Y-85288152D01*
X13238095Y-85288152D02*
X13333333Y-85335771D01*
X13333333Y-85335771D02*
X13380952Y-85383390D01*
X13380952Y-85383390D02*
X13428571Y-85478628D01*
X13428571Y-85478628D02*
X13428571Y-85764342D01*
X13428571Y-85764342D02*
X13380952Y-85859580D01*
X13380952Y-85859580D02*
X13333333Y-85907200D01*
X13333333Y-85907200D02*
X13238095Y-85954819D01*
X13238095Y-85954819D02*
X13095238Y-85954819D01*
X13857143Y-85288152D02*
X13857143Y-86145295D01*
X13857143Y-86145295D02*
X13809524Y-86240533D01*
X13809524Y-86240533D02*
X13714286Y-86288152D01*
X13714286Y-86288152D02*
X13666667Y-86288152D01*
X13857143Y-84954819D02*
X13809524Y-85002438D01*
X13809524Y-85002438D02*
X13857143Y-85050057D01*
X13857143Y-85050057D02*
X13904762Y-85002438D01*
X13904762Y-85002438D02*
X13857143Y-84954819D01*
X13857143Y-84954819D02*
X13857143Y-85050057D01*
X14714285Y-85907200D02*
X14619047Y-85954819D01*
X14619047Y-85954819D02*
X14428571Y-85954819D01*
X14428571Y-85954819D02*
X14333333Y-85907200D01*
X14333333Y-85907200D02*
X14285714Y-85811961D01*
X14285714Y-85811961D02*
X14285714Y-85431009D01*
X14285714Y-85431009D02*
X14333333Y-85335771D01*
X14333333Y-85335771D02*
X14428571Y-85288152D01*
X14428571Y-85288152D02*
X14619047Y-85288152D01*
X14619047Y-85288152D02*
X14714285Y-85335771D01*
X14714285Y-85335771D02*
X14761904Y-85431009D01*
X14761904Y-85431009D02*
X14761904Y-85526247D01*
X14761904Y-85526247D02*
X14285714Y-85621485D01*
X15619047Y-85907200D02*
X15523809Y-85954819D01*
X15523809Y-85954819D02*
X15333333Y-85954819D01*
X15333333Y-85954819D02*
X15238095Y-85907200D01*
X15238095Y-85907200D02*
X15190476Y-85859580D01*
X15190476Y-85859580D02*
X15142857Y-85764342D01*
X15142857Y-85764342D02*
X15142857Y-85478628D01*
X15142857Y-85478628D02*
X15190476Y-85383390D01*
X15190476Y-85383390D02*
X15238095Y-85335771D01*
X15238095Y-85335771D02*
X15333333Y-85288152D01*
X15333333Y-85288152D02*
X15523809Y-85288152D01*
X15523809Y-85288152D02*
X15619047Y-85335771D01*
X15904762Y-85288152D02*
X16285714Y-85288152D01*
X16047619Y-84954819D02*
X16047619Y-85811961D01*
X16047619Y-85811961D02*
X16095238Y-85907200D01*
X16095238Y-85907200D02*
X16190476Y-85954819D01*
X16190476Y-85954819D02*
X16285714Y-85954819D01*
X17380953Y-85431009D02*
X17714286Y-85431009D01*
X17857143Y-85954819D02*
X17380953Y-85954819D01*
X17380953Y-85954819D02*
X17380953Y-84954819D01*
X17380953Y-84954819D02*
X17857143Y-84954819D01*
X18142858Y-84954819D02*
X18476191Y-85954819D01*
X18476191Y-85954819D02*
X18809524Y-84954819D01*
X6928571Y-21169104D02*
X7404761Y-21169104D01*
X6833333Y-21454819D02*
X7166666Y-20454819D01*
X7166666Y-20454819D02*
X7499999Y-21454819D01*
X8404761Y-21359580D02*
X8357142Y-21407200D01*
X8357142Y-21407200D02*
X8214285Y-21454819D01*
X8214285Y-21454819D02*
X8119047Y-21454819D01*
X8119047Y-21454819D02*
X7976190Y-21407200D01*
X7976190Y-21407200D02*
X7880952Y-21311961D01*
X7880952Y-21311961D02*
X7833333Y-21216723D01*
X7833333Y-21216723D02*
X7785714Y-21026247D01*
X7785714Y-21026247D02*
X7785714Y-20883390D01*
X7785714Y-20883390D02*
X7833333Y-20692914D01*
X7833333Y-20692914D02*
X7880952Y-20597676D01*
X7880952Y-20597676D02*
X7976190Y-20502438D01*
X7976190Y-20502438D02*
X8119047Y-20454819D01*
X8119047Y-20454819D02*
X8214285Y-20454819D01*
X8214285Y-20454819D02*
X8357142Y-20502438D01*
X8357142Y-20502438D02*
X8404761Y-20550057D01*
X9404761Y-21359580D02*
X9357142Y-21407200D01*
X9357142Y-21407200D02*
X9214285Y-21454819D01*
X9214285Y-21454819D02*
X9119047Y-21454819D01*
X9119047Y-21454819D02*
X8976190Y-21407200D01*
X8976190Y-21407200D02*
X8880952Y-21311961D01*
X8880952Y-21311961D02*
X8833333Y-21216723D01*
X8833333Y-21216723D02*
X8785714Y-21026247D01*
X8785714Y-21026247D02*
X8785714Y-20883390D01*
X8785714Y-20883390D02*
X8833333Y-20692914D01*
X8833333Y-20692914D02*
X8880952Y-20597676D01*
X8880952Y-20597676D02*
X8976190Y-20502438D01*
X8976190Y-20502438D02*
X9119047Y-20454819D01*
X9119047Y-20454819D02*
X9214285Y-20454819D01*
X9214285Y-20454819D02*
X9357142Y-20502438D01*
X9357142Y-20502438D02*
X9404761Y-20550057D01*
X9833333Y-20931009D02*
X10166666Y-20931009D01*
X10309523Y-21454819D02*
X9833333Y-21454819D01*
X9833333Y-21454819D02*
X9833333Y-20454819D01*
X9833333Y-20454819D02*
X10309523Y-20454819D01*
X11214285Y-21454819D02*
X10738095Y-21454819D01*
X10738095Y-21454819D02*
X10738095Y-20454819D01*
X12071428Y-21454819D02*
X11500000Y-21454819D01*
X11785714Y-21454819D02*
X11785714Y-20454819D01*
X11785714Y-20454819D02*
X11690476Y-20597676D01*
X11690476Y-20597676D02*
X11595238Y-20692914D01*
X11595238Y-20692914D02*
X11500000Y-20740533D01*
X7690476Y-68931009D02*
X7833333Y-68978628D01*
X7833333Y-68978628D02*
X7880952Y-69026247D01*
X7880952Y-69026247D02*
X7928571Y-69121485D01*
X7928571Y-69121485D02*
X7928571Y-69264342D01*
X7928571Y-69264342D02*
X7880952Y-69359580D01*
X7880952Y-69359580D02*
X7833333Y-69407200D01*
X7833333Y-69407200D02*
X7738095Y-69454819D01*
X7738095Y-69454819D02*
X7357143Y-69454819D01*
X7357143Y-69454819D02*
X7357143Y-68454819D01*
X7357143Y-68454819D02*
X7690476Y-68454819D01*
X7690476Y-68454819D02*
X7785714Y-68502438D01*
X7785714Y-68502438D02*
X7833333Y-68550057D01*
X7833333Y-68550057D02*
X7880952Y-68645295D01*
X7880952Y-68645295D02*
X7880952Y-68740533D01*
X7880952Y-68740533D02*
X7833333Y-68835771D01*
X7833333Y-68835771D02*
X7785714Y-68883390D01*
X7785714Y-68883390D02*
X7690476Y-68931009D01*
X7690476Y-68931009D02*
X7357143Y-68931009D01*
X8928571Y-69454819D02*
X8595238Y-68978628D01*
X8357143Y-69454819D02*
X8357143Y-68454819D01*
X8357143Y-68454819D02*
X8738095Y-68454819D01*
X8738095Y-68454819D02*
X8833333Y-68502438D01*
X8833333Y-68502438D02*
X8880952Y-68550057D01*
X8880952Y-68550057D02*
X8928571Y-68645295D01*
X8928571Y-68645295D02*
X8928571Y-68788152D01*
X8928571Y-68788152D02*
X8880952Y-68883390D01*
X8880952Y-68883390D02*
X8833333Y-68931009D01*
X8833333Y-68931009D02*
X8738095Y-68978628D01*
X8738095Y-68978628D02*
X8357143Y-68978628D01*
X9309524Y-69169104D02*
X9785714Y-69169104D01*
X9214286Y-69454819D02*
X9547619Y-68454819D01*
X9547619Y-68454819D02*
X9880952Y-69454819D01*
X10214286Y-69454819D02*
X10214286Y-68454819D01*
X10785714Y-69454819D02*
X10357143Y-68883390D01*
X10785714Y-68454819D02*
X10214286Y-69026247D01*
X11214286Y-68931009D02*
X11547619Y-68931009D01*
X11690476Y-69454819D02*
X11214286Y-69454819D01*
X11214286Y-69454819D02*
X11214286Y-68454819D01*
X11214286Y-68454819D02*
X11690476Y-68454819D01*
X12454819Y-54428570D02*
X11454819Y-54428570D01*
X11454819Y-53761904D02*
X11454819Y-53571428D01*
X11454819Y-53571428D02*
X11502438Y-53476190D01*
X11502438Y-53476190D02*
X11597676Y-53380952D01*
X11597676Y-53380952D02*
X11788152Y-53333333D01*
X11788152Y-53333333D02*
X12121485Y-53333333D01*
X12121485Y-53333333D02*
X12311961Y-53380952D01*
X12311961Y-53380952D02*
X12407200Y-53476190D01*
X12407200Y-53476190D02*
X12454819Y-53571428D01*
X12454819Y-53571428D02*
X12454819Y-53761904D01*
X12454819Y-53761904D02*
X12407200Y-53857142D01*
X12407200Y-53857142D02*
X12311961Y-53952380D01*
X12311961Y-53952380D02*
X12121485Y-53999999D01*
X12121485Y-53999999D02*
X11788152Y-53999999D01*
X11788152Y-53999999D02*
X11597676Y-53952380D01*
X11597676Y-53952380D02*
X11502438Y-53857142D01*
X11502438Y-53857142D02*
X11454819Y-53761904D01*
X11454819Y-52904761D02*
X12264342Y-52904761D01*
X12264342Y-52904761D02*
X12359580Y-52857142D01*
X12359580Y-52857142D02*
X12407200Y-52809523D01*
X12407200Y-52809523D02*
X12454819Y-52714285D01*
X12454819Y-52714285D02*
X12454819Y-52523809D01*
X12454819Y-52523809D02*
X12407200Y-52428571D01*
X12407200Y-52428571D02*
X12359580Y-52380952D01*
X12359580Y-52380952D02*
X12264342Y-52333333D01*
X12264342Y-52333333D02*
X11454819Y-52333333D01*
X11454819Y-51999999D02*
X11454819Y-51428571D01*
X12454819Y-51714285D02*
X11454819Y-51714285D01*
X6928571Y-45169104D02*
X7404761Y-45169104D01*
X6833333Y-45454819D02*
X7166666Y-44454819D01*
X7166666Y-44454819D02*
X7499999Y-45454819D01*
X8404761Y-45359580D02*
X8357142Y-45407200D01*
X8357142Y-45407200D02*
X8214285Y-45454819D01*
X8214285Y-45454819D02*
X8119047Y-45454819D01*
X8119047Y-45454819D02*
X7976190Y-45407200D01*
X7976190Y-45407200D02*
X7880952Y-45311961D01*
X7880952Y-45311961D02*
X7833333Y-45216723D01*
X7833333Y-45216723D02*
X7785714Y-45026247D01*
X7785714Y-45026247D02*
X7785714Y-44883390D01*
X7785714Y-44883390D02*
X7833333Y-44692914D01*
X7833333Y-44692914D02*
X7880952Y-44597676D01*
X7880952Y-44597676D02*
X7976190Y-44502438D01*
X7976190Y-44502438D02*
X8119047Y-44454819D01*
X8119047Y-44454819D02*
X8214285Y-44454819D01*
X8214285Y-44454819D02*
X8357142Y-44502438D01*
X8357142Y-44502438D02*
X8404761Y-44550057D01*
X9404761Y-45359580D02*
X9357142Y-45407200D01*
X9357142Y-45407200D02*
X9214285Y-45454819D01*
X9214285Y-45454819D02*
X9119047Y-45454819D01*
X9119047Y-45454819D02*
X8976190Y-45407200D01*
X8976190Y-45407200D02*
X8880952Y-45311961D01*
X8880952Y-45311961D02*
X8833333Y-45216723D01*
X8833333Y-45216723D02*
X8785714Y-45026247D01*
X8785714Y-45026247D02*
X8785714Y-44883390D01*
X8785714Y-44883390D02*
X8833333Y-44692914D01*
X8833333Y-44692914D02*
X8880952Y-44597676D01*
X8880952Y-44597676D02*
X8976190Y-44502438D01*
X8976190Y-44502438D02*
X9119047Y-44454819D01*
X9119047Y-44454819D02*
X9214285Y-44454819D01*
X9214285Y-44454819D02*
X9357142Y-44502438D01*
X9357142Y-44502438D02*
X9404761Y-44550057D01*
X9833333Y-44931009D02*
X10166666Y-44931009D01*
X10309523Y-45454819D02*
X9833333Y-45454819D01*
X9833333Y-45454819D02*
X9833333Y-44454819D01*
X9833333Y-44454819D02*
X10309523Y-44454819D01*
X11214285Y-45454819D02*
X10738095Y-45454819D01*
X10738095Y-45454819D02*
X10738095Y-44454819D01*
X11500000Y-44550057D02*
X11547619Y-44502438D01*
X11547619Y-44502438D02*
X11642857Y-44454819D01*
X11642857Y-44454819D02*
X11880952Y-44454819D01*
X11880952Y-44454819D02*
X11976190Y-44502438D01*
X11976190Y-44502438D02*
X12023809Y-44550057D01*
X12023809Y-44550057D02*
X12071428Y-44645295D01*
X12071428Y-44645295D02*
X12071428Y-44740533D01*
X12071428Y-44740533D02*
X12023809Y-44883390D01*
X12023809Y-44883390D02*
X11452381Y-45454819D01*
X11452381Y-45454819D02*
X12071428Y-45454819D01*
X15954819Y-22261904D02*
X16764342Y-22261904D01*
X16764342Y-22261904D02*
X16859580Y-22214285D01*
X16859580Y-22214285D02*
X16907200Y-22166666D01*
X16907200Y-22166666D02*
X16954819Y-22071428D01*
X16954819Y-22071428D02*
X16954819Y-21880952D01*
X16954819Y-21880952D02*
X16907200Y-21785714D01*
X16907200Y-21785714D02*
X16859580Y-21738095D01*
X16859580Y-21738095D02*
X16764342Y-21690476D01*
X16764342Y-21690476D02*
X15954819Y-21690476D01*
X16288152Y-20785714D02*
X16954819Y-20785714D01*
X15907200Y-21023809D02*
X16621485Y-21261904D01*
X16621485Y-21261904D02*
X16621485Y-20642857D01*
X14609580Y-66892857D02*
X14657200Y-66940476D01*
X14657200Y-66940476D02*
X14704819Y-67083333D01*
X14704819Y-67083333D02*
X14704819Y-67178571D01*
X14704819Y-67178571D02*
X14657200Y-67321428D01*
X14657200Y-67321428D02*
X14561961Y-67416666D01*
X14561961Y-67416666D02*
X14466723Y-67464285D01*
X14466723Y-67464285D02*
X14276247Y-67511904D01*
X14276247Y-67511904D02*
X14133390Y-67511904D01*
X14133390Y-67511904D02*
X13942914Y-67464285D01*
X13942914Y-67464285D02*
X13847676Y-67416666D01*
X13847676Y-67416666D02*
X13752438Y-67321428D01*
X13752438Y-67321428D02*
X13704819Y-67178571D01*
X13704819Y-67178571D02*
X13704819Y-67083333D01*
X13704819Y-67083333D02*
X13752438Y-66940476D01*
X13752438Y-66940476D02*
X13800057Y-66892857D01*
X14704819Y-65940476D02*
X14704819Y-66511904D01*
X14704819Y-66226190D02*
X13704819Y-66226190D01*
X13704819Y-66226190D02*
X13847676Y-66321428D01*
X13847676Y-66321428D02*
X13942914Y-66416666D01*
X13942914Y-66416666D02*
X13990533Y-66511904D01*
X14704819Y-65464285D02*
X14704819Y-65273809D01*
X14704819Y-65273809D02*
X14657200Y-65178571D01*
X14657200Y-65178571D02*
X14609580Y-65130952D01*
X14609580Y-65130952D02*
X14466723Y-65035714D01*
X14466723Y-65035714D02*
X14276247Y-64988095D01*
X14276247Y-64988095D02*
X13895295Y-64988095D01*
X13895295Y-64988095D02*
X13800057Y-65035714D01*
X13800057Y-65035714D02*
X13752438Y-65083333D01*
X13752438Y-65083333D02*
X13704819Y-65178571D01*
X13704819Y-65178571D02*
X13704819Y-65369047D01*
X13704819Y-65369047D02*
X13752438Y-65464285D01*
X13752438Y-65464285D02*
X13800057Y-65511904D01*
X13800057Y-65511904D02*
X13895295Y-65559523D01*
X13895295Y-65559523D02*
X14133390Y-65559523D01*
X14133390Y-65559523D02*
X14228628Y-65511904D01*
X14228628Y-65511904D02*
X14276247Y-65464285D01*
X14276247Y-65464285D02*
X14323866Y-65369047D01*
X14323866Y-65369047D02*
X14323866Y-65178571D01*
X14323866Y-65178571D02*
X14276247Y-65083333D01*
X14276247Y-65083333D02*
X14228628Y-65035714D01*
X14228628Y-65035714D02*
X14133390Y-64988095D01*
X23050057Y-38845238D02*
X23002438Y-38940476D01*
X23002438Y-38940476D02*
X22907200Y-39035714D01*
X22907200Y-39035714D02*
X22764342Y-39178571D01*
X22764342Y-39178571D02*
X22716723Y-39273809D01*
X22716723Y-39273809D02*
X22716723Y-39369047D01*
X22954819Y-39321428D02*
X22907200Y-39416666D01*
X22907200Y-39416666D02*
X22811961Y-39511904D01*
X22811961Y-39511904D02*
X22621485Y-39559523D01*
X22621485Y-39559523D02*
X22288152Y-39559523D01*
X22288152Y-39559523D02*
X22097676Y-39511904D01*
X22097676Y-39511904D02*
X22002438Y-39416666D01*
X22002438Y-39416666D02*
X21954819Y-39321428D01*
X21954819Y-39321428D02*
X21954819Y-39130952D01*
X21954819Y-39130952D02*
X22002438Y-39035714D01*
X22002438Y-39035714D02*
X22097676Y-38940476D01*
X22097676Y-38940476D02*
X22288152Y-38892857D01*
X22288152Y-38892857D02*
X22621485Y-38892857D01*
X22621485Y-38892857D02*
X22811961Y-38940476D01*
X22811961Y-38940476D02*
X22907200Y-39035714D01*
X22907200Y-39035714D02*
X22954819Y-39130952D01*
X22954819Y-39130952D02*
X22954819Y-39321428D01*
X21954819Y-37988095D02*
X21954819Y-38464285D01*
X21954819Y-38464285D02*
X22431009Y-38511904D01*
X22431009Y-38511904D02*
X22383390Y-38464285D01*
X22383390Y-38464285D02*
X22335771Y-38369047D01*
X22335771Y-38369047D02*
X22335771Y-38130952D01*
X22335771Y-38130952D02*
X22383390Y-38035714D01*
X22383390Y-38035714D02*
X22431009Y-37988095D01*
X22431009Y-37988095D02*
X22526247Y-37940476D01*
X22526247Y-37940476D02*
X22764342Y-37940476D01*
X22764342Y-37940476D02*
X22859580Y-37988095D01*
X22859580Y-37988095D02*
X22907200Y-38035714D01*
X22907200Y-38035714D02*
X22954819Y-38130952D01*
X22954819Y-38130952D02*
X22954819Y-38369047D01*
X22954819Y-38369047D02*
X22907200Y-38464285D01*
X22907200Y-38464285D02*
X22859580Y-38511904D01*
X15107142Y-71609580D02*
X15059523Y-71657200D01*
X15059523Y-71657200D02*
X14916666Y-71704819D01*
X14916666Y-71704819D02*
X14821428Y-71704819D01*
X14821428Y-71704819D02*
X14678571Y-71657200D01*
X14678571Y-71657200D02*
X14583333Y-71561961D01*
X14583333Y-71561961D02*
X14535714Y-71466723D01*
X14535714Y-71466723D02*
X14488095Y-71276247D01*
X14488095Y-71276247D02*
X14488095Y-71133390D01*
X14488095Y-71133390D02*
X14535714Y-70942914D01*
X14535714Y-70942914D02*
X14583333Y-70847676D01*
X14583333Y-70847676D02*
X14678571Y-70752438D01*
X14678571Y-70752438D02*
X14821428Y-70704819D01*
X14821428Y-70704819D02*
X14916666Y-70704819D01*
X14916666Y-70704819D02*
X15059523Y-70752438D01*
X15059523Y-70752438D02*
X15107142Y-70800057D01*
X16059523Y-71704819D02*
X15488095Y-71704819D01*
X15773809Y-71704819D02*
X15773809Y-70704819D01*
X15773809Y-70704819D02*
X15678571Y-70847676D01*
X15678571Y-70847676D02*
X15583333Y-70942914D01*
X15583333Y-70942914D02*
X15488095Y-70990533D01*
X16916666Y-70704819D02*
X16726190Y-70704819D01*
X16726190Y-70704819D02*
X16630952Y-70752438D01*
X16630952Y-70752438D02*
X16583333Y-70800057D01*
X16583333Y-70800057D02*
X16488095Y-70942914D01*
X16488095Y-70942914D02*
X16440476Y-71133390D01*
X16440476Y-71133390D02*
X16440476Y-71514342D01*
X16440476Y-71514342D02*
X16488095Y-71609580D01*
X16488095Y-71609580D02*
X16535714Y-71657200D01*
X16535714Y-71657200D02*
X16630952Y-71704819D01*
X16630952Y-71704819D02*
X16821428Y-71704819D01*
X16821428Y-71704819D02*
X16916666Y-71657200D01*
X16916666Y-71657200D02*
X16964285Y-71609580D01*
X16964285Y-71609580D02*
X17011904Y-71514342D01*
X17011904Y-71514342D02*
X17011904Y-71276247D01*
X17011904Y-71276247D02*
X16964285Y-71181009D01*
X16964285Y-71181009D02*
X16916666Y-71133390D01*
X16916666Y-71133390D02*
X16821428Y-71085771D01*
X16821428Y-71085771D02*
X16630952Y-71085771D01*
X16630952Y-71085771D02*
X16535714Y-71133390D01*
X16535714Y-71133390D02*
X16488095Y-71181009D01*
X16488095Y-71181009D02*
X16440476Y-71276247D01*
X13704819Y-70642857D02*
X13228628Y-70976190D01*
X13704819Y-71214285D02*
X12704819Y-71214285D01*
X12704819Y-71214285D02*
X12704819Y-70833333D01*
X12704819Y-70833333D02*
X12752438Y-70738095D01*
X12752438Y-70738095D02*
X12800057Y-70690476D01*
X12800057Y-70690476D02*
X12895295Y-70642857D01*
X12895295Y-70642857D02*
X13038152Y-70642857D01*
X13038152Y-70642857D02*
X13133390Y-70690476D01*
X13133390Y-70690476D02*
X13181009Y-70738095D01*
X13181009Y-70738095D02*
X13228628Y-70833333D01*
X13228628Y-70833333D02*
X13228628Y-71214285D01*
X12704819Y-70309523D02*
X12704819Y-69690476D01*
X12704819Y-69690476D02*
X13085771Y-70023809D01*
X13085771Y-70023809D02*
X13085771Y-69880952D01*
X13085771Y-69880952D02*
X13133390Y-69785714D01*
X13133390Y-69785714D02*
X13181009Y-69738095D01*
X13181009Y-69738095D02*
X13276247Y-69690476D01*
X13276247Y-69690476D02*
X13514342Y-69690476D01*
X13514342Y-69690476D02*
X13609580Y-69738095D01*
X13609580Y-69738095D02*
X13657200Y-69785714D01*
X13657200Y-69785714D02*
X13704819Y-69880952D01*
X13704819Y-69880952D02*
X13704819Y-70166666D01*
X13704819Y-70166666D02*
X13657200Y-70261904D01*
X13657200Y-70261904D02*
X13609580Y-70309523D01*
X12704819Y-69071428D02*
X12704819Y-68976190D01*
X12704819Y-68976190D02*
X12752438Y-68880952D01*
X12752438Y-68880952D02*
X12800057Y-68833333D01*
X12800057Y-68833333D02*
X12895295Y-68785714D01*
X12895295Y-68785714D02*
X13085771Y-68738095D01*
X13085771Y-68738095D02*
X13323866Y-68738095D01*
X13323866Y-68738095D02*
X13514342Y-68785714D01*
X13514342Y-68785714D02*
X13609580Y-68833333D01*
X13609580Y-68833333D02*
X13657200Y-68880952D01*
X13657200Y-68880952D02*
X13704819Y-68976190D01*
X13704819Y-68976190D02*
X13704819Y-69071428D01*
X13704819Y-69071428D02*
X13657200Y-69166666D01*
X13657200Y-69166666D02*
X13609580Y-69214285D01*
X13609580Y-69214285D02*
X13514342Y-69261904D01*
X13514342Y-69261904D02*
X13323866Y-69309523D01*
X13323866Y-69309523D02*
X13085771Y-69309523D01*
X13085771Y-69309523D02*
X12895295Y-69261904D01*
X12895295Y-69261904D02*
X12800057Y-69214285D01*
X12800057Y-69214285D02*
X12752438Y-69166666D01*
X12752438Y-69166666D02*
X12704819Y-69071428D01*
X25454819Y-55488094D02*
X24454819Y-55488094D01*
X24454819Y-55488094D02*
X24454819Y-55249999D01*
X24454819Y-55249999D02*
X24502438Y-55107142D01*
X24502438Y-55107142D02*
X24597676Y-55011904D01*
X24597676Y-55011904D02*
X24692914Y-54964285D01*
X24692914Y-54964285D02*
X24883390Y-54916666D01*
X24883390Y-54916666D02*
X25026247Y-54916666D01*
X25026247Y-54916666D02*
X25216723Y-54964285D01*
X25216723Y-54964285D02*
X25311961Y-55011904D01*
X25311961Y-55011904D02*
X25407200Y-55107142D01*
X25407200Y-55107142D02*
X25454819Y-55249999D01*
X25454819Y-55249999D02*
X25454819Y-55488094D01*
X24454819Y-54011904D02*
X24454819Y-54488094D01*
X24454819Y-54488094D02*
X24931009Y-54535713D01*
X24931009Y-54535713D02*
X24883390Y-54488094D01*
X24883390Y-54488094D02*
X24835771Y-54392856D01*
X24835771Y-54392856D02*
X24835771Y-54154761D01*
X24835771Y-54154761D02*
X24883390Y-54059523D01*
X24883390Y-54059523D02*
X24931009Y-54011904D01*
X24931009Y-54011904D02*
X25026247Y-53964285D01*
X25026247Y-53964285D02*
X25264342Y-53964285D01*
X25264342Y-53964285D02*
X25359580Y-54011904D01*
X25359580Y-54011904D02*
X25407200Y-54059523D01*
X25407200Y-54059523D02*
X25454819Y-54154761D01*
X25454819Y-54154761D02*
X25454819Y-54392856D01*
X25454819Y-54392856D02*
X25407200Y-54488094D01*
X25407200Y-54488094D02*
X25359580Y-54535713D01*
X26857142Y-72204819D02*
X26523809Y-71728628D01*
X26285714Y-72204819D02*
X26285714Y-71204819D01*
X26285714Y-71204819D02*
X26666666Y-71204819D01*
X26666666Y-71204819D02*
X26761904Y-71252438D01*
X26761904Y-71252438D02*
X26809523Y-71300057D01*
X26809523Y-71300057D02*
X26857142Y-71395295D01*
X26857142Y-71395295D02*
X26857142Y-71538152D01*
X26857142Y-71538152D02*
X26809523Y-71633390D01*
X26809523Y-71633390D02*
X26761904Y-71681009D01*
X26761904Y-71681009D02*
X26666666Y-71728628D01*
X26666666Y-71728628D02*
X26285714Y-71728628D01*
X27190476Y-71204819D02*
X27809523Y-71204819D01*
X27809523Y-71204819D02*
X27476190Y-71585771D01*
X27476190Y-71585771D02*
X27619047Y-71585771D01*
X27619047Y-71585771D02*
X27714285Y-71633390D01*
X27714285Y-71633390D02*
X27761904Y-71681009D01*
X27761904Y-71681009D02*
X27809523Y-71776247D01*
X27809523Y-71776247D02*
X27809523Y-72014342D01*
X27809523Y-72014342D02*
X27761904Y-72109580D01*
X27761904Y-72109580D02*
X27714285Y-72157200D01*
X27714285Y-72157200D02*
X27619047Y-72204819D01*
X27619047Y-72204819D02*
X27333333Y-72204819D01*
X27333333Y-72204819D02*
X27238095Y-72157200D01*
X27238095Y-72157200D02*
X27190476Y-72109580D01*
X28142857Y-71204819D02*
X28761904Y-71204819D01*
X28761904Y-71204819D02*
X28428571Y-71585771D01*
X28428571Y-71585771D02*
X28571428Y-71585771D01*
X28571428Y-71585771D02*
X28666666Y-71633390D01*
X28666666Y-71633390D02*
X28714285Y-71681009D01*
X28714285Y-71681009D02*
X28761904Y-71776247D01*
X28761904Y-71776247D02*
X28761904Y-72014342D01*
X28761904Y-72014342D02*
X28714285Y-72109580D01*
X28714285Y-72109580D02*
X28666666Y-72157200D01*
X28666666Y-72157200D02*
X28571428Y-72204819D01*
X28571428Y-72204819D02*
X28285714Y-72204819D01*
X28285714Y-72204819D02*
X28190476Y-72157200D01*
X28190476Y-72157200D02*
X28142857Y-72109580D01*
X19738095Y-8704819D02*
X19738095Y-9514342D01*
X19738095Y-9514342D02*
X19785714Y-9609580D01*
X19785714Y-9609580D02*
X19833333Y-9657200D01*
X19833333Y-9657200D02*
X19928571Y-9704819D01*
X19928571Y-9704819D02*
X20119047Y-9704819D01*
X20119047Y-9704819D02*
X20214285Y-9657200D01*
X20214285Y-9657200D02*
X20261904Y-9609580D01*
X20261904Y-9609580D02*
X20309523Y-9514342D01*
X20309523Y-9514342D02*
X20309523Y-8704819D01*
X21309523Y-9704819D02*
X20738095Y-9704819D01*
X21023809Y-9704819D02*
X21023809Y-8704819D01*
X21023809Y-8704819D02*
X20928571Y-8847676D01*
X20928571Y-8847676D02*
X20833333Y-8942914D01*
X20833333Y-8942914D02*
X20738095Y-8990533D01*
X25454819Y-31488094D02*
X24454819Y-31488094D01*
X24454819Y-31488094D02*
X24454819Y-31249999D01*
X24454819Y-31249999D02*
X24502438Y-31107142D01*
X24502438Y-31107142D02*
X24597676Y-31011904D01*
X24597676Y-31011904D02*
X24692914Y-30964285D01*
X24692914Y-30964285D02*
X24883390Y-30916666D01*
X24883390Y-30916666D02*
X25026247Y-30916666D01*
X25026247Y-30916666D02*
X25216723Y-30964285D01*
X25216723Y-30964285D02*
X25311961Y-31011904D01*
X25311961Y-31011904D02*
X25407200Y-31107142D01*
X25407200Y-31107142D02*
X25454819Y-31249999D01*
X25454819Y-31249999D02*
X25454819Y-31488094D01*
X24788152Y-30059523D02*
X25454819Y-30059523D01*
X24407200Y-30297618D02*
X25121485Y-30535713D01*
X25121485Y-30535713D02*
X25121485Y-29916666D01*
X15107142Y-73359580D02*
X15059523Y-73407200D01*
X15059523Y-73407200D02*
X14916666Y-73454819D01*
X14916666Y-73454819D02*
X14821428Y-73454819D01*
X14821428Y-73454819D02*
X14678571Y-73407200D01*
X14678571Y-73407200D02*
X14583333Y-73311961D01*
X14583333Y-73311961D02*
X14535714Y-73216723D01*
X14535714Y-73216723D02*
X14488095Y-73026247D01*
X14488095Y-73026247D02*
X14488095Y-72883390D01*
X14488095Y-72883390D02*
X14535714Y-72692914D01*
X14535714Y-72692914D02*
X14583333Y-72597676D01*
X14583333Y-72597676D02*
X14678571Y-72502438D01*
X14678571Y-72502438D02*
X14821428Y-72454819D01*
X14821428Y-72454819D02*
X14916666Y-72454819D01*
X14916666Y-72454819D02*
X15059523Y-72502438D01*
X15059523Y-72502438D02*
X15107142Y-72550057D01*
X16059523Y-73454819D02*
X15488095Y-73454819D01*
X15773809Y-73454819D02*
X15773809Y-72454819D01*
X15773809Y-72454819D02*
X15678571Y-72597676D01*
X15678571Y-72597676D02*
X15583333Y-72692914D01*
X15583333Y-72692914D02*
X15488095Y-72740533D01*
X16392857Y-72454819D02*
X17011904Y-72454819D01*
X17011904Y-72454819D02*
X16678571Y-72835771D01*
X16678571Y-72835771D02*
X16821428Y-72835771D01*
X16821428Y-72835771D02*
X16916666Y-72883390D01*
X16916666Y-72883390D02*
X16964285Y-72931009D01*
X16964285Y-72931009D02*
X17011904Y-73026247D01*
X17011904Y-73026247D02*
X17011904Y-73264342D01*
X17011904Y-73264342D02*
X16964285Y-73359580D01*
X16964285Y-73359580D02*
X16916666Y-73407200D01*
X16916666Y-73407200D02*
X16821428Y-73454819D01*
X16821428Y-73454819D02*
X16535714Y-73454819D01*
X16535714Y-73454819D02*
X16440476Y-73407200D01*
X16440476Y-73407200D02*
X16392857Y-73359580D01*
X25454819Y-51666666D02*
X24978628Y-51999999D01*
X25454819Y-52238094D02*
X24454819Y-52238094D01*
X24454819Y-52238094D02*
X24454819Y-51857142D01*
X24454819Y-51857142D02*
X24502438Y-51761904D01*
X24502438Y-51761904D02*
X24550057Y-51714285D01*
X24550057Y-51714285D02*
X24645295Y-51666666D01*
X24645295Y-51666666D02*
X24788152Y-51666666D01*
X24788152Y-51666666D02*
X24883390Y-51714285D01*
X24883390Y-51714285D02*
X24931009Y-51761904D01*
X24931009Y-51761904D02*
X24978628Y-51857142D01*
X24978628Y-51857142D02*
X24978628Y-52238094D01*
X24883390Y-51095237D02*
X24835771Y-51190475D01*
X24835771Y-51190475D02*
X24788152Y-51238094D01*
X24788152Y-51238094D02*
X24692914Y-51285713D01*
X24692914Y-51285713D02*
X24645295Y-51285713D01*
X24645295Y-51285713D02*
X24550057Y-51238094D01*
X24550057Y-51238094D02*
X24502438Y-51190475D01*
X24502438Y-51190475D02*
X24454819Y-51095237D01*
X24454819Y-51095237D02*
X24454819Y-50904761D01*
X24454819Y-50904761D02*
X24502438Y-50809523D01*
X24502438Y-50809523D02*
X24550057Y-50761904D01*
X24550057Y-50761904D02*
X24645295Y-50714285D01*
X24645295Y-50714285D02*
X24692914Y-50714285D01*
X24692914Y-50714285D02*
X24788152Y-50761904D01*
X24788152Y-50761904D02*
X24835771Y-50809523D01*
X24835771Y-50809523D02*
X24883390Y-50904761D01*
X24883390Y-50904761D02*
X24883390Y-51095237D01*
X24883390Y-51095237D02*
X24931009Y-51190475D01*
X24931009Y-51190475D02*
X24978628Y-51238094D01*
X24978628Y-51238094D02*
X25073866Y-51285713D01*
X25073866Y-51285713D02*
X25264342Y-51285713D01*
X25264342Y-51285713D02*
X25359580Y-51238094D01*
X25359580Y-51238094D02*
X25407200Y-51190475D01*
X25407200Y-51190475D02*
X25454819Y-51095237D01*
X25454819Y-51095237D02*
X25454819Y-50904761D01*
X25454819Y-50904761D02*
X25407200Y-50809523D01*
X25407200Y-50809523D02*
X25359580Y-50761904D01*
X25359580Y-50761904D02*
X25264342Y-50714285D01*
X25264342Y-50714285D02*
X25073866Y-50714285D01*
X25073866Y-50714285D02*
X24978628Y-50761904D01*
X24978628Y-50761904D02*
X24931009Y-50809523D01*
X24931009Y-50809523D02*
X24883390Y-50904761D01*
X15050057Y-51845238D02*
X15002438Y-51940476D01*
X15002438Y-51940476D02*
X14907200Y-52035714D01*
X14907200Y-52035714D02*
X14764342Y-52178571D01*
X14764342Y-52178571D02*
X14716723Y-52273809D01*
X14716723Y-52273809D02*
X14716723Y-52369047D01*
X14954819Y-52321428D02*
X14907200Y-52416666D01*
X14907200Y-52416666D02*
X14811961Y-52511904D01*
X14811961Y-52511904D02*
X14621485Y-52559523D01*
X14621485Y-52559523D02*
X14288152Y-52559523D01*
X14288152Y-52559523D02*
X14097676Y-52511904D01*
X14097676Y-52511904D02*
X14002438Y-52416666D01*
X14002438Y-52416666D02*
X13954819Y-52321428D01*
X13954819Y-52321428D02*
X13954819Y-52130952D01*
X13954819Y-52130952D02*
X14002438Y-52035714D01*
X14002438Y-52035714D02*
X14097676Y-51940476D01*
X14097676Y-51940476D02*
X14288152Y-51892857D01*
X14288152Y-51892857D02*
X14621485Y-51892857D01*
X14621485Y-51892857D02*
X14811961Y-51940476D01*
X14811961Y-51940476D02*
X14907200Y-52035714D01*
X14907200Y-52035714D02*
X14954819Y-52130952D01*
X14954819Y-52130952D02*
X14954819Y-52321428D01*
X14050057Y-51511904D02*
X14002438Y-51464285D01*
X14002438Y-51464285D02*
X13954819Y-51369047D01*
X13954819Y-51369047D02*
X13954819Y-51130952D01*
X13954819Y-51130952D02*
X14002438Y-51035714D01*
X14002438Y-51035714D02*
X14050057Y-50988095D01*
X14050057Y-50988095D02*
X14145295Y-50940476D01*
X14145295Y-50940476D02*
X14240533Y-50940476D01*
X14240533Y-50940476D02*
X14383390Y-50988095D01*
X14383390Y-50988095D02*
X14954819Y-51559523D01*
X14954819Y-51559523D02*
X14954819Y-50940476D01*
X15107142Y-23609580D02*
X15059523Y-23657200D01*
X15059523Y-23657200D02*
X14916666Y-23704819D01*
X14916666Y-23704819D02*
X14821428Y-23704819D01*
X14821428Y-23704819D02*
X14678571Y-23657200D01*
X14678571Y-23657200D02*
X14583333Y-23561961D01*
X14583333Y-23561961D02*
X14535714Y-23466723D01*
X14535714Y-23466723D02*
X14488095Y-23276247D01*
X14488095Y-23276247D02*
X14488095Y-23133390D01*
X14488095Y-23133390D02*
X14535714Y-22942914D01*
X14535714Y-22942914D02*
X14583333Y-22847676D01*
X14583333Y-22847676D02*
X14678571Y-22752438D01*
X14678571Y-22752438D02*
X14821428Y-22704819D01*
X14821428Y-22704819D02*
X14916666Y-22704819D01*
X14916666Y-22704819D02*
X15059523Y-22752438D01*
X15059523Y-22752438D02*
X15107142Y-22800057D01*
X16059523Y-23704819D02*
X15488095Y-23704819D01*
X15773809Y-23704819D02*
X15773809Y-22704819D01*
X15773809Y-22704819D02*
X15678571Y-22847676D01*
X15678571Y-22847676D02*
X15583333Y-22942914D01*
X15583333Y-22942914D02*
X15488095Y-22990533D01*
X16916666Y-23038152D02*
X16916666Y-23704819D01*
X16678571Y-22657200D02*
X16440476Y-23371485D01*
X16440476Y-23371485D02*
X17059523Y-23371485D01*
X22454819Y-53488094D02*
X21454819Y-53488094D01*
X21454819Y-53488094D02*
X21454819Y-53249999D01*
X21454819Y-53249999D02*
X21502438Y-53107142D01*
X21502438Y-53107142D02*
X21597676Y-53011904D01*
X21597676Y-53011904D02*
X21692914Y-52964285D01*
X21692914Y-52964285D02*
X21883390Y-52916666D01*
X21883390Y-52916666D02*
X22026247Y-52916666D01*
X22026247Y-52916666D02*
X22216723Y-52964285D01*
X22216723Y-52964285D02*
X22311961Y-53011904D01*
X22311961Y-53011904D02*
X22407200Y-53107142D01*
X22407200Y-53107142D02*
X22454819Y-53249999D01*
X22454819Y-53249999D02*
X22454819Y-53488094D01*
X21550057Y-52535713D02*
X21502438Y-52488094D01*
X21502438Y-52488094D02*
X21454819Y-52392856D01*
X21454819Y-52392856D02*
X21454819Y-52154761D01*
X21454819Y-52154761D02*
X21502438Y-52059523D01*
X21502438Y-52059523D02*
X21550057Y-52011904D01*
X21550057Y-52011904D02*
X21645295Y-51964285D01*
X21645295Y-51964285D02*
X21740533Y-51964285D01*
X21740533Y-51964285D02*
X21883390Y-52011904D01*
X21883390Y-52011904D02*
X22454819Y-52583332D01*
X22454819Y-52583332D02*
X22454819Y-51964285D01*
X9954819Y-19333333D02*
X10669104Y-19333333D01*
X10669104Y-19333333D02*
X10811961Y-19380952D01*
X10811961Y-19380952D02*
X10907200Y-19476190D01*
X10907200Y-19476190D02*
X10954819Y-19619047D01*
X10954819Y-19619047D02*
X10954819Y-19714285D01*
X10288152Y-18428571D02*
X10954819Y-18428571D01*
X9907200Y-18666666D02*
X10621485Y-18904761D01*
X10621485Y-18904761D02*
X10621485Y-18285714D01*
X9954819Y-67333333D02*
X10669104Y-67333333D01*
X10669104Y-67333333D02*
X10811961Y-67380952D01*
X10811961Y-67380952D02*
X10907200Y-67476190D01*
X10907200Y-67476190D02*
X10954819Y-67619047D01*
X10954819Y-67619047D02*
X10954819Y-67714285D01*
X9954819Y-66428571D02*
X9954819Y-66619047D01*
X9954819Y-66619047D02*
X10002438Y-66714285D01*
X10002438Y-66714285D02*
X10050057Y-66761904D01*
X10050057Y-66761904D02*
X10192914Y-66857142D01*
X10192914Y-66857142D02*
X10383390Y-66904761D01*
X10383390Y-66904761D02*
X10764342Y-66904761D01*
X10764342Y-66904761D02*
X10859580Y-66857142D01*
X10859580Y-66857142D02*
X10907200Y-66809523D01*
X10907200Y-66809523D02*
X10954819Y-66714285D01*
X10954819Y-66714285D02*
X10954819Y-66523809D01*
X10954819Y-66523809D02*
X10907200Y-66428571D01*
X10907200Y-66428571D02*
X10859580Y-66380952D01*
X10859580Y-66380952D02*
X10764342Y-66333333D01*
X10764342Y-66333333D02*
X10526247Y-66333333D01*
X10526247Y-66333333D02*
X10431009Y-66380952D01*
X10431009Y-66380952D02*
X10383390Y-66428571D01*
X10383390Y-66428571D02*
X10335771Y-66523809D01*
X10335771Y-66523809D02*
X10335771Y-66714285D01*
X10335771Y-66714285D02*
X10383390Y-66809523D01*
X10383390Y-66809523D02*
X10431009Y-66857142D01*
X10431009Y-66857142D02*
X10526247Y-66904761D01*
X11261905Y-9704819D02*
X11261905Y-8704819D01*
X11261905Y-8704819D02*
X11500000Y-8704819D01*
X11500000Y-8704819D02*
X11642857Y-8752438D01*
X11642857Y-8752438D02*
X11738095Y-8847676D01*
X11738095Y-8847676D02*
X11785714Y-8942914D01*
X11785714Y-8942914D02*
X11833333Y-9133390D01*
X11833333Y-9133390D02*
X11833333Y-9276247D01*
X11833333Y-9276247D02*
X11785714Y-9466723D01*
X11785714Y-9466723D02*
X11738095Y-9561961D01*
X11738095Y-9561961D02*
X11642857Y-9657200D01*
X11642857Y-9657200D02*
X11500000Y-9704819D01*
X11500000Y-9704819D02*
X11261905Y-9704819D01*
X12166667Y-8704819D02*
X12833333Y-8704819D01*
X12833333Y-8704819D02*
X12404762Y-9704819D01*
X27454819Y-21392857D02*
X26978628Y-21726190D01*
X27454819Y-21964285D02*
X26454819Y-21964285D01*
X26454819Y-21964285D02*
X26454819Y-21583333D01*
X26454819Y-21583333D02*
X26502438Y-21488095D01*
X26502438Y-21488095D02*
X26550057Y-21440476D01*
X26550057Y-21440476D02*
X26645295Y-21392857D01*
X26645295Y-21392857D02*
X26788152Y-21392857D01*
X26788152Y-21392857D02*
X26883390Y-21440476D01*
X26883390Y-21440476D02*
X26931009Y-21488095D01*
X26931009Y-21488095D02*
X26978628Y-21583333D01*
X26978628Y-21583333D02*
X26978628Y-21964285D01*
X26550057Y-21011904D02*
X26502438Y-20964285D01*
X26502438Y-20964285D02*
X26454819Y-20869047D01*
X26454819Y-20869047D02*
X26454819Y-20630952D01*
X26454819Y-20630952D02*
X26502438Y-20535714D01*
X26502438Y-20535714D02*
X26550057Y-20488095D01*
X26550057Y-20488095D02*
X26645295Y-20440476D01*
X26645295Y-20440476D02*
X26740533Y-20440476D01*
X26740533Y-20440476D02*
X26883390Y-20488095D01*
X26883390Y-20488095D02*
X27454819Y-21059523D01*
X27454819Y-21059523D02*
X27454819Y-20440476D01*
X26454819Y-19535714D02*
X26454819Y-20011904D01*
X26454819Y-20011904D02*
X26931009Y-20059523D01*
X26931009Y-20059523D02*
X26883390Y-20011904D01*
X26883390Y-20011904D02*
X26835771Y-19916666D01*
X26835771Y-19916666D02*
X26835771Y-19678571D01*
X26835771Y-19678571D02*
X26883390Y-19583333D01*
X26883390Y-19583333D02*
X26931009Y-19535714D01*
X26931009Y-19535714D02*
X27026247Y-19488095D01*
X27026247Y-19488095D02*
X27264342Y-19488095D01*
X27264342Y-19488095D02*
X27359580Y-19535714D01*
X27359580Y-19535714D02*
X27407200Y-19583333D01*
X27407200Y-19583333D02*
X27454819Y-19678571D01*
X27454819Y-19678571D02*
X27454819Y-19916666D01*
X27454819Y-19916666D02*
X27407200Y-20011904D01*
X27407200Y-20011904D02*
X27359580Y-20059523D01*
X13181009Y-28083333D02*
X13181009Y-28416666D01*
X13704819Y-28416666D02*
X12704819Y-28416666D01*
X12704819Y-28416666D02*
X12704819Y-27940476D01*
X13704819Y-27035714D02*
X13704819Y-27607142D01*
X13704819Y-27321428D02*
X12704819Y-27321428D01*
X12704819Y-27321428D02*
X12847676Y-27416666D01*
X12847676Y-27416666D02*
X12942914Y-27511904D01*
X12942914Y-27511904D02*
X12990533Y-27607142D01*
X18359580Y-57142857D02*
X18407200Y-57190476D01*
X18407200Y-57190476D02*
X18454819Y-57333333D01*
X18454819Y-57333333D02*
X18454819Y-57428571D01*
X18454819Y-57428571D02*
X18407200Y-57571428D01*
X18407200Y-57571428D02*
X18311961Y-57666666D01*
X18311961Y-57666666D02*
X18216723Y-57714285D01*
X18216723Y-57714285D02*
X18026247Y-57761904D01*
X18026247Y-57761904D02*
X17883390Y-57761904D01*
X17883390Y-57761904D02*
X17692914Y-57714285D01*
X17692914Y-57714285D02*
X17597676Y-57666666D01*
X17597676Y-57666666D02*
X17502438Y-57571428D01*
X17502438Y-57571428D02*
X17454819Y-57428571D01*
X17454819Y-57428571D02*
X17454819Y-57333333D01*
X17454819Y-57333333D02*
X17502438Y-57190476D01*
X17502438Y-57190476D02*
X17550057Y-57142857D01*
X18454819Y-56190476D02*
X18454819Y-56761904D01*
X18454819Y-56476190D02*
X17454819Y-56476190D01*
X17454819Y-56476190D02*
X17597676Y-56571428D01*
X17597676Y-56571428D02*
X17692914Y-56666666D01*
X17692914Y-56666666D02*
X17740533Y-56761904D01*
X17454819Y-55571428D02*
X17454819Y-55476190D01*
X17454819Y-55476190D02*
X17502438Y-55380952D01*
X17502438Y-55380952D02*
X17550057Y-55333333D01*
X17550057Y-55333333D02*
X17645295Y-55285714D01*
X17645295Y-55285714D02*
X17835771Y-55238095D01*
X17835771Y-55238095D02*
X18073866Y-55238095D01*
X18073866Y-55238095D02*
X18264342Y-55285714D01*
X18264342Y-55285714D02*
X18359580Y-55333333D01*
X18359580Y-55333333D02*
X18407200Y-55380952D01*
X18407200Y-55380952D02*
X18454819Y-55476190D01*
X18454819Y-55476190D02*
X18454819Y-55571428D01*
X18454819Y-55571428D02*
X18407200Y-55666666D01*
X18407200Y-55666666D02*
X18359580Y-55714285D01*
X18359580Y-55714285D02*
X18264342Y-55761904D01*
X18264342Y-55761904D02*
X18073866Y-55809523D01*
X18073866Y-55809523D02*
X17835771Y-55809523D01*
X17835771Y-55809523D02*
X17645295Y-55761904D01*
X17645295Y-55761904D02*
X17550057Y-55714285D01*
X17550057Y-55714285D02*
X17502438Y-55666666D01*
X17502438Y-55666666D02*
X17454819Y-55571428D01*
X15050057Y-75845238D02*
X15002438Y-75940476D01*
X15002438Y-75940476D02*
X14907200Y-76035714D01*
X14907200Y-76035714D02*
X14764342Y-76178571D01*
X14764342Y-76178571D02*
X14716723Y-76273809D01*
X14716723Y-76273809D02*
X14716723Y-76369047D01*
X14954819Y-76321428D02*
X14907200Y-76416666D01*
X14907200Y-76416666D02*
X14811961Y-76511904D01*
X14811961Y-76511904D02*
X14621485Y-76559523D01*
X14621485Y-76559523D02*
X14288152Y-76559523D01*
X14288152Y-76559523D02*
X14097676Y-76511904D01*
X14097676Y-76511904D02*
X14002438Y-76416666D01*
X14002438Y-76416666D02*
X13954819Y-76321428D01*
X13954819Y-76321428D02*
X13954819Y-76130952D01*
X13954819Y-76130952D02*
X14002438Y-76035714D01*
X14002438Y-76035714D02*
X14097676Y-75940476D01*
X14097676Y-75940476D02*
X14288152Y-75892857D01*
X14288152Y-75892857D02*
X14621485Y-75892857D01*
X14621485Y-75892857D02*
X14811961Y-75940476D01*
X14811961Y-75940476D02*
X14907200Y-76035714D01*
X14907200Y-76035714D02*
X14954819Y-76130952D01*
X14954819Y-76130952D02*
X14954819Y-76321428D01*
X13954819Y-75559523D02*
X13954819Y-74940476D01*
X13954819Y-74940476D02*
X14335771Y-75273809D01*
X14335771Y-75273809D02*
X14335771Y-75130952D01*
X14335771Y-75130952D02*
X14383390Y-75035714D01*
X14383390Y-75035714D02*
X14431009Y-74988095D01*
X14431009Y-74988095D02*
X14526247Y-74940476D01*
X14526247Y-74940476D02*
X14764342Y-74940476D01*
X14764342Y-74940476D02*
X14859580Y-74988095D01*
X14859580Y-74988095D02*
X14907200Y-75035714D01*
X14907200Y-75035714D02*
X14954819Y-75130952D01*
X14954819Y-75130952D02*
X14954819Y-75416666D01*
X14954819Y-75416666D02*
X14907200Y-75511904D01*
X14907200Y-75511904D02*
X14859580Y-75559523D01*
X15050057Y-27845238D02*
X15002438Y-27940476D01*
X15002438Y-27940476D02*
X14907200Y-28035714D01*
X14907200Y-28035714D02*
X14764342Y-28178571D01*
X14764342Y-28178571D02*
X14716723Y-28273809D01*
X14716723Y-28273809D02*
X14716723Y-28369047D01*
X14954819Y-28321428D02*
X14907200Y-28416666D01*
X14907200Y-28416666D02*
X14811961Y-28511904D01*
X14811961Y-28511904D02*
X14621485Y-28559523D01*
X14621485Y-28559523D02*
X14288152Y-28559523D01*
X14288152Y-28559523D02*
X14097676Y-28511904D01*
X14097676Y-28511904D02*
X14002438Y-28416666D01*
X14002438Y-28416666D02*
X13954819Y-28321428D01*
X13954819Y-28321428D02*
X13954819Y-28130952D01*
X13954819Y-28130952D02*
X14002438Y-28035714D01*
X14002438Y-28035714D02*
X14097676Y-27940476D01*
X14097676Y-27940476D02*
X14288152Y-27892857D01*
X14288152Y-27892857D02*
X14621485Y-27892857D01*
X14621485Y-27892857D02*
X14811961Y-27940476D01*
X14811961Y-27940476D02*
X14907200Y-28035714D01*
X14907200Y-28035714D02*
X14954819Y-28130952D01*
X14954819Y-28130952D02*
X14954819Y-28321428D01*
X14954819Y-26940476D02*
X14954819Y-27511904D01*
X14954819Y-27226190D02*
X13954819Y-27226190D01*
X13954819Y-27226190D02*
X14097676Y-27321428D01*
X14097676Y-27321428D02*
X14192914Y-27416666D01*
X14192914Y-27416666D02*
X14240533Y-27511904D01*
X25454819Y-27666666D02*
X24978628Y-27999999D01*
X25454819Y-28238094D02*
X24454819Y-28238094D01*
X24454819Y-28238094D02*
X24454819Y-27857142D01*
X24454819Y-27857142D02*
X24502438Y-27761904D01*
X24502438Y-27761904D02*
X24550057Y-27714285D01*
X24550057Y-27714285D02*
X24645295Y-27666666D01*
X24645295Y-27666666D02*
X24788152Y-27666666D01*
X24788152Y-27666666D02*
X24883390Y-27714285D01*
X24883390Y-27714285D02*
X24931009Y-27761904D01*
X24931009Y-27761904D02*
X24978628Y-27857142D01*
X24978628Y-27857142D02*
X24978628Y-28238094D01*
X24454819Y-27333332D02*
X24454819Y-26666666D01*
X24454819Y-26666666D02*
X25454819Y-27095237D01*
X14609580Y-42892857D02*
X14657200Y-42940476D01*
X14657200Y-42940476D02*
X14704819Y-43083333D01*
X14704819Y-43083333D02*
X14704819Y-43178571D01*
X14704819Y-43178571D02*
X14657200Y-43321428D01*
X14657200Y-43321428D02*
X14561961Y-43416666D01*
X14561961Y-43416666D02*
X14466723Y-43464285D01*
X14466723Y-43464285D02*
X14276247Y-43511904D01*
X14276247Y-43511904D02*
X14133390Y-43511904D01*
X14133390Y-43511904D02*
X13942914Y-43464285D01*
X13942914Y-43464285D02*
X13847676Y-43416666D01*
X13847676Y-43416666D02*
X13752438Y-43321428D01*
X13752438Y-43321428D02*
X13704819Y-43178571D01*
X13704819Y-43178571D02*
X13704819Y-43083333D01*
X13704819Y-43083333D02*
X13752438Y-42940476D01*
X13752438Y-42940476D02*
X13800057Y-42892857D01*
X14704819Y-41940476D02*
X14704819Y-42511904D01*
X14704819Y-42226190D02*
X13704819Y-42226190D01*
X13704819Y-42226190D02*
X13847676Y-42321428D01*
X13847676Y-42321428D02*
X13942914Y-42416666D01*
X13942914Y-42416666D02*
X13990533Y-42511904D01*
X14133390Y-41369047D02*
X14085771Y-41464285D01*
X14085771Y-41464285D02*
X14038152Y-41511904D01*
X14038152Y-41511904D02*
X13942914Y-41559523D01*
X13942914Y-41559523D02*
X13895295Y-41559523D01*
X13895295Y-41559523D02*
X13800057Y-41511904D01*
X13800057Y-41511904D02*
X13752438Y-41464285D01*
X13752438Y-41464285D02*
X13704819Y-41369047D01*
X13704819Y-41369047D02*
X13704819Y-41178571D01*
X13704819Y-41178571D02*
X13752438Y-41083333D01*
X13752438Y-41083333D02*
X13800057Y-41035714D01*
X13800057Y-41035714D02*
X13895295Y-40988095D01*
X13895295Y-40988095D02*
X13942914Y-40988095D01*
X13942914Y-40988095D02*
X14038152Y-41035714D01*
X14038152Y-41035714D02*
X14085771Y-41083333D01*
X14085771Y-41083333D02*
X14133390Y-41178571D01*
X14133390Y-41178571D02*
X14133390Y-41369047D01*
X14133390Y-41369047D02*
X14181009Y-41464285D01*
X14181009Y-41464285D02*
X14228628Y-41511904D01*
X14228628Y-41511904D02*
X14323866Y-41559523D01*
X14323866Y-41559523D02*
X14514342Y-41559523D01*
X14514342Y-41559523D02*
X14609580Y-41511904D01*
X14609580Y-41511904D02*
X14657200Y-41464285D01*
X14657200Y-41464285D02*
X14704819Y-41369047D01*
X14704819Y-41369047D02*
X14704819Y-41178571D01*
X14704819Y-41178571D02*
X14657200Y-41083333D01*
X14657200Y-41083333D02*
X14609580Y-41035714D01*
X14609580Y-41035714D02*
X14514342Y-40988095D01*
X14514342Y-40988095D02*
X14323866Y-40988095D01*
X14323866Y-40988095D02*
X14228628Y-41035714D01*
X14228628Y-41035714D02*
X14181009Y-41083333D01*
X14181009Y-41083333D02*
X14133390Y-41178571D01*
X9954819Y-79333333D02*
X10669104Y-79333333D01*
X10669104Y-79333333D02*
X10811961Y-79380952D01*
X10811961Y-79380952D02*
X10907200Y-79476190D01*
X10907200Y-79476190D02*
X10954819Y-79619047D01*
X10954819Y-79619047D02*
X10954819Y-79714285D01*
X9954819Y-78952380D02*
X9954819Y-78333333D01*
X9954819Y-78333333D02*
X10335771Y-78666666D01*
X10335771Y-78666666D02*
X10335771Y-78523809D01*
X10335771Y-78523809D02*
X10383390Y-78428571D01*
X10383390Y-78428571D02*
X10431009Y-78380952D01*
X10431009Y-78380952D02*
X10526247Y-78333333D01*
X10526247Y-78333333D02*
X10764342Y-78333333D01*
X10764342Y-78333333D02*
X10859580Y-78380952D01*
X10859580Y-78380952D02*
X10907200Y-78428571D01*
X10907200Y-78428571D02*
X10954819Y-78523809D01*
X10954819Y-78523809D02*
X10954819Y-78809523D01*
X10954819Y-78809523D02*
X10907200Y-78904761D01*
X10907200Y-78904761D02*
X10859580Y-78952380D01*
X15954819Y-46261904D02*
X16764342Y-46261904D01*
X16764342Y-46261904D02*
X16859580Y-46214285D01*
X16859580Y-46214285D02*
X16907200Y-46166666D01*
X16907200Y-46166666D02*
X16954819Y-46071428D01*
X16954819Y-46071428D02*
X16954819Y-45880952D01*
X16954819Y-45880952D02*
X16907200Y-45785714D01*
X16907200Y-45785714D02*
X16859580Y-45738095D01*
X16859580Y-45738095D02*
X16764342Y-45690476D01*
X16764342Y-45690476D02*
X15954819Y-45690476D01*
X15954819Y-44738095D02*
X15954819Y-45214285D01*
X15954819Y-45214285D02*
X16431009Y-45261904D01*
X16431009Y-45261904D02*
X16383390Y-45214285D01*
X16383390Y-45214285D02*
X16335771Y-45119047D01*
X16335771Y-45119047D02*
X16335771Y-44880952D01*
X16335771Y-44880952D02*
X16383390Y-44785714D01*
X16383390Y-44785714D02*
X16431009Y-44738095D01*
X16431009Y-44738095D02*
X16526247Y-44690476D01*
X16526247Y-44690476D02*
X16764342Y-44690476D01*
X16764342Y-44690476D02*
X16859580Y-44738095D01*
X16859580Y-44738095D02*
X16907200Y-44785714D01*
X16907200Y-44785714D02*
X16954819Y-44880952D01*
X16954819Y-44880952D02*
X16954819Y-45119047D01*
X16954819Y-45119047D02*
X16907200Y-45214285D01*
X16907200Y-45214285D02*
X16859580Y-45261904D01*
X12954819Y-18892857D02*
X12478628Y-19226190D01*
X12954819Y-19464285D02*
X11954819Y-19464285D01*
X11954819Y-19464285D02*
X11954819Y-19083333D01*
X11954819Y-19083333D02*
X12002438Y-18988095D01*
X12002438Y-18988095D02*
X12050057Y-18940476D01*
X12050057Y-18940476D02*
X12145295Y-18892857D01*
X12145295Y-18892857D02*
X12288152Y-18892857D01*
X12288152Y-18892857D02*
X12383390Y-18940476D01*
X12383390Y-18940476D02*
X12431009Y-18988095D01*
X12431009Y-18988095D02*
X12478628Y-19083333D01*
X12478628Y-19083333D02*
X12478628Y-19464285D01*
X11954819Y-18559523D02*
X11954819Y-17940476D01*
X11954819Y-17940476D02*
X12335771Y-18273809D01*
X12335771Y-18273809D02*
X12335771Y-18130952D01*
X12335771Y-18130952D02*
X12383390Y-18035714D01*
X12383390Y-18035714D02*
X12431009Y-17988095D01*
X12431009Y-17988095D02*
X12526247Y-17940476D01*
X12526247Y-17940476D02*
X12764342Y-17940476D01*
X12764342Y-17940476D02*
X12859580Y-17988095D01*
X12859580Y-17988095D02*
X12907200Y-18035714D01*
X12907200Y-18035714D02*
X12954819Y-18130952D01*
X12954819Y-18130952D02*
X12954819Y-18416666D01*
X12954819Y-18416666D02*
X12907200Y-18511904D01*
X12907200Y-18511904D02*
X12859580Y-18559523D01*
X12288152Y-17083333D02*
X12954819Y-17083333D01*
X11907200Y-17321428D02*
X12621485Y-17559523D01*
X12621485Y-17559523D02*
X12621485Y-16940476D01*
X14333333Y-54954819D02*
X14000000Y-54478628D01*
X13761905Y-54954819D02*
X13761905Y-53954819D01*
X13761905Y-53954819D02*
X14142857Y-53954819D01*
X14142857Y-53954819D02*
X14238095Y-54002438D01*
X14238095Y-54002438D02*
X14285714Y-54050057D01*
X14285714Y-54050057D02*
X14333333Y-54145295D01*
X14333333Y-54145295D02*
X14333333Y-54288152D01*
X14333333Y-54288152D02*
X14285714Y-54383390D01*
X14285714Y-54383390D02*
X14238095Y-54431009D01*
X14238095Y-54431009D02*
X14142857Y-54478628D01*
X14142857Y-54478628D02*
X13761905Y-54478628D01*
X15238095Y-53954819D02*
X14761905Y-53954819D01*
X14761905Y-53954819D02*
X14714286Y-54431009D01*
X14714286Y-54431009D02*
X14761905Y-54383390D01*
X14761905Y-54383390D02*
X14857143Y-54335771D01*
X14857143Y-54335771D02*
X15095238Y-54335771D01*
X15095238Y-54335771D02*
X15190476Y-54383390D01*
X15190476Y-54383390D02*
X15238095Y-54431009D01*
X15238095Y-54431009D02*
X15285714Y-54526247D01*
X15285714Y-54526247D02*
X15285714Y-54764342D01*
X15285714Y-54764342D02*
X15238095Y-54859580D01*
X15238095Y-54859580D02*
X15190476Y-54907200D01*
X15190476Y-54907200D02*
X15095238Y-54954819D01*
X15095238Y-54954819D02*
X14857143Y-54954819D01*
X14857143Y-54954819D02*
X14761905Y-54907200D01*
X14761905Y-54907200D02*
X14714286Y-54859580D01*
X29454819Y-56666666D02*
X28978628Y-56999999D01*
X29454819Y-57238094D02*
X28454819Y-57238094D01*
X28454819Y-57238094D02*
X28454819Y-56857142D01*
X28454819Y-56857142D02*
X28502438Y-56761904D01*
X28502438Y-56761904D02*
X28550057Y-56714285D01*
X28550057Y-56714285D02*
X28645295Y-56666666D01*
X28645295Y-56666666D02*
X28788152Y-56666666D01*
X28788152Y-56666666D02*
X28883390Y-56714285D01*
X28883390Y-56714285D02*
X28931009Y-56761904D01*
X28931009Y-56761904D02*
X28978628Y-56857142D01*
X28978628Y-56857142D02*
X28978628Y-57238094D01*
X28454819Y-56333332D02*
X28454819Y-55714285D01*
X28454819Y-55714285D02*
X28835771Y-56047618D01*
X28835771Y-56047618D02*
X28835771Y-55904761D01*
X28835771Y-55904761D02*
X28883390Y-55809523D01*
X28883390Y-55809523D02*
X28931009Y-55761904D01*
X28931009Y-55761904D02*
X29026247Y-55714285D01*
X29026247Y-55714285D02*
X29264342Y-55714285D01*
X29264342Y-55714285D02*
X29359580Y-55761904D01*
X29359580Y-55761904D02*
X29407200Y-55809523D01*
X29407200Y-55809523D02*
X29454819Y-55904761D01*
X29454819Y-55904761D02*
X29454819Y-56190475D01*
X29454819Y-56190475D02*
X29407200Y-56285713D01*
X29407200Y-56285713D02*
X29359580Y-56333332D01*
X14954819Y-9142857D02*
X14478628Y-9476190D01*
X14954819Y-9714285D02*
X13954819Y-9714285D01*
X13954819Y-9714285D02*
X13954819Y-9333333D01*
X13954819Y-9333333D02*
X14002438Y-9238095D01*
X14002438Y-9238095D02*
X14050057Y-9190476D01*
X14050057Y-9190476D02*
X14145295Y-9142857D01*
X14145295Y-9142857D02*
X14288152Y-9142857D01*
X14288152Y-9142857D02*
X14383390Y-9190476D01*
X14383390Y-9190476D02*
X14431009Y-9238095D01*
X14431009Y-9238095D02*
X14478628Y-9333333D01*
X14478628Y-9333333D02*
X14478628Y-9714285D01*
X14954819Y-8190476D02*
X14954819Y-8761904D01*
X14954819Y-8476190D02*
X13954819Y-8476190D01*
X13954819Y-8476190D02*
X14097676Y-8571428D01*
X14097676Y-8571428D02*
X14192914Y-8666666D01*
X14192914Y-8666666D02*
X14240533Y-8761904D01*
X13954819Y-7333333D02*
X13954819Y-7523809D01*
X13954819Y-7523809D02*
X14002438Y-7619047D01*
X14002438Y-7619047D02*
X14050057Y-7666666D01*
X14050057Y-7666666D02*
X14192914Y-7761904D01*
X14192914Y-7761904D02*
X14383390Y-7809523D01*
X14383390Y-7809523D02*
X14764342Y-7809523D01*
X14764342Y-7809523D02*
X14859580Y-7761904D01*
X14859580Y-7761904D02*
X14907200Y-7714285D01*
X14907200Y-7714285D02*
X14954819Y-7619047D01*
X14954819Y-7619047D02*
X14954819Y-7428571D01*
X14954819Y-7428571D02*
X14907200Y-7333333D01*
X14907200Y-7333333D02*
X14859580Y-7285714D01*
X14859580Y-7285714D02*
X14764342Y-7238095D01*
X14764342Y-7238095D02*
X14526247Y-7238095D01*
X14526247Y-7238095D02*
X14431009Y-7285714D01*
X14431009Y-7285714D02*
X14383390Y-7333333D01*
X14383390Y-7333333D02*
X14335771Y-7428571D01*
X14335771Y-7428571D02*
X14335771Y-7619047D01*
X14335771Y-7619047D02*
X14383390Y-7714285D01*
X14383390Y-7714285D02*
X14431009Y-7761904D01*
X14431009Y-7761904D02*
X14526247Y-7809523D01*
X11357142Y-11204819D02*
X11023809Y-10728628D01*
X10785714Y-11204819D02*
X10785714Y-10204819D01*
X10785714Y-10204819D02*
X11166666Y-10204819D01*
X11166666Y-10204819D02*
X11261904Y-10252438D01*
X11261904Y-10252438D02*
X11309523Y-10300057D01*
X11309523Y-10300057D02*
X11357142Y-10395295D01*
X11357142Y-10395295D02*
X11357142Y-10538152D01*
X11357142Y-10538152D02*
X11309523Y-10633390D01*
X11309523Y-10633390D02*
X11261904Y-10681009D01*
X11261904Y-10681009D02*
X11166666Y-10728628D01*
X11166666Y-10728628D02*
X10785714Y-10728628D01*
X11738095Y-10300057D02*
X11785714Y-10252438D01*
X11785714Y-10252438D02*
X11880952Y-10204819D01*
X11880952Y-10204819D02*
X12119047Y-10204819D01*
X12119047Y-10204819D02*
X12214285Y-10252438D01*
X12214285Y-10252438D02*
X12261904Y-10300057D01*
X12261904Y-10300057D02*
X12309523Y-10395295D01*
X12309523Y-10395295D02*
X12309523Y-10490533D01*
X12309523Y-10490533D02*
X12261904Y-10633390D01*
X12261904Y-10633390D02*
X11690476Y-11204819D01*
X11690476Y-11204819D02*
X12309523Y-11204819D01*
X12928571Y-10204819D02*
X13023809Y-10204819D01*
X13023809Y-10204819D02*
X13119047Y-10252438D01*
X13119047Y-10252438D02*
X13166666Y-10300057D01*
X13166666Y-10300057D02*
X13214285Y-10395295D01*
X13214285Y-10395295D02*
X13261904Y-10585771D01*
X13261904Y-10585771D02*
X13261904Y-10823866D01*
X13261904Y-10823866D02*
X13214285Y-11014342D01*
X13214285Y-11014342D02*
X13166666Y-11109580D01*
X13166666Y-11109580D02*
X13119047Y-11157200D01*
X13119047Y-11157200D02*
X13023809Y-11204819D01*
X13023809Y-11204819D02*
X12928571Y-11204819D01*
X12928571Y-11204819D02*
X12833333Y-11157200D01*
X12833333Y-11157200D02*
X12785714Y-11109580D01*
X12785714Y-11109580D02*
X12738095Y-11014342D01*
X12738095Y-11014342D02*
X12690476Y-10823866D01*
X12690476Y-10823866D02*
X12690476Y-10585771D01*
X12690476Y-10585771D02*
X12738095Y-10395295D01*
X12738095Y-10395295D02*
X12785714Y-10300057D01*
X12785714Y-10300057D02*
X12833333Y-10252438D01*
X12833333Y-10252438D02*
X12928571Y-10204819D01*
X14333333Y-78954819D02*
X14000000Y-78478628D01*
X13761905Y-78954819D02*
X13761905Y-77954819D01*
X13761905Y-77954819D02*
X14142857Y-77954819D01*
X14142857Y-77954819D02*
X14238095Y-78002438D01*
X14238095Y-78002438D02*
X14285714Y-78050057D01*
X14285714Y-78050057D02*
X14333333Y-78145295D01*
X14333333Y-78145295D02*
X14333333Y-78288152D01*
X14333333Y-78288152D02*
X14285714Y-78383390D01*
X14285714Y-78383390D02*
X14238095Y-78431009D01*
X14238095Y-78431009D02*
X14142857Y-78478628D01*
X14142857Y-78478628D02*
X13761905Y-78478628D01*
X15190476Y-77954819D02*
X15000000Y-77954819D01*
X15000000Y-77954819D02*
X14904762Y-78002438D01*
X14904762Y-78002438D02*
X14857143Y-78050057D01*
X14857143Y-78050057D02*
X14761905Y-78192914D01*
X14761905Y-78192914D02*
X14714286Y-78383390D01*
X14714286Y-78383390D02*
X14714286Y-78764342D01*
X14714286Y-78764342D02*
X14761905Y-78859580D01*
X14761905Y-78859580D02*
X14809524Y-78907200D01*
X14809524Y-78907200D02*
X14904762Y-78954819D01*
X14904762Y-78954819D02*
X15095238Y-78954819D01*
X15095238Y-78954819D02*
X15190476Y-78907200D01*
X15190476Y-78907200D02*
X15238095Y-78859580D01*
X15238095Y-78859580D02*
X15285714Y-78764342D01*
X15285714Y-78764342D02*
X15285714Y-78526247D01*
X15285714Y-78526247D02*
X15238095Y-78431009D01*
X15238095Y-78431009D02*
X15190476Y-78383390D01*
X15190476Y-78383390D02*
X15095238Y-78335771D01*
X15095238Y-78335771D02*
X14904762Y-78335771D01*
X14904762Y-78335771D02*
X14809524Y-78383390D01*
X14809524Y-78383390D02*
X14761905Y-78431009D01*
X14761905Y-78431009D02*
X14714286Y-78526247D01*
X13181009Y-76083333D02*
X13181009Y-76416666D01*
X13704819Y-76416666D02*
X12704819Y-76416666D01*
X12704819Y-76416666D02*
X12704819Y-75940476D01*
X12704819Y-75654761D02*
X12704819Y-75035714D01*
X12704819Y-75035714D02*
X13085771Y-75369047D01*
X13085771Y-75369047D02*
X13085771Y-75226190D01*
X13085771Y-75226190D02*
X13133390Y-75130952D01*
X13133390Y-75130952D02*
X13181009Y-75083333D01*
X13181009Y-75083333D02*
X13276247Y-75035714D01*
X13276247Y-75035714D02*
X13514342Y-75035714D01*
X13514342Y-75035714D02*
X13609580Y-75083333D01*
X13609580Y-75083333D02*
X13657200Y-75130952D01*
X13657200Y-75130952D02*
X13704819Y-75226190D01*
X13704819Y-75226190D02*
X13704819Y-75511904D01*
X13704819Y-75511904D02*
X13657200Y-75607142D01*
X13657200Y-75607142D02*
X13609580Y-75654761D01*
X27384819Y-66142857D02*
X26908628Y-66476190D01*
X27384819Y-66714285D02*
X26384819Y-66714285D01*
X26384819Y-66714285D02*
X26384819Y-66333333D01*
X26384819Y-66333333D02*
X26432438Y-66238095D01*
X26432438Y-66238095D02*
X26480057Y-66190476D01*
X26480057Y-66190476D02*
X26575295Y-66142857D01*
X26575295Y-66142857D02*
X26718152Y-66142857D01*
X26718152Y-66142857D02*
X26813390Y-66190476D01*
X26813390Y-66190476D02*
X26861009Y-66238095D01*
X26861009Y-66238095D02*
X26908628Y-66333333D01*
X26908628Y-66333333D02*
X26908628Y-66714285D01*
X26480057Y-65761904D02*
X26432438Y-65714285D01*
X26432438Y-65714285D02*
X26384819Y-65619047D01*
X26384819Y-65619047D02*
X26384819Y-65380952D01*
X26384819Y-65380952D02*
X26432438Y-65285714D01*
X26432438Y-65285714D02*
X26480057Y-65238095D01*
X26480057Y-65238095D02*
X26575295Y-65190476D01*
X26575295Y-65190476D02*
X26670533Y-65190476D01*
X26670533Y-65190476D02*
X26813390Y-65238095D01*
X26813390Y-65238095D02*
X27384819Y-65809523D01*
X27384819Y-65809523D02*
X27384819Y-65190476D01*
X26384819Y-64857142D02*
X26384819Y-64238095D01*
X26384819Y-64238095D02*
X26765771Y-64571428D01*
X26765771Y-64571428D02*
X26765771Y-64428571D01*
X26765771Y-64428571D02*
X26813390Y-64333333D01*
X26813390Y-64333333D02*
X26861009Y-64285714D01*
X26861009Y-64285714D02*
X26956247Y-64238095D01*
X26956247Y-64238095D02*
X27194342Y-64238095D01*
X27194342Y-64238095D02*
X27289580Y-64285714D01*
X27289580Y-64285714D02*
X27337200Y-64333333D01*
X27337200Y-64333333D02*
X27384819Y-64428571D01*
X27384819Y-64428571D02*
X27384819Y-64714285D01*
X27384819Y-64714285D02*
X27337200Y-64809523D01*
X27337200Y-64809523D02*
X27289580Y-64857142D01*
X11261905Y-33704819D02*
X11261905Y-32704819D01*
X11261905Y-32704819D02*
X11500000Y-32704819D01*
X11500000Y-32704819D02*
X11642857Y-32752438D01*
X11642857Y-32752438D02*
X11738095Y-32847676D01*
X11738095Y-32847676D02*
X11785714Y-32942914D01*
X11785714Y-32942914D02*
X11833333Y-33133390D01*
X11833333Y-33133390D02*
X11833333Y-33276247D01*
X11833333Y-33276247D02*
X11785714Y-33466723D01*
X11785714Y-33466723D02*
X11738095Y-33561961D01*
X11738095Y-33561961D02*
X11642857Y-33657200D01*
X11642857Y-33657200D02*
X11500000Y-33704819D01*
X11500000Y-33704819D02*
X11261905Y-33704819D01*
X12404762Y-33133390D02*
X12309524Y-33085771D01*
X12309524Y-33085771D02*
X12261905Y-33038152D01*
X12261905Y-33038152D02*
X12214286Y-32942914D01*
X12214286Y-32942914D02*
X12214286Y-32895295D01*
X12214286Y-32895295D02*
X12261905Y-32800057D01*
X12261905Y-32800057D02*
X12309524Y-32752438D01*
X12309524Y-32752438D02*
X12404762Y-32704819D01*
X12404762Y-32704819D02*
X12595238Y-32704819D01*
X12595238Y-32704819D02*
X12690476Y-32752438D01*
X12690476Y-32752438D02*
X12738095Y-32800057D01*
X12738095Y-32800057D02*
X12785714Y-32895295D01*
X12785714Y-32895295D02*
X12785714Y-32942914D01*
X12785714Y-32942914D02*
X12738095Y-33038152D01*
X12738095Y-33038152D02*
X12690476Y-33085771D01*
X12690476Y-33085771D02*
X12595238Y-33133390D01*
X12595238Y-33133390D02*
X12404762Y-33133390D01*
X12404762Y-33133390D02*
X12309524Y-33181009D01*
X12309524Y-33181009D02*
X12261905Y-33228628D01*
X12261905Y-33228628D02*
X12214286Y-33323866D01*
X12214286Y-33323866D02*
X12214286Y-33514342D01*
X12214286Y-33514342D02*
X12261905Y-33609580D01*
X12261905Y-33609580D02*
X12309524Y-33657200D01*
X12309524Y-33657200D02*
X12404762Y-33704819D01*
X12404762Y-33704819D02*
X12595238Y-33704819D01*
X12595238Y-33704819D02*
X12690476Y-33657200D01*
X12690476Y-33657200D02*
X12738095Y-33609580D01*
X12738095Y-33609580D02*
X12785714Y-33514342D01*
X12785714Y-33514342D02*
X12785714Y-33323866D01*
X12785714Y-33323866D02*
X12738095Y-33228628D01*
X12738095Y-33228628D02*
X12690476Y-33181009D01*
X12690476Y-33181009D02*
X12595238Y-33133390D01*
X9954819Y-55333333D02*
X10669104Y-55333333D01*
X10669104Y-55333333D02*
X10811961Y-55380952D01*
X10811961Y-55380952D02*
X10907200Y-55476190D01*
X10907200Y-55476190D02*
X10954819Y-55619047D01*
X10954819Y-55619047D02*
X10954819Y-55714285D01*
X10050057Y-54904761D02*
X10002438Y-54857142D01*
X10002438Y-54857142D02*
X9954819Y-54761904D01*
X9954819Y-54761904D02*
X9954819Y-54523809D01*
X9954819Y-54523809D02*
X10002438Y-54428571D01*
X10002438Y-54428571D02*
X10050057Y-54380952D01*
X10050057Y-54380952D02*
X10145295Y-54333333D01*
X10145295Y-54333333D02*
X10240533Y-54333333D01*
X10240533Y-54333333D02*
X10383390Y-54380952D01*
X10383390Y-54380952D02*
X10954819Y-54952380D01*
X10954819Y-54952380D02*
X10954819Y-54333333D01*
X18359580Y-9166666D02*
X18407200Y-9214285D01*
X18407200Y-9214285D02*
X18454819Y-9357142D01*
X18454819Y-9357142D02*
X18454819Y-9452380D01*
X18454819Y-9452380D02*
X18407200Y-9595237D01*
X18407200Y-9595237D02*
X18311961Y-9690475D01*
X18311961Y-9690475D02*
X18216723Y-9738094D01*
X18216723Y-9738094D02*
X18026247Y-9785713D01*
X18026247Y-9785713D02*
X17883390Y-9785713D01*
X17883390Y-9785713D02*
X17692914Y-9738094D01*
X17692914Y-9738094D02*
X17597676Y-9690475D01*
X17597676Y-9690475D02*
X17502438Y-9595237D01*
X17502438Y-9595237D02*
X17454819Y-9452380D01*
X17454819Y-9452380D02*
X17454819Y-9357142D01*
X17454819Y-9357142D02*
X17502438Y-9214285D01*
X17502438Y-9214285D02*
X17550057Y-9166666D01*
X17883390Y-8595237D02*
X17835771Y-8690475D01*
X17835771Y-8690475D02*
X17788152Y-8738094D01*
X17788152Y-8738094D02*
X17692914Y-8785713D01*
X17692914Y-8785713D02*
X17645295Y-8785713D01*
X17645295Y-8785713D02*
X17550057Y-8738094D01*
X17550057Y-8738094D02*
X17502438Y-8690475D01*
X17502438Y-8690475D02*
X17454819Y-8595237D01*
X17454819Y-8595237D02*
X17454819Y-8404761D01*
X17454819Y-8404761D02*
X17502438Y-8309523D01*
X17502438Y-8309523D02*
X17550057Y-8261904D01*
X17550057Y-8261904D02*
X17645295Y-8214285D01*
X17645295Y-8214285D02*
X17692914Y-8214285D01*
X17692914Y-8214285D02*
X17788152Y-8261904D01*
X17788152Y-8261904D02*
X17835771Y-8309523D01*
X17835771Y-8309523D02*
X17883390Y-8404761D01*
X17883390Y-8404761D02*
X17883390Y-8595237D01*
X17883390Y-8595237D02*
X17931009Y-8690475D01*
X17931009Y-8690475D02*
X17978628Y-8738094D01*
X17978628Y-8738094D02*
X18073866Y-8785713D01*
X18073866Y-8785713D02*
X18264342Y-8785713D01*
X18264342Y-8785713D02*
X18359580Y-8738094D01*
X18359580Y-8738094D02*
X18407200Y-8690475D01*
X18407200Y-8690475D02*
X18454819Y-8595237D01*
X18454819Y-8595237D02*
X18454819Y-8404761D01*
X18454819Y-8404761D02*
X18407200Y-8309523D01*
X18407200Y-8309523D02*
X18359580Y-8261904D01*
X18359580Y-8261904D02*
X18264342Y-8214285D01*
X18264342Y-8214285D02*
X18073866Y-8214285D01*
X18073866Y-8214285D02*
X17978628Y-8261904D01*
X17978628Y-8261904D02*
X17931009Y-8309523D01*
X17931009Y-8309523D02*
X17883390Y-8404761D01*
X18359580Y-32916666D02*
X18407200Y-32964285D01*
X18407200Y-32964285D02*
X18454819Y-33107142D01*
X18454819Y-33107142D02*
X18454819Y-33202380D01*
X18454819Y-33202380D02*
X18407200Y-33345237D01*
X18407200Y-33345237D02*
X18311961Y-33440475D01*
X18311961Y-33440475D02*
X18216723Y-33488094D01*
X18216723Y-33488094D02*
X18026247Y-33535713D01*
X18026247Y-33535713D02*
X17883390Y-33535713D01*
X17883390Y-33535713D02*
X17692914Y-33488094D01*
X17692914Y-33488094D02*
X17597676Y-33440475D01*
X17597676Y-33440475D02*
X17502438Y-33345237D01*
X17502438Y-33345237D02*
X17454819Y-33202380D01*
X17454819Y-33202380D02*
X17454819Y-33107142D01*
X17454819Y-33107142D02*
X17502438Y-32964285D01*
X17502438Y-32964285D02*
X17550057Y-32916666D01*
X18454819Y-32440475D02*
X18454819Y-32249999D01*
X18454819Y-32249999D02*
X18407200Y-32154761D01*
X18407200Y-32154761D02*
X18359580Y-32107142D01*
X18359580Y-32107142D02*
X18216723Y-32011904D01*
X18216723Y-32011904D02*
X18026247Y-31964285D01*
X18026247Y-31964285D02*
X17645295Y-31964285D01*
X17645295Y-31964285D02*
X17550057Y-32011904D01*
X17550057Y-32011904D02*
X17502438Y-32059523D01*
X17502438Y-32059523D02*
X17454819Y-32154761D01*
X17454819Y-32154761D02*
X17454819Y-32345237D01*
X17454819Y-32345237D02*
X17502438Y-32440475D01*
X17502438Y-32440475D02*
X17550057Y-32488094D01*
X17550057Y-32488094D02*
X17645295Y-32535713D01*
X17645295Y-32535713D02*
X17883390Y-32535713D01*
X17883390Y-32535713D02*
X17978628Y-32488094D01*
X17978628Y-32488094D02*
X18026247Y-32440475D01*
X18026247Y-32440475D02*
X18073866Y-32345237D01*
X18073866Y-32345237D02*
X18073866Y-32154761D01*
X18073866Y-32154761D02*
X18026247Y-32059523D01*
X18026247Y-32059523D02*
X17978628Y-32011904D01*
X17978628Y-32011904D02*
X17883390Y-31964285D01*
X25634819Y-63392857D02*
X25158628Y-63726190D01*
X25634819Y-63964285D02*
X24634819Y-63964285D01*
X24634819Y-63964285D02*
X24634819Y-63583333D01*
X24634819Y-63583333D02*
X24682438Y-63488095D01*
X24682438Y-63488095D02*
X24730057Y-63440476D01*
X24730057Y-63440476D02*
X24825295Y-63392857D01*
X24825295Y-63392857D02*
X24968152Y-63392857D01*
X24968152Y-63392857D02*
X25063390Y-63440476D01*
X25063390Y-63440476D02*
X25111009Y-63488095D01*
X25111009Y-63488095D02*
X25158628Y-63583333D01*
X25158628Y-63583333D02*
X25158628Y-63964285D01*
X25634819Y-62440476D02*
X25634819Y-63011904D01*
X25634819Y-62726190D02*
X24634819Y-62726190D01*
X24634819Y-62726190D02*
X24777676Y-62821428D01*
X24777676Y-62821428D02*
X24872914Y-62916666D01*
X24872914Y-62916666D02*
X24920533Y-63011904D01*
X24730057Y-62059523D02*
X24682438Y-62011904D01*
X24682438Y-62011904D02*
X24634819Y-61916666D01*
X24634819Y-61916666D02*
X24634819Y-61678571D01*
X24634819Y-61678571D02*
X24682438Y-61583333D01*
X24682438Y-61583333D02*
X24730057Y-61535714D01*
X24730057Y-61535714D02*
X24825295Y-61488095D01*
X24825295Y-61488095D02*
X24920533Y-61488095D01*
X24920533Y-61488095D02*
X25063390Y-61535714D01*
X25063390Y-61535714D02*
X25634819Y-62107142D01*
X25634819Y-62107142D02*
X25634819Y-61488095D01*
X9954819Y-31333333D02*
X10669104Y-31333333D01*
X10669104Y-31333333D02*
X10811961Y-31380952D01*
X10811961Y-31380952D02*
X10907200Y-31476190D01*
X10907200Y-31476190D02*
X10954819Y-31619047D01*
X10954819Y-31619047D02*
X10954819Y-31714285D01*
X10954819Y-30333333D02*
X10954819Y-30904761D01*
X10954819Y-30619047D02*
X9954819Y-30619047D01*
X9954819Y-30619047D02*
X10097676Y-30714285D01*
X10097676Y-30714285D02*
X10192914Y-30809523D01*
X10192914Y-30809523D02*
X10240533Y-30904761D01*
X11261905Y-57704819D02*
X11261905Y-56704819D01*
X11261905Y-56704819D02*
X11500000Y-56704819D01*
X11500000Y-56704819D02*
X11642857Y-56752438D01*
X11642857Y-56752438D02*
X11738095Y-56847676D01*
X11738095Y-56847676D02*
X11785714Y-56942914D01*
X11785714Y-56942914D02*
X11833333Y-57133390D01*
X11833333Y-57133390D02*
X11833333Y-57276247D01*
X11833333Y-57276247D02*
X11785714Y-57466723D01*
X11785714Y-57466723D02*
X11738095Y-57561961D01*
X11738095Y-57561961D02*
X11642857Y-57657200D01*
X11642857Y-57657200D02*
X11500000Y-57704819D01*
X11500000Y-57704819D02*
X11261905Y-57704819D01*
X12309524Y-57704819D02*
X12500000Y-57704819D01*
X12500000Y-57704819D02*
X12595238Y-57657200D01*
X12595238Y-57657200D02*
X12642857Y-57609580D01*
X12642857Y-57609580D02*
X12738095Y-57466723D01*
X12738095Y-57466723D02*
X12785714Y-57276247D01*
X12785714Y-57276247D02*
X12785714Y-56895295D01*
X12785714Y-56895295D02*
X12738095Y-56800057D01*
X12738095Y-56800057D02*
X12690476Y-56752438D01*
X12690476Y-56752438D02*
X12595238Y-56704819D01*
X12595238Y-56704819D02*
X12404762Y-56704819D01*
X12404762Y-56704819D02*
X12309524Y-56752438D01*
X12309524Y-56752438D02*
X12261905Y-56800057D01*
X12261905Y-56800057D02*
X12214286Y-56895295D01*
X12214286Y-56895295D02*
X12214286Y-57133390D01*
X12214286Y-57133390D02*
X12261905Y-57228628D01*
X12261905Y-57228628D02*
X12309524Y-57276247D01*
X12309524Y-57276247D02*
X12404762Y-57323866D01*
X12404762Y-57323866D02*
X12595238Y-57323866D01*
X12595238Y-57323866D02*
X12690476Y-57276247D01*
X12690476Y-57276247D02*
X12738095Y-57228628D01*
X12738095Y-57228628D02*
X12785714Y-57133390D01*
X29384819Y-32666666D02*
X28908628Y-32999999D01*
X29384819Y-33238094D02*
X28384819Y-33238094D01*
X28384819Y-33238094D02*
X28384819Y-32857142D01*
X28384819Y-32857142D02*
X28432438Y-32761904D01*
X28432438Y-32761904D02*
X28480057Y-32714285D01*
X28480057Y-32714285D02*
X28575295Y-32666666D01*
X28575295Y-32666666D02*
X28718152Y-32666666D01*
X28718152Y-32666666D02*
X28813390Y-32714285D01*
X28813390Y-32714285D02*
X28861009Y-32761904D01*
X28861009Y-32761904D02*
X28908628Y-32857142D01*
X28908628Y-32857142D02*
X28908628Y-33238094D01*
X28480057Y-32285713D02*
X28432438Y-32238094D01*
X28432438Y-32238094D02*
X28384819Y-32142856D01*
X28384819Y-32142856D02*
X28384819Y-31904761D01*
X28384819Y-31904761D02*
X28432438Y-31809523D01*
X28432438Y-31809523D02*
X28480057Y-31761904D01*
X28480057Y-31761904D02*
X28575295Y-31714285D01*
X28575295Y-31714285D02*
X28670533Y-31714285D01*
X28670533Y-31714285D02*
X28813390Y-31761904D01*
X28813390Y-31761904D02*
X29384819Y-32333332D01*
X29384819Y-32333332D02*
X29384819Y-31714285D01*
X23050057Y-62845238D02*
X23002438Y-62940476D01*
X23002438Y-62940476D02*
X22907200Y-63035714D01*
X22907200Y-63035714D02*
X22764342Y-63178571D01*
X22764342Y-63178571D02*
X22716723Y-63273809D01*
X22716723Y-63273809D02*
X22716723Y-63369047D01*
X22954819Y-63321428D02*
X22907200Y-63416666D01*
X22907200Y-63416666D02*
X22811961Y-63511904D01*
X22811961Y-63511904D02*
X22621485Y-63559523D01*
X22621485Y-63559523D02*
X22288152Y-63559523D01*
X22288152Y-63559523D02*
X22097676Y-63511904D01*
X22097676Y-63511904D02*
X22002438Y-63416666D01*
X22002438Y-63416666D02*
X21954819Y-63321428D01*
X21954819Y-63321428D02*
X21954819Y-63130952D01*
X21954819Y-63130952D02*
X22002438Y-63035714D01*
X22002438Y-63035714D02*
X22097676Y-62940476D01*
X22097676Y-62940476D02*
X22288152Y-62892857D01*
X22288152Y-62892857D02*
X22621485Y-62892857D01*
X22621485Y-62892857D02*
X22811961Y-62940476D01*
X22811961Y-62940476D02*
X22907200Y-63035714D01*
X22907200Y-63035714D02*
X22954819Y-63130952D01*
X22954819Y-63130952D02*
X22954819Y-63321428D01*
X21954819Y-62035714D02*
X21954819Y-62226190D01*
X21954819Y-62226190D02*
X22002438Y-62321428D01*
X22002438Y-62321428D02*
X22050057Y-62369047D01*
X22050057Y-62369047D02*
X22192914Y-62464285D01*
X22192914Y-62464285D02*
X22383390Y-62511904D01*
X22383390Y-62511904D02*
X22764342Y-62511904D01*
X22764342Y-62511904D02*
X22859580Y-62464285D01*
X22859580Y-62464285D02*
X22907200Y-62416666D01*
X22907200Y-62416666D02*
X22954819Y-62321428D01*
X22954819Y-62321428D02*
X22954819Y-62130952D01*
X22954819Y-62130952D02*
X22907200Y-62035714D01*
X22907200Y-62035714D02*
X22859580Y-61988095D01*
X22859580Y-61988095D02*
X22764342Y-61940476D01*
X22764342Y-61940476D02*
X22526247Y-61940476D01*
X22526247Y-61940476D02*
X22431009Y-61988095D01*
X22431009Y-61988095D02*
X22383390Y-62035714D01*
X22383390Y-62035714D02*
X22335771Y-62130952D01*
X22335771Y-62130952D02*
X22335771Y-62321428D01*
X22335771Y-62321428D02*
X22383390Y-62416666D01*
X22383390Y-62416666D02*
X22431009Y-62464285D01*
X22431009Y-62464285D02*
X22526247Y-62511904D01*
X25109580Y-9416666D02*
X25157200Y-9464285D01*
X25157200Y-9464285D02*
X25204819Y-9607142D01*
X25204819Y-9607142D02*
X25204819Y-9702380D01*
X25204819Y-9702380D02*
X25157200Y-9845237D01*
X25157200Y-9845237D02*
X25061961Y-9940475D01*
X25061961Y-9940475D02*
X24966723Y-9988094D01*
X24966723Y-9988094D02*
X24776247Y-10035713D01*
X24776247Y-10035713D02*
X24633390Y-10035713D01*
X24633390Y-10035713D02*
X24442914Y-9988094D01*
X24442914Y-9988094D02*
X24347676Y-9940475D01*
X24347676Y-9940475D02*
X24252438Y-9845237D01*
X24252438Y-9845237D02*
X24204819Y-9702380D01*
X24204819Y-9702380D02*
X24204819Y-9607142D01*
X24204819Y-9607142D02*
X24252438Y-9464285D01*
X24252438Y-9464285D02*
X24300057Y-9416666D01*
X24300057Y-9035713D02*
X24252438Y-8988094D01*
X24252438Y-8988094D02*
X24204819Y-8892856D01*
X24204819Y-8892856D02*
X24204819Y-8654761D01*
X24204819Y-8654761D02*
X24252438Y-8559523D01*
X24252438Y-8559523D02*
X24300057Y-8511904D01*
X24300057Y-8511904D02*
X24395295Y-8464285D01*
X24395295Y-8464285D02*
X24490533Y-8464285D01*
X24490533Y-8464285D02*
X24633390Y-8511904D01*
X24633390Y-8511904D02*
X25204819Y-9083332D01*
X25204819Y-9083332D02*
X25204819Y-8464285D01*
X13704819Y-22642857D02*
X13228628Y-22976190D01*
X13704819Y-23214285D02*
X12704819Y-23214285D01*
X12704819Y-23214285D02*
X12704819Y-22833333D01*
X12704819Y-22833333D02*
X12752438Y-22738095D01*
X12752438Y-22738095D02*
X12800057Y-22690476D01*
X12800057Y-22690476D02*
X12895295Y-22642857D01*
X12895295Y-22642857D02*
X13038152Y-22642857D01*
X13038152Y-22642857D02*
X13133390Y-22690476D01*
X13133390Y-22690476D02*
X13181009Y-22738095D01*
X13181009Y-22738095D02*
X13228628Y-22833333D01*
X13228628Y-22833333D02*
X13228628Y-23214285D01*
X12800057Y-22261904D02*
X12752438Y-22214285D01*
X12752438Y-22214285D02*
X12704819Y-22119047D01*
X12704819Y-22119047D02*
X12704819Y-21880952D01*
X12704819Y-21880952D02*
X12752438Y-21785714D01*
X12752438Y-21785714D02*
X12800057Y-21738095D01*
X12800057Y-21738095D02*
X12895295Y-21690476D01*
X12895295Y-21690476D02*
X12990533Y-21690476D01*
X12990533Y-21690476D02*
X13133390Y-21738095D01*
X13133390Y-21738095D02*
X13704819Y-22309523D01*
X13704819Y-22309523D02*
X13704819Y-21690476D01*
X12704819Y-20833333D02*
X12704819Y-21023809D01*
X12704819Y-21023809D02*
X12752438Y-21119047D01*
X12752438Y-21119047D02*
X12800057Y-21166666D01*
X12800057Y-21166666D02*
X12942914Y-21261904D01*
X12942914Y-21261904D02*
X13133390Y-21309523D01*
X13133390Y-21309523D02*
X13514342Y-21309523D01*
X13514342Y-21309523D02*
X13609580Y-21261904D01*
X13609580Y-21261904D02*
X13657200Y-21214285D01*
X13657200Y-21214285D02*
X13704819Y-21119047D01*
X13704819Y-21119047D02*
X13704819Y-20928571D01*
X13704819Y-20928571D02*
X13657200Y-20833333D01*
X13657200Y-20833333D02*
X13609580Y-20785714D01*
X13609580Y-20785714D02*
X13514342Y-20738095D01*
X13514342Y-20738095D02*
X13276247Y-20738095D01*
X13276247Y-20738095D02*
X13181009Y-20785714D01*
X13181009Y-20785714D02*
X13133390Y-20833333D01*
X13133390Y-20833333D02*
X13085771Y-20928571D01*
X13085771Y-20928571D02*
X13085771Y-21119047D01*
X13085771Y-21119047D02*
X13133390Y-21214285D01*
X13133390Y-21214285D02*
X13181009Y-21261904D01*
X13181009Y-21261904D02*
X13276247Y-21309523D01*
X25454819Y-79488094D02*
X24454819Y-79488094D01*
X24454819Y-79488094D02*
X24454819Y-79249999D01*
X24454819Y-79249999D02*
X24502438Y-79107142D01*
X24502438Y-79107142D02*
X24597676Y-79011904D01*
X24597676Y-79011904D02*
X24692914Y-78964285D01*
X24692914Y-78964285D02*
X24883390Y-78916666D01*
X24883390Y-78916666D02*
X25026247Y-78916666D01*
X25026247Y-78916666D02*
X25216723Y-78964285D01*
X25216723Y-78964285D02*
X25311961Y-79011904D01*
X25311961Y-79011904D02*
X25407200Y-79107142D01*
X25407200Y-79107142D02*
X25454819Y-79249999D01*
X25454819Y-79249999D02*
X25454819Y-79488094D01*
X24454819Y-78059523D02*
X24454819Y-78249999D01*
X24454819Y-78249999D02*
X24502438Y-78345237D01*
X24502438Y-78345237D02*
X24550057Y-78392856D01*
X24550057Y-78392856D02*
X24692914Y-78488094D01*
X24692914Y-78488094D02*
X24883390Y-78535713D01*
X24883390Y-78535713D02*
X25264342Y-78535713D01*
X25264342Y-78535713D02*
X25359580Y-78488094D01*
X25359580Y-78488094D02*
X25407200Y-78440475D01*
X25407200Y-78440475D02*
X25454819Y-78345237D01*
X25454819Y-78345237D02*
X25454819Y-78154761D01*
X25454819Y-78154761D02*
X25407200Y-78059523D01*
X25407200Y-78059523D02*
X25359580Y-78011904D01*
X25359580Y-78011904D02*
X25264342Y-77964285D01*
X25264342Y-77964285D02*
X25026247Y-77964285D01*
X25026247Y-77964285D02*
X24931009Y-78011904D01*
X24931009Y-78011904D02*
X24883390Y-78059523D01*
X24883390Y-78059523D02*
X24835771Y-78154761D01*
X24835771Y-78154761D02*
X24835771Y-78345237D01*
X24835771Y-78345237D02*
X24883390Y-78440475D01*
X24883390Y-78440475D02*
X24931009Y-78488094D01*
X24931009Y-78488094D02*
X25026247Y-78535713D01*
X13181009Y-52083333D02*
X13181009Y-52416666D01*
X13704819Y-52416666D02*
X12704819Y-52416666D01*
X12704819Y-52416666D02*
X12704819Y-51940476D01*
X12800057Y-51607142D02*
X12752438Y-51559523D01*
X12752438Y-51559523D02*
X12704819Y-51464285D01*
X12704819Y-51464285D02*
X12704819Y-51226190D01*
X12704819Y-51226190D02*
X12752438Y-51130952D01*
X12752438Y-51130952D02*
X12800057Y-51083333D01*
X12800057Y-51083333D02*
X12895295Y-51035714D01*
X12895295Y-51035714D02*
X12990533Y-51035714D01*
X12990533Y-51035714D02*
X13133390Y-51083333D01*
X13133390Y-51083333D02*
X13704819Y-51654761D01*
X13704819Y-51654761D02*
X13704819Y-51035714D01*
X23359580Y-9416666D02*
X23407200Y-9464285D01*
X23407200Y-9464285D02*
X23454819Y-9607142D01*
X23454819Y-9607142D02*
X23454819Y-9702380D01*
X23454819Y-9702380D02*
X23407200Y-9845237D01*
X23407200Y-9845237D02*
X23311961Y-9940475D01*
X23311961Y-9940475D02*
X23216723Y-9988094D01*
X23216723Y-9988094D02*
X23026247Y-10035713D01*
X23026247Y-10035713D02*
X22883390Y-10035713D01*
X22883390Y-10035713D02*
X22692914Y-9988094D01*
X22692914Y-9988094D02*
X22597676Y-9940475D01*
X22597676Y-9940475D02*
X22502438Y-9845237D01*
X22502438Y-9845237D02*
X22454819Y-9702380D01*
X22454819Y-9702380D02*
X22454819Y-9607142D01*
X22454819Y-9607142D02*
X22502438Y-9464285D01*
X22502438Y-9464285D02*
X22550057Y-9416666D01*
X22454819Y-8511904D02*
X22454819Y-8988094D01*
X22454819Y-8988094D02*
X22931009Y-9035713D01*
X22931009Y-9035713D02*
X22883390Y-8988094D01*
X22883390Y-8988094D02*
X22835771Y-8892856D01*
X22835771Y-8892856D02*
X22835771Y-8654761D01*
X22835771Y-8654761D02*
X22883390Y-8559523D01*
X22883390Y-8559523D02*
X22931009Y-8511904D01*
X22931009Y-8511904D02*
X23026247Y-8464285D01*
X23026247Y-8464285D02*
X23264342Y-8464285D01*
X23264342Y-8464285D02*
X23359580Y-8511904D01*
X23359580Y-8511904D02*
X23407200Y-8559523D01*
X23407200Y-8559523D02*
X23454819Y-8654761D01*
X23454819Y-8654761D02*
X23454819Y-8892856D01*
X23454819Y-8892856D02*
X23407200Y-8988094D01*
X23407200Y-8988094D02*
X23359580Y-9035713D01*
X11357142Y-35204819D02*
X11023809Y-34728628D01*
X10785714Y-35204819D02*
X10785714Y-34204819D01*
X10785714Y-34204819D02*
X11166666Y-34204819D01*
X11166666Y-34204819D02*
X11261904Y-34252438D01*
X11261904Y-34252438D02*
X11309523Y-34300057D01*
X11309523Y-34300057D02*
X11357142Y-34395295D01*
X11357142Y-34395295D02*
X11357142Y-34538152D01*
X11357142Y-34538152D02*
X11309523Y-34633390D01*
X11309523Y-34633390D02*
X11261904Y-34681009D01*
X11261904Y-34681009D02*
X11166666Y-34728628D01*
X11166666Y-34728628D02*
X10785714Y-34728628D01*
X11738095Y-34300057D02*
X11785714Y-34252438D01*
X11785714Y-34252438D02*
X11880952Y-34204819D01*
X11880952Y-34204819D02*
X12119047Y-34204819D01*
X12119047Y-34204819D02*
X12214285Y-34252438D01*
X12214285Y-34252438D02*
X12261904Y-34300057D01*
X12261904Y-34300057D02*
X12309523Y-34395295D01*
X12309523Y-34395295D02*
X12309523Y-34490533D01*
X12309523Y-34490533D02*
X12261904Y-34633390D01*
X12261904Y-34633390D02*
X11690476Y-35204819D01*
X11690476Y-35204819D02*
X12309523Y-35204819D01*
X12690476Y-34300057D02*
X12738095Y-34252438D01*
X12738095Y-34252438D02*
X12833333Y-34204819D01*
X12833333Y-34204819D02*
X13071428Y-34204819D01*
X13071428Y-34204819D02*
X13166666Y-34252438D01*
X13166666Y-34252438D02*
X13214285Y-34300057D01*
X13214285Y-34300057D02*
X13261904Y-34395295D01*
X13261904Y-34395295D02*
X13261904Y-34490533D01*
X13261904Y-34490533D02*
X13214285Y-34633390D01*
X13214285Y-34633390D02*
X12642857Y-35204819D01*
X12642857Y-35204819D02*
X13261904Y-35204819D01*
X14083333Y-2954819D02*
X13750000Y-2478628D01*
X13511905Y-2954819D02*
X13511905Y-1954819D01*
X13511905Y-1954819D02*
X13892857Y-1954819D01*
X13892857Y-1954819D02*
X13988095Y-2002438D01*
X13988095Y-2002438D02*
X14035714Y-2050057D01*
X14035714Y-2050057D02*
X14083333Y-2145295D01*
X14083333Y-2145295D02*
X14083333Y-2288152D01*
X14083333Y-2288152D02*
X14035714Y-2383390D01*
X14035714Y-2383390D02*
X13988095Y-2431009D01*
X13988095Y-2431009D02*
X13892857Y-2478628D01*
X13892857Y-2478628D02*
X13511905Y-2478628D01*
X15035714Y-2954819D02*
X14464286Y-2954819D01*
X14750000Y-2954819D02*
X14750000Y-1954819D01*
X14750000Y-1954819D02*
X14654762Y-2097676D01*
X14654762Y-2097676D02*
X14559524Y-2192914D01*
X14559524Y-2192914D02*
X14464286Y-2240533D01*
X16704819Y-33142857D02*
X16228628Y-33476190D01*
X16704819Y-33714285D02*
X15704819Y-33714285D01*
X15704819Y-33714285D02*
X15704819Y-33333333D01*
X15704819Y-33333333D02*
X15752438Y-33238095D01*
X15752438Y-33238095D02*
X15800057Y-33190476D01*
X15800057Y-33190476D02*
X15895295Y-33142857D01*
X15895295Y-33142857D02*
X16038152Y-33142857D01*
X16038152Y-33142857D02*
X16133390Y-33190476D01*
X16133390Y-33190476D02*
X16181009Y-33238095D01*
X16181009Y-33238095D02*
X16228628Y-33333333D01*
X16228628Y-33333333D02*
X16228628Y-33714285D01*
X16704819Y-32190476D02*
X16704819Y-32761904D01*
X16704819Y-32476190D02*
X15704819Y-32476190D01*
X15704819Y-32476190D02*
X15847676Y-32571428D01*
X15847676Y-32571428D02*
X15942914Y-32666666D01*
X15942914Y-32666666D02*
X15990533Y-32761904D01*
X16038152Y-31333333D02*
X16704819Y-31333333D01*
X15657200Y-31571428D02*
X16371485Y-31809523D01*
X16371485Y-31809523D02*
X16371485Y-31190476D01*
X14954819Y-33142857D02*
X14478628Y-33476190D01*
X14954819Y-33714285D02*
X13954819Y-33714285D01*
X13954819Y-33714285D02*
X13954819Y-33333333D01*
X13954819Y-33333333D02*
X14002438Y-33238095D01*
X14002438Y-33238095D02*
X14050057Y-33190476D01*
X14050057Y-33190476D02*
X14145295Y-33142857D01*
X14145295Y-33142857D02*
X14288152Y-33142857D01*
X14288152Y-33142857D02*
X14383390Y-33190476D01*
X14383390Y-33190476D02*
X14431009Y-33238095D01*
X14431009Y-33238095D02*
X14478628Y-33333333D01*
X14478628Y-33333333D02*
X14478628Y-33714285D01*
X14954819Y-32190476D02*
X14954819Y-32761904D01*
X14954819Y-32476190D02*
X13954819Y-32476190D01*
X13954819Y-32476190D02*
X14097676Y-32571428D01*
X14097676Y-32571428D02*
X14192914Y-32666666D01*
X14192914Y-32666666D02*
X14240533Y-32761904D01*
X13954819Y-31857142D02*
X13954819Y-31190476D01*
X13954819Y-31190476D02*
X14954819Y-31619047D01*
X9954819Y-43333333D02*
X10669104Y-43333333D01*
X10669104Y-43333333D02*
X10811961Y-43380952D01*
X10811961Y-43380952D02*
X10907200Y-43476190D01*
X10907200Y-43476190D02*
X10954819Y-43619047D01*
X10954819Y-43619047D02*
X10954819Y-43714285D01*
X9954819Y-42380952D02*
X9954819Y-42857142D01*
X9954819Y-42857142D02*
X10431009Y-42904761D01*
X10431009Y-42904761D02*
X10383390Y-42857142D01*
X10383390Y-42857142D02*
X10335771Y-42761904D01*
X10335771Y-42761904D02*
X10335771Y-42523809D01*
X10335771Y-42523809D02*
X10383390Y-42428571D01*
X10383390Y-42428571D02*
X10431009Y-42380952D01*
X10431009Y-42380952D02*
X10526247Y-42333333D01*
X10526247Y-42333333D02*
X10764342Y-42333333D01*
X10764342Y-42333333D02*
X10859580Y-42380952D01*
X10859580Y-42380952D02*
X10907200Y-42428571D01*
X10907200Y-42428571D02*
X10954819Y-42523809D01*
X10954819Y-42523809D02*
X10954819Y-42761904D01*
X10954819Y-42761904D02*
X10907200Y-42857142D01*
X10907200Y-42857142D02*
X10859580Y-42904761D01*
X14609580Y-18892857D02*
X14657200Y-18940476D01*
X14657200Y-18940476D02*
X14704819Y-19083333D01*
X14704819Y-19083333D02*
X14704819Y-19178571D01*
X14704819Y-19178571D02*
X14657200Y-19321428D01*
X14657200Y-19321428D02*
X14561961Y-19416666D01*
X14561961Y-19416666D02*
X14466723Y-19464285D01*
X14466723Y-19464285D02*
X14276247Y-19511904D01*
X14276247Y-19511904D02*
X14133390Y-19511904D01*
X14133390Y-19511904D02*
X13942914Y-19464285D01*
X13942914Y-19464285D02*
X13847676Y-19416666D01*
X13847676Y-19416666D02*
X13752438Y-19321428D01*
X13752438Y-19321428D02*
X13704819Y-19178571D01*
X13704819Y-19178571D02*
X13704819Y-19083333D01*
X13704819Y-19083333D02*
X13752438Y-18940476D01*
X13752438Y-18940476D02*
X13800057Y-18892857D01*
X14704819Y-17940476D02*
X14704819Y-18511904D01*
X14704819Y-18226190D02*
X13704819Y-18226190D01*
X13704819Y-18226190D02*
X13847676Y-18321428D01*
X13847676Y-18321428D02*
X13942914Y-18416666D01*
X13942914Y-18416666D02*
X13990533Y-18511904D01*
X13704819Y-17607142D02*
X13704819Y-16940476D01*
X13704819Y-16940476D02*
X14704819Y-17369047D01*
X16704819Y-9142857D02*
X16228628Y-9476190D01*
X16704819Y-9714285D02*
X15704819Y-9714285D01*
X15704819Y-9714285D02*
X15704819Y-9333333D01*
X15704819Y-9333333D02*
X15752438Y-9238095D01*
X15752438Y-9238095D02*
X15800057Y-9190476D01*
X15800057Y-9190476D02*
X15895295Y-9142857D01*
X15895295Y-9142857D02*
X16038152Y-9142857D01*
X16038152Y-9142857D02*
X16133390Y-9190476D01*
X16133390Y-9190476D02*
X16181009Y-9238095D01*
X16181009Y-9238095D02*
X16228628Y-9333333D01*
X16228628Y-9333333D02*
X16228628Y-9714285D01*
X16704819Y-8190476D02*
X16704819Y-8761904D01*
X16704819Y-8476190D02*
X15704819Y-8476190D01*
X15704819Y-8476190D02*
X15847676Y-8571428D01*
X15847676Y-8571428D02*
X15942914Y-8666666D01*
X15942914Y-8666666D02*
X15990533Y-8761904D01*
X15704819Y-7857142D02*
X15704819Y-7238095D01*
X15704819Y-7238095D02*
X16085771Y-7571428D01*
X16085771Y-7571428D02*
X16085771Y-7428571D01*
X16085771Y-7428571D02*
X16133390Y-7333333D01*
X16133390Y-7333333D02*
X16181009Y-7285714D01*
X16181009Y-7285714D02*
X16276247Y-7238095D01*
X16276247Y-7238095D02*
X16514342Y-7238095D01*
X16514342Y-7238095D02*
X16609580Y-7285714D01*
X16609580Y-7285714D02*
X16657200Y-7333333D01*
X16657200Y-7333333D02*
X16704819Y-7428571D01*
X16704819Y-7428571D02*
X16704819Y-7714285D01*
X16704819Y-7714285D02*
X16657200Y-7809523D01*
X16657200Y-7809523D02*
X16609580Y-7857142D01*
X27384819Y-69392857D02*
X26908628Y-69726190D01*
X27384819Y-69964285D02*
X26384819Y-69964285D01*
X26384819Y-69964285D02*
X26384819Y-69583333D01*
X26384819Y-69583333D02*
X26432438Y-69488095D01*
X26432438Y-69488095D02*
X26480057Y-69440476D01*
X26480057Y-69440476D02*
X26575295Y-69392857D01*
X26575295Y-69392857D02*
X26718152Y-69392857D01*
X26718152Y-69392857D02*
X26813390Y-69440476D01*
X26813390Y-69440476D02*
X26861009Y-69488095D01*
X26861009Y-69488095D02*
X26908628Y-69583333D01*
X26908628Y-69583333D02*
X26908628Y-69964285D01*
X26480057Y-69011904D02*
X26432438Y-68964285D01*
X26432438Y-68964285D02*
X26384819Y-68869047D01*
X26384819Y-68869047D02*
X26384819Y-68630952D01*
X26384819Y-68630952D02*
X26432438Y-68535714D01*
X26432438Y-68535714D02*
X26480057Y-68488095D01*
X26480057Y-68488095D02*
X26575295Y-68440476D01*
X26575295Y-68440476D02*
X26670533Y-68440476D01*
X26670533Y-68440476D02*
X26813390Y-68488095D01*
X26813390Y-68488095D02*
X27384819Y-69059523D01*
X27384819Y-69059523D02*
X27384819Y-68440476D01*
X27384819Y-67964285D02*
X27384819Y-67773809D01*
X27384819Y-67773809D02*
X27337200Y-67678571D01*
X27337200Y-67678571D02*
X27289580Y-67630952D01*
X27289580Y-67630952D02*
X27146723Y-67535714D01*
X27146723Y-67535714D02*
X26956247Y-67488095D01*
X26956247Y-67488095D02*
X26575295Y-67488095D01*
X26575295Y-67488095D02*
X26480057Y-67535714D01*
X26480057Y-67535714D02*
X26432438Y-67583333D01*
X26432438Y-67583333D02*
X26384819Y-67678571D01*
X26384819Y-67678571D02*
X26384819Y-67869047D01*
X26384819Y-67869047D02*
X26432438Y-67964285D01*
X26432438Y-67964285D02*
X26480057Y-68011904D01*
X26480057Y-68011904D02*
X26575295Y-68059523D01*
X26575295Y-68059523D02*
X26813390Y-68059523D01*
X26813390Y-68059523D02*
X26908628Y-68011904D01*
X26908628Y-68011904D02*
X26956247Y-67964285D01*
X26956247Y-67964285D02*
X27003866Y-67869047D01*
X27003866Y-67869047D02*
X27003866Y-67678571D01*
X27003866Y-67678571D02*
X26956247Y-67583333D01*
X26956247Y-67583333D02*
X26908628Y-67535714D01*
X26908628Y-67535714D02*
X26813390Y-67488095D01*
X14083333Y-30954819D02*
X13750000Y-30478628D01*
X13511905Y-30954819D02*
X13511905Y-29954819D01*
X13511905Y-29954819D02*
X13892857Y-29954819D01*
X13892857Y-29954819D02*
X13988095Y-30002438D01*
X13988095Y-30002438D02*
X14035714Y-30050057D01*
X14035714Y-30050057D02*
X14083333Y-30145295D01*
X14083333Y-30145295D02*
X14083333Y-30288152D01*
X14083333Y-30288152D02*
X14035714Y-30383390D01*
X14035714Y-30383390D02*
X13988095Y-30431009D01*
X13988095Y-30431009D02*
X13892857Y-30478628D01*
X13892857Y-30478628D02*
X13511905Y-30478628D01*
X14940476Y-30288152D02*
X14940476Y-30954819D01*
X14702381Y-29907200D02*
X14464286Y-30621485D01*
X14464286Y-30621485D02*
X15083333Y-30621485D01*
X25704819Y-15392857D02*
X25228628Y-15726190D01*
X25704819Y-15964285D02*
X24704819Y-15964285D01*
X24704819Y-15964285D02*
X24704819Y-15583333D01*
X24704819Y-15583333D02*
X24752438Y-15488095D01*
X24752438Y-15488095D02*
X24800057Y-15440476D01*
X24800057Y-15440476D02*
X24895295Y-15392857D01*
X24895295Y-15392857D02*
X25038152Y-15392857D01*
X25038152Y-15392857D02*
X25133390Y-15440476D01*
X25133390Y-15440476D02*
X25181009Y-15488095D01*
X25181009Y-15488095D02*
X25228628Y-15583333D01*
X25228628Y-15583333D02*
X25228628Y-15964285D01*
X25704819Y-14440476D02*
X25704819Y-15011904D01*
X25704819Y-14726190D02*
X24704819Y-14726190D01*
X24704819Y-14726190D02*
X24847676Y-14821428D01*
X24847676Y-14821428D02*
X24942914Y-14916666D01*
X24942914Y-14916666D02*
X24990533Y-15011904D01*
X24704819Y-13821428D02*
X24704819Y-13726190D01*
X24704819Y-13726190D02*
X24752438Y-13630952D01*
X24752438Y-13630952D02*
X24800057Y-13583333D01*
X24800057Y-13583333D02*
X24895295Y-13535714D01*
X24895295Y-13535714D02*
X25085771Y-13488095D01*
X25085771Y-13488095D02*
X25323866Y-13488095D01*
X25323866Y-13488095D02*
X25514342Y-13535714D01*
X25514342Y-13535714D02*
X25609580Y-13583333D01*
X25609580Y-13583333D02*
X25657200Y-13630952D01*
X25657200Y-13630952D02*
X25704819Y-13726190D01*
X25704819Y-13726190D02*
X25704819Y-13821428D01*
X25704819Y-13821428D02*
X25657200Y-13916666D01*
X25657200Y-13916666D02*
X25609580Y-13964285D01*
X25609580Y-13964285D02*
X25514342Y-14011904D01*
X25514342Y-14011904D02*
X25323866Y-14059523D01*
X25323866Y-14059523D02*
X25085771Y-14059523D01*
X25085771Y-14059523D02*
X24895295Y-14011904D01*
X24895295Y-14011904D02*
X24800057Y-13964285D01*
X24800057Y-13964285D02*
X24752438Y-13916666D01*
X24752438Y-13916666D02*
X24704819Y-13821428D01*
X26857142Y-24204819D02*
X26523809Y-23728628D01*
X26285714Y-24204819D02*
X26285714Y-23204819D01*
X26285714Y-23204819D02*
X26666666Y-23204819D01*
X26666666Y-23204819D02*
X26761904Y-23252438D01*
X26761904Y-23252438D02*
X26809523Y-23300057D01*
X26809523Y-23300057D02*
X26857142Y-23395295D01*
X26857142Y-23395295D02*
X26857142Y-23538152D01*
X26857142Y-23538152D02*
X26809523Y-23633390D01*
X26809523Y-23633390D02*
X26761904Y-23681009D01*
X26761904Y-23681009D02*
X26666666Y-23728628D01*
X26666666Y-23728628D02*
X26285714Y-23728628D01*
X27190476Y-23204819D02*
X27809523Y-23204819D01*
X27809523Y-23204819D02*
X27476190Y-23585771D01*
X27476190Y-23585771D02*
X27619047Y-23585771D01*
X27619047Y-23585771D02*
X27714285Y-23633390D01*
X27714285Y-23633390D02*
X27761904Y-23681009D01*
X27761904Y-23681009D02*
X27809523Y-23776247D01*
X27809523Y-23776247D02*
X27809523Y-24014342D01*
X27809523Y-24014342D02*
X27761904Y-24109580D01*
X27761904Y-24109580D02*
X27714285Y-24157200D01*
X27714285Y-24157200D02*
X27619047Y-24204819D01*
X27619047Y-24204819D02*
X27333333Y-24204819D01*
X27333333Y-24204819D02*
X27238095Y-24157200D01*
X27238095Y-24157200D02*
X27190476Y-24109580D01*
X28761904Y-24204819D02*
X28190476Y-24204819D01*
X28476190Y-24204819D02*
X28476190Y-23204819D01*
X28476190Y-23204819D02*
X28380952Y-23347676D01*
X28380952Y-23347676D02*
X28285714Y-23442914D01*
X28285714Y-23442914D02*
X28190476Y-23490533D01*
X27454819Y-42142857D02*
X26978628Y-42476190D01*
X27454819Y-42714285D02*
X26454819Y-42714285D01*
X26454819Y-42714285D02*
X26454819Y-42333333D01*
X26454819Y-42333333D02*
X26502438Y-42238095D01*
X26502438Y-42238095D02*
X26550057Y-42190476D01*
X26550057Y-42190476D02*
X26645295Y-42142857D01*
X26645295Y-42142857D02*
X26788152Y-42142857D01*
X26788152Y-42142857D02*
X26883390Y-42190476D01*
X26883390Y-42190476D02*
X26931009Y-42238095D01*
X26931009Y-42238095D02*
X26978628Y-42333333D01*
X26978628Y-42333333D02*
X26978628Y-42714285D01*
X26550057Y-41761904D02*
X26502438Y-41714285D01*
X26502438Y-41714285D02*
X26454819Y-41619047D01*
X26454819Y-41619047D02*
X26454819Y-41380952D01*
X26454819Y-41380952D02*
X26502438Y-41285714D01*
X26502438Y-41285714D02*
X26550057Y-41238095D01*
X26550057Y-41238095D02*
X26645295Y-41190476D01*
X26645295Y-41190476D02*
X26740533Y-41190476D01*
X26740533Y-41190476D02*
X26883390Y-41238095D01*
X26883390Y-41238095D02*
X27454819Y-41809523D01*
X27454819Y-41809523D02*
X27454819Y-41190476D01*
X27454819Y-40238095D02*
X27454819Y-40809523D01*
X27454819Y-40523809D02*
X26454819Y-40523809D01*
X26454819Y-40523809D02*
X26597676Y-40619047D01*
X26597676Y-40619047D02*
X26692914Y-40714285D01*
X26692914Y-40714285D02*
X26740533Y-40809523D01*
X23050057Y-14845238D02*
X23002438Y-14940476D01*
X23002438Y-14940476D02*
X22907200Y-15035714D01*
X22907200Y-15035714D02*
X22764342Y-15178571D01*
X22764342Y-15178571D02*
X22716723Y-15273809D01*
X22716723Y-15273809D02*
X22716723Y-15369047D01*
X22954819Y-15321428D02*
X22907200Y-15416666D01*
X22907200Y-15416666D02*
X22811961Y-15511904D01*
X22811961Y-15511904D02*
X22621485Y-15559523D01*
X22621485Y-15559523D02*
X22288152Y-15559523D01*
X22288152Y-15559523D02*
X22097676Y-15511904D01*
X22097676Y-15511904D02*
X22002438Y-15416666D01*
X22002438Y-15416666D02*
X21954819Y-15321428D01*
X21954819Y-15321428D02*
X21954819Y-15130952D01*
X21954819Y-15130952D02*
X22002438Y-15035714D01*
X22002438Y-15035714D02*
X22097676Y-14940476D01*
X22097676Y-14940476D02*
X22288152Y-14892857D01*
X22288152Y-14892857D02*
X22621485Y-14892857D01*
X22621485Y-14892857D02*
X22811961Y-14940476D01*
X22811961Y-14940476D02*
X22907200Y-15035714D01*
X22907200Y-15035714D02*
X22954819Y-15130952D01*
X22954819Y-15130952D02*
X22954819Y-15321428D01*
X22288152Y-14035714D02*
X22954819Y-14035714D01*
X21907200Y-14273809D02*
X22621485Y-14511904D01*
X22621485Y-14511904D02*
X22621485Y-13892857D01*
X22454819Y-77488094D02*
X21454819Y-77488094D01*
X21454819Y-77488094D02*
X21454819Y-77249999D01*
X21454819Y-77249999D02*
X21502438Y-77107142D01*
X21502438Y-77107142D02*
X21597676Y-77011904D01*
X21597676Y-77011904D02*
X21692914Y-76964285D01*
X21692914Y-76964285D02*
X21883390Y-76916666D01*
X21883390Y-76916666D02*
X22026247Y-76916666D01*
X22026247Y-76916666D02*
X22216723Y-76964285D01*
X22216723Y-76964285D02*
X22311961Y-77011904D01*
X22311961Y-77011904D02*
X22407200Y-77107142D01*
X22407200Y-77107142D02*
X22454819Y-77249999D01*
X22454819Y-77249999D02*
X22454819Y-77488094D01*
X21454819Y-76583332D02*
X21454819Y-75964285D01*
X21454819Y-75964285D02*
X21835771Y-76297618D01*
X21835771Y-76297618D02*
X21835771Y-76154761D01*
X21835771Y-76154761D02*
X21883390Y-76059523D01*
X21883390Y-76059523D02*
X21931009Y-76011904D01*
X21931009Y-76011904D02*
X22026247Y-75964285D01*
X22026247Y-75964285D02*
X22264342Y-75964285D01*
X22264342Y-75964285D02*
X22359580Y-76011904D01*
X22359580Y-76011904D02*
X22407200Y-76059523D01*
X22407200Y-76059523D02*
X22454819Y-76154761D01*
X22454819Y-76154761D02*
X22454819Y-76440475D01*
X22454819Y-76440475D02*
X22407200Y-76535713D01*
X22407200Y-76535713D02*
X22359580Y-76583332D01*
X14083333Y-5859580D02*
X14035714Y-5907200D01*
X14035714Y-5907200D02*
X13892857Y-5954819D01*
X13892857Y-5954819D02*
X13797619Y-5954819D01*
X13797619Y-5954819D02*
X13654762Y-5907200D01*
X13654762Y-5907200D02*
X13559524Y-5811961D01*
X13559524Y-5811961D02*
X13511905Y-5716723D01*
X13511905Y-5716723D02*
X13464286Y-5526247D01*
X13464286Y-5526247D02*
X13464286Y-5383390D01*
X13464286Y-5383390D02*
X13511905Y-5192914D01*
X13511905Y-5192914D02*
X13559524Y-5097676D01*
X13559524Y-5097676D02*
X13654762Y-5002438D01*
X13654762Y-5002438D02*
X13797619Y-4954819D01*
X13797619Y-4954819D02*
X13892857Y-4954819D01*
X13892857Y-4954819D02*
X14035714Y-5002438D01*
X14035714Y-5002438D02*
X14083333Y-5050057D01*
X15035714Y-5954819D02*
X14464286Y-5954819D01*
X14750000Y-5954819D02*
X14750000Y-4954819D01*
X14750000Y-4954819D02*
X14654762Y-5097676D01*
X14654762Y-5097676D02*
X14559524Y-5192914D01*
X14559524Y-5192914D02*
X14464286Y-5240533D01*
X16704819Y-57142857D02*
X16228628Y-57476190D01*
X16704819Y-57714285D02*
X15704819Y-57714285D01*
X15704819Y-57714285D02*
X15704819Y-57333333D01*
X15704819Y-57333333D02*
X15752438Y-57238095D01*
X15752438Y-57238095D02*
X15800057Y-57190476D01*
X15800057Y-57190476D02*
X15895295Y-57142857D01*
X15895295Y-57142857D02*
X16038152Y-57142857D01*
X16038152Y-57142857D02*
X16133390Y-57190476D01*
X16133390Y-57190476D02*
X16181009Y-57238095D01*
X16181009Y-57238095D02*
X16228628Y-57333333D01*
X16228628Y-57333333D02*
X16228628Y-57714285D01*
X16704819Y-56190476D02*
X16704819Y-56761904D01*
X16704819Y-56476190D02*
X15704819Y-56476190D01*
X15704819Y-56476190D02*
X15847676Y-56571428D01*
X15847676Y-56571428D02*
X15942914Y-56666666D01*
X15942914Y-56666666D02*
X15990533Y-56761904D01*
X15704819Y-55285714D02*
X15704819Y-55761904D01*
X15704819Y-55761904D02*
X16181009Y-55809523D01*
X16181009Y-55809523D02*
X16133390Y-55761904D01*
X16133390Y-55761904D02*
X16085771Y-55666666D01*
X16085771Y-55666666D02*
X16085771Y-55428571D01*
X16085771Y-55428571D02*
X16133390Y-55333333D01*
X16133390Y-55333333D02*
X16181009Y-55285714D01*
X16181009Y-55285714D02*
X16276247Y-55238095D01*
X16276247Y-55238095D02*
X16514342Y-55238095D01*
X16514342Y-55238095D02*
X16609580Y-55285714D01*
X16609580Y-55285714D02*
X16657200Y-55333333D01*
X16657200Y-55333333D02*
X16704819Y-55428571D01*
X16704819Y-55428571D02*
X16704819Y-55666666D01*
X16704819Y-55666666D02*
X16657200Y-55761904D01*
X16657200Y-55761904D02*
X16609580Y-55809523D01*
X22454819Y-29488094D02*
X21454819Y-29488094D01*
X21454819Y-29488094D02*
X21454819Y-29249999D01*
X21454819Y-29249999D02*
X21502438Y-29107142D01*
X21502438Y-29107142D02*
X21597676Y-29011904D01*
X21597676Y-29011904D02*
X21692914Y-28964285D01*
X21692914Y-28964285D02*
X21883390Y-28916666D01*
X21883390Y-28916666D02*
X22026247Y-28916666D01*
X22026247Y-28916666D02*
X22216723Y-28964285D01*
X22216723Y-28964285D02*
X22311961Y-29011904D01*
X22311961Y-29011904D02*
X22407200Y-29107142D01*
X22407200Y-29107142D02*
X22454819Y-29249999D01*
X22454819Y-29249999D02*
X22454819Y-29488094D01*
X22454819Y-27964285D02*
X22454819Y-28535713D01*
X22454819Y-28249999D02*
X21454819Y-28249999D01*
X21454819Y-28249999D02*
X21597676Y-28345237D01*
X21597676Y-28345237D02*
X21692914Y-28440475D01*
X21692914Y-28440475D02*
X21740533Y-28535713D01*
X25109580Y-57416666D02*
X25157200Y-57464285D01*
X25157200Y-57464285D02*
X25204819Y-57607142D01*
X25204819Y-57607142D02*
X25204819Y-57702380D01*
X25204819Y-57702380D02*
X25157200Y-57845237D01*
X25157200Y-57845237D02*
X25061961Y-57940475D01*
X25061961Y-57940475D02*
X24966723Y-57988094D01*
X24966723Y-57988094D02*
X24776247Y-58035713D01*
X24776247Y-58035713D02*
X24633390Y-58035713D01*
X24633390Y-58035713D02*
X24442914Y-57988094D01*
X24442914Y-57988094D02*
X24347676Y-57940475D01*
X24347676Y-57940475D02*
X24252438Y-57845237D01*
X24252438Y-57845237D02*
X24204819Y-57702380D01*
X24204819Y-57702380D02*
X24204819Y-57607142D01*
X24204819Y-57607142D02*
X24252438Y-57464285D01*
X24252438Y-57464285D02*
X24300057Y-57416666D01*
X24538152Y-56559523D02*
X25204819Y-56559523D01*
X24157200Y-56797618D02*
X24871485Y-57035713D01*
X24871485Y-57035713D02*
X24871485Y-56416666D01*
X15107142Y-25359580D02*
X15059523Y-25407200D01*
X15059523Y-25407200D02*
X14916666Y-25454819D01*
X14916666Y-25454819D02*
X14821428Y-25454819D01*
X14821428Y-25454819D02*
X14678571Y-25407200D01*
X14678571Y-25407200D02*
X14583333Y-25311961D01*
X14583333Y-25311961D02*
X14535714Y-25216723D01*
X14535714Y-25216723D02*
X14488095Y-25026247D01*
X14488095Y-25026247D02*
X14488095Y-24883390D01*
X14488095Y-24883390D02*
X14535714Y-24692914D01*
X14535714Y-24692914D02*
X14583333Y-24597676D01*
X14583333Y-24597676D02*
X14678571Y-24502438D01*
X14678571Y-24502438D02*
X14821428Y-24454819D01*
X14821428Y-24454819D02*
X14916666Y-24454819D01*
X14916666Y-24454819D02*
X15059523Y-24502438D01*
X15059523Y-24502438D02*
X15107142Y-24550057D01*
X16059523Y-25454819D02*
X15488095Y-25454819D01*
X15773809Y-25454819D02*
X15773809Y-24454819D01*
X15773809Y-24454819D02*
X15678571Y-24597676D01*
X15678571Y-24597676D02*
X15583333Y-24692914D01*
X15583333Y-24692914D02*
X15488095Y-24740533D01*
X17011904Y-25454819D02*
X16440476Y-25454819D01*
X16726190Y-25454819D02*
X16726190Y-24454819D01*
X16726190Y-24454819D02*
X16630952Y-24597676D01*
X16630952Y-24597676D02*
X16535714Y-24692914D01*
X16535714Y-24692914D02*
X16440476Y-24740533D01*
X25454819Y-75666666D02*
X24978628Y-75999999D01*
X25454819Y-76238094D02*
X24454819Y-76238094D01*
X24454819Y-76238094D02*
X24454819Y-75857142D01*
X24454819Y-75857142D02*
X24502438Y-75761904D01*
X24502438Y-75761904D02*
X24550057Y-75714285D01*
X24550057Y-75714285D02*
X24645295Y-75666666D01*
X24645295Y-75666666D02*
X24788152Y-75666666D01*
X24788152Y-75666666D02*
X24883390Y-75714285D01*
X24883390Y-75714285D02*
X24931009Y-75761904D01*
X24931009Y-75761904D02*
X24978628Y-75857142D01*
X24978628Y-75857142D02*
X24978628Y-76238094D01*
X25454819Y-75190475D02*
X25454819Y-74999999D01*
X25454819Y-74999999D02*
X25407200Y-74904761D01*
X25407200Y-74904761D02*
X25359580Y-74857142D01*
X25359580Y-74857142D02*
X25216723Y-74761904D01*
X25216723Y-74761904D02*
X25026247Y-74714285D01*
X25026247Y-74714285D02*
X24645295Y-74714285D01*
X24645295Y-74714285D02*
X24550057Y-74761904D01*
X24550057Y-74761904D02*
X24502438Y-74809523D01*
X24502438Y-74809523D02*
X24454819Y-74904761D01*
X24454819Y-74904761D02*
X24454819Y-75095237D01*
X24454819Y-75095237D02*
X24502438Y-75190475D01*
X24502438Y-75190475D02*
X24550057Y-75238094D01*
X24550057Y-75238094D02*
X24645295Y-75285713D01*
X24645295Y-75285713D02*
X24883390Y-75285713D01*
X24883390Y-75285713D02*
X24978628Y-75238094D01*
X24978628Y-75238094D02*
X25026247Y-75190475D01*
X25026247Y-75190475D02*
X25073866Y-75095237D01*
X25073866Y-75095237D02*
X25073866Y-74904761D01*
X25073866Y-74904761D02*
X25026247Y-74809523D01*
X25026247Y-74809523D02*
X24978628Y-74761904D01*
X24978628Y-74761904D02*
X24883390Y-74714285D01*
X25109580Y-33416666D02*
X25157200Y-33464285D01*
X25157200Y-33464285D02*
X25204819Y-33607142D01*
X25204819Y-33607142D02*
X25204819Y-33702380D01*
X25204819Y-33702380D02*
X25157200Y-33845237D01*
X25157200Y-33845237D02*
X25061961Y-33940475D01*
X25061961Y-33940475D02*
X24966723Y-33988094D01*
X24966723Y-33988094D02*
X24776247Y-34035713D01*
X24776247Y-34035713D02*
X24633390Y-34035713D01*
X24633390Y-34035713D02*
X24442914Y-33988094D01*
X24442914Y-33988094D02*
X24347676Y-33940475D01*
X24347676Y-33940475D02*
X24252438Y-33845237D01*
X24252438Y-33845237D02*
X24204819Y-33702380D01*
X24204819Y-33702380D02*
X24204819Y-33607142D01*
X24204819Y-33607142D02*
X24252438Y-33464285D01*
X24252438Y-33464285D02*
X24300057Y-33416666D01*
X24204819Y-33083332D02*
X24204819Y-32464285D01*
X24204819Y-32464285D02*
X24585771Y-32797618D01*
X24585771Y-32797618D02*
X24585771Y-32654761D01*
X24585771Y-32654761D02*
X24633390Y-32559523D01*
X24633390Y-32559523D02*
X24681009Y-32511904D01*
X24681009Y-32511904D02*
X24776247Y-32464285D01*
X24776247Y-32464285D02*
X25014342Y-32464285D01*
X25014342Y-32464285D02*
X25109580Y-32511904D01*
X25109580Y-32511904D02*
X25157200Y-32559523D01*
X25157200Y-32559523D02*
X25204819Y-32654761D01*
X25204819Y-32654761D02*
X25204819Y-32940475D01*
X25204819Y-32940475D02*
X25157200Y-33035713D01*
X25157200Y-33035713D02*
X25109580Y-33083332D01*
X27454819Y-45392857D02*
X26978628Y-45726190D01*
X27454819Y-45964285D02*
X26454819Y-45964285D01*
X26454819Y-45964285D02*
X26454819Y-45583333D01*
X26454819Y-45583333D02*
X26502438Y-45488095D01*
X26502438Y-45488095D02*
X26550057Y-45440476D01*
X26550057Y-45440476D02*
X26645295Y-45392857D01*
X26645295Y-45392857D02*
X26788152Y-45392857D01*
X26788152Y-45392857D02*
X26883390Y-45440476D01*
X26883390Y-45440476D02*
X26931009Y-45488095D01*
X26931009Y-45488095D02*
X26978628Y-45583333D01*
X26978628Y-45583333D02*
X26978628Y-45964285D01*
X26550057Y-45011904D02*
X26502438Y-44964285D01*
X26502438Y-44964285D02*
X26454819Y-44869047D01*
X26454819Y-44869047D02*
X26454819Y-44630952D01*
X26454819Y-44630952D02*
X26502438Y-44535714D01*
X26502438Y-44535714D02*
X26550057Y-44488095D01*
X26550057Y-44488095D02*
X26645295Y-44440476D01*
X26645295Y-44440476D02*
X26740533Y-44440476D01*
X26740533Y-44440476D02*
X26883390Y-44488095D01*
X26883390Y-44488095D02*
X27454819Y-45059523D01*
X27454819Y-45059523D02*
X27454819Y-44440476D01*
X26454819Y-44107142D02*
X26454819Y-43440476D01*
X26454819Y-43440476D02*
X27454819Y-43869047D01*
X23359580Y-57416666D02*
X23407200Y-57464285D01*
X23407200Y-57464285D02*
X23454819Y-57607142D01*
X23454819Y-57607142D02*
X23454819Y-57702380D01*
X23454819Y-57702380D02*
X23407200Y-57845237D01*
X23407200Y-57845237D02*
X23311961Y-57940475D01*
X23311961Y-57940475D02*
X23216723Y-57988094D01*
X23216723Y-57988094D02*
X23026247Y-58035713D01*
X23026247Y-58035713D02*
X22883390Y-58035713D01*
X22883390Y-58035713D02*
X22692914Y-57988094D01*
X22692914Y-57988094D02*
X22597676Y-57940475D01*
X22597676Y-57940475D02*
X22502438Y-57845237D01*
X22502438Y-57845237D02*
X22454819Y-57702380D01*
X22454819Y-57702380D02*
X22454819Y-57607142D01*
X22454819Y-57607142D02*
X22502438Y-57464285D01*
X22502438Y-57464285D02*
X22550057Y-57416666D01*
X22454819Y-57083332D02*
X22454819Y-56416666D01*
X22454819Y-56416666D02*
X23454819Y-56845237D01*
X12954819Y-66892857D02*
X12478628Y-67226190D01*
X12954819Y-67464285D02*
X11954819Y-67464285D01*
X11954819Y-67464285D02*
X11954819Y-67083333D01*
X11954819Y-67083333D02*
X12002438Y-66988095D01*
X12002438Y-66988095D02*
X12050057Y-66940476D01*
X12050057Y-66940476D02*
X12145295Y-66892857D01*
X12145295Y-66892857D02*
X12288152Y-66892857D01*
X12288152Y-66892857D02*
X12383390Y-66940476D01*
X12383390Y-66940476D02*
X12431009Y-66988095D01*
X12431009Y-66988095D02*
X12478628Y-67083333D01*
X12478628Y-67083333D02*
X12478628Y-67464285D01*
X11954819Y-66559523D02*
X11954819Y-65940476D01*
X11954819Y-65940476D02*
X12335771Y-66273809D01*
X12335771Y-66273809D02*
X12335771Y-66130952D01*
X12335771Y-66130952D02*
X12383390Y-66035714D01*
X12383390Y-66035714D02*
X12431009Y-65988095D01*
X12431009Y-65988095D02*
X12526247Y-65940476D01*
X12526247Y-65940476D02*
X12764342Y-65940476D01*
X12764342Y-65940476D02*
X12859580Y-65988095D01*
X12859580Y-65988095D02*
X12907200Y-66035714D01*
X12907200Y-66035714D02*
X12954819Y-66130952D01*
X12954819Y-66130952D02*
X12954819Y-66416666D01*
X12954819Y-66416666D02*
X12907200Y-66511904D01*
X12907200Y-66511904D02*
X12859580Y-66559523D01*
X11954819Y-65083333D02*
X11954819Y-65273809D01*
X11954819Y-65273809D02*
X12002438Y-65369047D01*
X12002438Y-65369047D02*
X12050057Y-65416666D01*
X12050057Y-65416666D02*
X12192914Y-65511904D01*
X12192914Y-65511904D02*
X12383390Y-65559523D01*
X12383390Y-65559523D02*
X12764342Y-65559523D01*
X12764342Y-65559523D02*
X12859580Y-65511904D01*
X12859580Y-65511904D02*
X12907200Y-65464285D01*
X12907200Y-65464285D02*
X12954819Y-65369047D01*
X12954819Y-65369047D02*
X12954819Y-65178571D01*
X12954819Y-65178571D02*
X12907200Y-65083333D01*
X12907200Y-65083333D02*
X12859580Y-65035714D01*
X12859580Y-65035714D02*
X12764342Y-64988095D01*
X12764342Y-64988095D02*
X12526247Y-64988095D01*
X12526247Y-64988095D02*
X12431009Y-65035714D01*
X12431009Y-65035714D02*
X12383390Y-65083333D01*
X12383390Y-65083333D02*
X12335771Y-65178571D01*
X12335771Y-65178571D02*
X12335771Y-65369047D01*
X12335771Y-65369047D02*
X12383390Y-65464285D01*
X12383390Y-65464285D02*
X12431009Y-65511904D01*
X12431009Y-65511904D02*
X12526247Y-65559523D01*
X15954819Y-70261904D02*
X16764342Y-70261904D01*
X16764342Y-70261904D02*
X16859580Y-70214285D01*
X16859580Y-70214285D02*
X16907200Y-70166666D01*
X16907200Y-70166666D02*
X16954819Y-70071428D01*
X16954819Y-70071428D02*
X16954819Y-69880952D01*
X16954819Y-69880952D02*
X16907200Y-69785714D01*
X16907200Y-69785714D02*
X16859580Y-69738095D01*
X16859580Y-69738095D02*
X16764342Y-69690476D01*
X16764342Y-69690476D02*
X15954819Y-69690476D01*
X15954819Y-68785714D02*
X15954819Y-68976190D01*
X15954819Y-68976190D02*
X16002438Y-69071428D01*
X16002438Y-69071428D02*
X16050057Y-69119047D01*
X16050057Y-69119047D02*
X16192914Y-69214285D01*
X16192914Y-69214285D02*
X16383390Y-69261904D01*
X16383390Y-69261904D02*
X16764342Y-69261904D01*
X16764342Y-69261904D02*
X16859580Y-69214285D01*
X16859580Y-69214285D02*
X16907200Y-69166666D01*
X16907200Y-69166666D02*
X16954819Y-69071428D01*
X16954819Y-69071428D02*
X16954819Y-68880952D01*
X16954819Y-68880952D02*
X16907200Y-68785714D01*
X16907200Y-68785714D02*
X16859580Y-68738095D01*
X16859580Y-68738095D02*
X16764342Y-68690476D01*
X16764342Y-68690476D02*
X16526247Y-68690476D01*
X16526247Y-68690476D02*
X16431009Y-68738095D01*
X16431009Y-68738095D02*
X16383390Y-68785714D01*
X16383390Y-68785714D02*
X16335771Y-68880952D01*
X16335771Y-68880952D02*
X16335771Y-69071428D01*
X16335771Y-69071428D02*
X16383390Y-69166666D01*
X16383390Y-69166666D02*
X16431009Y-69214285D01*
X16431009Y-69214285D02*
X16526247Y-69261904D01*
X11357142Y-59204819D02*
X11023809Y-58728628D01*
X10785714Y-59204819D02*
X10785714Y-58204819D01*
X10785714Y-58204819D02*
X11166666Y-58204819D01*
X11166666Y-58204819D02*
X11261904Y-58252438D01*
X11261904Y-58252438D02*
X11309523Y-58300057D01*
X11309523Y-58300057D02*
X11357142Y-58395295D01*
X11357142Y-58395295D02*
X11357142Y-58538152D01*
X11357142Y-58538152D02*
X11309523Y-58633390D01*
X11309523Y-58633390D02*
X11261904Y-58681009D01*
X11261904Y-58681009D02*
X11166666Y-58728628D01*
X11166666Y-58728628D02*
X10785714Y-58728628D01*
X11738095Y-58300057D02*
X11785714Y-58252438D01*
X11785714Y-58252438D02*
X11880952Y-58204819D01*
X11880952Y-58204819D02*
X12119047Y-58204819D01*
X12119047Y-58204819D02*
X12214285Y-58252438D01*
X12214285Y-58252438D02*
X12261904Y-58300057D01*
X12261904Y-58300057D02*
X12309523Y-58395295D01*
X12309523Y-58395295D02*
X12309523Y-58490533D01*
X12309523Y-58490533D02*
X12261904Y-58633390D01*
X12261904Y-58633390D02*
X11690476Y-59204819D01*
X11690476Y-59204819D02*
X12309523Y-59204819D01*
X13166666Y-58538152D02*
X13166666Y-59204819D01*
X12928571Y-58157200D02*
X12690476Y-58871485D01*
X12690476Y-58871485D02*
X13309523Y-58871485D01*
X12954819Y-42892857D02*
X12478628Y-43226190D01*
X12954819Y-43464285D02*
X11954819Y-43464285D01*
X11954819Y-43464285D02*
X11954819Y-43083333D01*
X11954819Y-43083333D02*
X12002438Y-42988095D01*
X12002438Y-42988095D02*
X12050057Y-42940476D01*
X12050057Y-42940476D02*
X12145295Y-42892857D01*
X12145295Y-42892857D02*
X12288152Y-42892857D01*
X12288152Y-42892857D02*
X12383390Y-42940476D01*
X12383390Y-42940476D02*
X12431009Y-42988095D01*
X12431009Y-42988095D02*
X12478628Y-43083333D01*
X12478628Y-43083333D02*
X12478628Y-43464285D01*
X11954819Y-42559523D02*
X11954819Y-41940476D01*
X11954819Y-41940476D02*
X12335771Y-42273809D01*
X12335771Y-42273809D02*
X12335771Y-42130952D01*
X12335771Y-42130952D02*
X12383390Y-42035714D01*
X12383390Y-42035714D02*
X12431009Y-41988095D01*
X12431009Y-41988095D02*
X12526247Y-41940476D01*
X12526247Y-41940476D02*
X12764342Y-41940476D01*
X12764342Y-41940476D02*
X12859580Y-41988095D01*
X12859580Y-41988095D02*
X12907200Y-42035714D01*
X12907200Y-42035714D02*
X12954819Y-42130952D01*
X12954819Y-42130952D02*
X12954819Y-42416666D01*
X12954819Y-42416666D02*
X12907200Y-42511904D01*
X12907200Y-42511904D02*
X12859580Y-42559523D01*
X11954819Y-41035714D02*
X11954819Y-41511904D01*
X11954819Y-41511904D02*
X12431009Y-41559523D01*
X12431009Y-41559523D02*
X12383390Y-41511904D01*
X12383390Y-41511904D02*
X12335771Y-41416666D01*
X12335771Y-41416666D02*
X12335771Y-41178571D01*
X12335771Y-41178571D02*
X12383390Y-41083333D01*
X12383390Y-41083333D02*
X12431009Y-41035714D01*
X12431009Y-41035714D02*
X12526247Y-40988095D01*
X12526247Y-40988095D02*
X12764342Y-40988095D01*
X12764342Y-40988095D02*
X12859580Y-41035714D01*
X12859580Y-41035714D02*
X12907200Y-41083333D01*
X12907200Y-41083333D02*
X12954819Y-41178571D01*
X12954819Y-41178571D02*
X12954819Y-41416666D01*
X12954819Y-41416666D02*
X12907200Y-41511904D01*
X12907200Y-41511904D02*
X12859580Y-41559523D01*
X23359580Y-33416666D02*
X23407200Y-33464285D01*
X23407200Y-33464285D02*
X23454819Y-33607142D01*
X23454819Y-33607142D02*
X23454819Y-33702380D01*
X23454819Y-33702380D02*
X23407200Y-33845237D01*
X23407200Y-33845237D02*
X23311961Y-33940475D01*
X23311961Y-33940475D02*
X23216723Y-33988094D01*
X23216723Y-33988094D02*
X23026247Y-34035713D01*
X23026247Y-34035713D02*
X22883390Y-34035713D01*
X22883390Y-34035713D02*
X22692914Y-33988094D01*
X22692914Y-33988094D02*
X22597676Y-33940475D01*
X22597676Y-33940475D02*
X22502438Y-33845237D01*
X22502438Y-33845237D02*
X22454819Y-33702380D01*
X22454819Y-33702380D02*
X22454819Y-33607142D01*
X22454819Y-33607142D02*
X22502438Y-33464285D01*
X22502438Y-33464285D02*
X22550057Y-33416666D01*
X22454819Y-32559523D02*
X22454819Y-32749999D01*
X22454819Y-32749999D02*
X22502438Y-32845237D01*
X22502438Y-32845237D02*
X22550057Y-32892856D01*
X22550057Y-32892856D02*
X22692914Y-32988094D01*
X22692914Y-32988094D02*
X22883390Y-33035713D01*
X22883390Y-33035713D02*
X23264342Y-33035713D01*
X23264342Y-33035713D02*
X23359580Y-32988094D01*
X23359580Y-32988094D02*
X23407200Y-32940475D01*
X23407200Y-32940475D02*
X23454819Y-32845237D01*
X23454819Y-32845237D02*
X23454819Y-32654761D01*
X23454819Y-32654761D02*
X23407200Y-32559523D01*
X23407200Y-32559523D02*
X23359580Y-32511904D01*
X23359580Y-32511904D02*
X23264342Y-32464285D01*
X23264342Y-32464285D02*
X23026247Y-32464285D01*
X23026247Y-32464285D02*
X22931009Y-32511904D01*
X22931009Y-32511904D02*
X22883390Y-32559523D01*
X22883390Y-32559523D02*
X22835771Y-32654761D01*
X22835771Y-32654761D02*
X22835771Y-32845237D01*
X22835771Y-32845237D02*
X22883390Y-32940475D01*
X22883390Y-32940475D02*
X22931009Y-32988094D01*
X22931009Y-32988094D02*
X23026247Y-33035713D01*
X13704819Y-46642857D02*
X13228628Y-46976190D01*
X13704819Y-47214285D02*
X12704819Y-47214285D01*
X12704819Y-47214285D02*
X12704819Y-46833333D01*
X12704819Y-46833333D02*
X12752438Y-46738095D01*
X12752438Y-46738095D02*
X12800057Y-46690476D01*
X12800057Y-46690476D02*
X12895295Y-46642857D01*
X12895295Y-46642857D02*
X13038152Y-46642857D01*
X13038152Y-46642857D02*
X13133390Y-46690476D01*
X13133390Y-46690476D02*
X13181009Y-46738095D01*
X13181009Y-46738095D02*
X13228628Y-46833333D01*
X13228628Y-46833333D02*
X13228628Y-47214285D01*
X12800057Y-46261904D02*
X12752438Y-46214285D01*
X12752438Y-46214285D02*
X12704819Y-46119047D01*
X12704819Y-46119047D02*
X12704819Y-45880952D01*
X12704819Y-45880952D02*
X12752438Y-45785714D01*
X12752438Y-45785714D02*
X12800057Y-45738095D01*
X12800057Y-45738095D02*
X12895295Y-45690476D01*
X12895295Y-45690476D02*
X12990533Y-45690476D01*
X12990533Y-45690476D02*
X13133390Y-45738095D01*
X13133390Y-45738095D02*
X13704819Y-46309523D01*
X13704819Y-46309523D02*
X13704819Y-45690476D01*
X13133390Y-45119047D02*
X13085771Y-45214285D01*
X13085771Y-45214285D02*
X13038152Y-45261904D01*
X13038152Y-45261904D02*
X12942914Y-45309523D01*
X12942914Y-45309523D02*
X12895295Y-45309523D01*
X12895295Y-45309523D02*
X12800057Y-45261904D01*
X12800057Y-45261904D02*
X12752438Y-45214285D01*
X12752438Y-45214285D02*
X12704819Y-45119047D01*
X12704819Y-45119047D02*
X12704819Y-44928571D01*
X12704819Y-44928571D02*
X12752438Y-44833333D01*
X12752438Y-44833333D02*
X12800057Y-44785714D01*
X12800057Y-44785714D02*
X12895295Y-44738095D01*
X12895295Y-44738095D02*
X12942914Y-44738095D01*
X12942914Y-44738095D02*
X13038152Y-44785714D01*
X13038152Y-44785714D02*
X13085771Y-44833333D01*
X13085771Y-44833333D02*
X13133390Y-44928571D01*
X13133390Y-44928571D02*
X13133390Y-45119047D01*
X13133390Y-45119047D02*
X13181009Y-45214285D01*
X13181009Y-45214285D02*
X13228628Y-45261904D01*
X13228628Y-45261904D02*
X13323866Y-45309523D01*
X13323866Y-45309523D02*
X13514342Y-45309523D01*
X13514342Y-45309523D02*
X13609580Y-45261904D01*
X13609580Y-45261904D02*
X13657200Y-45214285D01*
X13657200Y-45214285D02*
X13704819Y-45119047D01*
X13704819Y-45119047D02*
X13704819Y-44928571D01*
X13704819Y-44928571D02*
X13657200Y-44833333D01*
X13657200Y-44833333D02*
X13609580Y-44785714D01*
X13609580Y-44785714D02*
X13514342Y-44738095D01*
X13514342Y-44738095D02*
X13323866Y-44738095D01*
X13323866Y-44738095D02*
X13228628Y-44785714D01*
X13228628Y-44785714D02*
X13181009Y-44833333D01*
X13181009Y-44833333D02*
X13133390Y-44928571D01*
X19738095Y-32704819D02*
X19738095Y-33514342D01*
X19738095Y-33514342D02*
X19785714Y-33609580D01*
X19785714Y-33609580D02*
X19833333Y-33657200D01*
X19833333Y-33657200D02*
X19928571Y-33704819D01*
X19928571Y-33704819D02*
X20119047Y-33704819D01*
X20119047Y-33704819D02*
X20214285Y-33657200D01*
X20214285Y-33657200D02*
X20261904Y-33609580D01*
X20261904Y-33609580D02*
X20309523Y-33514342D01*
X20309523Y-33514342D02*
X20309523Y-32704819D01*
X20738095Y-32800057D02*
X20785714Y-32752438D01*
X20785714Y-32752438D02*
X20880952Y-32704819D01*
X20880952Y-32704819D02*
X21119047Y-32704819D01*
X21119047Y-32704819D02*
X21214285Y-32752438D01*
X21214285Y-32752438D02*
X21261904Y-32800057D01*
X21261904Y-32800057D02*
X21309523Y-32895295D01*
X21309523Y-32895295D02*
X21309523Y-32990533D01*
X21309523Y-32990533D02*
X21261904Y-33133390D01*
X21261904Y-33133390D02*
X20690476Y-33704819D01*
X20690476Y-33704819D02*
X21309523Y-33704819D01*
X15107142Y-49359580D02*
X15059523Y-49407200D01*
X15059523Y-49407200D02*
X14916666Y-49454819D01*
X14916666Y-49454819D02*
X14821428Y-49454819D01*
X14821428Y-49454819D02*
X14678571Y-49407200D01*
X14678571Y-49407200D02*
X14583333Y-49311961D01*
X14583333Y-49311961D02*
X14535714Y-49216723D01*
X14535714Y-49216723D02*
X14488095Y-49026247D01*
X14488095Y-49026247D02*
X14488095Y-48883390D01*
X14488095Y-48883390D02*
X14535714Y-48692914D01*
X14535714Y-48692914D02*
X14583333Y-48597676D01*
X14583333Y-48597676D02*
X14678571Y-48502438D01*
X14678571Y-48502438D02*
X14821428Y-48454819D01*
X14821428Y-48454819D02*
X14916666Y-48454819D01*
X14916666Y-48454819D02*
X15059523Y-48502438D01*
X15059523Y-48502438D02*
X15107142Y-48550057D01*
X16059523Y-49454819D02*
X15488095Y-49454819D01*
X15773809Y-49454819D02*
X15773809Y-48454819D01*
X15773809Y-48454819D02*
X15678571Y-48597676D01*
X15678571Y-48597676D02*
X15583333Y-48692914D01*
X15583333Y-48692914D02*
X15488095Y-48740533D01*
X16440476Y-48550057D02*
X16488095Y-48502438D01*
X16488095Y-48502438D02*
X16583333Y-48454819D01*
X16583333Y-48454819D02*
X16821428Y-48454819D01*
X16821428Y-48454819D02*
X16916666Y-48502438D01*
X16916666Y-48502438D02*
X16964285Y-48550057D01*
X16964285Y-48550057D02*
X17011904Y-48645295D01*
X17011904Y-48645295D02*
X17011904Y-48740533D01*
X17011904Y-48740533D02*
X16964285Y-48883390D01*
X16964285Y-48883390D02*
X16392857Y-49454819D01*
X16392857Y-49454819D02*
X17011904Y-49454819D01*
X14954819Y-57142857D02*
X14478628Y-57476190D01*
X14954819Y-57714285D02*
X13954819Y-57714285D01*
X13954819Y-57714285D02*
X13954819Y-57333333D01*
X13954819Y-57333333D02*
X14002438Y-57238095D01*
X14002438Y-57238095D02*
X14050057Y-57190476D01*
X14050057Y-57190476D02*
X14145295Y-57142857D01*
X14145295Y-57142857D02*
X14288152Y-57142857D01*
X14288152Y-57142857D02*
X14383390Y-57190476D01*
X14383390Y-57190476D02*
X14431009Y-57238095D01*
X14431009Y-57238095D02*
X14478628Y-57333333D01*
X14478628Y-57333333D02*
X14478628Y-57714285D01*
X14954819Y-56190476D02*
X14954819Y-56761904D01*
X14954819Y-56476190D02*
X13954819Y-56476190D01*
X13954819Y-56476190D02*
X14097676Y-56571428D01*
X14097676Y-56571428D02*
X14192914Y-56666666D01*
X14192914Y-56666666D02*
X14240533Y-56761904D01*
X14383390Y-55619047D02*
X14335771Y-55714285D01*
X14335771Y-55714285D02*
X14288152Y-55761904D01*
X14288152Y-55761904D02*
X14192914Y-55809523D01*
X14192914Y-55809523D02*
X14145295Y-55809523D01*
X14145295Y-55809523D02*
X14050057Y-55761904D01*
X14050057Y-55761904D02*
X14002438Y-55714285D01*
X14002438Y-55714285D02*
X13954819Y-55619047D01*
X13954819Y-55619047D02*
X13954819Y-55428571D01*
X13954819Y-55428571D02*
X14002438Y-55333333D01*
X14002438Y-55333333D02*
X14050057Y-55285714D01*
X14050057Y-55285714D02*
X14145295Y-55238095D01*
X14145295Y-55238095D02*
X14192914Y-55238095D01*
X14192914Y-55238095D02*
X14288152Y-55285714D01*
X14288152Y-55285714D02*
X14335771Y-55333333D01*
X14335771Y-55333333D02*
X14383390Y-55428571D01*
X14383390Y-55428571D02*
X14383390Y-55619047D01*
X14383390Y-55619047D02*
X14431009Y-55714285D01*
X14431009Y-55714285D02*
X14478628Y-55761904D01*
X14478628Y-55761904D02*
X14573866Y-55809523D01*
X14573866Y-55809523D02*
X14764342Y-55809523D01*
X14764342Y-55809523D02*
X14859580Y-55761904D01*
X14859580Y-55761904D02*
X14907200Y-55714285D01*
X14907200Y-55714285D02*
X14954819Y-55619047D01*
X14954819Y-55619047D02*
X14954819Y-55428571D01*
X14954819Y-55428571D02*
X14907200Y-55333333D01*
X14907200Y-55333333D02*
X14859580Y-55285714D01*
X14859580Y-55285714D02*
X14764342Y-55238095D01*
X14764342Y-55238095D02*
X14573866Y-55238095D01*
X14573866Y-55238095D02*
X14478628Y-55285714D01*
X14478628Y-55285714D02*
X14431009Y-55333333D01*
X14431009Y-55333333D02*
X14383390Y-55428571D01*
X25704819Y-39392857D02*
X25228628Y-39726190D01*
X25704819Y-39964285D02*
X24704819Y-39964285D01*
X24704819Y-39964285D02*
X24704819Y-39583333D01*
X24704819Y-39583333D02*
X24752438Y-39488095D01*
X24752438Y-39488095D02*
X24800057Y-39440476D01*
X24800057Y-39440476D02*
X24895295Y-39392857D01*
X24895295Y-39392857D02*
X25038152Y-39392857D01*
X25038152Y-39392857D02*
X25133390Y-39440476D01*
X25133390Y-39440476D02*
X25181009Y-39488095D01*
X25181009Y-39488095D02*
X25228628Y-39583333D01*
X25228628Y-39583333D02*
X25228628Y-39964285D01*
X25704819Y-38440476D02*
X25704819Y-39011904D01*
X25704819Y-38726190D02*
X24704819Y-38726190D01*
X24704819Y-38726190D02*
X24847676Y-38821428D01*
X24847676Y-38821428D02*
X24942914Y-38916666D01*
X24942914Y-38916666D02*
X24990533Y-39011904D01*
X25704819Y-37488095D02*
X25704819Y-38059523D01*
X25704819Y-37773809D02*
X24704819Y-37773809D01*
X24704819Y-37773809D02*
X24847676Y-37869047D01*
X24847676Y-37869047D02*
X24942914Y-37964285D01*
X24942914Y-37964285D02*
X24990533Y-38059523D01*
X15107142Y-47609580D02*
X15059523Y-47657200D01*
X15059523Y-47657200D02*
X14916666Y-47704819D01*
X14916666Y-47704819D02*
X14821428Y-47704819D01*
X14821428Y-47704819D02*
X14678571Y-47657200D01*
X14678571Y-47657200D02*
X14583333Y-47561961D01*
X14583333Y-47561961D02*
X14535714Y-47466723D01*
X14535714Y-47466723D02*
X14488095Y-47276247D01*
X14488095Y-47276247D02*
X14488095Y-47133390D01*
X14488095Y-47133390D02*
X14535714Y-46942914D01*
X14535714Y-46942914D02*
X14583333Y-46847676D01*
X14583333Y-46847676D02*
X14678571Y-46752438D01*
X14678571Y-46752438D02*
X14821428Y-46704819D01*
X14821428Y-46704819D02*
X14916666Y-46704819D01*
X14916666Y-46704819D02*
X15059523Y-46752438D01*
X15059523Y-46752438D02*
X15107142Y-46800057D01*
X16059523Y-47704819D02*
X15488095Y-47704819D01*
X15773809Y-47704819D02*
X15773809Y-46704819D01*
X15773809Y-46704819D02*
X15678571Y-46847676D01*
X15678571Y-46847676D02*
X15583333Y-46942914D01*
X15583333Y-46942914D02*
X15488095Y-46990533D01*
X16964285Y-46704819D02*
X16488095Y-46704819D01*
X16488095Y-46704819D02*
X16440476Y-47181009D01*
X16440476Y-47181009D02*
X16488095Y-47133390D01*
X16488095Y-47133390D02*
X16583333Y-47085771D01*
X16583333Y-47085771D02*
X16821428Y-47085771D01*
X16821428Y-47085771D02*
X16916666Y-47133390D01*
X16916666Y-47133390D02*
X16964285Y-47181009D01*
X16964285Y-47181009D02*
X17011904Y-47276247D01*
X17011904Y-47276247D02*
X17011904Y-47514342D01*
X17011904Y-47514342D02*
X16964285Y-47609580D01*
X16964285Y-47609580D02*
X16916666Y-47657200D01*
X16916666Y-47657200D02*
X16821428Y-47704819D01*
X16821428Y-47704819D02*
X16583333Y-47704819D01*
X16583333Y-47704819D02*
X16488095Y-47657200D01*
X16488095Y-47657200D02*
X16440476Y-47609580D01*
X19738095Y-56704819D02*
X19738095Y-57514342D01*
X19738095Y-57514342D02*
X19785714Y-57609580D01*
X19785714Y-57609580D02*
X19833333Y-57657200D01*
X19833333Y-57657200D02*
X19928571Y-57704819D01*
X19928571Y-57704819D02*
X20119047Y-57704819D01*
X20119047Y-57704819D02*
X20214285Y-57657200D01*
X20214285Y-57657200D02*
X20261904Y-57609580D01*
X20261904Y-57609580D02*
X20309523Y-57514342D01*
X20309523Y-57514342D02*
X20309523Y-56704819D01*
X20690476Y-56704819D02*
X21309523Y-56704819D01*
X21309523Y-56704819D02*
X20976190Y-57085771D01*
X20976190Y-57085771D02*
X21119047Y-57085771D01*
X21119047Y-57085771D02*
X21214285Y-57133390D01*
X21214285Y-57133390D02*
X21261904Y-57181009D01*
X21261904Y-57181009D02*
X21309523Y-57276247D01*
X21309523Y-57276247D02*
X21309523Y-57514342D01*
X21309523Y-57514342D02*
X21261904Y-57609580D01*
X21261904Y-57609580D02*
X21214285Y-57657200D01*
X21214285Y-57657200D02*
X21119047Y-57704819D01*
X21119047Y-57704819D02*
X20833333Y-57704819D01*
X20833333Y-57704819D02*
X20738095Y-57657200D01*
X20738095Y-57657200D02*
X20690476Y-57609580D01*
X27454819Y-18142857D02*
X26978628Y-18476190D01*
X27454819Y-18714285D02*
X26454819Y-18714285D01*
X26454819Y-18714285D02*
X26454819Y-18333333D01*
X26454819Y-18333333D02*
X26502438Y-18238095D01*
X26502438Y-18238095D02*
X26550057Y-18190476D01*
X26550057Y-18190476D02*
X26645295Y-18142857D01*
X26645295Y-18142857D02*
X26788152Y-18142857D01*
X26788152Y-18142857D02*
X26883390Y-18190476D01*
X26883390Y-18190476D02*
X26931009Y-18238095D01*
X26931009Y-18238095D02*
X26978628Y-18333333D01*
X26978628Y-18333333D02*
X26978628Y-18714285D01*
X27454819Y-17190476D02*
X27454819Y-17761904D01*
X27454819Y-17476190D02*
X26454819Y-17476190D01*
X26454819Y-17476190D02*
X26597676Y-17571428D01*
X26597676Y-17571428D02*
X26692914Y-17666666D01*
X26692914Y-17666666D02*
X26740533Y-17761904D01*
X27454819Y-16714285D02*
X27454819Y-16523809D01*
X27454819Y-16523809D02*
X27407200Y-16428571D01*
X27407200Y-16428571D02*
X27359580Y-16380952D01*
X27359580Y-16380952D02*
X27216723Y-16285714D01*
X27216723Y-16285714D02*
X27026247Y-16238095D01*
X27026247Y-16238095D02*
X26645295Y-16238095D01*
X26645295Y-16238095D02*
X26550057Y-16285714D01*
X26550057Y-16285714D02*
X26502438Y-16333333D01*
X26502438Y-16333333D02*
X26454819Y-16428571D01*
X26454819Y-16428571D02*
X26454819Y-16619047D01*
X26454819Y-16619047D02*
X26502438Y-16714285D01*
X26502438Y-16714285D02*
X26550057Y-16761904D01*
X26550057Y-16761904D02*
X26645295Y-16809523D01*
X26645295Y-16809523D02*
X26883390Y-16809523D01*
X26883390Y-16809523D02*
X26978628Y-16761904D01*
X26978628Y-16761904D02*
X27026247Y-16714285D01*
X27026247Y-16714285D02*
X27073866Y-16619047D01*
X27073866Y-16619047D02*
X27073866Y-16428571D01*
X27073866Y-16428571D02*
X27026247Y-16333333D01*
X27026247Y-16333333D02*
X26978628Y-16285714D01*
X26978628Y-16285714D02*
X26883390Y-16238095D01*
X26857142Y-48204819D02*
X26523809Y-47728628D01*
X26285714Y-48204819D02*
X26285714Y-47204819D01*
X26285714Y-47204819D02*
X26666666Y-47204819D01*
X26666666Y-47204819D02*
X26761904Y-47252438D01*
X26761904Y-47252438D02*
X26809523Y-47300057D01*
X26809523Y-47300057D02*
X26857142Y-47395295D01*
X26857142Y-47395295D02*
X26857142Y-47538152D01*
X26857142Y-47538152D02*
X26809523Y-47633390D01*
X26809523Y-47633390D02*
X26761904Y-47681009D01*
X26761904Y-47681009D02*
X26666666Y-47728628D01*
X26666666Y-47728628D02*
X26285714Y-47728628D01*
X27190476Y-47204819D02*
X27809523Y-47204819D01*
X27809523Y-47204819D02*
X27476190Y-47585771D01*
X27476190Y-47585771D02*
X27619047Y-47585771D01*
X27619047Y-47585771D02*
X27714285Y-47633390D01*
X27714285Y-47633390D02*
X27761904Y-47681009D01*
X27761904Y-47681009D02*
X27809523Y-47776247D01*
X27809523Y-47776247D02*
X27809523Y-48014342D01*
X27809523Y-48014342D02*
X27761904Y-48109580D01*
X27761904Y-48109580D02*
X27714285Y-48157200D01*
X27714285Y-48157200D02*
X27619047Y-48204819D01*
X27619047Y-48204819D02*
X27333333Y-48204819D01*
X27333333Y-48204819D02*
X27238095Y-48157200D01*
X27238095Y-48157200D02*
X27190476Y-48109580D01*
X28190476Y-47300057D02*
X28238095Y-47252438D01*
X28238095Y-47252438D02*
X28333333Y-47204819D01*
X28333333Y-47204819D02*
X28571428Y-47204819D01*
X28571428Y-47204819D02*
X28666666Y-47252438D01*
X28666666Y-47252438D02*
X28714285Y-47300057D01*
X28714285Y-47300057D02*
X28761904Y-47395295D01*
X28761904Y-47395295D02*
X28761904Y-47490533D01*
X28761904Y-47490533D02*
X28714285Y-47633390D01*
X28714285Y-47633390D02*
X28142857Y-48204819D01*
X28142857Y-48204819D02*
X28761904Y-48204819D01*
D11*
%TO.C,U4*%
X18800000Y-22050000D02*
X24250000Y-22050000D01*
X22700000Y-16950000D02*
X18800000Y-16950000D01*
X24500000Y-21400000D02*
X24900000Y-21600000D01*
X24900000Y-21200000D02*
X24500000Y-21400000D01*
X24900000Y-21600000D02*
X24900000Y-21200000D01*
%TO.C,C19*%
X13740000Y-63640580D02*
X13740000Y-63359420D01*
X14760000Y-63640580D02*
X14760000Y-63359420D01*
%TO.C,Q5*%
X19500000Y-37200000D02*
X19500000Y-38150000D01*
X19500000Y-37200000D02*
X20900000Y-37200000D01*
X19500000Y-39350000D02*
X19500000Y-40300000D01*
X19500000Y-40300000D02*
X21700000Y-40300000D01*
X21000000Y-39100000D02*
X21000000Y-38400000D01*
%TO.C,C16*%
X18359420Y-70740000D02*
X18640580Y-70740000D01*
X18359420Y-71760000D02*
X18640580Y-71760000D01*
%TO.C,R30*%
X15477500Y-66512742D02*
X15477500Y-66987258D01*
X16522500Y-66512742D02*
X16522500Y-66987258D01*
%TO.C,D5*%
X22900000Y-53950000D02*
X22900000Y-56100000D01*
X22900000Y-56100000D02*
X24100000Y-56100000D01*
X24100000Y-56100000D02*
X24100000Y-53950000D01*
%TO.C,R33*%
X24477064Y-70840000D02*
X23022936Y-70840000D01*
X24477064Y-72660000D02*
X23022936Y-72660000D01*
%TO.C,U1*%
X18700000Y-10400000D02*
X18700000Y-10800000D01*
X18700000Y-10800000D02*
X19100000Y-10600000D01*
X19100000Y-10600000D02*
X18700000Y-10400000D01*
X20500000Y-10150000D02*
X21500000Y-10150000D01*
X21500000Y-12350000D02*
X19500000Y-12350000D01*
%TO.C,D4*%
X22900000Y-29950000D02*
X22900000Y-32100000D01*
X22900000Y-32100000D02*
X24100000Y-32100000D01*
X24100000Y-32100000D02*
X24100000Y-29950000D01*
%TO.C,C13*%
X18359420Y-72490000D02*
X18640580Y-72490000D01*
X18359420Y-73510000D02*
X18640580Y-73510000D01*
%TO.C,R8*%
X22977500Y-51262742D02*
X22977500Y-51737258D01*
X24022500Y-51262742D02*
X24022500Y-51737258D01*
%TO.C,Q2*%
X16100000Y-50200000D02*
X17400000Y-50200000D01*
X16100000Y-53300000D02*
X18200000Y-53300000D01*
%TO.C,C14*%
X18359420Y-22740000D02*
X18640580Y-22740000D01*
X18359420Y-23760000D02*
X18640580Y-23760000D01*
%TO.C,D2*%
X19250000Y-49950000D02*
X19250000Y-54250000D01*
X21250000Y-49950000D02*
X19250000Y-49950000D01*
X21250000Y-54250000D02*
X21250000Y-49950000D01*
%TO.C,J4*%
X450000Y-9900000D02*
X3100000Y-9900000D01*
X450000Y-20100000D02*
X450000Y-9900000D01*
X3100000Y-20100000D02*
X450000Y-20100000D01*
X7400000Y-9900000D02*
X9550000Y-9900000D01*
X9550000Y-9900000D02*
X9550000Y-12250000D01*
X9550000Y-17750000D02*
X9550000Y-20100000D01*
X9550000Y-20100000D02*
X7400000Y-20100000D01*
X10300000Y-11850000D02*
X10700000Y-11850000D01*
X10500000Y-12250000D02*
X10300000Y-11850000D01*
X10700000Y-11850000D02*
X10500000Y-12250000D01*
%TO.C,J6*%
X450000Y-57900000D02*
X3100000Y-57900000D01*
X450000Y-68100000D02*
X450000Y-57900000D01*
X3100000Y-68100000D02*
X450000Y-68100000D01*
X7400000Y-57900000D02*
X9550000Y-57900000D01*
X9550000Y-57900000D02*
X9550000Y-60250000D01*
X9550000Y-65750000D02*
X9550000Y-68100000D01*
X9550000Y-68100000D02*
X7400000Y-68100000D01*
X10300000Y-59850000D02*
X10700000Y-59850000D01*
X10500000Y-60250000D02*
X10300000Y-59850000D01*
X10700000Y-59850000D02*
X10500000Y-60250000D01*
%TO.C,D7*%
X15950000Y-14600000D02*
X18100000Y-14600000D01*
X18100000Y-13400000D02*
X15950000Y-13400000D01*
X18100000Y-14600000D02*
X18100000Y-13400000D01*
%TO.C,R25*%
X24977500Y-20512742D02*
X24977500Y-20987258D01*
X26022500Y-20512742D02*
X26022500Y-20987258D01*
%TO.C,F1*%
X12750000Y-25950000D02*
X12750000Y-25550000D01*
X13750000Y-25550000D02*
X13750000Y-25950000D01*
%TO.C,C10*%
X17490000Y-59109420D02*
X17490000Y-59390580D01*
X18510000Y-59109420D02*
X18510000Y-59390580D01*
%TO.C,Q3*%
X16100000Y-74200000D02*
X17400000Y-74200000D01*
X16100000Y-77300000D02*
X18200000Y-77300000D01*
%TO.C,Q1*%
X16100000Y-26200000D02*
X17400000Y-26200000D01*
X16100000Y-29300000D02*
X18200000Y-29300000D01*
%TO.C,R7*%
X22977500Y-27262742D02*
X22977500Y-27737258D01*
X24022500Y-27262742D02*
X24022500Y-27737258D01*
%TO.C,C18*%
X13740000Y-39640580D02*
X13740000Y-39359420D01*
X14760000Y-39640580D02*
X14760000Y-39359420D01*
%TO.C,J3*%
X450000Y-69900000D02*
X3100000Y-69900000D01*
X450000Y-80100000D02*
X450000Y-69900000D01*
X3100000Y-80100000D02*
X450000Y-80100000D01*
X7400000Y-69900000D02*
X9550000Y-69900000D01*
X9550000Y-69900000D02*
X9550000Y-72250000D01*
X9550000Y-77750000D02*
X9550000Y-80100000D01*
X9550000Y-80100000D02*
X7400000Y-80100000D01*
X10300000Y-71850000D02*
X10700000Y-71850000D01*
X10500000Y-72250000D02*
X10300000Y-71850000D01*
X10700000Y-71850000D02*
X10500000Y-72250000D01*
%TO.C,U5*%
X18800000Y-46050000D02*
X24250000Y-46050000D01*
X22700000Y-40950000D02*
X18800000Y-40950000D01*
X24500000Y-45400000D02*
X24900000Y-45600000D01*
X24900000Y-45200000D02*
X24500000Y-45400000D01*
X24900000Y-45600000D02*
X24900000Y-45200000D01*
%TO.C,R34*%
X11977500Y-15737258D02*
X11977500Y-15262742D01*
X13022500Y-15737258D02*
X13022500Y-15262742D01*
%TO.C,R5*%
X16987258Y-53977500D02*
X16512742Y-53977500D01*
X16987258Y-55022500D02*
X16512742Y-55022500D01*
%TO.C,R3*%
X26977500Y-56262742D02*
X26977500Y-56737258D01*
X28022500Y-56262742D02*
X28022500Y-56737258D01*
%TO.C,R16*%
X13977500Y-11012742D02*
X13977500Y-11487258D01*
X15022500Y-11012742D02*
X15022500Y-11487258D01*
%TO.C,R20*%
X16512742Y-15227500D02*
X16987258Y-15227500D01*
X16512742Y-16272500D02*
X16987258Y-16272500D01*
D12*
%TO.C,G\u002A\u002A\u002A*%
G36*
X14664317Y-82645807D02*
G01*
X14664405Y-82859590D01*
X14664885Y-83039741D01*
X14666084Y-83189927D01*
X14668331Y-83313815D01*
X14671951Y-83415071D01*
X14677273Y-83497362D01*
X14684623Y-83564354D01*
X14694328Y-83619714D01*
X14706716Y-83667108D01*
X14722113Y-83710203D01*
X14740847Y-83752666D01*
X14763245Y-83798163D01*
X14767963Y-83807493D01*
X14828782Y-83903044D01*
X14912312Y-84001349D01*
X15007069Y-84090265D01*
X15095914Y-84154313D01*
X15249263Y-84225355D01*
X15410865Y-84262296D01*
X15575612Y-84265858D01*
X15738396Y-84236765D01*
X15894110Y-84175736D01*
X16037644Y-84083496D01*
X16119587Y-84009612D01*
X16198317Y-83911283D01*
X16269278Y-83790044D01*
X16325295Y-83660276D01*
X16359195Y-83536363D01*
X16360961Y-83525697D01*
X16365033Y-83480698D01*
X16368792Y-83402825D01*
X16372149Y-83296502D01*
X16375015Y-83166151D01*
X16377301Y-83016197D01*
X16378917Y-82851062D01*
X16379773Y-82675170D01*
X16379889Y-82588583D01*
X16380030Y-81772687D01*
X16538546Y-81772687D01*
X16697063Y-81772687D01*
X16697063Y-82673247D01*
X16697005Y-82892531D01*
X16696571Y-83078240D01*
X16695374Y-83234097D01*
X16693025Y-83363826D01*
X16689137Y-83471150D01*
X16683320Y-83559793D01*
X16675187Y-83633476D01*
X16664351Y-83695925D01*
X16650421Y-83750861D01*
X16633012Y-83802009D01*
X16611733Y-83853092D01*
X16586199Y-83907832D01*
X16563485Y-83954625D01*
X16468361Y-84112629D01*
X16345557Y-84258684D01*
X16203084Y-84384737D01*
X16048954Y-84482736D01*
X16027392Y-84493522D01*
X15829322Y-84569575D01*
X15626017Y-84608700D01*
X15417496Y-84610894D01*
X15353826Y-84604337D01*
X15164949Y-84561734D01*
X14986871Y-84485755D01*
X14822982Y-84379580D01*
X14676674Y-84246390D01*
X14551339Y-84089362D01*
X14450367Y-83911678D01*
X14377150Y-83716516D01*
X14367011Y-83679112D01*
X14358048Y-83642187D01*
X14350596Y-83605421D01*
X14344516Y-83565098D01*
X14339670Y-83517503D01*
X14335919Y-83458918D01*
X14333123Y-83385630D01*
X14331145Y-83293921D01*
X14329846Y-83180076D01*
X14329087Y-83040380D01*
X14328730Y-82871115D01*
X14328635Y-82668567D01*
X14328635Y-82650747D01*
X14328635Y-81772687D01*
X14496476Y-81772687D01*
X14664317Y-81772687D01*
X14664317Y-82645807D01*
G37*
G36*
X17070044Y-80886857D02*
G01*
X17070044Y-81418355D01*
X16547871Y-81418355D01*
X16025698Y-81418355D01*
X16025698Y-82468704D01*
X16025677Y-82704323D01*
X16025414Y-82905722D01*
X16024613Y-83075982D01*
X16022974Y-83218181D01*
X16020200Y-83335399D01*
X16015991Y-83430714D01*
X16010052Y-83507205D01*
X16002082Y-83567953D01*
X15991784Y-83616035D01*
X15978860Y-83654531D01*
X15963011Y-83686520D01*
X15943940Y-83715082D01*
X15921348Y-83743295D01*
X15899842Y-83768498D01*
X15802541Y-83855668D01*
X15686851Y-83910815D01*
X15551752Y-83934378D01*
X15512849Y-83935384D01*
X15388230Y-83925198D01*
X15305800Y-83900413D01*
X15216216Y-83843450D01*
X15132563Y-83761209D01*
X15065501Y-83665410D01*
X15037191Y-83605050D01*
X15029201Y-83582293D01*
X15022443Y-83558101D01*
X15016815Y-83529311D01*
X15012214Y-83492757D01*
X15008536Y-83445278D01*
X15005679Y-83383707D01*
X15003539Y-83304883D01*
X15002014Y-83205640D01*
X15001001Y-83082815D01*
X15000398Y-82933245D01*
X15000100Y-82753765D01*
X15000005Y-82541211D01*
X15000000Y-82462002D01*
X15000000Y-81418355D01*
X14150769Y-81418355D01*
X13301537Y-81418355D01*
X13306900Y-81590859D01*
X13312262Y-81763362D01*
X13652607Y-81768445D01*
X13992952Y-81773528D01*
X13992952Y-82864077D01*
X13992952Y-83954625D01*
X13815786Y-83954625D01*
X13638620Y-83954625D01*
X13638620Y-83040822D01*
X13638620Y-82127019D01*
X13302937Y-82127019D01*
X12967254Y-82127019D01*
X12967254Y-81595521D01*
X12967254Y-81064023D01*
X14160793Y-81064023D01*
X15354332Y-81064023D01*
X15354332Y-82268321D01*
X15354332Y-83472619D01*
X15408845Y-83527132D01*
X15473091Y-83569879D01*
X15540236Y-83577541D01*
X15603758Y-83551123D01*
X15657138Y-83491629D01*
X15658959Y-83488595D01*
X15665280Y-83475244D01*
X15670690Y-83456357D01*
X15675257Y-83429146D01*
X15679053Y-83390826D01*
X15682146Y-83338608D01*
X15684606Y-83269704D01*
X15686505Y-83181329D01*
X15687910Y-83070694D01*
X15688893Y-82935012D01*
X15689524Y-82771496D01*
X15689871Y-82577359D01*
X15690005Y-82349813D01*
X15690015Y-82250022D01*
X15690015Y-81064023D01*
X16202864Y-81064023D01*
X16715712Y-81064023D01*
X16715712Y-80886857D01*
X16715712Y-80709691D01*
X15522174Y-80709691D01*
X14328635Y-80709691D01*
X14328635Y-80532525D01*
X14328635Y-80355359D01*
X15699339Y-80355359D01*
X17070044Y-80355359D01*
X17070044Y-80886857D01*
G37*
D11*
%TO.C,R6*%
X16987258Y-77977500D02*
X16512742Y-77977500D01*
X16987258Y-79022500D02*
X16512742Y-79022500D01*
%TO.C,F3*%
X12750000Y-73950000D02*
X12750000Y-73550000D01*
X13750000Y-73550000D02*
X13750000Y-73950000D01*
%TO.C,R23*%
X24977500Y-65262742D02*
X24977500Y-65737258D01*
X26022500Y-65262742D02*
X26022500Y-65737258D01*
%TO.C,D8*%
X15950000Y-38600000D02*
X18100000Y-38600000D01*
X18100000Y-37400000D02*
X15950000Y-37400000D01*
X18100000Y-38600000D02*
X18100000Y-37400000D01*
%TO.C,J2*%
X450000Y-45900000D02*
X3100000Y-45900000D01*
X450000Y-56100000D02*
X450000Y-45900000D01*
X3100000Y-56100000D02*
X450000Y-56100000D01*
X7400000Y-45900000D02*
X9550000Y-45900000D01*
X9550000Y-45900000D02*
X9550000Y-48250000D01*
X9550000Y-53750000D02*
X9550000Y-56100000D01*
X9550000Y-56100000D02*
X7400000Y-56100000D01*
X10300000Y-47850000D02*
X10700000Y-47850000D01*
X10500000Y-48250000D02*
X10300000Y-47850000D01*
X10700000Y-47850000D02*
X10500000Y-48250000D01*
%TO.C,C8*%
X17490000Y-11109420D02*
X17490000Y-11390580D01*
X18510000Y-11109420D02*
X18510000Y-11390580D01*
%TO.C,C9*%
X17490000Y-35109420D02*
X17490000Y-35390580D01*
X18510000Y-35109420D02*
X18510000Y-35390580D01*
%TO.C,R12*%
X23227500Y-62512742D02*
X23227500Y-62987258D01*
X24272500Y-62512742D02*
X24272500Y-62987258D01*
%TO.C,J1*%
X450000Y-21900000D02*
X3100000Y-21900000D01*
X450000Y-32100000D02*
X450000Y-21900000D01*
X3100000Y-32100000D02*
X450000Y-32100000D01*
X7400000Y-21900000D02*
X9550000Y-21900000D01*
X9550000Y-21900000D02*
X9550000Y-24250000D01*
X9550000Y-29750000D02*
X9550000Y-32100000D01*
X9550000Y-32100000D02*
X7400000Y-32100000D01*
X10300000Y-23850000D02*
X10700000Y-23850000D01*
X10500000Y-24250000D02*
X10300000Y-23850000D01*
X10700000Y-23850000D02*
X10500000Y-24250000D01*
%TO.C,D9*%
X15950000Y-62600000D02*
X18100000Y-62600000D01*
X18100000Y-61400000D02*
X15950000Y-61400000D01*
X18100000Y-62600000D02*
X18100000Y-61400000D01*
%TO.C,R2*%
X26977500Y-32262742D02*
X26977500Y-32737258D01*
X28022500Y-32262742D02*
X28022500Y-32737258D01*
%TO.C,Q6*%
X19500000Y-61200000D02*
X19500000Y-62150000D01*
X19500000Y-61200000D02*
X20900000Y-61200000D01*
X19500000Y-63350000D02*
X19500000Y-64300000D01*
X19500000Y-64300000D02*
X21700000Y-64300000D01*
X21000000Y-63100000D02*
X21000000Y-62400000D01*
%TO.C,C2*%
X24240000Y-11359420D02*
X24240000Y-11640580D01*
X25260000Y-11359420D02*
X25260000Y-11640580D01*
%TO.C,R26*%
X15477500Y-18512742D02*
X15477500Y-18987258D01*
X16522500Y-18512742D02*
X16522500Y-18987258D01*
%TO.C,D6*%
X22900000Y-77950000D02*
X22900000Y-80100000D01*
X22900000Y-80100000D02*
X24100000Y-80100000D01*
X24100000Y-80100000D02*
X24100000Y-77950000D01*
%TO.C,F2*%
X12750000Y-49950000D02*
X12750000Y-49550000D01*
X13750000Y-49550000D02*
X13750000Y-49950000D01*
%TO.C,C5*%
X22490000Y-11359420D02*
X22490000Y-11640580D01*
X23510000Y-11359420D02*
X23510000Y-11640580D01*
%TO.C,R22*%
X16512742Y-39227500D02*
X16987258Y-39227500D01*
X16512742Y-40272500D02*
X16987258Y-40272500D01*
%TO.C,R1*%
X10272936Y-1590000D02*
X11727064Y-1590000D01*
X10272936Y-3410000D02*
X11727064Y-3410000D01*
%TO.C,R14*%
X15727500Y-35012742D02*
X15727500Y-35487258D01*
X16772500Y-35012742D02*
X16772500Y-35487258D01*
%TO.C,R17*%
X13977500Y-35012742D02*
X13977500Y-35487258D01*
X15022500Y-35012742D02*
X15022500Y-35487258D01*
%TO.C,J5*%
X450000Y-33900000D02*
X3100000Y-33900000D01*
X450000Y-44100000D02*
X450000Y-33900000D01*
X3100000Y-44100000D02*
X450000Y-44100000D01*
X7400000Y-33900000D02*
X9550000Y-33900000D01*
X9550000Y-33900000D02*
X9550000Y-36250000D01*
X9550000Y-41750000D02*
X9550000Y-44100000D01*
X9550000Y-44100000D02*
X7400000Y-44100000D01*
X10300000Y-35850000D02*
X10700000Y-35850000D01*
X10500000Y-36250000D02*
X10300000Y-35850000D01*
X10700000Y-35850000D02*
X10500000Y-36250000D01*
%TO.C,C17*%
X13740000Y-15640580D02*
X13740000Y-15359420D01*
X14760000Y-15640580D02*
X14760000Y-15359420D01*
%TO.C,R13*%
X15727500Y-11012742D02*
X15727500Y-11487258D01*
X16772500Y-11012742D02*
X16772500Y-11487258D01*
%TO.C,R29*%
X24977500Y-68512742D02*
X24977500Y-68987258D01*
X26022500Y-68512742D02*
X26022500Y-68987258D01*
%TO.C,R4*%
X16987258Y-29977500D02*
X16512742Y-29977500D01*
X16987258Y-31022500D02*
X16512742Y-31022500D01*
%TO.C,R10*%
X23227500Y-14512742D02*
X23227500Y-14987258D01*
X24272500Y-14512742D02*
X24272500Y-14987258D01*
%TO.C,R31*%
X24477064Y-22840000D02*
X23022936Y-22840000D01*
X24477064Y-24660000D02*
X23022936Y-24660000D01*
%TO.C,R21*%
X24977500Y-41262742D02*
X24977500Y-41737258D01*
X26022500Y-41262742D02*
X26022500Y-41737258D01*
%TO.C,Q4*%
X19500000Y-13200000D02*
X19500000Y-14150000D01*
X19500000Y-13200000D02*
X20900000Y-13200000D01*
X19500000Y-15350000D02*
X19500000Y-16300000D01*
X19500000Y-16300000D02*
X21700000Y-16300000D01*
X21000000Y-15100000D02*
X21000000Y-14400000D01*
%TO.C,D3*%
X19250000Y-73950000D02*
X19250000Y-78250000D01*
X21250000Y-73950000D02*
X19250000Y-73950000D01*
X21250000Y-78250000D02*
X21250000Y-73950000D01*
%TO.C,C1*%
X10288748Y-4590000D02*
X11711252Y-4590000D01*
X10288748Y-6410000D02*
X11711252Y-6410000D01*
%TO.C,R15*%
X15727500Y-59012742D02*
X15727500Y-59487258D01*
X16772500Y-59012742D02*
X16772500Y-59487258D01*
%TO.C,D1*%
X19250000Y-25950000D02*
X19250000Y-30250000D01*
X21250000Y-25950000D02*
X19250000Y-25950000D01*
X21250000Y-30250000D02*
X21250000Y-25950000D01*
%TO.C,C4*%
X24240000Y-59359420D02*
X24240000Y-59640580D01*
X25260000Y-59359420D02*
X25260000Y-59640580D01*
%TO.C,C11*%
X18359420Y-24490000D02*
X18640580Y-24490000D01*
X18359420Y-25510000D02*
X18640580Y-25510000D01*
%TO.C,R9*%
X22977500Y-75262742D02*
X22977500Y-75737258D01*
X24022500Y-75262742D02*
X24022500Y-75737258D01*
%TO.C,C3*%
X24240000Y-35359420D02*
X24240000Y-35640580D01*
X25260000Y-35359420D02*
X25260000Y-35640580D01*
%TO.C,R27*%
X24977500Y-44512742D02*
X24977500Y-44987258D01*
X26022500Y-44512742D02*
X26022500Y-44987258D01*
%TO.C,C7*%
X22490000Y-59359420D02*
X22490000Y-59640580D01*
X23510000Y-59359420D02*
X23510000Y-59640580D01*
%TO.C,R36*%
X11977500Y-63737258D02*
X11977500Y-63262742D01*
X13022500Y-63737258D02*
X13022500Y-63262742D01*
%TO.C,U6*%
X18800000Y-70050000D02*
X24250000Y-70050000D01*
X22700000Y-64950000D02*
X18800000Y-64950000D01*
X24500000Y-69400000D02*
X24900000Y-69600000D01*
X24900000Y-69200000D02*
X24500000Y-69400000D01*
X24900000Y-69600000D02*
X24900000Y-69200000D01*
%TO.C,R24*%
X16512742Y-63227500D02*
X16987258Y-63227500D01*
X16512742Y-64272500D02*
X16987258Y-64272500D01*
%TO.C,R35*%
X11977500Y-39737258D02*
X11977500Y-39262742D01*
X13022500Y-39737258D02*
X13022500Y-39262742D01*
%TO.C,C6*%
X22490000Y-35359420D02*
X22490000Y-35640580D01*
X23510000Y-35359420D02*
X23510000Y-35640580D01*
%TO.C,R28*%
X15477500Y-42512742D02*
X15477500Y-42987258D01*
X16522500Y-42512742D02*
X16522500Y-42987258D01*
%TO.C,U2*%
X18700000Y-34400000D02*
X18700000Y-34800000D01*
X18700000Y-34800000D02*
X19100000Y-34600000D01*
X19100000Y-34600000D02*
X18700000Y-34400000D01*
X20500000Y-34150000D02*
X21500000Y-34150000D01*
X21500000Y-36350000D02*
X19500000Y-36350000D01*
%TO.C,C12*%
X18359420Y-48490000D02*
X18640580Y-48490000D01*
X18359420Y-49510000D02*
X18640580Y-49510000D01*
%TO.C,R18*%
X13977500Y-59012742D02*
X13977500Y-59487258D01*
X15022500Y-59012742D02*
X15022500Y-59487258D01*
%TO.C,R11*%
X23227500Y-38512742D02*
X23227500Y-38987258D01*
X24272500Y-38512742D02*
X24272500Y-38987258D01*
%TO.C,C15*%
X18359420Y-46740000D02*
X18640580Y-46740000D01*
X18359420Y-47760000D02*
X18640580Y-47760000D01*
%TO.C,U3*%
X18700000Y-58400000D02*
X18700000Y-58800000D01*
X18700000Y-58800000D02*
X19100000Y-58600000D01*
X19100000Y-58600000D02*
X18700000Y-58400000D01*
X20500000Y-58150000D02*
X21500000Y-58150000D01*
X21500000Y-60350000D02*
X19500000Y-60350000D01*
%TO.C,R19*%
X24977500Y-17262742D02*
X24977500Y-17737258D01*
X26022500Y-17262742D02*
X26022500Y-17737258D01*
%TO.C,R32*%
X24477064Y-46840000D02*
X23022936Y-46840000D01*
X24477064Y-48660000D02*
X23022936Y-48660000D01*
%TD*%
%LPC*%
D13*
%TO.C,U4*%
X23500000Y-21405000D03*
X23500000Y-20135000D03*
X23500000Y-18865000D03*
X23500000Y-17595000D03*
X18000000Y-17595000D03*
X18000000Y-18865000D03*
X18000000Y-20135000D03*
X18000000Y-21405000D03*
%TD*%
D14*
%TO.C,H2*%
X1600000Y-86000000D03*
X2302944Y-84302944D03*
X2302944Y-87697056D03*
X4000000Y-83600000D03*
D15*
X4000000Y-86000000D03*
D14*
X4000000Y-88400000D03*
X5697056Y-84302944D03*
X5697056Y-87697056D03*
X6400000Y-86000000D03*
%TD*%
D16*
%TO.C,REF\u002A\u002A*%
X16000000Y-4000000D03*
%TD*%
D17*
%TO.C,C19*%
X14250000Y-64275000D03*
X14250000Y-62725000D03*
%TD*%
D18*
%TO.C,Q5*%
X21250000Y-39700000D03*
X21250000Y-37800000D03*
X19250000Y-38750000D03*
%TD*%
D19*
%TO.C,C16*%
X17725000Y-71250000D03*
X19275000Y-71250000D03*
%TD*%
D20*
%TO.C,R30*%
X16000000Y-65925000D03*
X16000000Y-67575000D03*
%TD*%
D21*
%TO.C,D5*%
X23500000Y-55500000D03*
X23500000Y-54000000D03*
%TD*%
D22*
%TO.C,R33*%
X25212500Y-71750000D03*
X22287500Y-71750000D03*
%TD*%
D23*
%TO.C,U1*%
X19590000Y-10600000D03*
X19590000Y-11250000D03*
X19590000Y-11900000D03*
X21410000Y-11900000D03*
X21410000Y-11250000D03*
X21410000Y-10600000D03*
D24*
X20500000Y-11250000D03*
%TD*%
D21*
%TO.C,D4*%
X23500000Y-31500000D03*
X23500000Y-30000000D03*
%TD*%
D19*
%TO.C,C13*%
X17725000Y-73000000D03*
X19275000Y-73000000D03*
%TD*%
D20*
%TO.C,R8*%
X23500000Y-50675000D03*
X23500000Y-52325000D03*
%TD*%
D25*
%TO.C,Q2*%
X17750000Y-52700000D03*
X17750000Y-50800000D03*
X15750000Y-51750000D03*
%TD*%
D19*
%TO.C,C14*%
X17725000Y-23250000D03*
X19275000Y-23250000D03*
%TD*%
D26*
%TO.C,D2*%
X20250000Y-51525000D03*
D27*
X20250000Y-53975000D03*
%TD*%
D28*
%TO.C,J4*%
X9700000Y-13000000D03*
X9700000Y-15000000D03*
X9700000Y-17000000D03*
D29*
X5250000Y-10650000D03*
X5250000Y-19350000D03*
%TD*%
D28*
%TO.C,J6*%
X9700000Y-61000000D03*
X9700000Y-63000000D03*
X9700000Y-65000000D03*
D29*
X5250000Y-58650000D03*
X5250000Y-67350000D03*
%TD*%
D30*
%TO.C,D7*%
X17500000Y-14000000D03*
X16000000Y-14000000D03*
%TD*%
D20*
%TO.C,R25*%
X25500000Y-19925000D03*
X25500000Y-21575000D03*
%TD*%
D31*
%TO.C,REF\u002A\u002A*%
X10000000Y-86000000D03*
%TD*%
D32*
%TO.C,F1*%
X13250000Y-25125000D03*
X13250000Y-26375000D03*
%TD*%
D33*
%TO.C,C10*%
X18000000Y-58475000D03*
X18000000Y-60025000D03*
%TD*%
D25*
%TO.C,Q3*%
X17750000Y-76700000D03*
X17750000Y-74800000D03*
X15750000Y-75750000D03*
%TD*%
%TO.C,Q1*%
X17750000Y-28700000D03*
X17750000Y-26800000D03*
X15750000Y-27750000D03*
%TD*%
D20*
%TO.C,R7*%
X23500000Y-26675000D03*
X23500000Y-28325000D03*
%TD*%
D17*
%TO.C,C18*%
X14250000Y-40275000D03*
X14250000Y-38725000D03*
%TD*%
D28*
%TO.C,J3*%
X9700000Y-73000000D03*
X9700000Y-75000000D03*
X9700000Y-77000000D03*
D29*
X5250000Y-70650000D03*
X5250000Y-79350000D03*
%TD*%
D13*
%TO.C,U5*%
X23500000Y-45405000D03*
X23500000Y-44135000D03*
X23500000Y-42865000D03*
X23500000Y-41595000D03*
X18000000Y-41595000D03*
X18000000Y-42865000D03*
X18000000Y-44135000D03*
X18000000Y-45405000D03*
%TD*%
D34*
%TO.C,R34*%
X12500000Y-16325000D03*
X12500000Y-14675000D03*
%TD*%
D35*
%TO.C,R5*%
X17575000Y-54500000D03*
X15925000Y-54500000D03*
%TD*%
D20*
%TO.C,R3*%
X27500000Y-55675000D03*
X27500000Y-57325000D03*
%TD*%
%TO.C,R16*%
X14500000Y-10425000D03*
X14500000Y-12075000D03*
%TD*%
D36*
%TO.C,R20*%
X15925000Y-15750000D03*
X17575000Y-15750000D03*
%TD*%
D35*
%TO.C,R6*%
X17575000Y-78500000D03*
X15925000Y-78500000D03*
%TD*%
D32*
%TO.C,F3*%
X13250000Y-73125000D03*
X13250000Y-74375000D03*
%TD*%
D20*
%TO.C,R23*%
X25500000Y-64675000D03*
X25500000Y-66325000D03*
%TD*%
D30*
%TO.C,D8*%
X17500000Y-38000000D03*
X16000000Y-38000000D03*
%TD*%
D28*
%TO.C,J2*%
X9700000Y-49000000D03*
X9700000Y-51000000D03*
X9700000Y-53000000D03*
D29*
X5250000Y-46650000D03*
X5250000Y-55350000D03*
%TD*%
D33*
%TO.C,C8*%
X18000000Y-10475000D03*
X18000000Y-12025000D03*
%TD*%
%TO.C,C9*%
X18000000Y-34475000D03*
X18000000Y-36025000D03*
%TD*%
D31*
%TO.C,REF\u002A\u002A*%
X20000000Y-86000000D03*
%TD*%
D20*
%TO.C,R12*%
X23750000Y-61925000D03*
X23750000Y-63575000D03*
%TD*%
D28*
%TO.C,J1*%
X9700000Y-25000000D03*
X9700000Y-27000000D03*
X9700000Y-29000000D03*
D29*
X5250000Y-22650000D03*
X5250000Y-31350000D03*
%TD*%
D14*
%TO.C,H3*%
X23600000Y-4000000D03*
X24302944Y-2302944D03*
X24302944Y-5697056D03*
X26000000Y-1600000D03*
D15*
X26000000Y-4000000D03*
D14*
X26000000Y-6400000D03*
X27697056Y-2302944D03*
X27697056Y-5697056D03*
X28400000Y-4000000D03*
%TD*%
D30*
%TO.C,D9*%
X17500000Y-62000000D03*
X16000000Y-62000000D03*
%TD*%
D20*
%TO.C,R2*%
X27500000Y-31675000D03*
X27500000Y-33325000D03*
%TD*%
D18*
%TO.C,Q6*%
X21250000Y-63700000D03*
X21250000Y-61800000D03*
X19250000Y-62750000D03*
%TD*%
D33*
%TO.C,C2*%
X24750000Y-10725000D03*
X24750000Y-12275000D03*
%TD*%
D20*
%TO.C,R26*%
X16000000Y-17925000D03*
X16000000Y-19575000D03*
%TD*%
D21*
%TO.C,D6*%
X23500000Y-79500000D03*
X23500000Y-78000000D03*
%TD*%
D32*
%TO.C,F2*%
X13250000Y-49125000D03*
X13250000Y-50375000D03*
%TD*%
D33*
%TO.C,C5*%
X23000000Y-10725000D03*
X23000000Y-12275000D03*
%TD*%
D31*
%TO.C,REF\u002A\u002A*%
X19000000Y-4000000D03*
%TD*%
D36*
%TO.C,R22*%
X15925000Y-39750000D03*
X17575000Y-39750000D03*
%TD*%
D37*
%TO.C,R1*%
X9537500Y-2500000D03*
X12462500Y-2500000D03*
%TD*%
D16*
%TO.C,REF\u002A\u002A*%
X20000000Y-83000000D03*
%TD*%
D20*
%TO.C,R14*%
X16250000Y-34425000D03*
X16250000Y-36075000D03*
%TD*%
%TO.C,R17*%
X14500000Y-34425000D03*
X14500000Y-36075000D03*
%TD*%
D28*
%TO.C,J5*%
X9700000Y-37000000D03*
X9700000Y-39000000D03*
X9700000Y-41000000D03*
D29*
X5250000Y-34650000D03*
X5250000Y-43350000D03*
%TD*%
D17*
%TO.C,C17*%
X14250000Y-16275000D03*
X14250000Y-14725000D03*
%TD*%
D20*
%TO.C,R13*%
X16250000Y-10425000D03*
X16250000Y-12075000D03*
%TD*%
%TO.C,R29*%
X25500000Y-67925000D03*
X25500000Y-69575000D03*
%TD*%
D35*
%TO.C,R4*%
X17575000Y-30500000D03*
X15925000Y-30500000D03*
%TD*%
D20*
%TO.C,R10*%
X23750000Y-13925000D03*
X23750000Y-15575000D03*
%TD*%
D22*
%TO.C,R31*%
X25212500Y-23750000D03*
X22287500Y-23750000D03*
%TD*%
D20*
%TO.C,R21*%
X25500000Y-40675000D03*
X25500000Y-42325000D03*
%TD*%
D18*
%TO.C,Q4*%
X21250000Y-15700000D03*
X21250000Y-13800000D03*
X19250000Y-14750000D03*
%TD*%
D26*
%TO.C,D3*%
X20250000Y-75525000D03*
D27*
X20250000Y-77975000D03*
%TD*%
D38*
%TO.C,C1*%
X9525000Y-5500000D03*
X12475000Y-5500000D03*
%TD*%
D20*
%TO.C,R15*%
X16250000Y-58425000D03*
X16250000Y-60075000D03*
%TD*%
D26*
%TO.C,D1*%
X20250000Y-27525000D03*
D27*
X20250000Y-29975000D03*
%TD*%
D33*
%TO.C,C4*%
X24750000Y-58725000D03*
X24750000Y-60275000D03*
%TD*%
D19*
%TO.C,C11*%
X17725000Y-25000000D03*
X19275000Y-25000000D03*
%TD*%
D20*
%TO.C,R9*%
X23500000Y-74675000D03*
X23500000Y-76325000D03*
%TD*%
D14*
%TO.C,H4*%
X23600000Y-86000000D03*
X24302944Y-84302944D03*
X24302944Y-87697056D03*
X26000000Y-83600000D03*
D15*
X26000000Y-86000000D03*
D14*
X26000000Y-88400000D03*
X27697056Y-84302944D03*
X27697056Y-87697056D03*
X28400000Y-86000000D03*
%TD*%
D33*
%TO.C,C3*%
X24750000Y-34725000D03*
X24750000Y-36275000D03*
%TD*%
D20*
%TO.C,R27*%
X25500000Y-43925000D03*
X25500000Y-45575000D03*
%TD*%
D33*
%TO.C,C7*%
X23000000Y-58725000D03*
X23000000Y-60275000D03*
%TD*%
D34*
%TO.C,R36*%
X12500000Y-64325000D03*
X12500000Y-62675000D03*
%TD*%
D13*
%TO.C,U6*%
X23500000Y-69405000D03*
X23500000Y-68135000D03*
X23500000Y-66865000D03*
X23500000Y-65595000D03*
X18000000Y-65595000D03*
X18000000Y-66865000D03*
X18000000Y-68135000D03*
X18000000Y-69405000D03*
%TD*%
D36*
%TO.C,R24*%
X15925000Y-63750000D03*
X17575000Y-63750000D03*
%TD*%
D34*
%TO.C,R35*%
X12500000Y-40325000D03*
X12500000Y-38675000D03*
%TD*%
D33*
%TO.C,C6*%
X23000000Y-34725000D03*
X23000000Y-36275000D03*
%TD*%
D20*
%TO.C,R28*%
X16000000Y-41925000D03*
X16000000Y-43575000D03*
%TD*%
D14*
%TO.C,H1*%
X1600000Y-4000000D03*
X2302944Y-2302944D03*
X2302944Y-5697056D03*
X4000000Y-1600000D03*
D15*
X4000000Y-4000000D03*
D14*
X4000000Y-6400000D03*
X5697056Y-2302944D03*
X5697056Y-5697056D03*
X6400000Y-4000000D03*
%TD*%
D23*
%TO.C,U2*%
X19590000Y-34600000D03*
X19590000Y-35250000D03*
X19590000Y-35900000D03*
X21410000Y-35900000D03*
X21410000Y-35250000D03*
X21410000Y-34600000D03*
D24*
X20500000Y-35250000D03*
%TD*%
D19*
%TO.C,C12*%
X17725000Y-49000000D03*
X19275000Y-49000000D03*
%TD*%
D20*
%TO.C,R18*%
X14500000Y-58425000D03*
X14500000Y-60075000D03*
%TD*%
%TO.C,R11*%
X23750000Y-37925000D03*
X23750000Y-39575000D03*
%TD*%
D16*
%TO.C,REF\u002A\u002A*%
X10000000Y-83000000D03*
%TD*%
D19*
%TO.C,C15*%
X17725000Y-47250000D03*
X19275000Y-47250000D03*
%TD*%
D23*
%TO.C,U3*%
X19590000Y-58600000D03*
X19590000Y-59250000D03*
X19590000Y-59900000D03*
X21410000Y-59900000D03*
X21410000Y-59250000D03*
X21410000Y-58600000D03*
D24*
X20500000Y-59250000D03*
%TD*%
D20*
%TO.C,R19*%
X25500000Y-16675000D03*
X25500000Y-18325000D03*
%TD*%
D22*
%TO.C,R32*%
X25212500Y-47750000D03*
X22287500Y-47750000D03*
%TD*%
%LPD*%
M02*
