%TF.GenerationSoftware,KiCad,Pcbnew,8.0.4*%
%TF.CreationDate,2024-08-16T18:46:30+09:00*%
%TF.ProjectId,accel-brake-sig-converter-board,61636365-6c2d-4627-9261-6b652d736967,rev?*%
%TF.SameCoordinates,Original*%
%TF.FileFunction,Other,Comment*%
%FSLAX46Y46*%
G04 Gerber Fmt 4.6, Leading zero omitted, Abs format (unit mm)*
G04 Created by KiCad (PCBNEW 8.0.4) date 2024-08-16 18:46:30*
%MOMM*%
%LPD*%
G01*
G04 APERTURE LIST*
%ADD10C,0.150000*%
G04 APERTURE END LIST*
D10*
X-4545180Y-48571427D02*
X-4545180Y-48380951D01*
X-4545180Y-48380951D02*
X-4592800Y-48285713D01*
X-4592800Y-48285713D02*
X-4640419Y-48238094D01*
X-4640419Y-48238094D02*
X-4783276Y-48142856D01*
X-4783276Y-48142856D02*
X-4973752Y-48095237D01*
X-4973752Y-48095237D02*
X-5354704Y-48095237D01*
X-5354704Y-48095237D02*
X-5449942Y-48142856D01*
X-5449942Y-48142856D02*
X-5497561Y-48190475D01*
X-5497561Y-48190475D02*
X-5545180Y-48285713D01*
X-5545180Y-48285713D02*
X-5545180Y-48476189D01*
X-5545180Y-48476189D02*
X-5497561Y-48571427D01*
X-5497561Y-48571427D02*
X-5449942Y-48619046D01*
X-5449942Y-48619046D02*
X-5354704Y-48666665D01*
X-5354704Y-48666665D02*
X-5116609Y-48666665D01*
X-5116609Y-48666665D02*
X-5021371Y-48619046D01*
X-5021371Y-48619046D02*
X-4973752Y-48571427D01*
X-4973752Y-48571427D02*
X-4926133Y-48476189D01*
X-4926133Y-48476189D02*
X-4926133Y-48285713D01*
X-4926133Y-48285713D02*
X-4973752Y-48190475D01*
X-4973752Y-48190475D02*
X-5021371Y-48142856D01*
X-5021371Y-48142856D02*
X-5116609Y-48095237D01*
X-5545180Y-47476189D02*
X-5545180Y-47380951D01*
X-5545180Y-47380951D02*
X-5497561Y-47285713D01*
X-5497561Y-47285713D02*
X-5449942Y-47238094D01*
X-5449942Y-47238094D02*
X-5354704Y-47190475D01*
X-5354704Y-47190475D02*
X-5164228Y-47142856D01*
X-5164228Y-47142856D02*
X-4926133Y-47142856D01*
X-4926133Y-47142856D02*
X-4735657Y-47190475D01*
X-4735657Y-47190475D02*
X-4640419Y-47238094D01*
X-4640419Y-47238094D02*
X-4592800Y-47285713D01*
X-4592800Y-47285713D02*
X-4545180Y-47380951D01*
X-4545180Y-47380951D02*
X-4545180Y-47476189D01*
X-4545180Y-47476189D02*
X-4592800Y-47571427D01*
X-4592800Y-47571427D02*
X-4640419Y-47619046D01*
X-4640419Y-47619046D02*
X-4735657Y-47666665D01*
X-4735657Y-47666665D02*
X-4926133Y-47714284D01*
X-4926133Y-47714284D02*
X-5164228Y-47714284D01*
X-5164228Y-47714284D02*
X-5354704Y-47666665D01*
X-5354704Y-47666665D02*
X-5449942Y-47619046D01*
X-5449942Y-47619046D02*
X-5497561Y-47571427D01*
X-5497561Y-47571427D02*
X-5545180Y-47476189D01*
X-4640419Y-46714284D02*
X-4592800Y-46666665D01*
X-4592800Y-46666665D02*
X-4545180Y-46714284D01*
X-4545180Y-46714284D02*
X-4592800Y-46761903D01*
X-4592800Y-46761903D02*
X-4640419Y-46714284D01*
X-4640419Y-46714284D02*
X-4545180Y-46714284D01*
X-5545180Y-46047618D02*
X-5545180Y-45952380D01*
X-5545180Y-45952380D02*
X-5497561Y-45857142D01*
X-5497561Y-45857142D02*
X-5449942Y-45809523D01*
X-5449942Y-45809523D02*
X-5354704Y-45761904D01*
X-5354704Y-45761904D02*
X-5164228Y-45714285D01*
X-5164228Y-45714285D02*
X-4926133Y-45714285D01*
X-4926133Y-45714285D02*
X-4735657Y-45761904D01*
X-4735657Y-45761904D02*
X-4640419Y-45809523D01*
X-4640419Y-45809523D02*
X-4592800Y-45857142D01*
X-4592800Y-45857142D02*
X-4545180Y-45952380D01*
X-4545180Y-45952380D02*
X-4545180Y-46047618D01*
X-4545180Y-46047618D02*
X-4592800Y-46142856D01*
X-4592800Y-46142856D02*
X-4640419Y-46190475D01*
X-4640419Y-46190475D02*
X-4735657Y-46238094D01*
X-4735657Y-46238094D02*
X-4926133Y-46285713D01*
X-4926133Y-46285713D02*
X-5164228Y-46285713D01*
X-5164228Y-46285713D02*
X-5354704Y-46238094D01*
X-5354704Y-46238094D02*
X-5449942Y-46190475D01*
X-5449942Y-46190475D02*
X-5497561Y-46142856D01*
X-5497561Y-46142856D02*
X-5545180Y-46047618D01*
X-5545180Y-45095237D02*
X-5545180Y-44999999D01*
X-5545180Y-44999999D02*
X-5497561Y-44904761D01*
X-5497561Y-44904761D02*
X-5449942Y-44857142D01*
X-5449942Y-44857142D02*
X-5354704Y-44809523D01*
X-5354704Y-44809523D02*
X-5164228Y-44761904D01*
X-5164228Y-44761904D02*
X-4926133Y-44761904D01*
X-4926133Y-44761904D02*
X-4735657Y-44809523D01*
X-4735657Y-44809523D02*
X-4640419Y-44857142D01*
X-4640419Y-44857142D02*
X-4592800Y-44904761D01*
X-4592800Y-44904761D02*
X-4545180Y-44999999D01*
X-4545180Y-44999999D02*
X-4545180Y-45095237D01*
X-4545180Y-45095237D02*
X-4592800Y-45190475D01*
X-4592800Y-45190475D02*
X-4640419Y-45238094D01*
X-4640419Y-45238094D02*
X-4735657Y-45285713D01*
X-4735657Y-45285713D02*
X-4926133Y-45333332D01*
X-4926133Y-45333332D02*
X-5164228Y-45333332D01*
X-5164228Y-45333332D02*
X-5354704Y-45285713D01*
X-5354704Y-45285713D02*
X-5449942Y-45238094D01*
X-5449942Y-45238094D02*
X-5497561Y-45190475D01*
X-5497561Y-45190475D02*
X-5545180Y-45095237D01*
X-4545180Y-43571427D02*
X-5211847Y-43571427D01*
X-5116609Y-43571427D02*
X-5164228Y-43523808D01*
X-5164228Y-43523808D02*
X-5211847Y-43428570D01*
X-5211847Y-43428570D02*
X-5211847Y-43285713D01*
X-5211847Y-43285713D02*
X-5164228Y-43190475D01*
X-5164228Y-43190475D02*
X-5068990Y-43142856D01*
X-5068990Y-43142856D02*
X-4545180Y-43142856D01*
X-5068990Y-43142856D02*
X-5164228Y-43095237D01*
X-5164228Y-43095237D02*
X-5211847Y-42999999D01*
X-5211847Y-42999999D02*
X-5211847Y-42857142D01*
X-5211847Y-42857142D02*
X-5164228Y-42761903D01*
X-5164228Y-42761903D02*
X-5068990Y-42714284D01*
X-5068990Y-42714284D02*
X-4545180Y-42714284D01*
X-4545180Y-42238094D02*
X-5211847Y-42238094D01*
X-5116609Y-42238094D02*
X-5164228Y-42190475D01*
X-5164228Y-42190475D02*
X-5211847Y-42095237D01*
X-5211847Y-42095237D02*
X-5211847Y-41952380D01*
X-5211847Y-41952380D02*
X-5164228Y-41857142D01*
X-5164228Y-41857142D02*
X-5068990Y-41809523D01*
X-5068990Y-41809523D02*
X-4545180Y-41809523D01*
X-5068990Y-41809523D02*
X-5164228Y-41761904D01*
X-5164228Y-41761904D02*
X-5211847Y-41666666D01*
X-5211847Y-41666666D02*
X-5211847Y-41523809D01*
X-5211847Y-41523809D02*
X-5164228Y-41428570D01*
X-5164228Y-41428570D02*
X-5068990Y-41380951D01*
X-5068990Y-41380951D02*
X-4545180Y-41380951D01*
X3500000Y0D02*
X-5586420Y0D01*
X3500000Y-90000000D02*
X-5586420Y-90000000D01*
X-5000000Y0D02*
X-5000000Y-40517857D01*
X-5000000Y-49482142D02*
X-5000000Y-90000000D01*
X-5000000Y0D02*
X-4413579Y-1126504D01*
X-5000000Y0D02*
X-5586421Y-1126504D01*
X-5000000Y-90000000D02*
X-5586421Y-88873496D01*
X-5000000Y-90000000D02*
X-4413579Y-88873496D01*
X11285715Y5545180D02*
X11904762Y5545180D01*
X11904762Y5545180D02*
X11571429Y5164228D01*
X11571429Y5164228D02*
X11714286Y5164228D01*
X11714286Y5164228D02*
X11809524Y5116609D01*
X11809524Y5116609D02*
X11857143Y5068990D01*
X11857143Y5068990D02*
X11904762Y4973752D01*
X11904762Y4973752D02*
X11904762Y4735657D01*
X11904762Y4735657D02*
X11857143Y4640419D01*
X11857143Y4640419D02*
X11809524Y4592800D01*
X11809524Y4592800D02*
X11714286Y4545180D01*
X11714286Y4545180D02*
X11428572Y4545180D01*
X11428572Y4545180D02*
X11333334Y4592800D01*
X11333334Y4592800D02*
X11285715Y4640419D01*
X12523810Y5545180D02*
X12619048Y5545180D01*
X12619048Y5545180D02*
X12714286Y5497561D01*
X12714286Y5497561D02*
X12761905Y5449942D01*
X12761905Y5449942D02*
X12809524Y5354704D01*
X12809524Y5354704D02*
X12857143Y5164228D01*
X12857143Y5164228D02*
X12857143Y4926133D01*
X12857143Y4926133D02*
X12809524Y4735657D01*
X12809524Y4735657D02*
X12761905Y4640419D01*
X12761905Y4640419D02*
X12714286Y4592800D01*
X12714286Y4592800D02*
X12619048Y4545180D01*
X12619048Y4545180D02*
X12523810Y4545180D01*
X12523810Y4545180D02*
X12428572Y4592800D01*
X12428572Y4592800D02*
X12380953Y4640419D01*
X12380953Y4640419D02*
X12333334Y4735657D01*
X12333334Y4735657D02*
X12285715Y4926133D01*
X12285715Y4926133D02*
X12285715Y5164228D01*
X12285715Y5164228D02*
X12333334Y5354704D01*
X12333334Y5354704D02*
X12380953Y5449942D01*
X12380953Y5449942D02*
X12428572Y5497561D01*
X12428572Y5497561D02*
X12523810Y5545180D01*
X13285715Y4640419D02*
X13333334Y4592800D01*
X13333334Y4592800D02*
X13285715Y4545180D01*
X13285715Y4545180D02*
X13238096Y4592800D01*
X13238096Y4592800D02*
X13285715Y4640419D01*
X13285715Y4640419D02*
X13285715Y4545180D01*
X13952381Y5545180D02*
X14047619Y5545180D01*
X14047619Y5545180D02*
X14142857Y5497561D01*
X14142857Y5497561D02*
X14190476Y5449942D01*
X14190476Y5449942D02*
X14238095Y5354704D01*
X14238095Y5354704D02*
X14285714Y5164228D01*
X14285714Y5164228D02*
X14285714Y4926133D01*
X14285714Y4926133D02*
X14238095Y4735657D01*
X14238095Y4735657D02*
X14190476Y4640419D01*
X14190476Y4640419D02*
X14142857Y4592800D01*
X14142857Y4592800D02*
X14047619Y4545180D01*
X14047619Y4545180D02*
X13952381Y4545180D01*
X13952381Y4545180D02*
X13857143Y4592800D01*
X13857143Y4592800D02*
X13809524Y4640419D01*
X13809524Y4640419D02*
X13761905Y4735657D01*
X13761905Y4735657D02*
X13714286Y4926133D01*
X13714286Y4926133D02*
X13714286Y5164228D01*
X13714286Y5164228D02*
X13761905Y5354704D01*
X13761905Y5354704D02*
X13809524Y5449942D01*
X13809524Y5449942D02*
X13857143Y5497561D01*
X13857143Y5497561D02*
X13952381Y5545180D01*
X14904762Y5545180D02*
X15000000Y5545180D01*
X15000000Y5545180D02*
X15095238Y5497561D01*
X15095238Y5497561D02*
X15142857Y5449942D01*
X15142857Y5449942D02*
X15190476Y5354704D01*
X15190476Y5354704D02*
X15238095Y5164228D01*
X15238095Y5164228D02*
X15238095Y4926133D01*
X15238095Y4926133D02*
X15190476Y4735657D01*
X15190476Y4735657D02*
X15142857Y4640419D01*
X15142857Y4640419D02*
X15095238Y4592800D01*
X15095238Y4592800D02*
X15000000Y4545180D01*
X15000000Y4545180D02*
X14904762Y4545180D01*
X14904762Y4545180D02*
X14809524Y4592800D01*
X14809524Y4592800D02*
X14761905Y4640419D01*
X14761905Y4640419D02*
X14714286Y4735657D01*
X14714286Y4735657D02*
X14666667Y4926133D01*
X14666667Y4926133D02*
X14666667Y5164228D01*
X14666667Y5164228D02*
X14714286Y5354704D01*
X14714286Y5354704D02*
X14761905Y5449942D01*
X14761905Y5449942D02*
X14809524Y5497561D01*
X14809524Y5497561D02*
X14904762Y5545180D01*
X16428572Y4545180D02*
X16428572Y5211847D01*
X16428572Y5116609D02*
X16476191Y5164228D01*
X16476191Y5164228D02*
X16571429Y5211847D01*
X16571429Y5211847D02*
X16714286Y5211847D01*
X16714286Y5211847D02*
X16809524Y5164228D01*
X16809524Y5164228D02*
X16857143Y5068990D01*
X16857143Y5068990D02*
X16857143Y4545180D01*
X16857143Y5068990D02*
X16904762Y5164228D01*
X16904762Y5164228D02*
X17000000Y5211847D01*
X17000000Y5211847D02*
X17142857Y5211847D01*
X17142857Y5211847D02*
X17238096Y5164228D01*
X17238096Y5164228D02*
X17285715Y5068990D01*
X17285715Y5068990D02*
X17285715Y4545180D01*
X17761905Y4545180D02*
X17761905Y5211847D01*
X17761905Y5116609D02*
X17809524Y5164228D01*
X17809524Y5164228D02*
X17904762Y5211847D01*
X17904762Y5211847D02*
X18047619Y5211847D01*
X18047619Y5211847D02*
X18142857Y5164228D01*
X18142857Y5164228D02*
X18190476Y5068990D01*
X18190476Y5068990D02*
X18190476Y4545180D01*
X18190476Y5068990D02*
X18238095Y5164228D01*
X18238095Y5164228D02*
X18333333Y5211847D01*
X18333333Y5211847D02*
X18476190Y5211847D01*
X18476190Y5211847D02*
X18571429Y5164228D01*
X18571429Y5164228D02*
X18619048Y5068990D01*
X18619048Y5068990D02*
X18619048Y4545180D01*
X0Y-3500000D02*
X0Y5586420D01*
X30000000Y-3500000D02*
X30000000Y5586420D01*
X0Y5000000D02*
X10517858Y5000000D01*
X19482143Y5000000D02*
X30000000Y5000000D01*
X0Y5000000D02*
X1126504Y5586421D01*
X0Y5000000D02*
X1126504Y4413579D01*
X30000000Y5000000D02*
X28873496Y4413579D01*
X30000000Y5000000D02*
X28873496Y5586421D01*
%TO.C,H2*%
X7200000Y-86000000D02*
G75*
G02*
X800000Y-86000000I-3200000J0D01*
G01*
X800000Y-86000000D02*
G75*
G02*
X7200000Y-86000000I3200000J0D01*
G01*
%TO.C,H3*%
X29200000Y-4000000D02*
G75*
G02*
X22800000Y-4000000I-3200000J0D01*
G01*
X22800000Y-4000000D02*
G75*
G02*
X29200000Y-4000000I3200000J0D01*
G01*
%TO.C,H4*%
X29200000Y-86000000D02*
G75*
G02*
X22800000Y-86000000I-3200000J0D01*
G01*
X22800000Y-86000000D02*
G75*
G02*
X29200000Y-86000000I3200000J0D01*
G01*
%TO.C,H1*%
X7200000Y-4000000D02*
G75*
G02*
X800000Y-4000000I-3200000J0D01*
G01*
X800000Y-4000000D02*
G75*
G02*
X7200000Y-4000000I3200000J0D01*
G01*
%TD*%
M02*
