%TF.GenerationSoftware,KiCad,Pcbnew,8.0.4*%
%TF.CreationDate,2024-08-16T18:46:30+09:00*%
%TF.ProjectId,accel-brake-sig-converter-board,61636365-6c2d-4627-9261-6b652d736967,rev?*%
%TF.SameCoordinates,Original*%
%TF.FileFunction,Paste,Top*%
%TF.FilePolarity,Positive*%
%FSLAX46Y46*%
G04 Gerber Fmt 4.6, Leading zero omitted, Abs format (unit mm)*
G04 Created by KiCad (PCBNEW 8.0.4) date 2024-08-16 18:46:30*
%MOMM*%
%LPD*%
G01*
G04 APERTURE LIST*
G04 Aperture macros list*
%AMRoundRect*
0 Rectangle with rounded corners*
0 $1 Rounding radius*
0 $2 $3 $4 $5 $6 $7 $8 $9 X,Y pos of 4 corners*
0 Add a 4 corners polygon primitive as box body*
4,1,4,$2,$3,$4,$5,$6,$7,$8,$9,$2,$3,0*
0 Add four circle primitives for the rounded corners*
1,1,$1+$1,$2,$3*
1,1,$1+$1,$4,$5*
1,1,$1+$1,$6,$7*
1,1,$1+$1,$8,$9*
0 Add four rect primitives between the rounded corners*
20,1,$1+$1,$2,$3,$4,$5,0*
20,1,$1+$1,$4,$5,$6,$7,0*
20,1,$1+$1,$6,$7,$8,$9,0*
20,1,$1+$1,$8,$9,$2,$3,0*%
G04 Aperture macros list end*
%ADD10RoundRect,0.050000X0.700000X-0.250000X0.700000X0.250000X-0.700000X0.250000X-0.700000X-0.250000X0*%
%ADD11RoundRect,0.225000X0.250000X-0.225000X0.250000X0.225000X-0.250000X0.225000X-0.250000X-0.225000X0*%
%ADD12RoundRect,0.100000X0.350000X0.300000X-0.350000X0.300000X-0.350000X-0.300000X0.350000X-0.300000X0*%
%ADD13RoundRect,0.225000X-0.225000X-0.250000X0.225000X-0.250000X0.225000X0.250000X-0.225000X0.250000X0*%
%ADD14RoundRect,0.200000X-0.275000X0.200000X-0.275000X-0.200000X0.275000X-0.200000X0.275000X0.200000X0*%
%ADD15RoundRect,0.050000X0.350000X-0.350000X0.350000X0.350000X-0.350000X0.350000X-0.350000X-0.350000X0*%
%ADD16RoundRect,0.250000X0.312500X0.625000X-0.312500X0.625000X-0.312500X-0.625000X0.312500X-0.625000X0*%
%ADD17RoundRect,0.038158X-0.386842X-0.324342X0.386842X-0.324342X0.386842X0.324342X-0.386842X0.324342X0*%
%ADD18RoundRect,0.050000X-0.190000X-0.125000X0.190000X-0.125000X0.190000X0.125000X-0.190000X0.125000X0*%
%ADD19RoundRect,0.050000X0.400000X-0.350000X0.400000X0.350000X-0.400000X0.350000X-0.400000X-0.350000X0*%
%ADD20RoundRect,0.100000X-0.600000X1.200000X-0.600000X-1.200000X0.600000X-1.200000X0.600000X1.200000X0*%
%ADD21RoundRect,0.100000X-0.600000X0.550000X-0.600000X-0.550000X0.600000X-0.550000X0.600000X0.550000X0*%
%ADD22RoundRect,0.050000X1.300000X-0.450000X1.300000X0.450000X-1.300000X0.450000X-1.300000X-0.450000X0*%
%ADD23RoundRect,0.090000X1.810000X-0.810000X1.810000X0.810000X-1.810000X0.810000X-1.810000X-0.810000X0*%
%ADD24RoundRect,0.050000X0.350000X0.350000X-0.350000X0.350000X-0.350000X-0.350000X0.350000X-0.350000X0*%
%ADD25RoundRect,0.050000X-0.400000X0.200000X-0.400000X-0.200000X0.400000X-0.200000X0.400000X0.200000X0*%
%ADD26RoundRect,0.225000X-0.250000X0.225000X-0.250000X-0.225000X0.250000X-0.225000X0.250000X0.225000X0*%
%ADD27RoundRect,0.200000X0.275000X-0.200000X0.275000X0.200000X-0.275000X0.200000X-0.275000X-0.200000X0*%
%ADD28RoundRect,0.200000X0.200000X0.275000X-0.200000X0.275000X-0.200000X-0.275000X0.200000X-0.275000X0*%
%ADD29RoundRect,0.200000X-0.200000X-0.275000X0.200000X-0.275000X0.200000X0.275000X-0.200000X0.275000X0*%
%ADD30RoundRect,0.250000X-0.312500X-0.625000X0.312500X-0.625000X0.312500X0.625000X-0.312500X0.625000X0*%
%ADD31RoundRect,0.250000X-0.325000X-0.650000X0.325000X-0.650000X0.325000X0.650000X-0.325000X0.650000X0*%
G04 APERTURE END LIST*
D10*
%TO.C,U4*%
X23500000Y-21405000D03*
X23500000Y-20135000D03*
X23500000Y-18865000D03*
X23500000Y-17595000D03*
X18000000Y-17595000D03*
X18000000Y-18865000D03*
X18000000Y-20135000D03*
X18000000Y-21405000D03*
%TD*%
D11*
%TO.C,C19*%
X14250000Y-64275000D03*
X14250000Y-62725000D03*
%TD*%
D12*
%TO.C,Q5*%
X21250000Y-39700000D03*
X21250000Y-37800000D03*
X19250000Y-38750000D03*
%TD*%
D13*
%TO.C,C16*%
X17725000Y-71250000D03*
X19275000Y-71250000D03*
%TD*%
D14*
%TO.C,R30*%
X16000000Y-65925000D03*
X16000000Y-67575000D03*
%TD*%
D15*
%TO.C,D5*%
X23500000Y-55500000D03*
X23500000Y-54000000D03*
%TD*%
D16*
%TO.C,R33*%
X25212500Y-71750000D03*
X22287500Y-71750000D03*
%TD*%
D17*
%TO.C,U1*%
X20500000Y-10837500D03*
X20500000Y-11662500D03*
D18*
X19590000Y-10600000D03*
X19590000Y-11250000D03*
X19590000Y-11900000D03*
X21410000Y-11900000D03*
X21410000Y-11250000D03*
X21410000Y-10600000D03*
%TD*%
D15*
%TO.C,D4*%
X23500000Y-31500000D03*
X23500000Y-30000000D03*
%TD*%
D13*
%TO.C,C13*%
X17725000Y-73000000D03*
X19275000Y-73000000D03*
%TD*%
D14*
%TO.C,R8*%
X23500000Y-50675000D03*
X23500000Y-52325000D03*
%TD*%
D19*
%TO.C,Q2*%
X17750000Y-52700000D03*
X17750000Y-50800000D03*
X15750000Y-51750000D03*
%TD*%
D13*
%TO.C,C14*%
X17725000Y-23250000D03*
X19275000Y-23250000D03*
%TD*%
D20*
%TO.C,D2*%
X20250000Y-51525000D03*
D21*
X20250000Y-53975000D03*
%TD*%
D22*
%TO.C,J4*%
X9700000Y-13000000D03*
X9700000Y-15000000D03*
X9700000Y-17000000D03*
D23*
X5250000Y-10650000D03*
X5250000Y-19350000D03*
%TD*%
D22*
%TO.C,J6*%
X9700000Y-61000000D03*
X9700000Y-63000000D03*
X9700000Y-65000000D03*
D23*
X5250000Y-58650000D03*
X5250000Y-67350000D03*
%TD*%
D24*
%TO.C,D7*%
X17500000Y-14000000D03*
X16000000Y-14000000D03*
%TD*%
D14*
%TO.C,R25*%
X25500000Y-19925000D03*
X25500000Y-21575000D03*
%TD*%
D25*
%TO.C,F1*%
X13250000Y-25125000D03*
X13250000Y-26375000D03*
%TD*%
D26*
%TO.C,C10*%
X18000000Y-58475000D03*
X18000000Y-60025000D03*
%TD*%
D19*
%TO.C,Q3*%
X17750000Y-76700000D03*
X17750000Y-74800000D03*
X15750000Y-75750000D03*
%TD*%
%TO.C,Q1*%
X17750000Y-28700000D03*
X17750000Y-26800000D03*
X15750000Y-27750000D03*
%TD*%
D14*
%TO.C,R7*%
X23500000Y-26675000D03*
X23500000Y-28325000D03*
%TD*%
D11*
%TO.C,C18*%
X14250000Y-40275000D03*
X14250000Y-38725000D03*
%TD*%
D22*
%TO.C,J3*%
X9700000Y-73000000D03*
X9700000Y-75000000D03*
X9700000Y-77000000D03*
D23*
X5250000Y-70650000D03*
X5250000Y-79350000D03*
%TD*%
D10*
%TO.C,U5*%
X23500000Y-45405000D03*
X23500000Y-44135000D03*
X23500000Y-42865000D03*
X23500000Y-41595000D03*
X18000000Y-41595000D03*
X18000000Y-42865000D03*
X18000000Y-44135000D03*
X18000000Y-45405000D03*
%TD*%
D27*
%TO.C,R34*%
X12500000Y-16325000D03*
X12500000Y-14675000D03*
%TD*%
D28*
%TO.C,R5*%
X17575000Y-54500000D03*
X15925000Y-54500000D03*
%TD*%
D14*
%TO.C,R3*%
X27500000Y-55675000D03*
X27500000Y-57325000D03*
%TD*%
%TO.C,R16*%
X14500000Y-10425000D03*
X14500000Y-12075000D03*
%TD*%
D29*
%TO.C,R20*%
X15925000Y-15750000D03*
X17575000Y-15750000D03*
%TD*%
D28*
%TO.C,R6*%
X17575000Y-78500000D03*
X15925000Y-78500000D03*
%TD*%
D25*
%TO.C,F3*%
X13250000Y-73125000D03*
X13250000Y-74375000D03*
%TD*%
D14*
%TO.C,R23*%
X25500000Y-64675000D03*
X25500000Y-66325000D03*
%TD*%
D24*
%TO.C,D8*%
X17500000Y-38000000D03*
X16000000Y-38000000D03*
%TD*%
D22*
%TO.C,J2*%
X9700000Y-49000000D03*
X9700000Y-51000000D03*
X9700000Y-53000000D03*
D23*
X5250000Y-46650000D03*
X5250000Y-55350000D03*
%TD*%
D26*
%TO.C,C8*%
X18000000Y-10475000D03*
X18000000Y-12025000D03*
%TD*%
%TO.C,C9*%
X18000000Y-34475000D03*
X18000000Y-36025000D03*
%TD*%
D14*
%TO.C,R12*%
X23750000Y-61925000D03*
X23750000Y-63575000D03*
%TD*%
D22*
%TO.C,J1*%
X9700000Y-25000000D03*
X9700000Y-27000000D03*
X9700000Y-29000000D03*
D23*
X5250000Y-22650000D03*
X5250000Y-31350000D03*
%TD*%
D24*
%TO.C,D9*%
X17500000Y-62000000D03*
X16000000Y-62000000D03*
%TD*%
D14*
%TO.C,R2*%
X27500000Y-31675000D03*
X27500000Y-33325000D03*
%TD*%
D12*
%TO.C,Q6*%
X21250000Y-63700000D03*
X21250000Y-61800000D03*
X19250000Y-62750000D03*
%TD*%
D26*
%TO.C,C2*%
X24750000Y-10725000D03*
X24750000Y-12275000D03*
%TD*%
D14*
%TO.C,R26*%
X16000000Y-17925000D03*
X16000000Y-19575000D03*
%TD*%
D15*
%TO.C,D6*%
X23500000Y-79500000D03*
X23500000Y-78000000D03*
%TD*%
D25*
%TO.C,F2*%
X13250000Y-49125000D03*
X13250000Y-50375000D03*
%TD*%
D26*
%TO.C,C5*%
X23000000Y-10725000D03*
X23000000Y-12275000D03*
%TD*%
D29*
%TO.C,R22*%
X15925000Y-39750000D03*
X17575000Y-39750000D03*
%TD*%
D30*
%TO.C,R1*%
X9537500Y-2500000D03*
X12462500Y-2500000D03*
%TD*%
D14*
%TO.C,R14*%
X16250000Y-34425000D03*
X16250000Y-36075000D03*
%TD*%
%TO.C,R17*%
X14500000Y-34425000D03*
X14500000Y-36075000D03*
%TD*%
D22*
%TO.C,J5*%
X9700000Y-37000000D03*
X9700000Y-39000000D03*
X9700000Y-41000000D03*
D23*
X5250000Y-34650000D03*
X5250000Y-43350000D03*
%TD*%
D11*
%TO.C,C17*%
X14250000Y-16275000D03*
X14250000Y-14725000D03*
%TD*%
D14*
%TO.C,R13*%
X16250000Y-10425000D03*
X16250000Y-12075000D03*
%TD*%
%TO.C,R29*%
X25500000Y-67925000D03*
X25500000Y-69575000D03*
%TD*%
D28*
%TO.C,R4*%
X17575000Y-30500000D03*
X15925000Y-30500000D03*
%TD*%
D14*
%TO.C,R10*%
X23750000Y-13925000D03*
X23750000Y-15575000D03*
%TD*%
D16*
%TO.C,R31*%
X25212500Y-23750000D03*
X22287500Y-23750000D03*
%TD*%
D14*
%TO.C,R21*%
X25500000Y-40675000D03*
X25500000Y-42325000D03*
%TD*%
D12*
%TO.C,Q4*%
X21250000Y-15700000D03*
X21250000Y-13800000D03*
X19250000Y-14750000D03*
%TD*%
D20*
%TO.C,D3*%
X20250000Y-75525000D03*
D21*
X20250000Y-77975000D03*
%TD*%
D31*
%TO.C,C1*%
X9525000Y-5500000D03*
X12475000Y-5500000D03*
%TD*%
D14*
%TO.C,R15*%
X16250000Y-58425000D03*
X16250000Y-60075000D03*
%TD*%
D20*
%TO.C,D1*%
X20250000Y-27525000D03*
D21*
X20250000Y-29975000D03*
%TD*%
D26*
%TO.C,C4*%
X24750000Y-58725000D03*
X24750000Y-60275000D03*
%TD*%
D13*
%TO.C,C11*%
X17725000Y-25000000D03*
X19275000Y-25000000D03*
%TD*%
D14*
%TO.C,R9*%
X23500000Y-74675000D03*
X23500000Y-76325000D03*
%TD*%
D26*
%TO.C,C3*%
X24750000Y-34725000D03*
X24750000Y-36275000D03*
%TD*%
D14*
%TO.C,R27*%
X25500000Y-43925000D03*
X25500000Y-45575000D03*
%TD*%
D26*
%TO.C,C7*%
X23000000Y-58725000D03*
X23000000Y-60275000D03*
%TD*%
D27*
%TO.C,R36*%
X12500000Y-64325000D03*
X12500000Y-62675000D03*
%TD*%
D10*
%TO.C,U6*%
X23500000Y-69405000D03*
X23500000Y-68135000D03*
X23500000Y-66865000D03*
X23500000Y-65595000D03*
X18000000Y-65595000D03*
X18000000Y-66865000D03*
X18000000Y-68135000D03*
X18000000Y-69405000D03*
%TD*%
D29*
%TO.C,R24*%
X15925000Y-63750000D03*
X17575000Y-63750000D03*
%TD*%
D27*
%TO.C,R35*%
X12500000Y-40325000D03*
X12500000Y-38675000D03*
%TD*%
D26*
%TO.C,C6*%
X23000000Y-34725000D03*
X23000000Y-36275000D03*
%TD*%
D14*
%TO.C,R28*%
X16000000Y-41925000D03*
X16000000Y-43575000D03*
%TD*%
D17*
%TO.C,U2*%
X20500000Y-34837500D03*
X20500000Y-35662500D03*
D18*
X19590000Y-34600000D03*
X19590000Y-35250000D03*
X19590000Y-35900000D03*
X21410000Y-35900000D03*
X21410000Y-35250000D03*
X21410000Y-34600000D03*
%TD*%
D13*
%TO.C,C12*%
X17725000Y-49000000D03*
X19275000Y-49000000D03*
%TD*%
D14*
%TO.C,R18*%
X14500000Y-58425000D03*
X14500000Y-60075000D03*
%TD*%
%TO.C,R11*%
X23750000Y-37925000D03*
X23750000Y-39575000D03*
%TD*%
D13*
%TO.C,C15*%
X17725000Y-47250000D03*
X19275000Y-47250000D03*
%TD*%
D17*
%TO.C,U3*%
X20500000Y-58837500D03*
X20500000Y-59662500D03*
D18*
X19590000Y-58600000D03*
X19590000Y-59250000D03*
X19590000Y-59900000D03*
X21410000Y-59900000D03*
X21410000Y-59250000D03*
X21410000Y-58600000D03*
%TD*%
D14*
%TO.C,R19*%
X25500000Y-16675000D03*
X25500000Y-18325000D03*
%TD*%
D16*
%TO.C,R32*%
X25212500Y-47750000D03*
X22287500Y-47750000D03*
%TD*%
M02*
