%TF.GenerationSoftware,KiCad,Pcbnew,8.0.4*%
%TF.CreationDate,2024-08-16T18:46:30+09:00*%
%TF.ProjectId,accel-brake-sig-converter-board,61636365-6c2d-4627-9261-6b652d736967,rev?*%
%TF.SameCoordinates,Original*%
%TF.FileFunction,Copper,L1,Top*%
%TF.FilePolarity,Positive*%
%FSLAX46Y46*%
G04 Gerber Fmt 4.6, Leading zero omitted, Abs format (unit mm)*
G04 Created by KiCad (PCBNEW 8.0.4) date 2024-08-16 18:46:30*
%MOMM*%
%LPD*%
G01*
G04 APERTURE LIST*
G04 Aperture macros list*
%AMRoundRect*
0 Rectangle with rounded corners*
0 $1 Rounding radius*
0 $2 $3 $4 $5 $6 $7 $8 $9 X,Y pos of 4 corners*
0 Add a 4 corners polygon primitive as box body*
4,1,4,$2,$3,$4,$5,$6,$7,$8,$9,$2,$3,0*
0 Add four circle primitives for the rounded corners*
1,1,$1+$1,$2,$3*
1,1,$1+$1,$4,$5*
1,1,$1+$1,$6,$7*
1,1,$1+$1,$8,$9*
0 Add four rect primitives between the rounded corners*
20,1,$1+$1,$2,$3,$4,$5,0*
20,1,$1+$1,$4,$5,$6,$7,0*
20,1,$1+$1,$6,$7,$8,$9,0*
20,1,$1+$1,$8,$9,$2,$3,0*%
G04 Aperture macros list end*
%TA.AperFunction,SMDPad,CuDef*%
%ADD10RoundRect,0.050000X0.700000X-0.250000X0.700000X0.250000X-0.700000X0.250000X-0.700000X-0.250000X0*%
%TD*%
%TA.AperFunction,ComponentPad*%
%ADD11C,0.800000*%
%TD*%
%TA.AperFunction,ComponentPad*%
%ADD12C,6.400000*%
%TD*%
%TA.AperFunction,ConnectorPad*%
%ADD13C,1.000000*%
%TD*%
%TA.AperFunction,SMDPad,CuDef*%
%ADD14RoundRect,0.225000X0.250000X-0.225000X0.250000X0.225000X-0.250000X0.225000X-0.250000X-0.225000X0*%
%TD*%
%TA.AperFunction,SMDPad,CuDef*%
%ADD15RoundRect,0.100000X0.350000X0.300000X-0.350000X0.300000X-0.350000X-0.300000X0.350000X-0.300000X0*%
%TD*%
%TA.AperFunction,SMDPad,CuDef*%
%ADD16RoundRect,0.225000X-0.225000X-0.250000X0.225000X-0.250000X0.225000X0.250000X-0.225000X0.250000X0*%
%TD*%
%TA.AperFunction,SMDPad,CuDef*%
%ADD17RoundRect,0.200000X-0.275000X0.200000X-0.275000X-0.200000X0.275000X-0.200000X0.275000X0.200000X0*%
%TD*%
%TA.AperFunction,SMDPad,CuDef*%
%ADD18RoundRect,0.050000X0.350000X-0.350000X0.350000X0.350000X-0.350000X0.350000X-0.350000X-0.350000X0*%
%TD*%
%TA.AperFunction,SMDPad,CuDef*%
%ADD19RoundRect,0.250000X0.312500X0.625000X-0.312500X0.625000X-0.312500X-0.625000X0.312500X-0.625000X0*%
%TD*%
%TA.AperFunction,SMDPad,CuDef*%
%ADD20RoundRect,0.050000X-0.190000X-0.125000X0.190000X-0.125000X0.190000X0.125000X-0.190000X0.125000X0*%
%TD*%
%TA.AperFunction,SMDPad,CuDef*%
%ADD21RoundRect,0.050000X-0.425000X-0.775000X0.425000X-0.775000X0.425000X0.775000X-0.425000X0.775000X0*%
%TD*%
%TA.AperFunction,SMDPad,CuDef*%
%ADD22RoundRect,0.050000X0.400000X-0.350000X0.400000X0.350000X-0.400000X0.350000X-0.400000X-0.350000X0*%
%TD*%
%TA.AperFunction,SMDPad,CuDef*%
%ADD23RoundRect,0.100000X-0.600000X1.200000X-0.600000X-1.200000X0.600000X-1.200000X0.600000X1.200000X0*%
%TD*%
%TA.AperFunction,SMDPad,CuDef*%
%ADD24RoundRect,0.100000X-0.600000X0.550000X-0.600000X-0.550000X0.600000X-0.550000X0.600000X0.550000X0*%
%TD*%
%TA.AperFunction,SMDPad,CuDef*%
%ADD25RoundRect,0.050000X1.300000X-0.450000X1.300000X0.450000X-1.300000X0.450000X-1.300000X-0.450000X0*%
%TD*%
%TA.AperFunction,SMDPad,CuDef*%
%ADD26RoundRect,0.090000X1.810000X-0.810000X1.810000X0.810000X-1.810000X0.810000X-1.810000X-0.810000X0*%
%TD*%
%TA.AperFunction,SMDPad,CuDef*%
%ADD27RoundRect,0.050000X0.350000X0.350000X-0.350000X0.350000X-0.350000X-0.350000X0.350000X-0.350000X0*%
%TD*%
%TA.AperFunction,SMDPad,CuDef*%
%ADD28RoundRect,0.050000X-0.400000X0.200000X-0.400000X-0.200000X0.400000X-0.200000X0.400000X0.200000X0*%
%TD*%
%TA.AperFunction,SMDPad,CuDef*%
%ADD29RoundRect,0.225000X-0.250000X0.225000X-0.250000X-0.225000X0.250000X-0.225000X0.250000X0.225000X0*%
%TD*%
%TA.AperFunction,SMDPad,CuDef*%
%ADD30RoundRect,0.200000X0.275000X-0.200000X0.275000X0.200000X-0.275000X0.200000X-0.275000X-0.200000X0*%
%TD*%
%TA.AperFunction,SMDPad,CuDef*%
%ADD31RoundRect,0.200000X0.200000X0.275000X-0.200000X0.275000X-0.200000X-0.275000X0.200000X-0.275000X0*%
%TD*%
%TA.AperFunction,SMDPad,CuDef*%
%ADD32RoundRect,0.200000X-0.200000X-0.275000X0.200000X-0.275000X0.200000X0.275000X-0.200000X0.275000X0*%
%TD*%
%TA.AperFunction,SMDPad,CuDef*%
%ADD33RoundRect,0.250000X-0.312500X-0.625000X0.312500X-0.625000X0.312500X0.625000X-0.312500X0.625000X0*%
%TD*%
%TA.AperFunction,SMDPad,CuDef*%
%ADD34RoundRect,0.250000X-0.325000X-0.650000X0.325000X-0.650000X0.325000X0.650000X-0.325000X0.650000X0*%
%TD*%
%TA.AperFunction,ViaPad*%
%ADD35C,0.600000*%
%TD*%
%TA.AperFunction,Conductor*%
%ADD36C,0.500000*%
%TD*%
%TA.AperFunction,Conductor*%
%ADD37C,0.300000*%
%TD*%
G04 APERTURE END LIST*
D10*
%TO.P,U4,1*%
%TO.N,Net-(R25-Pad2)*%
X23500000Y-21405000D03*
%TO.P,U4,2,-*%
%TO.N,Net-(U4A--)*%
X23500000Y-20135000D03*
%TO.P,U4,3,+*%
%TO.N,Net-(U4A-+)*%
X23500000Y-18865000D03*
%TO.P,U4,4,V-*%
%TO.N,GND1*%
X23500000Y-17595000D03*
%TO.P,U4,5,+*%
%TO.N,ACCEL1_SIG_OUT_I*%
X18000000Y-17595000D03*
%TO.P,U4,6,-*%
%TO.N,Net-(U4B--)*%
X18000000Y-18865000D03*
%TO.P,U4,7*%
X18000000Y-20135000D03*
%TO.P,U4,8,V+*%
%TO.N,+12V1*%
X18000000Y-21405000D03*
%TD*%
D11*
%TO.P,H2,MP,MP*%
%TO.N,unconnected-(H2-PadMP)_6*%
X1600000Y-86000000D03*
%TO.N,unconnected-(H2-PadMP)_7*%
X2302944Y-84302944D03*
%TO.N,unconnected-(H2-PadMP)*%
X2302944Y-87697056D03*
%TO.N,unconnected-(H2-PadMP)_3*%
X4000000Y-83600000D03*
D12*
%TO.N,unconnected-(H2-PadMP)_5*%
X4000000Y-86000000D03*
D11*
%TO.N,unconnected-(H2-PadMP)_4*%
X4000000Y-88400000D03*
%TO.N,unconnected-(H2-PadMP)_2*%
X5697056Y-84302944D03*
%TO.N,unconnected-(H2-PadMP)_1*%
X5697056Y-87697056D03*
%TO.N,unconnected-(H2-PadMP)_8*%
X6400000Y-86000000D03*
%TD*%
D13*
%TO.P,REF\u002A\u002A,*%
%TO.N,*%
X16000000Y-4000000D03*
%TD*%
D14*
%TO.P,C19,1*%
%TO.N,BRAKE_SIG_IN_V*%
X14250000Y-64275000D03*
%TO.P,C19,2*%
%TO.N,GND3*%
X14250000Y-62725000D03*
%TD*%
D15*
%TO.P,Q5,1,G*%
%TO.N,Net-(Q5-G)*%
X21250000Y-39700000D03*
%TO.P,Q5,2,S*%
%TO.N,GND2*%
X21250000Y-37800000D03*
%TO.P,Q5,3,D*%
%TO.N,Net-(D8-K)*%
X19250000Y-38750000D03*
%TD*%
D16*
%TO.P,C16,1*%
%TO.N,+12V3*%
X17725000Y-71250000D03*
%TO.P,C16,2*%
%TO.N,GND3*%
X19275000Y-71250000D03*
%TD*%
D17*
%TO.P,R30,1*%
%TO.N,Net-(U6A-+)*%
X16000000Y-65925000D03*
%TO.P,R30,2*%
%TO.N,Net-(U6B--)*%
X16000000Y-67575000D03*
%TD*%
D18*
%TO.P,D5,1,K*%
%TO.N,GND2*%
X23500000Y-55500000D03*
%TO.P,D5,2,A*%
%TO.N,Net-(D5-A)*%
X23500000Y-54000000D03*
%TD*%
D19*
%TO.P,R33,1*%
%TO.N,Net-(R29-Pad2)*%
X25212500Y-71750000D03*
%TO.P,R33,2*%
%TO.N,BRAKE_SIG_OUT_I*%
X22287500Y-71750000D03*
%TD*%
D20*
%TO.P,U1,1,OUT*%
%TO.N,VCC1*%
X19590000Y-10600000D03*
%TO.P,U1,2,NC*%
%TO.N,unconnected-(U1-NC-Pad2)*%
X19590000Y-11250000D03*
%TO.P,U1,3,GND*%
%TO.N,GND1*%
X19590000Y-11900000D03*
%TO.P,U1,4,EN*%
%TO.N,unconnected-(U1-EN-Pad4)*%
X21410000Y-11900000D03*
%TO.P,U1,5,PG*%
%TO.N,Net-(U1-PG)*%
X21410000Y-11250000D03*
%TO.P,U1,6,IN*%
%TO.N,+12V1*%
X21410000Y-10600000D03*
D21*
%TO.P,U1,7,EP*%
%TO.N,GND1*%
X20500000Y-11250000D03*
%TD*%
D18*
%TO.P,D4,1,K*%
%TO.N,GND1*%
X23500000Y-31500000D03*
%TO.P,D4,2,A*%
%TO.N,Net-(D4-A)*%
X23500000Y-30000000D03*
%TD*%
D16*
%TO.P,C13,1*%
%TO.N,+12V3*%
X17725000Y-73000000D03*
%TO.P,C13,2*%
%TO.N,GND3*%
X19275000Y-73000000D03*
%TD*%
D17*
%TO.P,R8,1*%
%TO.N,+12V2*%
X23500000Y-50675000D03*
%TO.P,R8,2*%
%TO.N,Net-(D5-A)*%
X23500000Y-52325000D03*
%TD*%
D22*
%TO.P,Q2,1,G*%
%TO.N,Net-(D2-A)*%
X17750000Y-52700000D03*
%TO.P,Q2,2,S*%
%TO.N,+12V2*%
X17750000Y-50800000D03*
%TO.P,Q2,3,D*%
%TO.N,Net-(Q2-D)*%
X15750000Y-51750000D03*
%TD*%
D16*
%TO.P,C14,1*%
%TO.N,+12V1*%
X17725000Y-23250000D03*
%TO.P,C14,2*%
%TO.N,GND1*%
X19275000Y-23250000D03*
%TD*%
D23*
%TO.P,D2,1,K*%
%TO.N,+12V2*%
X20250000Y-51525000D03*
D24*
%TO.P,D2,2,A*%
%TO.N,Net-(D2-A)*%
X20250000Y-53975000D03*
%TD*%
D25*
%TO.P,J4,1,Pin_1*%
%TO.N,VCC1*%
X9700000Y-13000000D03*
%TO.P,J4,2,Pin_2*%
%TO.N,GND1*%
X9700000Y-15000000D03*
%TO.P,J4,3,Pin_3*%
%TO.N,ACCEL1_SIG_IN_V*%
X9700000Y-17000000D03*
D26*
%TO.P,J4,MP1,MountPin*%
%TO.N,GND1*%
X5250000Y-10650000D03*
%TO.P,J4,MP2,MountPin*%
X5250000Y-19350000D03*
%TD*%
D25*
%TO.P,J6,1,Pin_1*%
%TO.N,VCC3*%
X9700000Y-61000000D03*
%TO.P,J6,2,Pin_2*%
%TO.N,GND3*%
X9700000Y-63000000D03*
%TO.P,J6,3,Pin_3*%
%TO.N,BRAKE_SIG_IN_V*%
X9700000Y-65000000D03*
D26*
%TO.P,J6,MP1,MountPin*%
%TO.N,GND3*%
X5250000Y-58650000D03*
%TO.P,J6,MP2,MountPin*%
X5250000Y-67350000D03*
%TD*%
D27*
%TO.P,D7,1,K*%
%TO.N,Net-(D7-K)*%
X17500000Y-14000000D03*
%TO.P,D7,2,A*%
%TO.N,Net-(D7-A)*%
X16000000Y-14000000D03*
%TD*%
D17*
%TO.P,R25,1*%
%TO.N,Net-(U4A--)*%
X25500000Y-19925000D03*
%TO.P,R25,2*%
%TO.N,Net-(R25-Pad2)*%
X25500000Y-21575000D03*
%TD*%
D28*
%TO.P,F1,1*%
%TO.N,Net-(J1-Pin_1)*%
X13250000Y-25125000D03*
%TO.P,F1,2*%
%TO.N,Net-(Q1-D)*%
X13250000Y-26375000D03*
%TD*%
D29*
%TO.P,C10,1*%
%TO.N,VCC3*%
X18000000Y-58475000D03*
%TO.P,C10,2*%
%TO.N,GND3*%
X18000000Y-60025000D03*
%TD*%
D22*
%TO.P,Q3,1,G*%
%TO.N,Net-(D3-A)*%
X17750000Y-76700000D03*
%TO.P,Q3,2,S*%
%TO.N,+12V3*%
X17750000Y-74800000D03*
%TO.P,Q3,3,D*%
%TO.N,Net-(Q3-D)*%
X15750000Y-75750000D03*
%TD*%
%TO.P,Q1,1,G*%
%TO.N,Net-(D1-A)*%
X17750000Y-28700000D03*
%TO.P,Q1,2,S*%
%TO.N,+12V1*%
X17750000Y-26800000D03*
%TO.P,Q1,3,D*%
%TO.N,Net-(Q1-D)*%
X15750000Y-27750000D03*
%TD*%
D17*
%TO.P,R7,1*%
%TO.N,+12V1*%
X23500000Y-26675000D03*
%TO.P,R7,2*%
%TO.N,Net-(D4-A)*%
X23500000Y-28325000D03*
%TD*%
D14*
%TO.P,C18,1*%
%TO.N,ACCEL2_SIG_IN_V*%
X14250000Y-40275000D03*
%TO.P,C18,2*%
%TO.N,GND2*%
X14250000Y-38725000D03*
%TD*%
D25*
%TO.P,J3,1,Pin_1*%
%TO.N,Net-(J3-Pin_1)*%
X9700000Y-73000000D03*
%TO.P,J3,2,Pin_2*%
%TO.N,GND3*%
X9700000Y-75000000D03*
%TO.P,J3,3,Pin_3*%
%TO.N,BRAKE_SIG_OUT_I*%
X9700000Y-77000000D03*
D26*
%TO.P,J3,MP1,MountPin*%
%TO.N,GND3*%
X5250000Y-70650000D03*
%TO.P,J3,MP2,MountPin*%
X5250000Y-79350000D03*
%TD*%
D10*
%TO.P,U5,1*%
%TO.N,Net-(R27-Pad2)*%
X23500000Y-45405000D03*
%TO.P,U5,2,-*%
%TO.N,Net-(U5A--)*%
X23500000Y-44135000D03*
%TO.P,U5,3,+*%
%TO.N,Net-(U5A-+)*%
X23500000Y-42865000D03*
%TO.P,U5,4,V-*%
%TO.N,GND2*%
X23500000Y-41595000D03*
%TO.P,U5,5,+*%
%TO.N,ACCEL2_SIG_OUT_I*%
X18000000Y-41595000D03*
%TO.P,U5,6,-*%
%TO.N,Net-(U5B--)*%
X18000000Y-42865000D03*
%TO.P,U5,7*%
X18000000Y-44135000D03*
%TO.P,U5,8,V+*%
%TO.N,+12V2*%
X18000000Y-45405000D03*
%TD*%
D30*
%TO.P,R34,1*%
%TO.N,ACCEL1_SIG_IN_V*%
X12500000Y-16325000D03*
%TO.P,R34,2*%
%TO.N,GND1*%
X12500000Y-14675000D03*
%TD*%
D31*
%TO.P,R5,1*%
%TO.N,Net-(D2-A)*%
X17575000Y-54500000D03*
%TO.P,R5,2*%
%TO.N,GND2*%
X15925000Y-54500000D03*
%TD*%
D17*
%TO.P,R3,1*%
%TO.N,GND2*%
X27500000Y-55675000D03*
%TO.P,R3,2*%
%TO.N,GND3*%
X27500000Y-57325000D03*
%TD*%
%TO.P,R16,1*%
%TO.N,VCC1*%
X14500000Y-10425000D03*
%TO.P,R16,2*%
%TO.N,Net-(D7-A)*%
X14500000Y-12075000D03*
%TD*%
D32*
%TO.P,R20,1*%
%TO.N,ACCEL1_SIG_IN_V*%
X15925000Y-15750000D03*
%TO.P,R20,2*%
%TO.N,Net-(U4A-+)*%
X17575000Y-15750000D03*
%TD*%
D31*
%TO.P,R6,1*%
%TO.N,Net-(D3-A)*%
X17575000Y-78500000D03*
%TO.P,R6,2*%
%TO.N,GND3*%
X15925000Y-78500000D03*
%TD*%
D28*
%TO.P,F3,1*%
%TO.N,Net-(J3-Pin_1)*%
X13250000Y-73125000D03*
%TO.P,F3,2*%
%TO.N,Net-(Q3-D)*%
X13250000Y-74375000D03*
%TD*%
D17*
%TO.P,R23,1*%
%TO.N,GND3*%
X25500000Y-64675000D03*
%TO.P,R23,2*%
%TO.N,Net-(U6A--)*%
X25500000Y-66325000D03*
%TD*%
D27*
%TO.P,D8,1,K*%
%TO.N,Net-(D8-K)*%
X17500000Y-38000000D03*
%TO.P,D8,2,A*%
%TO.N,Net-(D8-A)*%
X16000000Y-38000000D03*
%TD*%
D25*
%TO.P,J2,1,Pin_1*%
%TO.N,Net-(J2-Pin_1)*%
X9700000Y-49000000D03*
%TO.P,J2,2,Pin_2*%
%TO.N,GND2*%
X9700000Y-51000000D03*
%TO.P,J2,3,Pin_3*%
%TO.N,ACCEL2_SIG_OUT_I*%
X9700000Y-53000000D03*
D26*
%TO.P,J2,MP1,MountPin*%
%TO.N,GND2*%
X5250000Y-46650000D03*
%TO.P,J2,MP2,MountPin*%
X5250000Y-55350000D03*
%TD*%
D29*
%TO.P,C8,1*%
%TO.N,VCC1*%
X18000000Y-10475000D03*
%TO.P,C8,2*%
%TO.N,GND1*%
X18000000Y-12025000D03*
%TD*%
%TO.P,C9,1*%
%TO.N,VCC2*%
X18000000Y-34475000D03*
%TO.P,C9,2*%
%TO.N,GND2*%
X18000000Y-36025000D03*
%TD*%
D17*
%TO.P,R12,1*%
%TO.N,Net-(U3-PG)*%
X23750000Y-61925000D03*
%TO.P,R12,2*%
%TO.N,Net-(Q6-G)*%
X23750000Y-63575000D03*
%TD*%
D25*
%TO.P,J1,1,Pin_1*%
%TO.N,Net-(J1-Pin_1)*%
X9700000Y-25000000D03*
%TO.P,J1,2,Pin_2*%
%TO.N,GND1*%
X9700000Y-27000000D03*
%TO.P,J1,3,Pin_3*%
%TO.N,ACCEL1_SIG_OUT_I*%
X9700000Y-29000000D03*
D26*
%TO.P,J1,MP1,MountPin*%
%TO.N,GND1*%
X5250000Y-22650000D03*
%TO.P,J1,MP2,MountPin*%
X5250000Y-31350000D03*
%TD*%
D11*
%TO.P,H3,MP,MP*%
%TO.N,unconnected-(H3-PadMP)_6*%
X23600000Y-4000000D03*
%TO.N,unconnected-(H3-PadMP)_1*%
X24302944Y-2302944D03*
%TO.N,unconnected-(H3-PadMP)_3*%
X24302944Y-5697056D03*
%TO.N,unconnected-(H3-PadMP)_4*%
X26000000Y-1600000D03*
D12*
%TO.N,unconnected-(H3-PadMP)_2*%
X26000000Y-4000000D03*
D11*
%TO.N,unconnected-(H3-PadMP)*%
X26000000Y-6400000D03*
%TO.N,unconnected-(H3-PadMP)_5*%
X27697056Y-2302944D03*
%TO.N,unconnected-(H3-PadMP)_8*%
X27697056Y-5697056D03*
%TO.N,unconnected-(H3-PadMP)_7*%
X28400000Y-4000000D03*
%TD*%
D27*
%TO.P,D9,1,K*%
%TO.N,Net-(D9-K)*%
X17500000Y-62000000D03*
%TO.P,D9,2,A*%
%TO.N,Net-(D9-A)*%
X16000000Y-62000000D03*
%TD*%
D17*
%TO.P,R2,1*%
%TO.N,GND1*%
X27500000Y-31675000D03*
%TO.P,R2,2*%
%TO.N,GND2*%
X27500000Y-33325000D03*
%TD*%
D15*
%TO.P,Q6,1,G*%
%TO.N,Net-(Q6-G)*%
X21250000Y-63700000D03*
%TO.P,Q6,2,S*%
%TO.N,GND3*%
X21250000Y-61800000D03*
%TO.P,Q6,3,D*%
%TO.N,Net-(D9-K)*%
X19250000Y-62750000D03*
%TD*%
D29*
%TO.P,C2,1*%
%TO.N,+12V1*%
X24750000Y-10725000D03*
%TO.P,C2,2*%
%TO.N,GND1*%
X24750000Y-12275000D03*
%TD*%
D17*
%TO.P,R26,1*%
%TO.N,Net-(U4A-+)*%
X16000000Y-17925000D03*
%TO.P,R26,2*%
%TO.N,Net-(U4B--)*%
X16000000Y-19575000D03*
%TD*%
D18*
%TO.P,D6,1,K*%
%TO.N,GND3*%
X23500000Y-79500000D03*
%TO.P,D6,2,A*%
%TO.N,Net-(D6-A)*%
X23500000Y-78000000D03*
%TD*%
D28*
%TO.P,F2,1*%
%TO.N,Net-(J2-Pin_1)*%
X13250000Y-49125000D03*
%TO.P,F2,2*%
%TO.N,Net-(Q2-D)*%
X13250000Y-50375000D03*
%TD*%
D29*
%TO.P,C5,1*%
%TO.N,+12V1*%
X23000000Y-10725000D03*
%TO.P,C5,2*%
%TO.N,GND1*%
X23000000Y-12275000D03*
%TD*%
D32*
%TO.P,R22,1*%
%TO.N,ACCEL2_SIG_IN_V*%
X15925000Y-39750000D03*
%TO.P,R22,2*%
%TO.N,Net-(U5A-+)*%
X17575000Y-39750000D03*
%TD*%
D33*
%TO.P,R1,1*%
%TO.N,Chassis*%
X9537500Y-2500000D03*
%TO.P,R1,2*%
%TO.N,GND1*%
X12462500Y-2500000D03*
%TD*%
D13*
%TO.P,REF\u002A\u002A,*%
%TO.N,*%
X20000000Y-83000000D03*
%TD*%
D17*
%TO.P,R14,1*%
%TO.N,VCC2*%
X16250000Y-34425000D03*
%TO.P,R14,2*%
%TO.N,Net-(Q5-G)*%
X16250000Y-36075000D03*
%TD*%
%TO.P,R17,1*%
%TO.N,VCC2*%
X14500000Y-34425000D03*
%TO.P,R17,2*%
%TO.N,Net-(D8-A)*%
X14500000Y-36075000D03*
%TD*%
D25*
%TO.P,J5,1,Pin_1*%
%TO.N,VCC2*%
X9700000Y-37000000D03*
%TO.P,J5,2,Pin_2*%
%TO.N,GND2*%
X9700000Y-39000000D03*
%TO.P,J5,3,Pin_3*%
%TO.N,ACCEL2_SIG_IN_V*%
X9700000Y-41000000D03*
D26*
%TO.P,J5,MP1,MountPin*%
%TO.N,GND2*%
X5250000Y-34650000D03*
%TO.P,J5,MP2,MountPin*%
X5250000Y-43350000D03*
%TD*%
D14*
%TO.P,C17,1*%
%TO.N,ACCEL1_SIG_IN_V*%
X14250000Y-16275000D03*
%TO.P,C17,2*%
%TO.N,GND1*%
X14250000Y-14725000D03*
%TD*%
D17*
%TO.P,R13,1*%
%TO.N,VCC1*%
X16250000Y-10425000D03*
%TO.P,R13,2*%
%TO.N,Net-(Q4-G)*%
X16250000Y-12075000D03*
%TD*%
%TO.P,R29,1*%
%TO.N,Net-(U6A--)*%
X25500000Y-67925000D03*
%TO.P,R29,2*%
%TO.N,Net-(R29-Pad2)*%
X25500000Y-69575000D03*
%TD*%
D31*
%TO.P,R4,1*%
%TO.N,Net-(D1-A)*%
X17575000Y-30500000D03*
%TO.P,R4,2*%
%TO.N,GND1*%
X15925000Y-30500000D03*
%TD*%
D17*
%TO.P,R10,1*%
%TO.N,Net-(U1-PG)*%
X23750000Y-13925000D03*
%TO.P,R10,2*%
%TO.N,Net-(Q4-G)*%
X23750000Y-15575000D03*
%TD*%
D19*
%TO.P,R31,1*%
%TO.N,Net-(R25-Pad2)*%
X25212500Y-23750000D03*
%TO.P,R31,2*%
%TO.N,ACCEL1_SIG_OUT_I*%
X22287500Y-23750000D03*
%TD*%
D17*
%TO.P,R21,1*%
%TO.N,GND2*%
X25500000Y-40675000D03*
%TO.P,R21,2*%
%TO.N,Net-(U5A--)*%
X25500000Y-42325000D03*
%TD*%
D15*
%TO.P,Q4,1,G*%
%TO.N,Net-(Q4-G)*%
X21250000Y-15700000D03*
%TO.P,Q4,2,S*%
%TO.N,GND1*%
X21250000Y-13800000D03*
%TO.P,Q4,3,D*%
%TO.N,Net-(D7-K)*%
X19250000Y-14750000D03*
%TD*%
D23*
%TO.P,D3,1,K*%
%TO.N,+12V3*%
X20250000Y-75525000D03*
D24*
%TO.P,D3,2,A*%
%TO.N,Net-(D3-A)*%
X20250000Y-77975000D03*
%TD*%
D34*
%TO.P,C1,1*%
%TO.N,Chassis*%
X9525000Y-5500000D03*
%TO.P,C1,2*%
%TO.N,GND1*%
X12475000Y-5500000D03*
%TD*%
D17*
%TO.P,R15,1*%
%TO.N,VCC3*%
X16250000Y-58425000D03*
%TO.P,R15,2*%
%TO.N,Net-(Q6-G)*%
X16250000Y-60075000D03*
%TD*%
D23*
%TO.P,D1,1,K*%
%TO.N,+12V1*%
X20250000Y-27525000D03*
D24*
%TO.P,D1,2,A*%
%TO.N,Net-(D1-A)*%
X20250000Y-29975000D03*
%TD*%
D29*
%TO.P,C4,1*%
%TO.N,+12V3*%
X24750000Y-58725000D03*
%TO.P,C4,2*%
%TO.N,GND3*%
X24750000Y-60275000D03*
%TD*%
D16*
%TO.P,C11,1*%
%TO.N,+12V1*%
X17725000Y-25000000D03*
%TO.P,C11,2*%
%TO.N,GND1*%
X19275000Y-25000000D03*
%TD*%
D17*
%TO.P,R9,1*%
%TO.N,+12V3*%
X23500000Y-74675000D03*
%TO.P,R9,2*%
%TO.N,Net-(D6-A)*%
X23500000Y-76325000D03*
%TD*%
D11*
%TO.P,H4,MP,MP*%
%TO.N,unconnected-(H4-PadMP)*%
X23600000Y-86000000D03*
%TO.N,unconnected-(H4-PadMP)_7*%
X24302944Y-84302944D03*
%TO.N,unconnected-(H4-PadMP)_2*%
X24302944Y-87697056D03*
%TO.N,unconnected-(H4-PadMP)_5*%
X26000000Y-83600000D03*
D12*
%TO.N,unconnected-(H4-PadMP)_6*%
X26000000Y-86000000D03*
D11*
%TO.N,unconnected-(H4-PadMP)_4*%
X26000000Y-88400000D03*
%TO.N,unconnected-(H4-PadMP)_1*%
X27697056Y-84302944D03*
%TO.N,unconnected-(H4-PadMP)_8*%
X27697056Y-87697056D03*
%TO.N,unconnected-(H4-PadMP)_3*%
X28400000Y-86000000D03*
%TD*%
D29*
%TO.P,C3,1*%
%TO.N,+12V2*%
X24750000Y-34725000D03*
%TO.P,C3,2*%
%TO.N,GND2*%
X24750000Y-36275000D03*
%TD*%
D17*
%TO.P,R27,1*%
%TO.N,Net-(U5A--)*%
X25500000Y-43925000D03*
%TO.P,R27,2*%
%TO.N,Net-(R27-Pad2)*%
X25500000Y-45575000D03*
%TD*%
D29*
%TO.P,C7,1*%
%TO.N,+12V3*%
X23000000Y-58725000D03*
%TO.P,C7,2*%
%TO.N,GND3*%
X23000000Y-60275000D03*
%TD*%
D30*
%TO.P,R36,1*%
%TO.N,BRAKE_SIG_IN_V*%
X12500000Y-64325000D03*
%TO.P,R36,2*%
%TO.N,GND3*%
X12500000Y-62675000D03*
%TD*%
D10*
%TO.P,U6,1*%
%TO.N,Net-(R29-Pad2)*%
X23500000Y-69405000D03*
%TO.P,U6,2,-*%
%TO.N,Net-(U6A--)*%
X23500000Y-68135000D03*
%TO.P,U6,3,+*%
%TO.N,Net-(U6A-+)*%
X23500000Y-66865000D03*
%TO.P,U6,4,V-*%
%TO.N,GND3*%
X23500000Y-65595000D03*
%TO.P,U6,5,+*%
%TO.N,BRAKE_SIG_OUT_I*%
X18000000Y-65595000D03*
%TO.P,U6,6,-*%
%TO.N,Net-(U6B--)*%
X18000000Y-66865000D03*
%TO.P,U6,7*%
X18000000Y-68135000D03*
%TO.P,U6,8,V+*%
%TO.N,+12V3*%
X18000000Y-69405000D03*
%TD*%
D32*
%TO.P,R24,1*%
%TO.N,BRAKE_SIG_IN_V*%
X15925000Y-63750000D03*
%TO.P,R24,2*%
%TO.N,Net-(U6A-+)*%
X17575000Y-63750000D03*
%TD*%
D30*
%TO.P,R35,1*%
%TO.N,ACCEL2_SIG_IN_V*%
X12500000Y-40325000D03*
%TO.P,R35,2*%
%TO.N,GND2*%
X12500000Y-38675000D03*
%TD*%
D29*
%TO.P,C6,1*%
%TO.N,+12V2*%
X23000000Y-34725000D03*
%TO.P,C6,2*%
%TO.N,GND2*%
X23000000Y-36275000D03*
%TD*%
D17*
%TO.P,R28,1*%
%TO.N,Net-(U5A-+)*%
X16000000Y-41925000D03*
%TO.P,R28,2*%
%TO.N,Net-(U5B--)*%
X16000000Y-43575000D03*
%TD*%
D11*
%TO.P,H1,MP,MP*%
%TO.N,Chassis*%
X1600000Y-4000000D03*
X2302944Y-2302944D03*
X2302944Y-5697056D03*
X4000000Y-1600000D03*
D12*
X4000000Y-4000000D03*
D11*
X4000000Y-6400000D03*
X5697056Y-2302944D03*
X5697056Y-5697056D03*
X6400000Y-4000000D03*
%TD*%
D20*
%TO.P,U2,1,OUT*%
%TO.N,VCC2*%
X19590000Y-34600000D03*
%TO.P,U2,2,NC*%
%TO.N,unconnected-(U2-NC-Pad2)*%
X19590000Y-35250000D03*
%TO.P,U2,3,GND*%
%TO.N,GND2*%
X19590000Y-35900000D03*
%TO.P,U2,4,EN*%
%TO.N,unconnected-(U2-EN-Pad4)*%
X21410000Y-35900000D03*
%TO.P,U2,5,PG*%
%TO.N,Net-(U2-PG)*%
X21410000Y-35250000D03*
%TO.P,U2,6,IN*%
%TO.N,+12V2*%
X21410000Y-34600000D03*
D21*
%TO.P,U2,7,EP*%
%TO.N,GND2*%
X20500000Y-35250000D03*
%TD*%
D16*
%TO.P,C12,1*%
%TO.N,+12V2*%
X17725000Y-49000000D03*
%TO.P,C12,2*%
%TO.N,GND2*%
X19275000Y-49000000D03*
%TD*%
D17*
%TO.P,R18,1*%
%TO.N,VCC3*%
X14500000Y-58425000D03*
%TO.P,R18,2*%
%TO.N,Net-(D9-A)*%
X14500000Y-60075000D03*
%TD*%
%TO.P,R11,1*%
%TO.N,Net-(U2-PG)*%
X23750000Y-37925000D03*
%TO.P,R11,2*%
%TO.N,Net-(Q5-G)*%
X23750000Y-39575000D03*
%TD*%
D13*
%TO.P,REF\u002A\u002A,*%
%TO.N,*%
X10000000Y-83000000D03*
%TD*%
D16*
%TO.P,C15,1*%
%TO.N,+12V2*%
X17725000Y-47250000D03*
%TO.P,C15,2*%
%TO.N,GND2*%
X19275000Y-47250000D03*
%TD*%
D20*
%TO.P,U3,1,OUT*%
%TO.N,VCC3*%
X19590000Y-58600000D03*
%TO.P,U3,2,NC*%
%TO.N,unconnected-(U3-NC-Pad2)*%
X19590000Y-59250000D03*
%TO.P,U3,3,GND*%
%TO.N,GND3*%
X19590000Y-59900000D03*
%TO.P,U3,4,EN*%
%TO.N,unconnected-(U3-EN-Pad4)*%
X21410000Y-59900000D03*
%TO.P,U3,5,PG*%
%TO.N,Net-(U3-PG)*%
X21410000Y-59250000D03*
%TO.P,U3,6,IN*%
%TO.N,+12V3*%
X21410000Y-58600000D03*
D21*
%TO.P,U3,7,EP*%
%TO.N,GND3*%
X20500000Y-59250000D03*
%TD*%
D17*
%TO.P,R19,1*%
%TO.N,GND1*%
X25500000Y-16675000D03*
%TO.P,R19,2*%
%TO.N,Net-(U4A--)*%
X25500000Y-18325000D03*
%TD*%
D19*
%TO.P,R32,1*%
%TO.N,Net-(R27-Pad2)*%
X25212500Y-47750000D03*
%TO.P,R32,2*%
%TO.N,ACCEL2_SIG_OUT_I*%
X22287500Y-47750000D03*
%TD*%
D35*
%TO.N,GND1*%
X18500000Y-31750000D03*
X1000000Y-26750000D03*
X12750000Y-13250000D03*
X27500000Y-10250000D03*
X17500000Y-9250000D03*
X29000000Y-9250000D03*
X16500000Y-26500000D03*
X15000000Y-9250000D03*
X29000000Y-11750000D03*
X25000000Y-9500000D03*
X7500000Y-17000000D03*
X21000000Y-31750000D03*
X13500000Y-1000000D03*
X22050000Y-19750000D03*
X22500000Y-14750000D03*
X29000000Y-19250000D03*
X8000000Y-31750000D03*
X19500000Y-19000000D03*
X13000000Y-31750000D03*
X12250000Y-30000000D03*
X16000000Y-1000000D03*
X12250000Y-23750000D03*
X14750000Y-19750000D03*
X22500000Y-9500000D03*
X20500000Y-11750000D03*
X20450000Y-23250000D03*
X1000000Y-21750000D03*
X22000000Y-4000000D03*
X20250000Y-20500000D03*
X23500000Y-1000000D03*
X29000000Y-21750000D03*
X29000000Y-29250000D03*
X13750000Y-5500000D03*
X21750000Y-17750000D03*
X20500000Y-10750000D03*
X23250000Y-6750000D03*
X24750000Y-28000000D03*
X22500000Y-16500000D03*
X9750000Y-11750000D03*
X12500000Y-9250000D03*
X7750000Y-9250000D03*
X1000000Y-9250000D03*
X9750000Y-30250000D03*
X25500000Y-15500000D03*
X10250000Y-8750000D03*
X7500000Y-13000000D03*
X1000000Y-11750000D03*
X22250000Y-28750000D03*
X29000000Y-26750000D03*
X12000000Y-27250000D03*
X22250000Y-22250000D03*
X13750000Y-2500000D03*
X24750000Y-31750000D03*
X2500000Y-31750000D03*
X2750000Y-9250000D03*
X29000000Y-16750000D03*
X19500000Y-21750000D03*
X1000000Y-16750000D03*
X1000000Y-14250000D03*
X29000000Y-14250000D03*
X12500000Y-7250000D03*
X14500000Y-24250000D03*
X29000000Y-6750000D03*
X14750000Y-17500000D03*
X27000000Y-28000000D03*
X1000000Y-29250000D03*
X12750000Y-28000000D03*
X23750000Y-22500000D03*
X29000000Y-31750000D03*
X21000000Y-25250000D03*
X29000000Y-24250000D03*
X7500000Y-27000000D03*
X26250000Y-31750000D03*
X16500000Y-23500000D03*
X9750000Y-18250000D03*
X14500000Y-30000000D03*
X25250000Y-25250000D03*
X24750000Y-29750000D03*
X16500000Y-21000000D03*
X1000000Y-19250000D03*
X12250000Y-17750000D03*
X7500000Y-29000000D03*
X16000000Y-31750000D03*
X1000000Y-24250000D03*
X7500000Y-15000000D03*
X21000000Y-1000000D03*
X10500000Y-31750000D03*
X18500000Y-1000000D03*
X25000000Y-13750000D03*
X7500000Y-25000000D03*
X23000000Y-25250000D03*
X1000000Y-31750000D03*
X26000000Y-8000000D03*
X9750000Y-23750000D03*
X20000000Y-9250000D03*
X14000000Y-13250000D03*
%TO.N,Chassis*%
X9500000Y-7000000D03*
X9500000Y-1000000D03*
X6750000Y-7000000D03*
X8500000Y-2500000D03*
X6750000Y-1000000D03*
X9500000Y-4000000D03*
X8500000Y-5500000D03*
X1000000Y-7000000D03*
%TO.N,GND2*%
X14750000Y-43750000D03*
X12500000Y-47750000D03*
X14750000Y-48500000D03*
X12000000Y-51250000D03*
X15250000Y-33250000D03*
X8000000Y-55750000D03*
X25500000Y-39500000D03*
X1000000Y-45750000D03*
X21000000Y-55750000D03*
X19500000Y-43000000D03*
X18500000Y-55750000D03*
X1000000Y-40750000D03*
X20500000Y-34750000D03*
X26250000Y-33250000D03*
X22750000Y-33250000D03*
X24750000Y-55750000D03*
X7500000Y-39000000D03*
X13000000Y-55750000D03*
X29000000Y-53250000D03*
X2750000Y-33250000D03*
X1000000Y-43250000D03*
X20500000Y-35750000D03*
X19500000Y-45750000D03*
X29000000Y-33250000D03*
X9750000Y-35750000D03*
X12250000Y-54000000D03*
X29000000Y-43250000D03*
X1000000Y-48250000D03*
X14500000Y-54000000D03*
X22250000Y-46250000D03*
X21750000Y-41500000D03*
X16500000Y-50500000D03*
X10500000Y-55750000D03*
X9750000Y-47750000D03*
X12750000Y-52000000D03*
X7500000Y-41000000D03*
X16500000Y-47500000D03*
X12750000Y-33250000D03*
X1000000Y-33250000D03*
X29000000Y-45750000D03*
X22050000Y-43750000D03*
X16500000Y-45000000D03*
X24500000Y-33250000D03*
X12750000Y-37250000D03*
X25000000Y-37750000D03*
X7500000Y-51000000D03*
X23750000Y-46500000D03*
X1000000Y-53250000D03*
X17750000Y-33250000D03*
X1000000Y-38250000D03*
X24750000Y-52000000D03*
X20450000Y-47250000D03*
X29000000Y-40750000D03*
X9750000Y-54250000D03*
X7750000Y-33250000D03*
X14750000Y-41500000D03*
X10250000Y-33250000D03*
X7500000Y-49000000D03*
X1000000Y-55750000D03*
X1000000Y-50750000D03*
X26250000Y-55750000D03*
X29000000Y-38250000D03*
X7500000Y-53000000D03*
X22500000Y-40500000D03*
X2500000Y-55750000D03*
X27000000Y-52000000D03*
X22500000Y-38750000D03*
X22250000Y-52750000D03*
X12250000Y-41750000D03*
X20250000Y-33250000D03*
X16000000Y-55750000D03*
X29000000Y-48250000D03*
X20250000Y-44500000D03*
X29000000Y-55750000D03*
X14000000Y-37250000D03*
X28000000Y-34750000D03*
X24750000Y-54000000D03*
X7500000Y-37000000D03*
X25000000Y-49250000D03*
X29000000Y-35750000D03*
X9750000Y-42250000D03*
X1000000Y-35750000D03*
X21000000Y-49250000D03*
X29000000Y-50750000D03*
%TO.N,GND3*%
X29000000Y-79750000D03*
X29000000Y-57250000D03*
X21250000Y-79250000D03*
X20500000Y-71200000D03*
X12750000Y-76000000D03*
X1000000Y-77250000D03*
X29000000Y-67250000D03*
X25500000Y-63500000D03*
X20500000Y-59750000D03*
X9750000Y-78250000D03*
X26000000Y-82000000D03*
X26250000Y-57250000D03*
X14750000Y-65500000D03*
X29000000Y-82250000D03*
X20000000Y-89000000D03*
X2750000Y-57250000D03*
X24750000Y-78500000D03*
X1000000Y-69750000D03*
X21000000Y-73250000D03*
X7500000Y-63000000D03*
X29000000Y-72250000D03*
X25000000Y-73250000D03*
X14500000Y-72250000D03*
X9750000Y-66250000D03*
X9750000Y-59750000D03*
X20250000Y-68500000D03*
X7500000Y-65000000D03*
X12750000Y-61250000D03*
X20500000Y-58750000D03*
X19500000Y-69750000D03*
X12000000Y-75250000D03*
X23250000Y-83250000D03*
X14500000Y-78000000D03*
X27000000Y-76000000D03*
X1000000Y-72250000D03*
X22250000Y-70250000D03*
X22500000Y-89000000D03*
X22050000Y-67750000D03*
X29000000Y-74750000D03*
X1000000Y-57250000D03*
X20250000Y-57250000D03*
X22000000Y-86000000D03*
X7500000Y-75000000D03*
X22500000Y-62750000D03*
X24500000Y-57250000D03*
X21750000Y-65500000D03*
X16500000Y-74500000D03*
X12250000Y-65750000D03*
X1000000Y-74750000D03*
X12250000Y-78000000D03*
X7500000Y-61000000D03*
X29000000Y-77250000D03*
X29000000Y-62250000D03*
X23750000Y-70500000D03*
X16000000Y-79750000D03*
X14000000Y-61250000D03*
X22500000Y-64500000D03*
X29000000Y-59750000D03*
X16500000Y-71500000D03*
X10250000Y-57250000D03*
X7500000Y-77000000D03*
X8000000Y-86000000D03*
X17750000Y-57250000D03*
X15250000Y-57250000D03*
X23500000Y-80750000D03*
X12750000Y-57250000D03*
X1000000Y-59750000D03*
X19500000Y-67000000D03*
X9750000Y-71750000D03*
X12500000Y-89000000D03*
X15000000Y-89000000D03*
X22250000Y-76750000D03*
X16500000Y-69000000D03*
X1000000Y-82250000D03*
X28000000Y-58750000D03*
X1000000Y-62250000D03*
X1000000Y-67250000D03*
X6750000Y-83250000D03*
X7500000Y-89000000D03*
X29000000Y-69750000D03*
X12250000Y-71750000D03*
X10000000Y-89000000D03*
X14750000Y-67750000D03*
X1000000Y-79750000D03*
X4000000Y-82000000D03*
X29000000Y-64750000D03*
X25000000Y-61750000D03*
X24750000Y-76000000D03*
X17500000Y-89000000D03*
X18750000Y-79250000D03*
X7750000Y-57250000D03*
X22750000Y-57250000D03*
X7500000Y-73000000D03*
X1000000Y-64750000D03*
%TO.N,ACCEL1_SIG_OUT_I*%
X12250000Y-29000000D03*
X21250000Y-23750000D03*
%TO.N,ACCEL2_SIG_OUT_I*%
X12250000Y-53000000D03*
X21250000Y-47750000D03*
%TO.N,BRAKE_SIG_OUT_I*%
X21250000Y-71750000D03*
X12250000Y-77000000D03*
%TD*%
D36*
%TO.N,GND1*%
X12175000Y-15000000D02*
X12500000Y-14675000D01*
X9700000Y-15000000D02*
X12175000Y-15000000D01*
%TO.N,GND2*%
X9700000Y-39000000D02*
X12175000Y-39000000D01*
X12175000Y-39000000D02*
X12500000Y-38675000D01*
%TO.N,GND3*%
X12175000Y-63000000D02*
X12500000Y-62675000D01*
X9700000Y-63000000D02*
X12175000Y-63000000D01*
D37*
%TO.N,ACCEL1_SIG_IN_V*%
X9700000Y-17000000D02*
X11825000Y-17000000D01*
X11825000Y-17000000D02*
X12500000Y-16325000D01*
X14250000Y-16275000D02*
X15400000Y-16275000D01*
X12500000Y-16325000D02*
X14200000Y-16325000D01*
X15400000Y-16275000D02*
X15925000Y-15750000D01*
X14200000Y-16325000D02*
X14250000Y-16275000D01*
%TO.N,ACCEL2_SIG_IN_V*%
X11825000Y-41000000D02*
X12500000Y-40325000D01*
X14200000Y-40325000D02*
X14250000Y-40275000D01*
X9700000Y-41000000D02*
X11825000Y-41000000D01*
X14250000Y-40275000D02*
X15400000Y-40275000D01*
X12500000Y-40325000D02*
X14200000Y-40325000D01*
X15400000Y-40275000D02*
X15925000Y-39750000D01*
%TO.N,BRAKE_SIG_IN_V*%
X14200000Y-64325000D02*
X14250000Y-64275000D01*
X15400000Y-64275000D02*
X15925000Y-63750000D01*
X9700000Y-65000000D02*
X11825000Y-65000000D01*
X12500000Y-64325000D02*
X14200000Y-64325000D01*
X14250000Y-64275000D02*
X15400000Y-64275000D01*
X11825000Y-65000000D02*
X12500000Y-64325000D01*
%TO.N,Net-(D1-A)*%
X17575000Y-28875000D02*
X17750000Y-28700000D01*
X17575000Y-30500000D02*
X17575000Y-28875000D01*
X19025000Y-29975000D02*
X17750000Y-28700000D01*
X20250000Y-29975000D02*
X19025000Y-29975000D01*
%TO.N,Net-(D2-A)*%
X17750000Y-52700000D02*
X19025000Y-53975000D01*
X17575000Y-52875000D02*
X17750000Y-52700000D01*
X19025000Y-53975000D02*
X20250000Y-53975000D01*
X17575000Y-54500000D02*
X17575000Y-52875000D01*
%TO.N,Net-(D3-A)*%
X17575000Y-76875000D02*
X17750000Y-76700000D01*
X17575000Y-78500000D02*
X17575000Y-76875000D01*
X19025000Y-77975000D02*
X17750000Y-76700000D01*
X20250000Y-77975000D02*
X19025000Y-77975000D01*
%TO.N,Net-(D4-A)*%
X23500000Y-28325000D02*
X23500000Y-30000000D01*
%TO.N,Net-(D5-A)*%
X23500000Y-52325000D02*
X23500000Y-54000000D01*
%TO.N,Net-(D6-A)*%
X23500000Y-76325000D02*
X23500000Y-78000000D01*
%TO.N,Net-(D7-K)*%
X17500000Y-14000000D02*
X18500000Y-14000000D01*
X18500000Y-14000000D02*
X19250000Y-14750000D01*
%TO.N,Net-(D7-A)*%
X14500000Y-12500000D02*
X16000000Y-14000000D01*
X14500000Y-12075000D02*
X14500000Y-12500000D01*
%TO.N,Net-(D8-A)*%
X14500000Y-36500000D02*
X16000000Y-38000000D01*
X14500000Y-36075000D02*
X14500000Y-36500000D01*
%TO.N,Net-(D8-K)*%
X17500000Y-38000000D02*
X18500000Y-38000000D01*
X18500000Y-38000000D02*
X19250000Y-38750000D01*
%TO.N,Net-(D9-K)*%
X18500000Y-62000000D02*
X19250000Y-62750000D01*
X17500000Y-62000000D02*
X18500000Y-62000000D01*
%TO.N,Net-(D9-A)*%
X16000000Y-62000000D02*
X14500000Y-60500000D01*
X14500000Y-60500000D02*
X14500000Y-60075000D01*
%TO.N,ACCEL1_SIG_OUT_I*%
X18000000Y-17595000D02*
X19345000Y-17595000D01*
X22287500Y-23750000D02*
X21250000Y-23750000D01*
X21250000Y-22712500D02*
X22287500Y-23750000D01*
X19345000Y-17595000D02*
X21250000Y-19500000D01*
X12250000Y-29000000D02*
X9700000Y-29000000D01*
X21250000Y-19500000D02*
X21250000Y-22712500D01*
%TO.N,ACCEL2_SIG_OUT_I*%
X22287500Y-47750000D02*
X21250000Y-47750000D01*
X19345000Y-41595000D02*
X21250000Y-43500000D01*
X21250000Y-46712500D02*
X22287500Y-47750000D01*
X21250000Y-43500000D02*
X21250000Y-46712500D01*
X12250000Y-53000000D02*
X9700000Y-53000000D01*
X18000000Y-41595000D02*
X19345000Y-41595000D01*
%TO.N,BRAKE_SIG_OUT_I*%
X22287500Y-71750000D02*
X21250000Y-71750000D01*
X21250000Y-70712500D02*
X22287500Y-71750000D01*
X19345000Y-65595000D02*
X21250000Y-67500000D01*
X21250000Y-67500000D02*
X21250000Y-70712500D01*
X18000000Y-65595000D02*
X19345000Y-65595000D01*
X12250000Y-77000000D02*
X9700000Y-77000000D01*
%TO.N,Net-(Q4-G)*%
X20250000Y-14000000D02*
X20250000Y-14700000D01*
X23625000Y-15700000D02*
X23750000Y-15575000D01*
X16250000Y-12075000D02*
X17175000Y-13000000D01*
X17175000Y-13000000D02*
X19250000Y-13000000D01*
X20250000Y-14700000D02*
X21250000Y-15700000D01*
X19250000Y-13000000D02*
X20250000Y-14000000D01*
X21250000Y-15700000D02*
X23625000Y-15700000D01*
%TO.N,Net-(Q5-G)*%
X16250000Y-36075000D02*
X17175000Y-37000000D01*
X20250000Y-38700000D02*
X21250000Y-39700000D01*
X23625000Y-39700000D02*
X23750000Y-39575000D01*
X20250000Y-37750000D02*
X20250000Y-38700000D01*
X17175000Y-37000000D02*
X19500000Y-37000000D01*
X19500000Y-37000000D02*
X20250000Y-37750000D01*
X21250000Y-39700000D02*
X23625000Y-39700000D01*
%TO.N,Net-(Q6-G)*%
X23625000Y-63700000D02*
X23750000Y-63575000D01*
X20250000Y-62000000D02*
X20250000Y-62700000D01*
X19250000Y-61000000D02*
X20250000Y-62000000D01*
X17175000Y-61000000D02*
X19250000Y-61000000D01*
X20250000Y-62700000D02*
X21250000Y-63700000D01*
X21250000Y-63700000D02*
X23625000Y-63700000D01*
X16250000Y-60075000D02*
X17175000Y-61000000D01*
%TO.N,Net-(U1-PG)*%
X21410000Y-11250000D02*
X21750000Y-11250000D01*
X22925000Y-13925000D02*
X23750000Y-13925000D01*
X22000000Y-11500000D02*
X22000000Y-13000000D01*
X21750000Y-11250000D02*
X22000000Y-11500000D01*
X22000000Y-13000000D02*
X22925000Y-13925000D01*
%TO.N,Net-(U2-PG)*%
X22000000Y-35500000D02*
X22000000Y-37000000D01*
X22000000Y-37000000D02*
X22925000Y-37925000D01*
X21410000Y-35250000D02*
X21750000Y-35250000D01*
X22925000Y-37925000D02*
X23750000Y-37925000D01*
X21750000Y-35250000D02*
X22000000Y-35500000D01*
%TO.N,Net-(U3-PG)*%
X21750000Y-59250000D02*
X22000000Y-59500000D01*
X22000000Y-59500000D02*
X22000000Y-61000000D01*
X21410000Y-59250000D02*
X21750000Y-59250000D01*
X22000000Y-61000000D02*
X22925000Y-61925000D01*
X22925000Y-61925000D02*
X23750000Y-61925000D01*
%TO.N,Net-(U4A--)*%
X25290000Y-20135000D02*
X25500000Y-19925000D01*
X25500000Y-18325000D02*
X25500000Y-19925000D01*
X23500000Y-20135000D02*
X25290000Y-20135000D01*
%TO.N,Net-(U4A-+)*%
X17575000Y-15750000D02*
X18500000Y-15750000D01*
X18500000Y-15750000D02*
X21615000Y-18865000D01*
X16000000Y-17325000D02*
X17575000Y-15750000D01*
X16000000Y-17925000D02*
X16000000Y-17325000D01*
X21615000Y-18865000D02*
X23500000Y-18865000D01*
%TO.N,Net-(U5A--)*%
X23500000Y-44135000D02*
X25290000Y-44135000D01*
X25290000Y-44135000D02*
X25500000Y-43925000D01*
X25500000Y-42325000D02*
X25500000Y-43925000D01*
%TO.N,Net-(U5A-+)*%
X16000000Y-41325000D02*
X17575000Y-39750000D01*
X18500000Y-39750000D02*
X21615000Y-42865000D01*
X21615000Y-42865000D02*
X23500000Y-42865000D01*
X17575000Y-39750000D02*
X18500000Y-39750000D01*
X16000000Y-41925000D02*
X16000000Y-41325000D01*
%TO.N,Net-(U6A--)*%
X25290000Y-68135000D02*
X25500000Y-67925000D01*
X23500000Y-68135000D02*
X25290000Y-68135000D01*
X25500000Y-66325000D02*
X25500000Y-67925000D01*
%TO.N,Net-(U6A-+)*%
X21615000Y-66865000D02*
X23500000Y-66865000D01*
X18500000Y-63750000D02*
X21615000Y-66865000D01*
X16000000Y-65325000D02*
X17575000Y-63750000D01*
X16000000Y-65925000D02*
X16000000Y-65325000D01*
X17575000Y-63750000D02*
X18500000Y-63750000D01*
%TO.N,Net-(R25-Pad2)*%
X25500000Y-21575000D02*
X25500000Y-23462500D01*
X23500000Y-21405000D02*
X25330000Y-21405000D01*
X25500000Y-23462500D02*
X25212500Y-23750000D01*
X25330000Y-21405000D02*
X25500000Y-21575000D01*
%TO.N,Net-(U4B--)*%
X18000000Y-20135000D02*
X16560000Y-20135000D01*
X16560000Y-20135000D02*
X16000000Y-19575000D01*
X16710000Y-18865000D02*
X16000000Y-19575000D01*
X18000000Y-18865000D02*
X16710000Y-18865000D01*
%TO.N,Net-(R27-Pad2)*%
X23500000Y-45405000D02*
X25330000Y-45405000D01*
X25500000Y-45575000D02*
X25500000Y-47462500D01*
X25330000Y-45405000D02*
X25500000Y-45575000D01*
X25500000Y-47462500D02*
X25212500Y-47750000D01*
%TO.N,Net-(U5B--)*%
X16710000Y-42865000D02*
X16000000Y-43575000D01*
X16560000Y-44135000D02*
X16000000Y-43575000D01*
X18000000Y-44135000D02*
X16560000Y-44135000D01*
X18000000Y-42865000D02*
X16710000Y-42865000D01*
%TO.N,Net-(R29-Pad2)*%
X23500000Y-69405000D02*
X25330000Y-69405000D01*
X25500000Y-69575000D02*
X25500000Y-71462500D01*
X25500000Y-71462500D02*
X25212500Y-71750000D01*
X25330000Y-69405000D02*
X25500000Y-69575000D01*
%TO.N,Net-(U6B--)*%
X18000000Y-68135000D02*
X16560000Y-68135000D01*
X18000000Y-66865000D02*
X16710000Y-66865000D01*
X16560000Y-68135000D02*
X16000000Y-67575000D01*
X16710000Y-66865000D02*
X16000000Y-67575000D01*
%TD*%
%TA.AperFunction,Conductor*%
%TO.N,Net-(J3-Pin_1)*%
G36*
X13765677Y-72519685D02*
G01*
X13786319Y-72536319D01*
X13963681Y-72713681D01*
X13997166Y-72775004D01*
X14000000Y-72801362D01*
X14000000Y-73198638D01*
X13980315Y-73265677D01*
X13963681Y-73286319D01*
X13786319Y-73463681D01*
X13724996Y-73497166D01*
X13698638Y-73500000D01*
X8624000Y-73500000D01*
X8556961Y-73480315D01*
X8511206Y-73427511D01*
X8500000Y-73376000D01*
X8500000Y-72624000D01*
X8519685Y-72556961D01*
X8572489Y-72511206D01*
X8624000Y-72500000D01*
X13698638Y-72500000D01*
X13765677Y-72519685D01*
G37*
%TD.AperFunction*%
%TD*%
%TA.AperFunction,Conductor*%
%TO.N,Net-(J1-Pin_1)*%
G36*
X13765677Y-24519685D02*
G01*
X13786319Y-24536319D01*
X13963681Y-24713681D01*
X13997166Y-24775004D01*
X14000000Y-24801362D01*
X14000000Y-25198638D01*
X13980315Y-25265677D01*
X13963681Y-25286319D01*
X13786319Y-25463681D01*
X13724996Y-25497166D01*
X13698638Y-25500000D01*
X8624000Y-25500000D01*
X8556961Y-25480315D01*
X8511206Y-25427511D01*
X8500000Y-25376000D01*
X8500000Y-24624000D01*
X8519685Y-24556961D01*
X8572489Y-24511206D01*
X8624000Y-24500000D01*
X13698638Y-24500000D01*
X13765677Y-24519685D01*
G37*
%TD.AperFunction*%
%TD*%
%TA.AperFunction,Conductor*%
%TO.N,Net-(Q1-D)*%
G36*
X15015677Y-26019685D02*
G01*
X15036319Y-26036319D01*
X16213681Y-27213681D01*
X16247166Y-27275004D01*
X16250000Y-27301362D01*
X16250000Y-28198638D01*
X16230315Y-28265677D01*
X16213681Y-28286319D01*
X16036319Y-28463681D01*
X15974996Y-28497166D01*
X15948638Y-28500000D01*
X14301362Y-28500000D01*
X14234323Y-28480315D01*
X14213681Y-28463681D01*
X12536319Y-26786319D01*
X12502834Y-26724996D01*
X12500000Y-26698638D01*
X12500000Y-26301362D01*
X12519685Y-26234323D01*
X12536319Y-26213681D01*
X12713681Y-26036319D01*
X12775004Y-26002834D01*
X12801362Y-26000000D01*
X14948638Y-26000000D01*
X15015677Y-26019685D01*
G37*
%TD.AperFunction*%
%TD*%
%TA.AperFunction,Conductor*%
%TO.N,VCC1*%
G36*
X19015677Y-10019685D02*
G01*
X19036319Y-10036319D01*
X19425000Y-10425000D01*
X19600500Y-10425000D01*
X19667539Y-10444685D01*
X19713294Y-10497489D01*
X19724500Y-10549000D01*
X19724500Y-10650500D01*
X19704815Y-10717539D01*
X19652011Y-10763294D01*
X19600500Y-10774500D01*
X19366739Y-10774500D01*
X19364326Y-10774675D01*
X19355358Y-10775000D01*
X19224999Y-10775000D01*
X19036319Y-10963681D01*
X18974996Y-10997166D01*
X18948638Y-11000000D01*
X13749999Y-11000000D01*
X11286319Y-13463681D01*
X11224996Y-13497166D01*
X11198638Y-13500000D01*
X8624000Y-13500000D01*
X8556961Y-13480315D01*
X8511206Y-13427511D01*
X8500000Y-13376000D01*
X8500000Y-12624000D01*
X8519685Y-12556961D01*
X8572489Y-12511206D01*
X8624000Y-12500000D01*
X10250000Y-12500000D01*
X12713681Y-10036319D01*
X12775004Y-10002834D01*
X12801362Y-10000000D01*
X18948638Y-10000000D01*
X19015677Y-10019685D01*
G37*
%TD.AperFunction*%
%TD*%
%TA.AperFunction,Conductor*%
%TO.N,Net-(Q2-D)*%
G36*
X15015677Y-50019685D02*
G01*
X15036319Y-50036319D01*
X16213681Y-51213681D01*
X16247166Y-51275004D01*
X16250000Y-51301362D01*
X16250000Y-52198638D01*
X16230315Y-52265677D01*
X16213681Y-52286319D01*
X16036319Y-52463681D01*
X15974996Y-52497166D01*
X15948638Y-52500000D01*
X14301362Y-52500000D01*
X14234323Y-52480315D01*
X14213681Y-52463681D01*
X12536319Y-50786319D01*
X12502834Y-50724996D01*
X12500000Y-50698638D01*
X12500000Y-50301362D01*
X12519685Y-50234323D01*
X12536319Y-50213681D01*
X12713681Y-50036319D01*
X12775004Y-50002834D01*
X12801362Y-50000000D01*
X14948638Y-50000000D01*
X15015677Y-50019685D01*
G37*
%TD.AperFunction*%
%TD*%
%TA.AperFunction,Conductor*%
%TO.N,VCC3*%
G36*
X19015677Y-58019685D02*
G01*
X19036319Y-58036319D01*
X19425000Y-58425000D01*
X19600500Y-58425000D01*
X19667539Y-58444685D01*
X19713294Y-58497489D01*
X19724500Y-58549000D01*
X19724500Y-58650500D01*
X19704815Y-58717539D01*
X19652011Y-58763294D01*
X19600500Y-58774500D01*
X19366739Y-58774500D01*
X19364326Y-58774675D01*
X19355358Y-58775000D01*
X19224999Y-58775000D01*
X19036319Y-58963681D01*
X18974996Y-58997166D01*
X18948638Y-59000000D01*
X13749999Y-59000000D01*
X11286319Y-61463681D01*
X11224996Y-61497166D01*
X11198638Y-61500000D01*
X8624000Y-61500000D01*
X8556961Y-61480315D01*
X8511206Y-61427511D01*
X8500000Y-61376000D01*
X8500000Y-60624000D01*
X8519685Y-60556961D01*
X8572489Y-60511206D01*
X8624000Y-60500000D01*
X10250000Y-60500000D01*
X12713681Y-58036319D01*
X12775004Y-58002834D01*
X12801362Y-58000000D01*
X18948638Y-58000000D01*
X19015677Y-58019685D01*
G37*
%TD.AperFunction*%
%TD*%
%TA.AperFunction,Conductor*%
%TO.N,Net-(Q3-D)*%
G36*
X15015677Y-74019685D02*
G01*
X15036319Y-74036319D01*
X16213681Y-75213681D01*
X16247166Y-75275004D01*
X16250000Y-75301362D01*
X16250000Y-76198638D01*
X16230315Y-76265677D01*
X16213681Y-76286319D01*
X16036319Y-76463681D01*
X15974996Y-76497166D01*
X15948638Y-76500000D01*
X14301362Y-76500000D01*
X14234323Y-76480315D01*
X14213681Y-76463681D01*
X12536319Y-74786319D01*
X12502834Y-74724996D01*
X12500000Y-74698638D01*
X12500000Y-74301362D01*
X12519685Y-74234323D01*
X12536319Y-74213681D01*
X12713681Y-74036319D01*
X12775004Y-74002834D01*
X12801362Y-74000000D01*
X14948638Y-74000000D01*
X15015677Y-74019685D01*
G37*
%TD.AperFunction*%
%TD*%
%TA.AperFunction,Conductor*%
%TO.N,+12V2*%
G36*
X26515677Y-34269685D02*
G01*
X26536319Y-34286319D01*
X27963681Y-35713681D01*
X27997166Y-35775004D01*
X28000000Y-35801362D01*
X28000000Y-49948638D01*
X27980315Y-50015677D01*
X27963681Y-50036319D01*
X26786319Y-51213681D01*
X26724996Y-51247166D01*
X26698638Y-51250000D01*
X22749999Y-51250000D01*
X21036319Y-52963681D01*
X20974996Y-52997166D01*
X20948638Y-53000000D01*
X19801362Y-53000000D01*
X19734323Y-52980315D01*
X19713681Y-52963681D01*
X18250000Y-51500000D01*
X17551362Y-51500000D01*
X17484323Y-51480315D01*
X17463681Y-51463681D01*
X17286319Y-51286319D01*
X17252834Y-51224996D01*
X17250000Y-51198638D01*
X17250000Y-45551362D01*
X17269685Y-45484323D01*
X17286319Y-45463681D01*
X17463681Y-45286319D01*
X17525004Y-45252834D01*
X17551362Y-45250000D01*
X18448638Y-45250000D01*
X18515677Y-45269685D01*
X18536319Y-45286319D01*
X18713681Y-45463681D01*
X18747166Y-45525004D01*
X18750000Y-45551362D01*
X18750000Y-45948638D01*
X18730315Y-46015677D01*
X18713681Y-46036319D01*
X18250000Y-46499999D01*
X18250000Y-46500000D01*
X18250000Y-49750000D01*
X18500000Y-50000000D01*
X25750000Y-50000000D01*
X26500000Y-49250000D01*
X26500000Y-36250000D01*
X25500000Y-35250000D01*
X22438466Y-35250000D01*
X22371427Y-35230315D01*
X22350785Y-35213681D01*
X22026616Y-34889513D01*
X22026614Y-34889511D01*
X21975250Y-34859856D01*
X21923888Y-34830201D01*
X21906678Y-34825590D01*
X21899673Y-34823713D01*
X21899670Y-34823712D01*
X21828003Y-34804509D01*
X21781698Y-34777774D01*
X21775000Y-34775000D01*
X21774999Y-34775000D01*
X21644642Y-34775000D01*
X21635674Y-34774675D01*
X21633261Y-34774500D01*
X21633260Y-34774500D01*
X21399500Y-34774500D01*
X21332461Y-34754815D01*
X21286706Y-34702011D01*
X21275500Y-34650500D01*
X21275500Y-34549000D01*
X21295185Y-34481961D01*
X21347989Y-34436206D01*
X21399500Y-34425000D01*
X21825000Y-34425000D01*
X21963681Y-34286319D01*
X22025004Y-34252834D01*
X22051362Y-34250000D01*
X26448638Y-34250000D01*
X26515677Y-34269685D01*
G37*
%TD.AperFunction*%
%TD*%
%TA.AperFunction,Conductor*%
%TO.N,VCC2*%
G36*
X19015677Y-34019685D02*
G01*
X19036319Y-34036319D01*
X19425000Y-34425000D01*
X19600500Y-34425000D01*
X19667539Y-34444685D01*
X19713294Y-34497489D01*
X19724500Y-34549000D01*
X19724500Y-34650500D01*
X19704815Y-34717539D01*
X19652011Y-34763294D01*
X19600500Y-34774500D01*
X19366739Y-34774500D01*
X19364326Y-34774675D01*
X19355358Y-34775000D01*
X19224999Y-34775000D01*
X19036319Y-34963681D01*
X18974996Y-34997166D01*
X18948638Y-35000000D01*
X13749999Y-35000000D01*
X11286319Y-37463681D01*
X11224996Y-37497166D01*
X11198638Y-37500000D01*
X8624000Y-37500000D01*
X8556961Y-37480315D01*
X8511206Y-37427511D01*
X8500000Y-37376000D01*
X8500000Y-36624000D01*
X8519685Y-36556961D01*
X8572489Y-36511206D01*
X8624000Y-36500000D01*
X10250000Y-36500000D01*
X12713681Y-34036319D01*
X12775004Y-34002834D01*
X12801362Y-34000000D01*
X18948638Y-34000000D01*
X19015677Y-34019685D01*
G37*
%TD.AperFunction*%
%TD*%
%TA.AperFunction,Conductor*%
%TO.N,+12V3*%
G36*
X26515677Y-58269685D02*
G01*
X26536319Y-58286319D01*
X27963681Y-59713681D01*
X27997166Y-59775004D01*
X28000000Y-59801362D01*
X28000000Y-73948638D01*
X27980315Y-74015677D01*
X27963681Y-74036319D01*
X26786319Y-75213681D01*
X26724996Y-75247166D01*
X26698638Y-75250000D01*
X22749999Y-75250000D01*
X21036319Y-76963681D01*
X20974996Y-76997166D01*
X20948638Y-77000000D01*
X19801362Y-77000000D01*
X19734323Y-76980315D01*
X19713681Y-76963681D01*
X18250000Y-75500000D01*
X17551362Y-75500000D01*
X17484323Y-75480315D01*
X17463681Y-75463681D01*
X17286319Y-75286319D01*
X17252834Y-75224996D01*
X17250000Y-75198638D01*
X17250000Y-69551362D01*
X17269685Y-69484323D01*
X17286319Y-69463681D01*
X17463681Y-69286319D01*
X17525004Y-69252834D01*
X17551362Y-69250000D01*
X18448638Y-69250000D01*
X18515677Y-69269685D01*
X18536319Y-69286319D01*
X18713681Y-69463681D01*
X18747166Y-69525004D01*
X18750000Y-69551362D01*
X18750000Y-69948638D01*
X18730315Y-70015677D01*
X18713681Y-70036319D01*
X18250000Y-70499999D01*
X18250000Y-70500000D01*
X18250000Y-73750000D01*
X18500000Y-74000000D01*
X25750000Y-74000000D01*
X26500000Y-73250000D01*
X26500000Y-60250000D01*
X25500000Y-59250000D01*
X22438466Y-59250000D01*
X22371427Y-59230315D01*
X22350785Y-59213681D01*
X22026616Y-58889513D01*
X22026614Y-58889511D01*
X21975250Y-58859856D01*
X21923888Y-58830201D01*
X21906678Y-58825590D01*
X21899673Y-58823713D01*
X21899670Y-58823712D01*
X21828003Y-58804509D01*
X21781698Y-58777774D01*
X21775000Y-58775000D01*
X21774999Y-58775000D01*
X21644642Y-58775000D01*
X21635674Y-58774675D01*
X21633261Y-58774500D01*
X21633260Y-58774500D01*
X21399500Y-58774500D01*
X21332461Y-58754815D01*
X21286706Y-58702011D01*
X21275500Y-58650500D01*
X21275500Y-58549000D01*
X21295185Y-58481961D01*
X21347989Y-58436206D01*
X21399500Y-58425000D01*
X21825000Y-58425000D01*
X21963681Y-58286319D01*
X22025004Y-58252834D01*
X22051362Y-58250000D01*
X26448638Y-58250000D01*
X26515677Y-58269685D01*
G37*
%TD.AperFunction*%
%TD*%
%TA.AperFunction,Conductor*%
%TO.N,Net-(J2-Pin_1)*%
G36*
X13765677Y-48519685D02*
G01*
X13786319Y-48536319D01*
X13963681Y-48713681D01*
X13997166Y-48775004D01*
X14000000Y-48801362D01*
X14000000Y-49198638D01*
X13980315Y-49265677D01*
X13963681Y-49286319D01*
X13786319Y-49463681D01*
X13724996Y-49497166D01*
X13698638Y-49500000D01*
X8624000Y-49500000D01*
X8556961Y-49480315D01*
X8511206Y-49427511D01*
X8500000Y-49376000D01*
X8500000Y-48624000D01*
X8519685Y-48556961D01*
X8572489Y-48511206D01*
X8624000Y-48500000D01*
X13698638Y-48500000D01*
X13765677Y-48519685D01*
G37*
%TD.AperFunction*%
%TD*%
%TA.AperFunction,Conductor*%
%TO.N,+12V1*%
G36*
X26515677Y-10269685D02*
G01*
X26536319Y-10286319D01*
X27963681Y-11713681D01*
X27997166Y-11775004D01*
X28000000Y-11801362D01*
X28000000Y-25948638D01*
X27980315Y-26015677D01*
X27963681Y-26036319D01*
X26786319Y-27213681D01*
X26724996Y-27247166D01*
X26698638Y-27250000D01*
X22749999Y-27250000D01*
X21036319Y-28963681D01*
X20974996Y-28997166D01*
X20948638Y-29000000D01*
X19801362Y-29000000D01*
X19734323Y-28980315D01*
X19713681Y-28963681D01*
X18250000Y-27500000D01*
X17551362Y-27500000D01*
X17484323Y-27480315D01*
X17463681Y-27463681D01*
X17286319Y-27286319D01*
X17252834Y-27224996D01*
X17250000Y-27198638D01*
X17250000Y-21551362D01*
X17269685Y-21484323D01*
X17286319Y-21463681D01*
X17463681Y-21286319D01*
X17525004Y-21252834D01*
X17551362Y-21250000D01*
X18448638Y-21250000D01*
X18515677Y-21269685D01*
X18536319Y-21286319D01*
X18713681Y-21463681D01*
X18747166Y-21525004D01*
X18750000Y-21551362D01*
X18750000Y-21948638D01*
X18730315Y-22015677D01*
X18713681Y-22036319D01*
X18250000Y-22499999D01*
X18250000Y-22500000D01*
X18250000Y-25750000D01*
X18500000Y-26000000D01*
X25750000Y-26000000D01*
X26500000Y-25250000D01*
X26500000Y-12250000D01*
X25500000Y-11250000D01*
X22438466Y-11250000D01*
X22371427Y-11230315D01*
X22350785Y-11213681D01*
X22026616Y-10889513D01*
X22026614Y-10889511D01*
X21968021Y-10855682D01*
X21923888Y-10830201D01*
X21906678Y-10825590D01*
X21899673Y-10823713D01*
X21899670Y-10823712D01*
X21828003Y-10804509D01*
X21781698Y-10777774D01*
X21775000Y-10775000D01*
X21774999Y-10775000D01*
X21644642Y-10775000D01*
X21635674Y-10774675D01*
X21633261Y-10774500D01*
X21633260Y-10774500D01*
X21399500Y-10774500D01*
X21332461Y-10754815D01*
X21286706Y-10702011D01*
X21275500Y-10650500D01*
X21275500Y-10549000D01*
X21295185Y-10481961D01*
X21347989Y-10436206D01*
X21399500Y-10425000D01*
X21825000Y-10425000D01*
X21963681Y-10286319D01*
X22025004Y-10252834D01*
X22051362Y-10250000D01*
X26448638Y-10250000D01*
X26515677Y-10269685D01*
G37*
%TD.AperFunction*%
%TD*%
%TA.AperFunction,Conductor*%
%TO.N,GND3*%
G36*
X19628574Y-66519685D02*
G01*
X19649216Y-66536319D01*
X20763181Y-67650284D01*
X20796666Y-67711607D01*
X20799500Y-67737965D01*
X20799500Y-70771809D01*
X20807283Y-70800856D01*
X20821154Y-70852624D01*
X20821161Y-70852647D01*
X20821164Y-70852658D01*
X20830201Y-70886387D01*
X20889511Y-70989114D01*
X20889513Y-70989116D01*
X20948292Y-71047895D01*
X20981777Y-71109218D01*
X20976793Y-71178910D01*
X20936099Y-71233950D01*
X20821718Y-71321718D01*
X20725463Y-71447160D01*
X20664956Y-71593237D01*
X20664955Y-71593239D01*
X20644318Y-71749998D01*
X20644318Y-71750001D01*
X20664955Y-71906760D01*
X20664956Y-71906762D01*
X20719034Y-72037319D01*
X20725464Y-72052841D01*
X20821718Y-72178282D01*
X20947159Y-72274536D01*
X21093238Y-72335044D01*
X21157597Y-72343517D01*
X21249999Y-72355682D01*
X21250000Y-72355682D01*
X21290058Y-72350408D01*
X21359092Y-72361173D01*
X21411348Y-72407553D01*
X21429359Y-72458563D01*
X21435122Y-72506562D01*
X21490639Y-72647343D01*
X21582077Y-72767922D01*
X21702656Y-72859360D01*
X21702657Y-72859360D01*
X21702658Y-72859361D01*
X21843436Y-72914877D01*
X21931898Y-72925500D01*
X21931903Y-72925500D01*
X22643097Y-72925500D01*
X22643102Y-72925500D01*
X22731564Y-72914877D01*
X22872342Y-72859361D01*
X22992922Y-72767922D01*
X23084361Y-72647342D01*
X23139877Y-72506564D01*
X23150500Y-72418102D01*
X23150500Y-71081898D01*
X23139877Y-70993436D01*
X23084361Y-70852658D01*
X23084360Y-70852657D01*
X23084360Y-70852656D01*
X22992922Y-70732077D01*
X22872343Y-70640639D01*
X22764436Y-70598086D01*
X22731564Y-70585123D01*
X22731563Y-70585122D01*
X22731561Y-70585122D01*
X22685926Y-70579642D01*
X22643102Y-70574500D01*
X21931898Y-70574500D01*
X21889623Y-70579576D01*
X21839283Y-70585621D01*
X21770375Y-70574069D01*
X21718651Y-70527096D01*
X21700500Y-70462505D01*
X21700500Y-67439500D01*
X21720185Y-67372461D01*
X21772989Y-67326706D01*
X21824500Y-67315500D01*
X22453457Y-67315500D01*
X22520496Y-67335185D01*
X22541133Y-67351814D01*
X22593517Y-67404198D01*
X22600783Y-67411464D01*
X22598140Y-67414106D01*
X22629482Y-67454081D01*
X22636023Y-67523644D01*
X22603917Y-67585700D01*
X22600717Y-67588471D01*
X22600782Y-67588536D01*
X22510803Y-67678514D01*
X22459426Y-67783608D01*
X22449500Y-67851739D01*
X22449500Y-68418260D01*
X22459426Y-68486391D01*
X22510803Y-68591485D01*
X22600782Y-68681464D01*
X22598139Y-68684106D01*
X22629482Y-68724081D01*
X22636023Y-68793644D01*
X22603917Y-68855700D01*
X22600717Y-68858471D01*
X22600782Y-68858536D01*
X22510803Y-68948514D01*
X22459426Y-69053608D01*
X22449500Y-69121739D01*
X22449500Y-69688260D01*
X22459426Y-69756391D01*
X22510803Y-69861485D01*
X22593514Y-69944196D01*
X22593515Y-69944196D01*
X22593517Y-69944198D01*
X22698607Y-69995573D01*
X22728991Y-70000000D01*
X22766739Y-70005500D01*
X22766740Y-70005500D01*
X23704138Y-70005500D01*
X23771177Y-70025185D01*
X23791819Y-70041819D01*
X24419841Y-70669841D01*
X24453326Y-70731164D01*
X24448342Y-70800856D01*
X24430966Y-70832444D01*
X24415640Y-70852655D01*
X24360122Y-70993438D01*
X24354188Y-71042853D01*
X24349500Y-71081898D01*
X24349500Y-72418102D01*
X24354359Y-72458563D01*
X24360122Y-72506561D01*
X24415639Y-72647343D01*
X24507077Y-72767922D01*
X24627656Y-72859360D01*
X24627657Y-72859360D01*
X24627658Y-72859361D01*
X24768436Y-72914877D01*
X24856898Y-72925500D01*
X25376000Y-72925500D01*
X25443039Y-72945185D01*
X25488794Y-72997989D01*
X25500000Y-73049500D01*
X25500000Y-73570500D01*
X25480315Y-73637539D01*
X25427511Y-73683294D01*
X25376000Y-73694500D01*
X20288195Y-73694500D01*
X20221156Y-73674815D01*
X20175401Y-73622011D01*
X20165457Y-73552853D01*
X20170489Y-73531496D01*
X20214855Y-73397606D01*
X20224999Y-73298322D01*
X20225000Y-73298309D01*
X20225000Y-73250000D01*
X19149000Y-73250000D01*
X19081961Y-73230315D01*
X19036206Y-73177511D01*
X19025000Y-73126000D01*
X19025000Y-72750000D01*
X19525000Y-72750000D01*
X20224999Y-72750000D01*
X20224999Y-72701692D01*
X20224998Y-72701677D01*
X20214855Y-72602392D01*
X20161547Y-72441518D01*
X20161542Y-72441507D01*
X20072575Y-72297271D01*
X20072572Y-72297267D01*
X19987986Y-72212681D01*
X19954501Y-72151358D01*
X19959485Y-72081666D01*
X19987986Y-72037319D01*
X20072572Y-71952732D01*
X20072575Y-71952728D01*
X20161542Y-71808492D01*
X20161547Y-71808481D01*
X20214855Y-71647606D01*
X20224999Y-71548322D01*
X20225000Y-71548309D01*
X20225000Y-71500000D01*
X19525000Y-71500000D01*
X19525000Y-72750000D01*
X19025000Y-72750000D01*
X19025000Y-71000000D01*
X19525000Y-71000000D01*
X20224999Y-71000000D01*
X20224999Y-70951692D01*
X20224998Y-70951677D01*
X20214855Y-70852392D01*
X20161547Y-70691518D01*
X20161542Y-70691507D01*
X20072575Y-70547271D01*
X20072572Y-70547267D01*
X19952732Y-70427427D01*
X19952728Y-70427424D01*
X19808492Y-70338457D01*
X19808481Y-70338452D01*
X19647606Y-70285144D01*
X19548322Y-70275000D01*
X19525000Y-70275000D01*
X19525000Y-71000000D01*
X19025000Y-71000000D01*
X19025000Y-70271496D01*
X18995729Y-70217892D01*
X19000713Y-70148200D01*
X19006357Y-70135341D01*
X19023439Y-70101749D01*
X19043124Y-70034710D01*
X19055500Y-69948638D01*
X19055500Y-69551362D01*
X19053749Y-69518703D01*
X19051211Y-69495095D01*
X19050500Y-69481838D01*
X19050500Y-69121739D01*
X19040573Y-69053608D01*
X19040573Y-69053607D01*
X18989198Y-68948517D01*
X18989196Y-68948515D01*
X18989196Y-68948514D01*
X18899218Y-68858536D01*
X18901864Y-68855889D01*
X18870535Y-68815965D01*
X18863967Y-68746404D01*
X18896048Y-68684335D01*
X18899284Y-68681530D01*
X18899218Y-68681464D01*
X18989196Y-68591485D01*
X18989198Y-68591483D01*
X19040573Y-68486393D01*
X19050500Y-68418260D01*
X19050500Y-67851740D01*
X19040573Y-67783607D01*
X18989198Y-67678517D01*
X18989196Y-67678515D01*
X18989196Y-67678514D01*
X18899218Y-67588536D01*
X18901864Y-67585889D01*
X18870535Y-67545965D01*
X18863967Y-67476404D01*
X18896048Y-67414335D01*
X18899284Y-67411530D01*
X18899218Y-67411464D01*
X18989196Y-67321485D01*
X18989198Y-67321483D01*
X19040573Y-67216393D01*
X19050500Y-67148260D01*
X19050500Y-66624000D01*
X19070185Y-66556961D01*
X19122989Y-66511206D01*
X19174500Y-66500000D01*
X19561535Y-66500000D01*
X19628574Y-66519685D01*
G37*
%TD.AperFunction*%
%TA.AperFunction,Conductor*%
G36*
X14087289Y-60757816D02*
G01*
X14115322Y-60768272D01*
X14159670Y-60796773D01*
X14463681Y-61100784D01*
X14497166Y-61162107D01*
X14500000Y-61188465D01*
X14500000Y-62851000D01*
X14480315Y-62918039D01*
X14427511Y-62963794D01*
X14376000Y-62975000D01*
X13333362Y-62975000D01*
X13266323Y-62955315D01*
X13245681Y-62938681D01*
X13232000Y-62925000D01*
X12374000Y-62925000D01*
X12306961Y-62905315D01*
X12261206Y-62852511D01*
X12250000Y-62801000D01*
X12250000Y-61775000D01*
X12750000Y-61775000D01*
X12750000Y-62425000D01*
X13416638Y-62425000D01*
X13483677Y-62444685D01*
X13504319Y-62461319D01*
X13518000Y-62475000D01*
X14000000Y-62475000D01*
X14000000Y-61775000D01*
X13999999Y-61774999D01*
X13951693Y-61775000D01*
X13951675Y-61775001D01*
X13852392Y-61785144D01*
X13691518Y-61838452D01*
X13691507Y-61838457D01*
X13547271Y-61927424D01*
X13547267Y-61927427D01*
X13470001Y-62004692D01*
X13408678Y-62038177D01*
X13338986Y-62033191D01*
X13294639Y-62004691D01*
X13209875Y-61919926D01*
X13064395Y-61831980D01*
X13064396Y-61831980D01*
X12902105Y-61781409D01*
X12902106Y-61781409D01*
X12831572Y-61775000D01*
X12750000Y-61775000D01*
X12250000Y-61775000D01*
X12250000Y-60983403D01*
X12269685Y-60916364D01*
X12286314Y-60895727D01*
X12395724Y-60786317D01*
X12457046Y-60752834D01*
X12483404Y-60750000D01*
X14043959Y-60750000D01*
X14087289Y-60757816D01*
G37*
%TD.AperFunction*%
%TA.AperFunction,Conductor*%
G36*
X26507174Y-56769685D02*
G01*
X26552929Y-56822489D01*
X26562873Y-56891647D01*
X26558521Y-56910889D01*
X26531409Y-56997896D01*
X26525000Y-57068427D01*
X26525000Y-57075000D01*
X28474999Y-57075000D01*
X28474999Y-57068417D01*
X28468591Y-56997897D01*
X28468590Y-56997892D01*
X28441480Y-56910891D01*
X28440328Y-56841030D01*
X28477129Y-56781638D01*
X28540198Y-56751570D01*
X28559865Y-56750000D01*
X29375500Y-56750000D01*
X29442539Y-56769685D01*
X29488294Y-56822489D01*
X29499500Y-56874000D01*
X29499500Y-84679570D01*
X29479815Y-84746609D01*
X29427011Y-84792364D01*
X29357853Y-84802308D01*
X29294297Y-84773283D01*
X29259736Y-84724008D01*
X29202253Y-84574260D01*
X29035679Y-84247343D01*
X28835852Y-83939635D01*
X28604952Y-83654498D01*
X28604949Y-83654494D01*
X28345506Y-83395051D01*
X28313010Y-83368736D01*
X28060364Y-83164147D01*
X27752656Y-82964320D01*
X27425739Y-82797746D01*
X27083206Y-82666260D01*
X27083199Y-82666258D01*
X26728794Y-82571295D01*
X26728790Y-82571294D01*
X26728789Y-82571294D01*
X26366405Y-82513898D01*
X26000001Y-82494696D01*
X25999999Y-82494696D01*
X25633594Y-82513898D01*
X25271211Y-82571294D01*
X25271209Y-82571294D01*
X24916793Y-82666260D01*
X24574260Y-82797746D01*
X24247343Y-82964320D01*
X23939635Y-83164147D01*
X23654498Y-83395047D01*
X23654490Y-83395054D01*
X23395054Y-83654490D01*
X23395047Y-83654498D01*
X23164147Y-83939635D01*
X22964320Y-84247343D01*
X22797746Y-84574260D01*
X22666260Y-84916793D01*
X22571294Y-85271209D01*
X22571294Y-85271211D01*
X22513898Y-85633594D01*
X22494696Y-85999999D01*
X22494696Y-86000000D01*
X22513898Y-86366405D01*
X22517872Y-86391495D01*
X22571295Y-86728794D01*
X22588964Y-86794737D01*
X22666260Y-87083206D01*
X22797746Y-87425739D01*
X22964320Y-87752656D01*
X23164147Y-88060364D01*
X23164149Y-88060366D01*
X23395051Y-88345506D01*
X23654494Y-88604949D01*
X23654498Y-88604952D01*
X23939635Y-88835852D01*
X24247343Y-89035679D01*
X24247348Y-89035682D01*
X24574264Y-89202255D01*
X24724008Y-89259736D01*
X24779540Y-89302138D01*
X24803333Y-89367832D01*
X24787831Y-89435960D01*
X24737958Y-89484893D01*
X24679570Y-89499500D01*
X5320430Y-89499500D01*
X5253391Y-89479815D01*
X5207636Y-89427011D01*
X5197692Y-89357853D01*
X5226717Y-89294297D01*
X5275992Y-89259736D01*
X5425736Y-89202255D01*
X5752652Y-89035682D01*
X6060366Y-88835851D01*
X6345506Y-88604949D01*
X6604949Y-88345506D01*
X6835851Y-88060366D01*
X7035682Y-87752652D01*
X7202255Y-87425736D01*
X7333742Y-87083199D01*
X7428705Y-86728794D01*
X7486102Y-86366404D01*
X7505304Y-86000000D01*
X7501038Y-85918592D01*
X9173500Y-85918592D01*
X9173500Y-86081407D01*
X9205259Y-86241073D01*
X9205262Y-86241082D01*
X9267562Y-86391490D01*
X9267563Y-86391492D01*
X9358015Y-86526862D01*
X9358018Y-86526866D01*
X9473133Y-86641981D01*
X9473137Y-86641984D01*
X9608505Y-86732435D01*
X9608506Y-86732435D01*
X9608507Y-86732436D01*
X9608509Y-86732437D01*
X9708781Y-86773970D01*
X9758919Y-86794738D01*
X9758921Y-86794738D01*
X9758926Y-86794740D01*
X9918592Y-86826499D01*
X9918595Y-86826500D01*
X9918597Y-86826500D01*
X10081405Y-86826500D01*
X10081406Y-86826499D01*
X10134629Y-86815912D01*
X10241073Y-86794740D01*
X10241076Y-86794738D01*
X10241081Y-86794738D01*
X10391495Y-86732435D01*
X10526863Y-86641984D01*
X10641984Y-86526863D01*
X10732435Y-86391495D01*
X10794738Y-86241081D01*
X10826500Y-86081403D01*
X10826500Y-85918597D01*
X10826500Y-85918594D01*
X10826499Y-85918592D01*
X19173500Y-85918592D01*
X19173500Y-86081407D01*
X19205259Y-86241073D01*
X19205262Y-86241082D01*
X19267562Y-86391490D01*
X19267563Y-86391492D01*
X19358015Y-86526862D01*
X19358018Y-86526866D01*
X19473133Y-86641981D01*
X19473137Y-86641984D01*
X19608505Y-86732435D01*
X19608506Y-86732435D01*
X19608507Y-86732436D01*
X19608509Y-86732437D01*
X19708781Y-86773970D01*
X19758919Y-86794738D01*
X19758921Y-86794738D01*
X19758926Y-86794740D01*
X19918592Y-86826499D01*
X19918595Y-86826500D01*
X19918597Y-86826500D01*
X20081405Y-86826500D01*
X20081406Y-86826499D01*
X20134629Y-86815912D01*
X20241073Y-86794740D01*
X20241076Y-86794738D01*
X20241081Y-86794738D01*
X20391495Y-86732435D01*
X20526863Y-86641984D01*
X20641984Y-86526863D01*
X20732435Y-86391495D01*
X20794738Y-86241081D01*
X20826500Y-86081403D01*
X20826500Y-85918597D01*
X20826500Y-85918594D01*
X20826499Y-85918592D01*
X20794740Y-85758926D01*
X20794737Y-85758917D01*
X20732437Y-85608509D01*
X20732436Y-85608507D01*
X20641984Y-85473137D01*
X20641981Y-85473133D01*
X20526866Y-85358018D01*
X20526862Y-85358015D01*
X20391492Y-85267563D01*
X20391490Y-85267562D01*
X20241082Y-85205262D01*
X20241073Y-85205259D01*
X20081406Y-85173500D01*
X20081403Y-85173500D01*
X19918597Y-85173500D01*
X19918594Y-85173500D01*
X19758926Y-85205259D01*
X19758917Y-85205262D01*
X19608509Y-85267562D01*
X19608507Y-85267563D01*
X19473137Y-85358015D01*
X19473133Y-85358018D01*
X19358018Y-85473133D01*
X19358015Y-85473137D01*
X19267563Y-85608507D01*
X19267562Y-85608509D01*
X19205262Y-85758917D01*
X19205259Y-85758926D01*
X19173500Y-85918592D01*
X10826499Y-85918592D01*
X10794740Y-85758926D01*
X10794737Y-85758917D01*
X10732437Y-85608509D01*
X10732436Y-85608507D01*
X10641984Y-85473137D01*
X10641981Y-85473133D01*
X10526866Y-85358018D01*
X10526862Y-85358015D01*
X10391492Y-85267563D01*
X10391490Y-85267562D01*
X10241082Y-85205262D01*
X10241073Y-85205259D01*
X10081406Y-85173500D01*
X10081403Y-85173500D01*
X9918597Y-85173500D01*
X9918594Y-85173500D01*
X9758926Y-85205259D01*
X9758917Y-85205262D01*
X9608509Y-85267562D01*
X9608507Y-85267563D01*
X9473137Y-85358015D01*
X9473133Y-85358018D01*
X9358018Y-85473133D01*
X9358015Y-85473137D01*
X9267563Y-85608507D01*
X9267562Y-85608509D01*
X9205262Y-85758917D01*
X9205259Y-85758926D01*
X9173500Y-85918592D01*
X7501038Y-85918592D01*
X7486102Y-85633596D01*
X7428705Y-85271206D01*
X7333742Y-84916801D01*
X7202255Y-84574264D01*
X7035682Y-84247348D01*
X7028447Y-84236207D01*
X6835852Y-83939635D01*
X6604952Y-83654498D01*
X6604949Y-83654494D01*
X6345506Y-83395051D01*
X6313010Y-83368736D01*
X6060364Y-83164147D01*
X5807594Y-82999997D01*
X8744723Y-82999997D01*
X8744723Y-83000002D01*
X8763793Y-83217975D01*
X8763793Y-83217979D01*
X8820422Y-83429322D01*
X8820424Y-83429326D01*
X8820425Y-83429330D01*
X8866661Y-83528484D01*
X8912897Y-83627638D01*
X8912898Y-83627639D01*
X9038402Y-83806877D01*
X9193123Y-83961598D01*
X9372361Y-84087102D01*
X9570670Y-84179575D01*
X9782023Y-84236207D01*
X9964926Y-84252208D01*
X9999998Y-84255277D01*
X10000000Y-84255277D01*
X10000002Y-84255277D01*
X10028254Y-84252805D01*
X10217977Y-84236207D01*
X10429330Y-84179575D01*
X10627639Y-84087102D01*
X10806877Y-83961598D01*
X10961598Y-83806877D01*
X11087102Y-83627639D01*
X11179575Y-83429330D01*
X11236207Y-83217977D01*
X11255277Y-83000000D01*
X11255277Y-82999997D01*
X18744723Y-82999997D01*
X18744723Y-83000002D01*
X18763793Y-83217975D01*
X18763793Y-83217979D01*
X18820422Y-83429322D01*
X18820424Y-83429326D01*
X18820425Y-83429330D01*
X18866661Y-83528484D01*
X18912897Y-83627638D01*
X18912898Y-83627639D01*
X19038402Y-83806877D01*
X19193123Y-83961598D01*
X19372361Y-84087102D01*
X19570670Y-84179575D01*
X19782023Y-84236207D01*
X19964926Y-84252208D01*
X19999998Y-84255277D01*
X20000000Y-84255277D01*
X20000002Y-84255277D01*
X20028254Y-84252805D01*
X20217977Y-84236207D01*
X20429330Y-84179575D01*
X20627639Y-84087102D01*
X20806877Y-83961598D01*
X20961598Y-83806877D01*
X21087102Y-83627639D01*
X21179575Y-83429330D01*
X21236207Y-83217977D01*
X21255277Y-83000000D01*
X21252155Y-82964320D01*
X21251569Y-82957618D01*
X21236207Y-82782023D01*
X21201548Y-82652675D01*
X21179577Y-82570677D01*
X21179576Y-82570676D01*
X21179575Y-82570670D01*
X21087102Y-82372362D01*
X21087100Y-82372359D01*
X21087099Y-82372357D01*
X20961599Y-82193124D01*
X20961596Y-82193121D01*
X20806877Y-82038402D01*
X20627639Y-81912898D01*
X20627640Y-81912898D01*
X20627638Y-81912897D01*
X20528484Y-81866661D01*
X20429330Y-81820425D01*
X20429326Y-81820424D01*
X20429322Y-81820422D01*
X20217977Y-81763793D01*
X20000002Y-81744723D01*
X19999998Y-81744723D01*
X19854682Y-81757436D01*
X19782023Y-81763793D01*
X19782020Y-81763793D01*
X19570677Y-81820422D01*
X19570668Y-81820426D01*
X19372361Y-81912898D01*
X19372357Y-81912900D01*
X19193121Y-82038402D01*
X19038402Y-82193121D01*
X18912900Y-82372357D01*
X18912898Y-82372361D01*
X18820426Y-82570668D01*
X18820422Y-82570677D01*
X18763793Y-82782020D01*
X18763793Y-82782023D01*
X18759025Y-82836517D01*
X18744723Y-82999997D01*
X11255277Y-82999997D01*
X11252155Y-82964320D01*
X11251569Y-82957618D01*
X11236207Y-82782023D01*
X11201548Y-82652675D01*
X11179577Y-82570677D01*
X11179576Y-82570676D01*
X11179575Y-82570670D01*
X11087102Y-82372362D01*
X11087100Y-82372359D01*
X11087099Y-82372357D01*
X10961599Y-82193124D01*
X10961596Y-82193121D01*
X10806877Y-82038402D01*
X10627639Y-81912898D01*
X10627640Y-81912898D01*
X10627638Y-81912897D01*
X10528484Y-81866661D01*
X10429330Y-81820425D01*
X10429326Y-81820424D01*
X10429322Y-81820422D01*
X10217977Y-81763793D01*
X10000002Y-81744723D01*
X9999998Y-81744723D01*
X9854682Y-81757436D01*
X9782023Y-81763793D01*
X9782020Y-81763793D01*
X9570677Y-81820422D01*
X9570668Y-81820426D01*
X9372361Y-81912898D01*
X9372357Y-81912900D01*
X9193121Y-82038402D01*
X9038402Y-82193121D01*
X8912900Y-82372357D01*
X8912898Y-82372361D01*
X8820426Y-82570668D01*
X8820422Y-82570677D01*
X8763793Y-82782020D01*
X8763793Y-82782023D01*
X8759025Y-82836517D01*
X8744723Y-82999997D01*
X5807594Y-82999997D01*
X5752656Y-82964320D01*
X5425739Y-82797746D01*
X5083206Y-82666260D01*
X5083199Y-82666258D01*
X4728794Y-82571295D01*
X4728790Y-82571294D01*
X4728789Y-82571294D01*
X4366405Y-82513898D01*
X4000001Y-82494696D01*
X3999999Y-82494696D01*
X3633594Y-82513898D01*
X3271211Y-82571294D01*
X3271209Y-82571294D01*
X2916793Y-82666260D01*
X2574260Y-82797746D01*
X2247343Y-82964320D01*
X1939635Y-83164147D01*
X1654498Y-83395047D01*
X1654490Y-83395054D01*
X1395054Y-83654490D01*
X1395047Y-83654498D01*
X1164147Y-83939635D01*
X964320Y-84247343D01*
X797746Y-84574260D01*
X740264Y-84724008D01*
X697862Y-84779540D01*
X632168Y-84803333D01*
X564040Y-84787831D01*
X515107Y-84737958D01*
X500500Y-84679570D01*
X500500Y-80198670D01*
X2850000Y-80198670D01*
X2865185Y-80314019D01*
X2865187Y-80314024D01*
X2924633Y-80457541D01*
X2924633Y-80457542D01*
X3019207Y-80580792D01*
X3142458Y-80675366D01*
X3285975Y-80734812D01*
X3285980Y-80734814D01*
X3401329Y-80750000D01*
X5000000Y-80750000D01*
X5500000Y-80750000D01*
X7098671Y-80750000D01*
X7214019Y-80734814D01*
X7214024Y-80734812D01*
X7357541Y-80675366D01*
X7357542Y-80675366D01*
X7480792Y-80580792D01*
X7575366Y-80457542D01*
X7575366Y-80457541D01*
X7634812Y-80314024D01*
X7634814Y-80314019D01*
X7650000Y-80198670D01*
X7650000Y-79893053D01*
X22600000Y-79893053D01*
X22610613Y-79981443D01*
X22666079Y-80122095D01*
X22757435Y-80242564D01*
X22877904Y-80333920D01*
X23018556Y-80389386D01*
X23106946Y-80400000D01*
X23250000Y-80400000D01*
X23750000Y-80400000D01*
X23893054Y-80400000D01*
X23981443Y-80389386D01*
X24122095Y-80333920D01*
X24242564Y-80242564D01*
X24333920Y-80122095D01*
X24389386Y-79981443D01*
X24400000Y-79893053D01*
X24400000Y-79750000D01*
X23750000Y-79750000D01*
X23750000Y-80400000D01*
X23250000Y-80400000D01*
X23250000Y-79750000D01*
X22600000Y-79750000D01*
X22600000Y-79893053D01*
X7650000Y-79893053D01*
X7650000Y-79600000D01*
X5500000Y-79600000D01*
X5500000Y-80750000D01*
X5000000Y-80750000D01*
X5000000Y-79600000D01*
X2850000Y-79600000D01*
X2850000Y-80198670D01*
X500500Y-80198670D01*
X500500Y-78501329D01*
X2850000Y-78501329D01*
X2850000Y-79100000D01*
X5000000Y-79100000D01*
X5500000Y-79100000D01*
X7650000Y-79100000D01*
X7650000Y-78831582D01*
X15025001Y-78831582D01*
X15031408Y-78902102D01*
X15031409Y-78902107D01*
X15081981Y-79064396D01*
X15169927Y-79209877D01*
X15290122Y-79330072D01*
X15435604Y-79418019D01*
X15435603Y-79418019D01*
X15597894Y-79468590D01*
X15597893Y-79468590D01*
X15668408Y-79474998D01*
X15668426Y-79474999D01*
X15674999Y-79474998D01*
X15675000Y-79474998D01*
X15675000Y-78750000D01*
X15025001Y-78750000D01*
X15025001Y-78831582D01*
X7650000Y-78831582D01*
X7650000Y-78501329D01*
X7634814Y-78385980D01*
X7634812Y-78385975D01*
X7575366Y-78242458D01*
X7575366Y-78242457D01*
X7518560Y-78168427D01*
X15025000Y-78168427D01*
X15025000Y-78250000D01*
X15675000Y-78250000D01*
X15675000Y-77525000D01*
X15674999Y-77524999D01*
X15668436Y-77525000D01*
X15668417Y-77525001D01*
X15597897Y-77531408D01*
X15597892Y-77531409D01*
X15435603Y-77581981D01*
X15290122Y-77669927D01*
X15169927Y-77790122D01*
X15081980Y-77935604D01*
X15031409Y-78097893D01*
X15025000Y-78168427D01*
X7518560Y-78168427D01*
X7480792Y-78119207D01*
X7357541Y-78024633D01*
X7214024Y-77965187D01*
X7214019Y-77965185D01*
X7098671Y-77950000D01*
X5500000Y-77950000D01*
X5500000Y-79100000D01*
X5000000Y-79100000D01*
X5000000Y-77950000D01*
X3401329Y-77950000D01*
X3285980Y-77965185D01*
X3285975Y-77965187D01*
X3142458Y-78024633D01*
X3142457Y-78024633D01*
X3019207Y-78119207D01*
X2924633Y-78242457D01*
X2924633Y-78242458D01*
X2865187Y-78385975D01*
X2865185Y-78385980D01*
X2850000Y-78501329D01*
X500500Y-78501329D01*
X500500Y-75493053D01*
X7850000Y-75493053D01*
X7860613Y-75581443D01*
X7916079Y-75722095D01*
X8007435Y-75842564D01*
X8127906Y-75933921D01*
X8171488Y-75951107D01*
X8226633Y-75994011D01*
X8249827Y-76059919D01*
X8250000Y-76066462D01*
X8250000Y-76156645D01*
X8230315Y-76223684D01*
X8198055Y-76257561D01*
X8193516Y-76260801D01*
X8110803Y-76343514D01*
X8059426Y-76448608D01*
X8049500Y-76516739D01*
X8049500Y-77483260D01*
X8059426Y-77551391D01*
X8110803Y-77656485D01*
X8193514Y-77739196D01*
X8193515Y-77739196D01*
X8193517Y-77739198D01*
X8298607Y-77790573D01*
X8332673Y-77795536D01*
X8366739Y-77800500D01*
X8366740Y-77800500D01*
X11033255Y-77800500D01*
X11033260Y-77800500D01*
X11101393Y-77790573D01*
X11159631Y-77762101D01*
X11166583Y-77758964D01*
X11190973Y-77748852D01*
X11197252Y-77744756D01*
X11204295Y-77740759D01*
X11206479Y-77739199D01*
X11206483Y-77739198D01*
X11206485Y-77739195D01*
X11211801Y-77735401D01*
X11216123Y-77732450D01*
X11332615Y-77656483D01*
X11498035Y-77548608D01*
X11617604Y-77470634D01*
X11684511Y-77450503D01*
X11685338Y-77450500D01*
X11808581Y-77450500D01*
X11875620Y-77470185D01*
X11884067Y-77476124D01*
X11947157Y-77524535D01*
X11947158Y-77524535D01*
X11947159Y-77524536D01*
X12093238Y-77585044D01*
X12171619Y-77595363D01*
X12249999Y-77605682D01*
X12250000Y-77605682D01*
X12250001Y-77605682D01*
X12302254Y-77598802D01*
X12406762Y-77585044D01*
X12552841Y-77524536D01*
X12678282Y-77428282D01*
X12774536Y-77302841D01*
X12835044Y-77156762D01*
X12855682Y-77000000D01*
X12854855Y-76993722D01*
X12835044Y-76843239D01*
X12835044Y-76843238D01*
X12774536Y-76697159D01*
X12678282Y-76571718D01*
X12552841Y-76475464D01*
X12509050Y-76457325D01*
X12443536Y-76430188D01*
X12403308Y-76403308D01*
X11586213Y-75586213D01*
X11552728Y-75524890D01*
X11550555Y-75496766D01*
X11550000Y-75496766D01*
X11550000Y-75250000D01*
X7850000Y-75250000D01*
X7850000Y-75493053D01*
X500500Y-75493053D01*
X500500Y-74506946D01*
X7850000Y-74506946D01*
X7850000Y-74750000D01*
X11500000Y-74750000D01*
X12105131Y-74750000D01*
X12172170Y-74769685D01*
X12217925Y-74822489D01*
X12223030Y-74835584D01*
X12234700Y-74871401D01*
X12234704Y-74871411D01*
X12268189Y-74932733D01*
X12320289Y-75002329D01*
X12320307Y-75002350D01*
X13160522Y-75842564D01*
X13997660Y-76679702D01*
X14017095Y-76697159D01*
X14021993Y-76701559D01*
X14042674Y-76718224D01*
X14048172Y-76722551D01*
X14048175Y-76722553D01*
X14148251Y-76773439D01*
X14215290Y-76793124D01*
X14301362Y-76805500D01*
X14301365Y-76805500D01*
X15948639Y-76805500D01*
X15950559Y-76805397D01*
X15981297Y-76803749D01*
X16007655Y-76800915D01*
X16014660Y-76800080D01*
X16109205Y-76769272D01*
X16121401Y-76765299D01*
X16121401Y-76765298D01*
X16121407Y-76765297D01*
X16182730Y-76731812D01*
X16195099Y-76722553D01*
X16252329Y-76679710D01*
X16252340Y-76679702D01*
X16429702Y-76502340D01*
X16451558Y-76478008D01*
X16468192Y-76457366D01*
X16472553Y-76451825D01*
X16523439Y-76351749D01*
X16543124Y-76284710D01*
X16555500Y-76198638D01*
X16555500Y-75301362D01*
X16553749Y-75268703D01*
X16550915Y-75242345D01*
X16550080Y-75235340D01*
X16515297Y-75128593D01*
X16515295Y-75128588D01*
X16481810Y-75067266D01*
X16429710Y-74997670D01*
X16429705Y-74997665D01*
X16429702Y-74997660D01*
X16429698Y-74997656D01*
X16429692Y-74997649D01*
X15252353Y-73820311D01*
X15252340Y-73820298D01*
X15228008Y-73798442D01*
X15226721Y-73797405D01*
X15207325Y-73781775D01*
X15201827Y-73777448D01*
X15201825Y-73777447D01*
X15101747Y-73726560D01*
X15034717Y-73706877D01*
X15033878Y-73706756D01*
X14984652Y-73699678D01*
X14921099Y-73670653D01*
X14914622Y-73664622D01*
X14341819Y-73091819D01*
X14308334Y-73030496D01*
X14305500Y-73004138D01*
X14305500Y-72801361D01*
X14305390Y-72799320D01*
X14303749Y-72768703D01*
X14300915Y-72742345D01*
X14300080Y-72735340D01*
X14271407Y-72647343D01*
X14265299Y-72628598D01*
X14265295Y-72628588D01*
X14231810Y-72567266D01*
X14179710Y-72497670D01*
X14179705Y-72497665D01*
X14179702Y-72497660D01*
X14179698Y-72497656D01*
X14179692Y-72497649D01*
X14002354Y-72320312D01*
X14002340Y-72320298D01*
X13978008Y-72298442D01*
X13957366Y-72281808D01*
X13957363Y-72281806D01*
X13957325Y-72281775D01*
X13951827Y-72277448D01*
X13951825Y-72277447D01*
X13851747Y-72226560D01*
X13784716Y-72206877D01*
X13784710Y-72206876D01*
X13698638Y-72194500D01*
X8624000Y-72194500D01*
X8584088Y-72198790D01*
X8570852Y-72199500D01*
X8366739Y-72199500D01*
X8298608Y-72209426D01*
X8193514Y-72260803D01*
X8110803Y-72343514D01*
X8059426Y-72448608D01*
X8049500Y-72516739D01*
X8049500Y-73483260D01*
X8059426Y-73551391D01*
X8059427Y-73551393D01*
X8110802Y-73656483D01*
X8193517Y-73739198D01*
X8193521Y-73739200D01*
X8198048Y-73742432D01*
X8241173Y-73797405D01*
X8250000Y-73843353D01*
X8250000Y-73933536D01*
X8230315Y-74000575D01*
X8177511Y-74046330D01*
X8171492Y-74048890D01*
X8127905Y-74066078D01*
X8007435Y-74157435D01*
X7916079Y-74277904D01*
X7860613Y-74418556D01*
X7850000Y-74506946D01*
X500500Y-74506946D01*
X500500Y-71498670D01*
X2850000Y-71498670D01*
X2865185Y-71614019D01*
X2865187Y-71614024D01*
X2924633Y-71757541D01*
X2924633Y-71757542D01*
X3019207Y-71880792D01*
X3142458Y-71975366D01*
X3285975Y-72034812D01*
X3285980Y-72034814D01*
X3401329Y-72050000D01*
X5000000Y-72050000D01*
X5500000Y-72050000D01*
X7098671Y-72050000D01*
X7214019Y-72034814D01*
X7214024Y-72034812D01*
X7357541Y-71975366D01*
X7357542Y-71975366D01*
X7480792Y-71880792D01*
X7575366Y-71757542D01*
X7575366Y-71757541D01*
X7634812Y-71614024D01*
X7634814Y-71614019D01*
X7650000Y-71498670D01*
X7650000Y-70900000D01*
X5500000Y-70900000D01*
X5500000Y-72050000D01*
X5000000Y-72050000D01*
X5000000Y-70900000D01*
X2850000Y-70900000D01*
X2850000Y-71498670D01*
X500500Y-71498670D01*
X500500Y-69801329D01*
X2850000Y-69801329D01*
X2850000Y-70400000D01*
X5000000Y-70400000D01*
X5500000Y-70400000D01*
X7650000Y-70400000D01*
X7650000Y-69801329D01*
X7634814Y-69685980D01*
X7634812Y-69685975D01*
X7575366Y-69542458D01*
X7575366Y-69542457D01*
X7480792Y-69419207D01*
X7357541Y-69324633D01*
X7214024Y-69265187D01*
X7214019Y-69265185D01*
X7098671Y-69250000D01*
X5500000Y-69250000D01*
X5500000Y-70400000D01*
X5000000Y-70400000D01*
X5000000Y-69250000D01*
X3401329Y-69250000D01*
X3285980Y-69265185D01*
X3285975Y-69265187D01*
X3142458Y-69324633D01*
X3142457Y-69324633D01*
X3019207Y-69419207D01*
X2924633Y-69542457D01*
X2924633Y-69542458D01*
X2865187Y-69685975D01*
X2865185Y-69685980D01*
X2850000Y-69801329D01*
X500500Y-69801329D01*
X500500Y-68198670D01*
X2850000Y-68198670D01*
X2865185Y-68314019D01*
X2865187Y-68314024D01*
X2924633Y-68457541D01*
X2924633Y-68457542D01*
X3019207Y-68580792D01*
X3142458Y-68675366D01*
X3285975Y-68734812D01*
X3285980Y-68734814D01*
X3401329Y-68750000D01*
X5000000Y-68750000D01*
X5500000Y-68750000D01*
X7098671Y-68750000D01*
X7214019Y-68734814D01*
X7214024Y-68734812D01*
X7357541Y-68675366D01*
X7357542Y-68675366D01*
X7480792Y-68580792D01*
X7575366Y-68457542D01*
X7575366Y-68457541D01*
X7634812Y-68314024D01*
X7634814Y-68314019D01*
X7650000Y-68198670D01*
X7650000Y-67600000D01*
X5500000Y-67600000D01*
X5500000Y-68750000D01*
X5000000Y-68750000D01*
X5000000Y-67600000D01*
X2850000Y-67600000D01*
X2850000Y-68198670D01*
X500500Y-68198670D01*
X500500Y-66501329D01*
X2850000Y-66501329D01*
X2850000Y-67100000D01*
X5000000Y-67100000D01*
X5500000Y-67100000D01*
X7650000Y-67100000D01*
X7650000Y-66501329D01*
X7634814Y-66385980D01*
X7634812Y-66385975D01*
X7575366Y-66242458D01*
X7575366Y-66242457D01*
X7480792Y-66119207D01*
X7357541Y-66024633D01*
X7214024Y-65965187D01*
X7214019Y-65965185D01*
X7098671Y-65950000D01*
X5500000Y-65950000D01*
X5500000Y-67100000D01*
X5000000Y-67100000D01*
X5000000Y-65950000D01*
X3401329Y-65950000D01*
X3285980Y-65965185D01*
X3285975Y-65965187D01*
X3142458Y-66024633D01*
X3142457Y-66024633D01*
X3019207Y-66119207D01*
X2924633Y-66242457D01*
X2924633Y-66242458D01*
X2865187Y-66385975D01*
X2865185Y-66385980D01*
X2850000Y-66501329D01*
X500500Y-66501329D01*
X500500Y-62506946D01*
X7850000Y-62506946D01*
X7850000Y-62750000D01*
X9826000Y-62750000D01*
X9893039Y-62769685D01*
X9938794Y-62822489D01*
X9950000Y-62874000D01*
X9950000Y-63126000D01*
X9930315Y-63193039D01*
X9877511Y-63238794D01*
X9826000Y-63250000D01*
X7850000Y-63250000D01*
X7850000Y-63493053D01*
X7860613Y-63581443D01*
X7916079Y-63722095D01*
X8007435Y-63842564D01*
X8127906Y-63933921D01*
X8171488Y-63951107D01*
X8226633Y-63994011D01*
X8249827Y-64059919D01*
X8250000Y-64066462D01*
X8250000Y-64156645D01*
X8230315Y-64223684D01*
X8198055Y-64257561D01*
X8193516Y-64260801D01*
X8110803Y-64343514D01*
X8059426Y-64448608D01*
X8049500Y-64516739D01*
X8049500Y-65483260D01*
X8059426Y-65551391D01*
X8110803Y-65656485D01*
X8193514Y-65739196D01*
X8193515Y-65739196D01*
X8193517Y-65739198D01*
X8298607Y-65790573D01*
X8332673Y-65795536D01*
X8366739Y-65800500D01*
X8366740Y-65800500D01*
X11033255Y-65800500D01*
X11033260Y-65800500D01*
X11101393Y-65790573D01*
X11159631Y-65762101D01*
X11166583Y-65758964D01*
X11190973Y-65748852D01*
X11197252Y-65744756D01*
X11204295Y-65740759D01*
X11206479Y-65739199D01*
X11206483Y-65739198D01*
X11206485Y-65739195D01*
X11211801Y-65735401D01*
X11216123Y-65732450D01*
X11300957Y-65677128D01*
X11537316Y-65522992D01*
X11617604Y-65470634D01*
X11684511Y-65450503D01*
X11685338Y-65450500D01*
X11884308Y-65450500D01*
X11884309Y-65450500D01*
X11974673Y-65426286D01*
X11998887Y-65419799D01*
X12101614Y-65360489D01*
X12400285Y-65061816D01*
X12461607Y-65028333D01*
X12487965Y-65025499D01*
X12822871Y-65025499D01*
X12822872Y-65025499D01*
X12882483Y-65019091D01*
X13017331Y-64968796D01*
X13132546Y-64882546D01*
X13159227Y-64846903D01*
X13175485Y-64825188D01*
X13231419Y-64783318D01*
X13274751Y-64775500D01*
X13487819Y-64775500D01*
X13554858Y-64795185D01*
X13586622Y-64824574D01*
X13624920Y-64875077D01*
X13740023Y-64962363D01*
X13740024Y-64962363D01*
X13740025Y-64962364D01*
X13874410Y-65015359D01*
X13958856Y-65025500D01*
X13958862Y-65025500D01*
X14541145Y-65025500D01*
X14569292Y-65022119D01*
X14625590Y-65015359D01*
X14650167Y-65005666D01*
X14719750Y-64999383D01*
X14781687Y-65031717D01*
X14783339Y-65033339D01*
X15211669Y-65461669D01*
X15245154Y-65522992D01*
X15240171Y-65592679D01*
X15230910Y-65617510D01*
X15230909Y-65617516D01*
X15230909Y-65617517D01*
X15224500Y-65677127D01*
X15224500Y-65677134D01*
X15224500Y-65677135D01*
X15224500Y-66172870D01*
X15224501Y-66172876D01*
X15230908Y-66232481D01*
X15230909Y-66232483D01*
X15237442Y-66250000D01*
X15242182Y-66262706D01*
X15250000Y-66306040D01*
X15250000Y-67193959D01*
X15242181Y-67237292D01*
X15230909Y-67267517D01*
X15224500Y-67327127D01*
X15224500Y-67327134D01*
X15224500Y-67327135D01*
X15224500Y-67822870D01*
X15224501Y-67822876D01*
X15230908Y-67882483D01*
X15281202Y-68017328D01*
X15281206Y-68017335D01*
X15367452Y-68132544D01*
X15367455Y-68132547D01*
X15482664Y-68218793D01*
X15482671Y-68218797D01*
X15527618Y-68235561D01*
X15617517Y-68269091D01*
X15677127Y-68275500D01*
X16012033Y-68275499D01*
X16079072Y-68295183D01*
X16099714Y-68311818D01*
X16283386Y-68495490D01*
X16386114Y-68554799D01*
X16500691Y-68585500D01*
X16953457Y-68585500D01*
X17020496Y-68605185D01*
X17041133Y-68621814D01*
X17093517Y-68674198D01*
X17100783Y-68681464D01*
X17098140Y-68684106D01*
X17129482Y-68724081D01*
X17136023Y-68793644D01*
X17103917Y-68855700D01*
X17100717Y-68858471D01*
X17100782Y-68858536D01*
X17010803Y-68948514D01*
X16959426Y-69053608D01*
X16949500Y-69121739D01*
X16949500Y-69507717D01*
X16948238Y-69525364D01*
X16944500Y-69551362D01*
X16944500Y-75198638D01*
X16946250Y-75231281D01*
X16946254Y-75231334D01*
X16949081Y-75257625D01*
X16949920Y-75264660D01*
X16949920Y-75264662D01*
X16984700Y-75371402D01*
X16984703Y-75371407D01*
X16984827Y-75371635D01*
X16984865Y-75371785D01*
X16986972Y-75376665D01*
X16986196Y-75376999D01*
X17000000Y-75431069D01*
X17000000Y-76305357D01*
X16999675Y-76314324D01*
X16999500Y-76316737D01*
X16999500Y-76949137D01*
X16979815Y-77016176D01*
X16963181Y-77036818D01*
X16470162Y-77529836D01*
X16408839Y-77563321D01*
X16345591Y-77560541D01*
X16252101Y-77531408D01*
X16181572Y-77525000D01*
X16175000Y-77525000D01*
X16175000Y-79474999D01*
X16181581Y-79474999D01*
X16252102Y-79468591D01*
X16252107Y-79468590D01*
X16414396Y-79418018D01*
X16559877Y-79330072D01*
X16603629Y-79286320D01*
X16664952Y-79252834D01*
X16691311Y-79250000D01*
X17193959Y-79250000D01*
X17237292Y-79257818D01*
X17267517Y-79269091D01*
X17327127Y-79275500D01*
X17822872Y-79275499D01*
X17882483Y-79269091D01*
X18017331Y-79218796D01*
X18132546Y-79132546D01*
X18218796Y-79017331D01*
X18269091Y-78882483D01*
X18271428Y-78860742D01*
X18298165Y-78796195D01*
X18355557Y-78756346D01*
X18394717Y-78750000D01*
X19257246Y-78750000D01*
X19324285Y-78769685D01*
X19344922Y-78786314D01*
X19411658Y-78853050D01*
X19524694Y-78910645D01*
X19524698Y-78910647D01*
X19618475Y-78925499D01*
X19618481Y-78925500D01*
X20881518Y-78925499D01*
X20975304Y-78910646D01*
X21088342Y-78853050D01*
X21178050Y-78763342D01*
X21235646Y-78650304D01*
X21235646Y-78650302D01*
X21235647Y-78650301D01*
X21250499Y-78556524D01*
X21250500Y-78556519D01*
X21250499Y-77393482D01*
X21235646Y-77299696D01*
X21235645Y-77299694D01*
X21233795Y-77294000D01*
X21231798Y-77224159D01*
X21264044Y-77167998D01*
X21700232Y-76731810D01*
X22145722Y-76286318D01*
X22207045Y-76252834D01*
X22233403Y-76250000D01*
X22600500Y-76250000D01*
X22667539Y-76269685D01*
X22713294Y-76322489D01*
X22724500Y-76373999D01*
X22724500Y-76572869D01*
X22724501Y-76572876D01*
X22730908Y-76632483D01*
X22781202Y-76767328D01*
X22781206Y-76767335D01*
X22867452Y-76882544D01*
X22867455Y-76882547D01*
X22982663Y-76968792D01*
X22982665Y-76968793D01*
X22982669Y-76968796D01*
X22982673Y-76968797D01*
X22984924Y-76970027D01*
X22986746Y-76971849D01*
X22989769Y-76974112D01*
X22989443Y-76974546D01*
X23034331Y-77019431D01*
X23049500Y-77078861D01*
X23049500Y-77231585D01*
X23029815Y-77298624D01*
X22979961Y-77342985D01*
X22943515Y-77360802D01*
X22860803Y-77443514D01*
X22809426Y-77548608D01*
X22799500Y-77616739D01*
X22799500Y-78383260D01*
X22809426Y-78451391D01*
X22859718Y-78554266D01*
X22871476Y-78623139D01*
X22844133Y-78687436D01*
X22823244Y-78707529D01*
X22757435Y-78757434D01*
X22666079Y-78877904D01*
X22610613Y-79018556D01*
X22600000Y-79106946D01*
X22600000Y-79250000D01*
X24400000Y-79250000D01*
X24400000Y-79106946D01*
X24389386Y-79018556D01*
X24333920Y-78877904D01*
X24242563Y-78757432D01*
X24176756Y-78707529D01*
X24135233Y-78651337D01*
X24130682Y-78581615D01*
X24140282Y-78554265D01*
X24166161Y-78501329D01*
X24190573Y-78451393D01*
X24200500Y-78383260D01*
X24200500Y-77616740D01*
X24190573Y-77548607D01*
X24139198Y-77443517D01*
X24139196Y-77443515D01*
X24139196Y-77443514D01*
X24056484Y-77360802D01*
X24020039Y-77342985D01*
X23968457Y-77295857D01*
X23950500Y-77231585D01*
X23950500Y-77078861D01*
X23970185Y-77011822D01*
X24010418Y-76974362D01*
X24010231Y-76974112D01*
X24012565Y-76972364D01*
X24015076Y-76970027D01*
X24017323Y-76968798D01*
X24017331Y-76968796D01*
X24132546Y-76882546D01*
X24218796Y-76767331D01*
X24269091Y-76632483D01*
X24275500Y-76572873D01*
X24275499Y-76077128D01*
X24269091Y-76017517D01*
X24218796Y-75882669D01*
X24218795Y-75882668D01*
X24218793Y-75882664D01*
X24132547Y-75767455D01*
X24132273Y-75767181D01*
X24132087Y-75766840D01*
X24127232Y-75760355D01*
X24128164Y-75759656D01*
X24098788Y-75705858D01*
X24103772Y-75636166D01*
X24145644Y-75580233D01*
X24211108Y-75555816D01*
X24219954Y-75555500D01*
X26698639Y-75555500D01*
X26700559Y-75555397D01*
X26731297Y-75553749D01*
X26757655Y-75550915D01*
X26764660Y-75550080D01*
X26871407Y-75515297D01*
X26932730Y-75481812D01*
X27002340Y-75429702D01*
X28179702Y-74252340D01*
X28201558Y-74228008D01*
X28218192Y-74207366D01*
X28222553Y-74201825D01*
X28273439Y-74101749D01*
X28293124Y-74034710D01*
X28305500Y-73948638D01*
X28305500Y-59801362D01*
X28303749Y-59768703D01*
X28303621Y-59767517D01*
X28300918Y-59742374D01*
X28300915Y-59742345D01*
X28300080Y-59735340D01*
X28270173Y-59643556D01*
X28265299Y-59628598D01*
X28265295Y-59628588D01*
X28231810Y-59567266D01*
X28179710Y-59497670D01*
X28179705Y-59497665D01*
X28179702Y-59497660D01*
X28179698Y-59497656D01*
X28179692Y-59497649D01*
X27118722Y-58436680D01*
X27085237Y-58375357D01*
X27090221Y-58305665D01*
X27132093Y-58249732D01*
X27197557Y-58225315D01*
X27206402Y-58224999D01*
X27750000Y-58224999D01*
X27831581Y-58224999D01*
X27902102Y-58218591D01*
X27902107Y-58218590D01*
X28064396Y-58168018D01*
X28209877Y-58080072D01*
X28330072Y-57959877D01*
X28418019Y-57814395D01*
X28468590Y-57652106D01*
X28475000Y-57581572D01*
X28475000Y-57575000D01*
X27750000Y-57575000D01*
X27750000Y-58224999D01*
X27206402Y-58224999D01*
X27249999Y-58224998D01*
X27250000Y-58224998D01*
X27250000Y-57575000D01*
X26525001Y-57575000D01*
X26525001Y-57581582D01*
X26531408Y-57652102D01*
X26531409Y-57652107D01*
X26572408Y-57783677D01*
X26573560Y-57853538D01*
X26536759Y-57912930D01*
X26473690Y-57942998D01*
X26453067Y-57943909D01*
X26453067Y-57944500D01*
X22051361Y-57944500D01*
X22018718Y-57946250D01*
X22018709Y-57946250D01*
X22018703Y-57946251D01*
X22018698Y-57946251D01*
X22018665Y-57946254D01*
X21992374Y-57949081D01*
X21985339Y-57949920D01*
X21985337Y-57949920D01*
X21878598Y-57984700D01*
X21878588Y-57984704D01*
X21817266Y-58018189D01*
X21747670Y-58070289D01*
X21747649Y-58070307D01*
X21734776Y-58083181D01*
X21673453Y-58116666D01*
X21647095Y-58119500D01*
X21399500Y-58119500D01*
X21359588Y-58123790D01*
X21346352Y-58124500D01*
X21186739Y-58124500D01*
X21118608Y-58134426D01*
X21013514Y-58185803D01*
X20930803Y-58268514D01*
X20879426Y-58373608D01*
X20869500Y-58441739D01*
X20869500Y-58758260D01*
X20879425Y-58826388D01*
X20879428Y-58826395D01*
X20901009Y-58870541D01*
X20912767Y-58939414D01*
X20901009Y-58979459D01*
X20879428Y-59023604D01*
X20879425Y-59023611D01*
X20869500Y-59091739D01*
X20869500Y-59408260D01*
X20879425Y-59476388D01*
X20879428Y-59476395D01*
X20901009Y-59520541D01*
X20912767Y-59589414D01*
X20901009Y-59629459D01*
X20879428Y-59673604D01*
X20879425Y-59673611D01*
X20869500Y-59741739D01*
X20869500Y-60058260D01*
X20879426Y-60126391D01*
X20930803Y-60231485D01*
X21013514Y-60314196D01*
X21013515Y-60314196D01*
X21013517Y-60314198D01*
X21118607Y-60365573D01*
X21152673Y-60370536D01*
X21186739Y-60375500D01*
X21186740Y-60375500D01*
X21425500Y-60375500D01*
X21492539Y-60395185D01*
X21538294Y-60447989D01*
X21549500Y-60499500D01*
X21549500Y-60799138D01*
X21529815Y-60866177D01*
X21513181Y-60886819D01*
X21500000Y-60900000D01*
X21500000Y-62699999D01*
X21639324Y-62699999D01*
X21756628Y-62684557D01*
X21756633Y-62684555D01*
X21902585Y-62624100D01*
X22027924Y-62527924D01*
X22124100Y-62402586D01*
X22155596Y-62326548D01*
X22199436Y-62272144D01*
X22265730Y-62250079D01*
X22270157Y-62250000D01*
X22561535Y-62250000D01*
X22628574Y-62269685D01*
X22644194Y-62282272D01*
X22648383Y-62285486D01*
X22648387Y-62285490D01*
X22741956Y-62339511D01*
X22741958Y-62339513D01*
X22751110Y-62344797D01*
X22751111Y-62344797D01*
X22751114Y-62344799D01*
X22865691Y-62375500D01*
X22975249Y-62375500D01*
X23042288Y-62395185D01*
X23074515Y-62425188D01*
X23096703Y-62454827D01*
X23117454Y-62482546D01*
X23117457Y-62482548D01*
X23232664Y-62568793D01*
X23232671Y-62568797D01*
X23277618Y-62585561D01*
X23367517Y-62619091D01*
X23427127Y-62625500D01*
X24072872Y-62625499D01*
X24132483Y-62619091D01*
X24267331Y-62568796D01*
X24382546Y-62482546D01*
X24468796Y-62367331D01*
X24519091Y-62232483D01*
X24525500Y-62172873D01*
X24525499Y-61677128D01*
X24519091Y-61617517D01*
X24518801Y-61616740D01*
X24468797Y-61482671D01*
X24468796Y-61482669D01*
X24424359Y-61423309D01*
X24399942Y-61357845D01*
X24414793Y-61289572D01*
X24464198Y-61240166D01*
X24491904Y-61233094D01*
X24499999Y-61224999D01*
X25000000Y-61224999D01*
X25048308Y-61224999D01*
X25048322Y-61224998D01*
X25147607Y-61214855D01*
X25308481Y-61161547D01*
X25308492Y-61161542D01*
X25452728Y-61072575D01*
X25452732Y-61072572D01*
X25572572Y-60952732D01*
X25572575Y-60952728D01*
X25661542Y-60808492D01*
X25661547Y-60808481D01*
X25714855Y-60647606D01*
X25724999Y-60548322D01*
X25725000Y-60548309D01*
X25725000Y-60525000D01*
X25000000Y-60525000D01*
X25000000Y-61224999D01*
X24499999Y-61224999D01*
X24500000Y-61224998D01*
X24500000Y-60525000D01*
X22874000Y-60525000D01*
X22806961Y-60505315D01*
X22761206Y-60452511D01*
X22750000Y-60401000D01*
X22750000Y-60149000D01*
X22769685Y-60081961D01*
X22822489Y-60036206D01*
X22874000Y-60025000D01*
X25748856Y-60025000D01*
X25757612Y-60020218D01*
X25827304Y-60025197D01*
X25871659Y-60053701D01*
X26158181Y-60340223D01*
X26191666Y-60401546D01*
X26194500Y-60427904D01*
X26194500Y-63704002D01*
X26174815Y-63771041D01*
X26122011Y-63816796D01*
X26052853Y-63826740D01*
X26033610Y-63822388D01*
X25902101Y-63781408D01*
X25831572Y-63775000D01*
X25750000Y-63775000D01*
X25750000Y-64801000D01*
X25730315Y-64868039D01*
X25677511Y-64913794D01*
X25626000Y-64925000D01*
X24586882Y-64925000D01*
X24519843Y-64905315D01*
X24497443Y-64880300D01*
X24472098Y-64861080D01*
X24331443Y-64805613D01*
X24243054Y-64795000D01*
X23750000Y-64795000D01*
X23750000Y-65721000D01*
X23730315Y-65788039D01*
X23677511Y-65833794D01*
X23626000Y-65845000D01*
X22250000Y-65845000D01*
X22250000Y-65888053D01*
X22260613Y-65976443D01*
X22316079Y-66117095D01*
X22390759Y-66215574D01*
X22415582Y-66280886D01*
X22401154Y-66349250D01*
X22352057Y-66398961D01*
X22291955Y-66414500D01*
X21852965Y-66414500D01*
X21785926Y-66394815D01*
X21765284Y-66378181D01*
X21286319Y-65899216D01*
X21252834Y-65837893D01*
X21250000Y-65811535D01*
X21250000Y-65301946D01*
X22250000Y-65301946D01*
X22250000Y-65345000D01*
X23250000Y-65345000D01*
X23250000Y-64795000D01*
X22756946Y-64795000D01*
X22668556Y-64805613D01*
X22527904Y-64861079D01*
X22407435Y-64952435D01*
X22316079Y-65072904D01*
X22260613Y-65213556D01*
X22250000Y-65301946D01*
X21250000Y-65301946D01*
X21250000Y-64524499D01*
X21269685Y-64457460D01*
X21322489Y-64411705D01*
X21374000Y-64400499D01*
X21631517Y-64400499D01*
X21631518Y-64400499D01*
X21725304Y-64385646D01*
X21838342Y-64328050D01*
X21928050Y-64238342D01*
X21938311Y-64218204D01*
X21986286Y-64167409D01*
X22048795Y-64150500D01*
X23100165Y-64150500D01*
X23167204Y-64170185D01*
X23174476Y-64175233D01*
X23231878Y-64218204D01*
X23232668Y-64218795D01*
X23232671Y-64218797D01*
X23245774Y-64223684D01*
X23367517Y-64269091D01*
X23427127Y-64275500D01*
X24072872Y-64275499D01*
X24132483Y-64269091D01*
X24132488Y-64269089D01*
X24162708Y-64257818D01*
X24206041Y-64250000D01*
X24404526Y-64250000D01*
X24471565Y-64269685D01*
X24517320Y-64322489D01*
X24528017Y-64385220D01*
X24525000Y-64418426D01*
X24525000Y-64425000D01*
X25250000Y-64425000D01*
X25250000Y-63775000D01*
X25249999Y-63774999D01*
X25168417Y-63775000D01*
X25094782Y-63781691D01*
X25026236Y-63768153D01*
X24995881Y-63745881D01*
X24539101Y-63289101D01*
X24510600Y-63244752D01*
X24508741Y-63239769D01*
X24479609Y-63161659D01*
X24468798Y-63132673D01*
X24468793Y-63132664D01*
X24382547Y-63017455D01*
X24382544Y-63017452D01*
X24267335Y-62931206D01*
X24267328Y-62931202D01*
X24132486Y-62880910D01*
X24132485Y-62880909D01*
X24132483Y-62880909D01*
X24072873Y-62874500D01*
X24072863Y-62874500D01*
X23427129Y-62874500D01*
X23427123Y-62874501D01*
X23367516Y-62880908D01*
X23232671Y-62931202D01*
X23232664Y-62931206D01*
X23117455Y-63017452D01*
X23117452Y-63017455D01*
X23031206Y-63132664D01*
X23031203Y-63132669D01*
X23017715Y-63168834D01*
X22975843Y-63224767D01*
X22910379Y-63249184D01*
X22901533Y-63249500D01*
X22048795Y-63249500D01*
X21981756Y-63229815D01*
X21938311Y-63181796D01*
X21931706Y-63168834D01*
X21928050Y-63161658D01*
X21928047Y-63161655D01*
X21928045Y-63161652D01*
X21838347Y-63071954D01*
X21838344Y-63071952D01*
X21838342Y-63071950D01*
X21758370Y-63031202D01*
X21725301Y-63014352D01*
X21631524Y-62999500D01*
X21631519Y-62999500D01*
X21237965Y-62999500D01*
X21170926Y-62979815D01*
X21150284Y-62963181D01*
X21031232Y-62844129D01*
X20997747Y-62782806D01*
X21000000Y-62751301D01*
X21000000Y-60900000D01*
X20951362Y-60900000D01*
X20884323Y-60880315D01*
X20863681Y-60863681D01*
X20330813Y-60330813D01*
X20297328Y-60269490D01*
X20302312Y-60199798D01*
X20303140Y-60197641D01*
X20319385Y-60156447D01*
X20319386Y-60156442D01*
X20329167Y-60075000D01*
X19018000Y-60075000D01*
X19018000Y-60151000D01*
X18998315Y-60218039D01*
X18945511Y-60263794D01*
X18894000Y-60275000D01*
X17874000Y-60275000D01*
X17806961Y-60255315D01*
X17761206Y-60202511D01*
X17750000Y-60151000D01*
X17750000Y-59899000D01*
X17769685Y-59831961D01*
X17822489Y-59786206D01*
X17874000Y-59775000D01*
X18807000Y-59775000D01*
X18820681Y-59761319D01*
X18882004Y-59727834D01*
X18908362Y-59725000D01*
X19355358Y-59725000D01*
X19364326Y-59725325D01*
X19366739Y-59725500D01*
X19366740Y-59725500D01*
X19813261Y-59725500D01*
X19815674Y-59725325D01*
X19824642Y-59725000D01*
X20329167Y-59725000D01*
X20319386Y-59643557D01*
X20319386Y-59643556D01*
X20263920Y-59502904D01*
X20172560Y-59382429D01*
X20166819Y-59376688D01*
X20133334Y-59315365D01*
X20130500Y-59289007D01*
X20130500Y-59091739D01*
X20120573Y-59023607D01*
X20098991Y-58979461D01*
X20087231Y-58910589D01*
X20098991Y-58870539D01*
X20120573Y-58826392D01*
X20130500Y-58758260D01*
X20130500Y-58441739D01*
X20120573Y-58373608D01*
X20087358Y-58305665D01*
X20069198Y-58268517D01*
X20069196Y-58268515D01*
X20069196Y-58268514D01*
X19986485Y-58185803D01*
X19881391Y-58134426D01*
X19813261Y-58124500D01*
X19813260Y-58124500D01*
X19644144Y-58124500D01*
X19626497Y-58123238D01*
X19600500Y-58119500D01*
X19600498Y-58119500D01*
X19596081Y-58119184D01*
X19596199Y-58117531D01*
X19535865Y-58099815D01*
X19515223Y-58083181D01*
X19252353Y-57820311D01*
X19252349Y-57820307D01*
X19252340Y-57820298D01*
X19228008Y-57798442D01*
X19207366Y-57781808D01*
X19207363Y-57781806D01*
X19207325Y-57781775D01*
X19201827Y-57777448D01*
X19201825Y-57777447D01*
X19101747Y-57726560D01*
X19034716Y-57706877D01*
X19034710Y-57706876D01*
X18948638Y-57694500D01*
X12801362Y-57694500D01*
X12801361Y-57694500D01*
X12768718Y-57696250D01*
X12768709Y-57696250D01*
X12768703Y-57696251D01*
X12768698Y-57696251D01*
X12768665Y-57696254D01*
X12742374Y-57699081D01*
X12735339Y-57699920D01*
X12735337Y-57699920D01*
X12628598Y-57734700D01*
X12628588Y-57734704D01*
X12567266Y-57768189D01*
X12497670Y-57820289D01*
X12497649Y-57820307D01*
X10159777Y-60158181D01*
X10098454Y-60191666D01*
X10072096Y-60194500D01*
X8624000Y-60194500D01*
X8584088Y-60198790D01*
X8570852Y-60199500D01*
X8366739Y-60199500D01*
X8298608Y-60209426D01*
X8193514Y-60260803D01*
X8110803Y-60343514D01*
X8059426Y-60448608D01*
X8049500Y-60516739D01*
X8049500Y-61483260D01*
X8059426Y-61551391D01*
X8073510Y-61580201D01*
X8110802Y-61656483D01*
X8193517Y-61739198D01*
X8193521Y-61739200D01*
X8198048Y-61742432D01*
X8241173Y-61797405D01*
X8250000Y-61843353D01*
X8250000Y-61933536D01*
X8230315Y-62000575D01*
X8177511Y-62046330D01*
X8171492Y-62048890D01*
X8127905Y-62066078D01*
X8007435Y-62157435D01*
X7916079Y-62277904D01*
X7860613Y-62418556D01*
X7850000Y-62506946D01*
X500500Y-62506946D01*
X500500Y-59498670D01*
X2850000Y-59498670D01*
X2865185Y-59614019D01*
X2865187Y-59614024D01*
X2924633Y-59757541D01*
X2924633Y-59757542D01*
X3019207Y-59880792D01*
X3142458Y-59975366D01*
X3285975Y-60034812D01*
X3285980Y-60034814D01*
X3401329Y-60050000D01*
X5000000Y-60050000D01*
X5500000Y-60050000D01*
X7098671Y-60050000D01*
X7214019Y-60034814D01*
X7214024Y-60034812D01*
X7357541Y-59975366D01*
X7357542Y-59975366D01*
X7480792Y-59880792D01*
X7575366Y-59757542D01*
X7575366Y-59757541D01*
X7634812Y-59614024D01*
X7634814Y-59614019D01*
X7650000Y-59498670D01*
X7650000Y-58900000D01*
X5500000Y-58900000D01*
X5500000Y-60050000D01*
X5000000Y-60050000D01*
X5000000Y-58900000D01*
X2850000Y-58900000D01*
X2850000Y-59498670D01*
X500500Y-59498670D01*
X500500Y-57801329D01*
X2850000Y-57801329D01*
X2850000Y-58400000D01*
X5000000Y-58400000D01*
X5500000Y-58400000D01*
X7650000Y-58400000D01*
X7650000Y-57801329D01*
X7634814Y-57685980D01*
X7634812Y-57685975D01*
X7575366Y-57542458D01*
X7575366Y-57542457D01*
X7480792Y-57419207D01*
X7357541Y-57324633D01*
X7214024Y-57265187D01*
X7214019Y-57265185D01*
X7098671Y-57250000D01*
X5500000Y-57250000D01*
X5500000Y-58400000D01*
X5000000Y-58400000D01*
X5000000Y-57250000D01*
X3401329Y-57250000D01*
X3285980Y-57265185D01*
X3285975Y-57265187D01*
X3142458Y-57324633D01*
X3142457Y-57324633D01*
X3019207Y-57419207D01*
X2924633Y-57542457D01*
X2924633Y-57542458D01*
X2865187Y-57685975D01*
X2865185Y-57685980D01*
X2850000Y-57801329D01*
X500500Y-57801329D01*
X500500Y-56874000D01*
X520185Y-56806961D01*
X572989Y-56761206D01*
X624500Y-56750000D01*
X26440135Y-56750000D01*
X26507174Y-56769685D01*
G37*
%TD.AperFunction*%
%TD*%
%TA.AperFunction,Conductor*%
%TO.N,Chassis*%
G36*
X10193039Y-520185D02*
G01*
X10238794Y-572989D01*
X10250000Y-624500D01*
X10250000Y-6698638D01*
X10230315Y-6765677D01*
X10213681Y-6786319D01*
X9536319Y-7463681D01*
X9474996Y-7497166D01*
X9448638Y-7500000D01*
X624500Y-7500000D01*
X557461Y-7480315D01*
X511706Y-7427511D01*
X500500Y-7376000D01*
X500500Y-4003051D01*
X500649Y-3996967D01*
X517052Y-3663072D01*
X518245Y-3650962D01*
X566849Y-3323296D01*
X569218Y-3311385D01*
X649710Y-2990043D01*
X653240Y-2978411D01*
X764835Y-2666525D01*
X769476Y-2655318D01*
X911124Y-2355828D01*
X916840Y-2345136D01*
X1087145Y-2060998D01*
X1093888Y-2050905D01*
X1291232Y-1784818D01*
X1298935Y-1775433D01*
X1521405Y-1529975D01*
X1529975Y-1521405D01*
X1775433Y-1298935D01*
X1784818Y-1291232D01*
X2050905Y-1093888D01*
X2060998Y-1087145D01*
X2345136Y-916840D01*
X2355828Y-911124D01*
X2655318Y-769476D01*
X2666525Y-764835D01*
X2978412Y-653239D01*
X2990043Y-649710D01*
X3311385Y-569218D01*
X3323296Y-566849D01*
X3650962Y-518244D01*
X3663068Y-517052D01*
X3996967Y-500648D01*
X4003051Y-500500D01*
X10126000Y-500500D01*
X10193039Y-520185D01*
G37*
%TD.AperFunction*%
%TD*%
%TA.AperFunction,Conductor*%
%TO.N,GND1*%
G36*
X19628574Y-18519685D02*
G01*
X19649216Y-18536319D01*
X20763181Y-19650284D01*
X20796666Y-19711607D01*
X20799500Y-19737965D01*
X20799500Y-22771809D01*
X20807283Y-22800856D01*
X20821154Y-22852624D01*
X20821161Y-22852647D01*
X20821164Y-22852658D01*
X20830201Y-22886387D01*
X20889511Y-22989114D01*
X20889513Y-22989116D01*
X20948292Y-23047895D01*
X20981777Y-23109218D01*
X20976793Y-23178910D01*
X20936099Y-23233950D01*
X20821718Y-23321718D01*
X20725463Y-23447160D01*
X20664956Y-23593237D01*
X20664955Y-23593239D01*
X20644318Y-23749998D01*
X20644318Y-23750001D01*
X20664955Y-23906760D01*
X20664956Y-23906762D01*
X20719034Y-24037319D01*
X20725464Y-24052841D01*
X20821718Y-24178282D01*
X20947159Y-24274536D01*
X21093238Y-24335044D01*
X21157597Y-24343517D01*
X21249999Y-24355682D01*
X21250000Y-24355682D01*
X21290058Y-24350408D01*
X21359092Y-24361173D01*
X21411348Y-24407553D01*
X21429359Y-24458563D01*
X21435122Y-24506562D01*
X21490639Y-24647343D01*
X21582077Y-24767922D01*
X21702656Y-24859360D01*
X21702657Y-24859360D01*
X21702658Y-24859361D01*
X21843436Y-24914877D01*
X21931898Y-24925500D01*
X21931903Y-24925500D01*
X22643097Y-24925500D01*
X22643102Y-24925500D01*
X22731564Y-24914877D01*
X22872342Y-24859361D01*
X22992922Y-24767922D01*
X23084361Y-24647342D01*
X23139877Y-24506564D01*
X23150500Y-24418102D01*
X23150500Y-23081898D01*
X23139877Y-22993436D01*
X23084361Y-22852658D01*
X23084360Y-22852657D01*
X23084360Y-22852656D01*
X22992922Y-22732077D01*
X22872343Y-22640639D01*
X22764436Y-22598086D01*
X22731564Y-22585123D01*
X22731563Y-22585122D01*
X22731561Y-22585122D01*
X22685926Y-22579642D01*
X22643102Y-22574500D01*
X21931898Y-22574500D01*
X21889623Y-22579576D01*
X21839283Y-22585621D01*
X21770375Y-22574069D01*
X21718651Y-22527096D01*
X21700500Y-22462505D01*
X21700500Y-19439500D01*
X21720185Y-19372461D01*
X21772989Y-19326706D01*
X21824500Y-19315500D01*
X22453457Y-19315500D01*
X22520496Y-19335185D01*
X22541133Y-19351814D01*
X22593517Y-19404198D01*
X22600783Y-19411464D01*
X22598140Y-19414106D01*
X22629482Y-19454081D01*
X22636023Y-19523644D01*
X22603917Y-19585700D01*
X22600717Y-19588471D01*
X22600782Y-19588536D01*
X22510803Y-19678514D01*
X22459426Y-19783608D01*
X22449500Y-19851739D01*
X22449500Y-20418260D01*
X22459426Y-20486391D01*
X22510803Y-20591485D01*
X22600782Y-20681464D01*
X22598139Y-20684106D01*
X22629482Y-20724081D01*
X22636023Y-20793644D01*
X22603917Y-20855700D01*
X22600717Y-20858471D01*
X22600782Y-20858536D01*
X22510803Y-20948514D01*
X22459426Y-21053608D01*
X22449500Y-21121739D01*
X22449500Y-21688260D01*
X22459426Y-21756391D01*
X22510803Y-21861485D01*
X22593514Y-21944196D01*
X22593515Y-21944196D01*
X22593517Y-21944198D01*
X22698607Y-21995573D01*
X22728991Y-22000000D01*
X22766739Y-22005500D01*
X22766740Y-22005500D01*
X23704138Y-22005500D01*
X23771177Y-22025185D01*
X23791819Y-22041819D01*
X24419841Y-22669841D01*
X24453326Y-22731164D01*
X24448342Y-22800856D01*
X24430966Y-22832444D01*
X24415640Y-22852655D01*
X24360122Y-22993438D01*
X24354188Y-23042853D01*
X24349500Y-23081898D01*
X24349500Y-24418102D01*
X24354359Y-24458563D01*
X24360122Y-24506561D01*
X24415639Y-24647343D01*
X24507077Y-24767922D01*
X24627656Y-24859360D01*
X24627657Y-24859360D01*
X24627658Y-24859361D01*
X24768436Y-24914877D01*
X24856898Y-24925500D01*
X24856903Y-24925500D01*
X25568095Y-24925500D01*
X25568102Y-24925500D01*
X25611218Y-24920322D01*
X25680124Y-24931874D01*
X25731848Y-24978846D01*
X25750000Y-25043438D01*
X25750000Y-25516596D01*
X25730315Y-25583635D01*
X25713681Y-25604277D01*
X25659777Y-25658181D01*
X25598454Y-25691666D01*
X25572096Y-25694500D01*
X20288195Y-25694500D01*
X20221156Y-25674815D01*
X20175401Y-25622011D01*
X20165457Y-25552853D01*
X20170489Y-25531496D01*
X20214855Y-25397606D01*
X20224999Y-25298322D01*
X20225000Y-25298309D01*
X20225000Y-25250000D01*
X19149000Y-25250000D01*
X19081961Y-25230315D01*
X19036206Y-25177511D01*
X19025000Y-25126000D01*
X19025000Y-24750000D01*
X19525000Y-24750000D01*
X20224999Y-24750000D01*
X20224999Y-24701692D01*
X20224998Y-24701677D01*
X20214855Y-24602392D01*
X20161547Y-24441518D01*
X20161542Y-24441507D01*
X20072575Y-24297271D01*
X20072572Y-24297267D01*
X19987986Y-24212681D01*
X19954501Y-24151358D01*
X19959485Y-24081666D01*
X19987986Y-24037319D01*
X20072572Y-23952732D01*
X20072575Y-23952728D01*
X20161542Y-23808492D01*
X20161547Y-23808481D01*
X20214855Y-23647606D01*
X20224999Y-23548322D01*
X20225000Y-23548309D01*
X20225000Y-23500000D01*
X19525000Y-23500000D01*
X19525000Y-24750000D01*
X19025000Y-24750000D01*
X19025000Y-23000000D01*
X19525000Y-23000000D01*
X20224999Y-23000000D01*
X20224999Y-22951692D01*
X20224998Y-22951677D01*
X20214855Y-22852392D01*
X20161547Y-22691518D01*
X20161542Y-22691507D01*
X20072575Y-22547271D01*
X20072572Y-22547267D01*
X19952732Y-22427427D01*
X19952728Y-22427424D01*
X19808492Y-22338457D01*
X19808481Y-22338452D01*
X19647606Y-22285144D01*
X19548322Y-22275000D01*
X19525000Y-22275000D01*
X19525000Y-23000000D01*
X19025000Y-23000000D01*
X19025000Y-22271496D01*
X18995729Y-22217892D01*
X19000713Y-22148200D01*
X19006357Y-22135341D01*
X19023439Y-22101749D01*
X19043124Y-22034710D01*
X19055500Y-21948638D01*
X19055500Y-21551362D01*
X19053749Y-21518703D01*
X19051211Y-21495095D01*
X19050500Y-21481838D01*
X19050500Y-21121739D01*
X19040573Y-21053608D01*
X19040573Y-21053607D01*
X18989198Y-20948517D01*
X18989196Y-20948515D01*
X18989196Y-20948514D01*
X18899218Y-20858536D01*
X18901864Y-20855889D01*
X18870535Y-20815965D01*
X18863967Y-20746404D01*
X18896048Y-20684335D01*
X18899284Y-20681530D01*
X18899218Y-20681464D01*
X18989196Y-20591485D01*
X18989198Y-20591483D01*
X19040573Y-20486393D01*
X19050500Y-20418260D01*
X19050500Y-19851740D01*
X19040573Y-19783607D01*
X18989198Y-19678517D01*
X18989196Y-19678515D01*
X18989196Y-19678514D01*
X18899218Y-19588536D01*
X18901864Y-19585889D01*
X18870535Y-19545965D01*
X18863967Y-19476404D01*
X18896048Y-19414335D01*
X18899284Y-19411530D01*
X18899218Y-19411464D01*
X18989196Y-19321485D01*
X18989198Y-19321483D01*
X19040573Y-19216393D01*
X19050500Y-19148260D01*
X19050500Y-18624000D01*
X19070185Y-18556961D01*
X19122989Y-18511206D01*
X19174500Y-18500000D01*
X19561535Y-18500000D01*
X19628574Y-18519685D01*
G37*
%TD.AperFunction*%
%TA.AperFunction,Conductor*%
G36*
X14087289Y-12757816D02*
G01*
X14115322Y-12768272D01*
X14159670Y-12796773D01*
X14463681Y-13100784D01*
X14497166Y-13162107D01*
X14500000Y-13188465D01*
X14500000Y-14851000D01*
X14480315Y-14918039D01*
X14427511Y-14963794D01*
X14376000Y-14975000D01*
X13333362Y-14975000D01*
X13266323Y-14955315D01*
X13245681Y-14938681D01*
X13232000Y-14925000D01*
X12374000Y-14925000D01*
X12306961Y-14905315D01*
X12261206Y-14852511D01*
X12250000Y-14801000D01*
X12250000Y-13775000D01*
X12750000Y-13775000D01*
X12750000Y-14425000D01*
X13416638Y-14425000D01*
X13483677Y-14444685D01*
X13504319Y-14461319D01*
X13518000Y-14475000D01*
X14000000Y-14475000D01*
X14000000Y-13775000D01*
X13999999Y-13774999D01*
X13951693Y-13775000D01*
X13951675Y-13775001D01*
X13852392Y-13785144D01*
X13691518Y-13838452D01*
X13691507Y-13838457D01*
X13547271Y-13927424D01*
X13547267Y-13927427D01*
X13470001Y-14004692D01*
X13408678Y-14038177D01*
X13338986Y-14033191D01*
X13294639Y-14004691D01*
X13209875Y-13919926D01*
X13064395Y-13831980D01*
X13064396Y-13831980D01*
X12902105Y-13781409D01*
X12902106Y-13781409D01*
X12831572Y-13775000D01*
X12750000Y-13775000D01*
X12250000Y-13775000D01*
X12250000Y-12983403D01*
X12269685Y-12916364D01*
X12286314Y-12895727D01*
X12395724Y-12786317D01*
X12457046Y-12752834D01*
X12483404Y-12750000D01*
X14043959Y-12750000D01*
X14087289Y-12757816D01*
G37*
%TD.AperFunction*%
%TA.AperFunction,Conductor*%
G36*
X24746609Y-520185D02*
G01*
X24792364Y-572989D01*
X24802308Y-642147D01*
X24773283Y-705703D01*
X24724008Y-740264D01*
X24574260Y-797746D01*
X24247343Y-964320D01*
X23939635Y-1164147D01*
X23654498Y-1395047D01*
X23654490Y-1395054D01*
X23395054Y-1654490D01*
X23395047Y-1654498D01*
X23164147Y-1939635D01*
X22964320Y-2247343D01*
X22797746Y-2574260D01*
X22666260Y-2916793D01*
X22571294Y-3271209D01*
X22571294Y-3271211D01*
X22513898Y-3633594D01*
X22494696Y-3999999D01*
X22494696Y-4000000D01*
X22513898Y-4366405D01*
X22523865Y-4429331D01*
X22571295Y-4728794D01*
X22592218Y-4806881D01*
X22666260Y-5083206D01*
X22797746Y-5425739D01*
X22964320Y-5752656D01*
X23164147Y-6060364D01*
X23277211Y-6199986D01*
X23395051Y-6345506D01*
X23654494Y-6604949D01*
X23654498Y-6604952D01*
X23939635Y-6835852D01*
X24247343Y-7035679D01*
X24247348Y-7035682D01*
X24574264Y-7202255D01*
X24916801Y-7333742D01*
X25271206Y-7428705D01*
X25633596Y-7486102D01*
X25979734Y-7504241D01*
X25999999Y-7505304D01*
X26000000Y-7505304D01*
X26000001Y-7505304D01*
X26019203Y-7504297D01*
X26366404Y-7486102D01*
X26728794Y-7428705D01*
X27083199Y-7333742D01*
X27425736Y-7202255D01*
X27752652Y-7035682D01*
X28060366Y-6835851D01*
X28345506Y-6604949D01*
X28604949Y-6345506D01*
X28835851Y-6060366D01*
X29035682Y-5752652D01*
X29202255Y-5425736D01*
X29259736Y-5275991D01*
X29302138Y-5220459D01*
X29367832Y-5196666D01*
X29435960Y-5212167D01*
X29484893Y-5262041D01*
X29499500Y-5320429D01*
X29499500Y-32126000D01*
X29479815Y-32193039D01*
X29427011Y-32238794D01*
X29375500Y-32250000D01*
X28559865Y-32250000D01*
X28492826Y-32230315D01*
X28447071Y-32177511D01*
X28437127Y-32108353D01*
X28441479Y-32089111D01*
X28468590Y-32002103D01*
X28475000Y-31931572D01*
X28475000Y-31925000D01*
X26525001Y-31925000D01*
X26525001Y-31931582D01*
X26531408Y-32002102D01*
X26531409Y-32002107D01*
X26558520Y-32089109D01*
X26559672Y-32158970D01*
X26522871Y-32218362D01*
X26459802Y-32248430D01*
X26440135Y-32250000D01*
X24465674Y-32250000D01*
X24398635Y-32230315D01*
X24352880Y-32177511D01*
X24342936Y-32108353D01*
X24350320Y-32080510D01*
X24389385Y-31981446D01*
X24400000Y-31893053D01*
X24400000Y-31750000D01*
X22600000Y-31750000D01*
X22600000Y-31893053D01*
X22610614Y-31981446D01*
X22649680Y-32080510D01*
X22655962Y-32150097D01*
X22623625Y-32212033D01*
X22562936Y-32246654D01*
X22534326Y-32250000D01*
X7774000Y-32250000D01*
X7706961Y-32230315D01*
X7661206Y-32177511D01*
X7650000Y-32126000D01*
X7650000Y-31600000D01*
X2850000Y-31600000D01*
X2850000Y-32126000D01*
X2830315Y-32193039D01*
X2777511Y-32238794D01*
X2726000Y-32250000D01*
X624500Y-32250000D01*
X557461Y-32230315D01*
X511706Y-32177511D01*
X500500Y-32126000D01*
X500500Y-30501329D01*
X2850000Y-30501329D01*
X2850000Y-31100000D01*
X5000000Y-31100000D01*
X5500000Y-31100000D01*
X7650000Y-31100000D01*
X7650000Y-30831582D01*
X15025001Y-30831582D01*
X15031408Y-30902102D01*
X15031409Y-30902107D01*
X15081981Y-31064396D01*
X15169927Y-31209877D01*
X15290122Y-31330072D01*
X15435604Y-31418019D01*
X15435603Y-31418019D01*
X15597894Y-31468590D01*
X15597893Y-31468590D01*
X15668408Y-31474998D01*
X15668426Y-31474999D01*
X15674999Y-31474998D01*
X15675000Y-31474998D01*
X15675000Y-30750000D01*
X15025001Y-30750000D01*
X15025001Y-30831582D01*
X7650000Y-30831582D01*
X7650000Y-30501329D01*
X7634814Y-30385980D01*
X7634812Y-30385975D01*
X7575366Y-30242458D01*
X7575366Y-30242457D01*
X7518560Y-30168427D01*
X15025000Y-30168427D01*
X15025000Y-30250000D01*
X15675000Y-30250000D01*
X15675000Y-29525000D01*
X15674999Y-29524999D01*
X15668436Y-29525000D01*
X15668417Y-29525001D01*
X15597897Y-29531408D01*
X15597892Y-29531409D01*
X15435603Y-29581981D01*
X15290122Y-29669927D01*
X15169927Y-29790122D01*
X15081980Y-29935604D01*
X15031409Y-30097893D01*
X15025000Y-30168427D01*
X7518560Y-30168427D01*
X7480792Y-30119207D01*
X7357541Y-30024633D01*
X7214024Y-29965187D01*
X7214019Y-29965185D01*
X7098671Y-29950000D01*
X5500000Y-29950000D01*
X5500000Y-31100000D01*
X5000000Y-31100000D01*
X5000000Y-29950000D01*
X3401329Y-29950000D01*
X3285980Y-29965185D01*
X3285975Y-29965187D01*
X3142458Y-30024633D01*
X3142457Y-30024633D01*
X3019207Y-30119207D01*
X2924633Y-30242457D01*
X2924633Y-30242458D01*
X2865187Y-30385975D01*
X2865185Y-30385980D01*
X2850000Y-30501329D01*
X500500Y-30501329D01*
X500500Y-27493053D01*
X7850000Y-27493053D01*
X7860613Y-27581443D01*
X7916079Y-27722095D01*
X8007435Y-27842564D01*
X8127906Y-27933921D01*
X8171488Y-27951107D01*
X8226633Y-27994011D01*
X8249827Y-28059919D01*
X8250000Y-28066462D01*
X8250000Y-28156645D01*
X8230315Y-28223684D01*
X8198055Y-28257561D01*
X8193516Y-28260801D01*
X8110803Y-28343514D01*
X8059426Y-28448608D01*
X8049500Y-28516739D01*
X8049500Y-29483260D01*
X8059426Y-29551391D01*
X8110803Y-29656485D01*
X8193514Y-29739196D01*
X8193515Y-29739196D01*
X8193517Y-29739198D01*
X8298607Y-29790573D01*
X8332673Y-29795536D01*
X8366739Y-29800500D01*
X8366740Y-29800500D01*
X11033255Y-29800500D01*
X11033260Y-29800500D01*
X11101393Y-29790573D01*
X11159631Y-29762101D01*
X11166583Y-29758964D01*
X11190973Y-29748852D01*
X11197252Y-29744756D01*
X11204295Y-29740759D01*
X11206479Y-29739199D01*
X11206483Y-29739198D01*
X11206485Y-29739195D01*
X11211801Y-29735401D01*
X11216123Y-29732450D01*
X11332615Y-29656483D01*
X11498035Y-29548608D01*
X11617604Y-29470634D01*
X11684511Y-29450503D01*
X11685338Y-29450500D01*
X11808581Y-29450500D01*
X11875620Y-29470185D01*
X11884067Y-29476124D01*
X11947157Y-29524535D01*
X11947158Y-29524535D01*
X11947159Y-29524536D01*
X12093238Y-29585044D01*
X12171619Y-29595363D01*
X12249999Y-29605682D01*
X12250000Y-29605682D01*
X12250001Y-29605682D01*
X12302254Y-29598802D01*
X12406762Y-29585044D01*
X12552841Y-29524536D01*
X12678282Y-29428282D01*
X12774536Y-29302841D01*
X12835044Y-29156762D01*
X12855682Y-29000000D01*
X12854855Y-28993722D01*
X12835044Y-28843239D01*
X12835044Y-28843238D01*
X12774536Y-28697159D01*
X12678282Y-28571718D01*
X12552841Y-28475464D01*
X12509050Y-28457325D01*
X12443536Y-28430188D01*
X12403308Y-28403308D01*
X11586213Y-27586213D01*
X11552728Y-27524890D01*
X11550555Y-27496766D01*
X11550000Y-27496766D01*
X11550000Y-27250000D01*
X7850000Y-27250000D01*
X7850000Y-27493053D01*
X500500Y-27493053D01*
X500500Y-26506946D01*
X7850000Y-26506946D01*
X7850000Y-26750000D01*
X11500000Y-26750000D01*
X12105131Y-26750000D01*
X12172170Y-26769685D01*
X12217925Y-26822489D01*
X12223030Y-26835584D01*
X12234700Y-26871401D01*
X12234704Y-26871411D01*
X12268189Y-26932733D01*
X12320289Y-27002329D01*
X12320307Y-27002350D01*
X13160522Y-27842564D01*
X13997660Y-28679702D01*
X14017095Y-28697159D01*
X14021993Y-28701559D01*
X14042674Y-28718224D01*
X14048172Y-28722551D01*
X14048175Y-28722553D01*
X14148251Y-28773439D01*
X14215290Y-28793124D01*
X14301362Y-28805500D01*
X14301365Y-28805500D01*
X15948639Y-28805500D01*
X15950559Y-28805397D01*
X15981297Y-28803749D01*
X16007655Y-28800915D01*
X16014660Y-28800080D01*
X16109205Y-28769272D01*
X16121401Y-28765299D01*
X16121401Y-28765298D01*
X16121407Y-28765297D01*
X16182730Y-28731812D01*
X16195099Y-28722553D01*
X16252329Y-28679710D01*
X16252340Y-28679702D01*
X16429702Y-28502340D01*
X16451558Y-28478008D01*
X16468192Y-28457366D01*
X16472553Y-28451825D01*
X16523439Y-28351749D01*
X16543124Y-28284710D01*
X16555500Y-28198638D01*
X16555500Y-27301362D01*
X16553749Y-27268703D01*
X16550915Y-27242345D01*
X16550080Y-27235340D01*
X16515297Y-27128593D01*
X16515295Y-27128588D01*
X16481810Y-27067266D01*
X16429710Y-26997670D01*
X16429705Y-26997665D01*
X16429702Y-26997660D01*
X16429698Y-26997656D01*
X16429692Y-26997649D01*
X15252353Y-25820311D01*
X15252340Y-25820298D01*
X15228008Y-25798442D01*
X15226721Y-25797405D01*
X15207325Y-25781775D01*
X15201827Y-25777448D01*
X15201825Y-25777447D01*
X15101747Y-25726560D01*
X15034717Y-25706877D01*
X15033878Y-25706756D01*
X14984652Y-25699678D01*
X14921099Y-25670653D01*
X14914622Y-25664622D01*
X14341819Y-25091819D01*
X14308334Y-25030496D01*
X14305500Y-25004138D01*
X14305500Y-24801361D01*
X14305390Y-24799320D01*
X14303749Y-24768703D01*
X14300915Y-24742345D01*
X14300080Y-24735340D01*
X14271407Y-24647343D01*
X14265299Y-24628598D01*
X14265295Y-24628588D01*
X14231810Y-24567266D01*
X14179710Y-24497670D01*
X14179705Y-24497665D01*
X14179702Y-24497660D01*
X14179698Y-24497656D01*
X14179692Y-24497649D01*
X14002354Y-24320312D01*
X14002340Y-24320298D01*
X13978008Y-24298442D01*
X13957366Y-24281808D01*
X13957363Y-24281806D01*
X13957325Y-24281775D01*
X13951827Y-24277448D01*
X13951825Y-24277447D01*
X13851747Y-24226560D01*
X13784716Y-24206877D01*
X13784710Y-24206876D01*
X13698638Y-24194500D01*
X8624000Y-24194500D01*
X8584088Y-24198790D01*
X8570852Y-24199500D01*
X8366739Y-24199500D01*
X8298608Y-24209426D01*
X8193514Y-24260803D01*
X8110803Y-24343514D01*
X8059426Y-24448608D01*
X8049500Y-24516739D01*
X8049500Y-25483260D01*
X8059426Y-25551391D01*
X8059427Y-25551393D01*
X8110802Y-25656483D01*
X8193517Y-25739198D01*
X8193521Y-25739200D01*
X8198048Y-25742432D01*
X8241173Y-25797405D01*
X8250000Y-25843353D01*
X8250000Y-25933536D01*
X8230315Y-26000575D01*
X8177511Y-26046330D01*
X8171492Y-26048890D01*
X8127905Y-26066078D01*
X8007435Y-26157435D01*
X7916079Y-26277904D01*
X7860613Y-26418556D01*
X7850000Y-26506946D01*
X500500Y-26506946D01*
X500500Y-23498670D01*
X2850000Y-23498670D01*
X2865185Y-23614019D01*
X2865187Y-23614024D01*
X2924633Y-23757541D01*
X2924633Y-23757542D01*
X3019207Y-23880792D01*
X3142458Y-23975366D01*
X3285975Y-24034812D01*
X3285980Y-24034814D01*
X3401329Y-24050000D01*
X5000000Y-24050000D01*
X5500000Y-24050000D01*
X7098671Y-24050000D01*
X7214019Y-24034814D01*
X7214024Y-24034812D01*
X7357541Y-23975366D01*
X7357542Y-23975366D01*
X7480792Y-23880792D01*
X7575366Y-23757542D01*
X7575366Y-23757541D01*
X7634812Y-23614024D01*
X7634814Y-23614019D01*
X7650000Y-23498670D01*
X7650000Y-22900000D01*
X5500000Y-22900000D01*
X5500000Y-24050000D01*
X5000000Y-24050000D01*
X5000000Y-22900000D01*
X2850000Y-22900000D01*
X2850000Y-23498670D01*
X500500Y-23498670D01*
X500500Y-21801329D01*
X2850000Y-21801329D01*
X2850000Y-22400000D01*
X5000000Y-22400000D01*
X5500000Y-22400000D01*
X7650000Y-22400000D01*
X7650000Y-21801329D01*
X7634814Y-21685980D01*
X7634812Y-21685975D01*
X7575366Y-21542458D01*
X7575366Y-21542457D01*
X7480792Y-21419207D01*
X7357541Y-21324633D01*
X7214024Y-21265187D01*
X7214019Y-21265185D01*
X7098671Y-21250000D01*
X5500000Y-21250000D01*
X5500000Y-22400000D01*
X5000000Y-22400000D01*
X5000000Y-21250000D01*
X3401329Y-21250000D01*
X3285980Y-21265185D01*
X3285975Y-21265187D01*
X3142458Y-21324633D01*
X3142457Y-21324633D01*
X3019207Y-21419207D01*
X2924633Y-21542457D01*
X2924633Y-21542458D01*
X2865187Y-21685975D01*
X2865185Y-21685980D01*
X2850000Y-21801329D01*
X500500Y-21801329D01*
X500500Y-20198670D01*
X2850000Y-20198670D01*
X2865185Y-20314019D01*
X2865187Y-20314024D01*
X2924633Y-20457541D01*
X2924633Y-20457542D01*
X3019207Y-20580792D01*
X3142458Y-20675366D01*
X3285975Y-20734812D01*
X3285980Y-20734814D01*
X3401329Y-20750000D01*
X5000000Y-20750000D01*
X5500000Y-20750000D01*
X7098671Y-20750000D01*
X7214019Y-20734814D01*
X7214024Y-20734812D01*
X7357541Y-20675366D01*
X7357542Y-20675366D01*
X7480792Y-20580792D01*
X7575366Y-20457542D01*
X7575366Y-20457541D01*
X7634812Y-20314024D01*
X7634814Y-20314019D01*
X7650000Y-20198670D01*
X7650000Y-19600000D01*
X5500000Y-19600000D01*
X5500000Y-20750000D01*
X5000000Y-20750000D01*
X5000000Y-19600000D01*
X2850000Y-19600000D01*
X2850000Y-20198670D01*
X500500Y-20198670D01*
X500500Y-18501329D01*
X2850000Y-18501329D01*
X2850000Y-19100000D01*
X5000000Y-19100000D01*
X5500000Y-19100000D01*
X7650000Y-19100000D01*
X7650000Y-18501329D01*
X7634814Y-18385980D01*
X7634812Y-18385975D01*
X7575366Y-18242458D01*
X7575366Y-18242457D01*
X7480792Y-18119207D01*
X7357541Y-18024633D01*
X7214024Y-17965187D01*
X7214019Y-17965185D01*
X7098671Y-17950000D01*
X5500000Y-17950000D01*
X5500000Y-19100000D01*
X5000000Y-19100000D01*
X5000000Y-17950000D01*
X3401329Y-17950000D01*
X3285980Y-17965185D01*
X3285975Y-17965187D01*
X3142458Y-18024633D01*
X3142457Y-18024633D01*
X3019207Y-18119207D01*
X2924633Y-18242457D01*
X2924633Y-18242458D01*
X2865187Y-18385975D01*
X2865185Y-18385980D01*
X2850000Y-18501329D01*
X500500Y-18501329D01*
X500500Y-14506946D01*
X7850000Y-14506946D01*
X7850000Y-14750000D01*
X9826000Y-14750000D01*
X9893039Y-14769685D01*
X9938794Y-14822489D01*
X9950000Y-14874000D01*
X9950000Y-15126000D01*
X9930315Y-15193039D01*
X9877511Y-15238794D01*
X9826000Y-15250000D01*
X7850000Y-15250000D01*
X7850000Y-15493053D01*
X7860613Y-15581443D01*
X7916079Y-15722095D01*
X8007435Y-15842564D01*
X8127906Y-15933921D01*
X8171488Y-15951107D01*
X8226633Y-15994011D01*
X8249827Y-16059919D01*
X8250000Y-16066462D01*
X8250000Y-16156645D01*
X8230315Y-16223684D01*
X8198055Y-16257561D01*
X8193516Y-16260801D01*
X8110803Y-16343514D01*
X8059426Y-16448608D01*
X8049500Y-16516739D01*
X8049500Y-17483260D01*
X8059426Y-17551391D01*
X8110803Y-17656485D01*
X8193514Y-17739196D01*
X8193515Y-17739196D01*
X8193517Y-17739198D01*
X8298607Y-17790573D01*
X8332673Y-17795536D01*
X8366739Y-17800500D01*
X8366740Y-17800500D01*
X11033255Y-17800500D01*
X11033260Y-17800500D01*
X11101393Y-17790573D01*
X11159631Y-17762101D01*
X11166583Y-17758964D01*
X11190973Y-17748852D01*
X11197252Y-17744756D01*
X11204295Y-17740759D01*
X11206479Y-17739199D01*
X11206483Y-17739198D01*
X11206485Y-17739195D01*
X11211801Y-17735401D01*
X11216123Y-17732450D01*
X11300957Y-17677128D01*
X11537316Y-17522992D01*
X11617604Y-17470634D01*
X11684511Y-17450503D01*
X11685338Y-17450500D01*
X11884308Y-17450500D01*
X11884309Y-17450500D01*
X11974673Y-17426286D01*
X11998887Y-17419799D01*
X12101614Y-17360489D01*
X12400285Y-17061816D01*
X12461607Y-17028333D01*
X12487965Y-17025499D01*
X12822871Y-17025499D01*
X12822872Y-17025499D01*
X12882483Y-17019091D01*
X13017331Y-16968796D01*
X13132546Y-16882546D01*
X13159227Y-16846903D01*
X13175485Y-16825188D01*
X13231419Y-16783318D01*
X13274751Y-16775500D01*
X13487819Y-16775500D01*
X13554858Y-16795185D01*
X13586622Y-16824574D01*
X13624920Y-16875077D01*
X13740023Y-16962363D01*
X13740024Y-16962363D01*
X13740025Y-16962364D01*
X13874410Y-17015359D01*
X13958856Y-17025500D01*
X13958862Y-17025500D01*
X14541145Y-17025500D01*
X14569292Y-17022119D01*
X14625590Y-17015359D01*
X14650167Y-17005666D01*
X14719750Y-16999383D01*
X14781687Y-17031717D01*
X14783339Y-17033339D01*
X15211669Y-17461669D01*
X15245154Y-17522992D01*
X15240171Y-17592679D01*
X15230910Y-17617510D01*
X15230909Y-17617516D01*
X15230909Y-17617517D01*
X15224500Y-17677127D01*
X15224500Y-17677134D01*
X15224500Y-17677135D01*
X15224500Y-18172870D01*
X15224501Y-18172876D01*
X15230908Y-18232481D01*
X15230909Y-18232483D01*
X15237442Y-18250000D01*
X15242182Y-18262706D01*
X15250000Y-18306040D01*
X15250000Y-19193959D01*
X15242181Y-19237292D01*
X15230909Y-19267517D01*
X15224500Y-19327127D01*
X15224500Y-19327134D01*
X15224500Y-19327135D01*
X15224500Y-19822870D01*
X15224501Y-19822876D01*
X15230908Y-19882483D01*
X15281202Y-20017328D01*
X15281206Y-20017335D01*
X15367452Y-20132544D01*
X15367455Y-20132547D01*
X15482664Y-20218793D01*
X15482671Y-20218797D01*
X15527618Y-20235561D01*
X15617517Y-20269091D01*
X15677127Y-20275500D01*
X16012033Y-20275499D01*
X16079072Y-20295183D01*
X16099714Y-20311818D01*
X16283386Y-20495490D01*
X16386114Y-20554799D01*
X16500691Y-20585500D01*
X16953457Y-20585500D01*
X17020496Y-20605185D01*
X17041133Y-20621814D01*
X17093517Y-20674198D01*
X17100783Y-20681464D01*
X17098140Y-20684106D01*
X17129482Y-20724081D01*
X17136023Y-20793644D01*
X17103917Y-20855700D01*
X17100717Y-20858471D01*
X17100782Y-20858536D01*
X17010803Y-20948514D01*
X16959426Y-21053608D01*
X16949500Y-21121739D01*
X16949500Y-21507717D01*
X16948238Y-21525364D01*
X16944500Y-21551362D01*
X16944500Y-27198638D01*
X16946250Y-27231281D01*
X16946254Y-27231334D01*
X16949081Y-27257625D01*
X16949920Y-27264660D01*
X16949920Y-27264662D01*
X16984700Y-27371402D01*
X16984703Y-27371407D01*
X16984827Y-27371635D01*
X16984865Y-27371785D01*
X16986972Y-27376665D01*
X16986196Y-27376999D01*
X17000000Y-27431069D01*
X17000000Y-28305357D01*
X16999675Y-28314324D01*
X16999500Y-28316737D01*
X16999500Y-28949137D01*
X16979815Y-29016176D01*
X16963181Y-29036818D01*
X16470162Y-29529836D01*
X16408839Y-29563321D01*
X16345591Y-29560541D01*
X16252101Y-29531408D01*
X16181572Y-29525000D01*
X16175000Y-29525000D01*
X16175000Y-31474999D01*
X16181581Y-31474999D01*
X16252102Y-31468591D01*
X16252107Y-31468590D01*
X16413083Y-31418427D01*
X26525000Y-31418427D01*
X26525000Y-31425000D01*
X27250000Y-31425000D01*
X27750000Y-31425000D01*
X28474999Y-31425000D01*
X28474999Y-31418417D01*
X28468591Y-31347897D01*
X28468590Y-31347892D01*
X28418018Y-31185603D01*
X28330072Y-31040122D01*
X28209877Y-30919927D01*
X28064395Y-30831980D01*
X28064396Y-30831980D01*
X27902105Y-30781409D01*
X27902106Y-30781409D01*
X27831572Y-30775000D01*
X27750000Y-30775000D01*
X27750000Y-31425000D01*
X27250000Y-31425000D01*
X27250000Y-30775000D01*
X27249999Y-30774999D01*
X27168417Y-30775000D01*
X27097897Y-30781408D01*
X27097892Y-30781409D01*
X26935603Y-30831981D01*
X26790122Y-30919927D01*
X26669927Y-31040122D01*
X26581980Y-31185604D01*
X26531409Y-31347893D01*
X26525000Y-31418427D01*
X16413083Y-31418427D01*
X16414396Y-31418018D01*
X16559877Y-31330072D01*
X16603629Y-31286320D01*
X16664952Y-31252834D01*
X16691311Y-31250000D01*
X17193959Y-31250000D01*
X17237292Y-31257818D01*
X17267517Y-31269091D01*
X17327127Y-31275500D01*
X17822872Y-31275499D01*
X17882483Y-31269091D01*
X18017331Y-31218796D01*
X18132546Y-31132546D01*
X18218796Y-31017331D01*
X18269091Y-30882483D01*
X18271428Y-30860742D01*
X18298165Y-30796195D01*
X18355557Y-30756346D01*
X18394717Y-30750000D01*
X19257246Y-30750000D01*
X19324285Y-30769685D01*
X19344922Y-30786314D01*
X19411658Y-30853050D01*
X19524694Y-30910645D01*
X19524698Y-30910647D01*
X19618475Y-30925499D01*
X19618481Y-30925500D01*
X20881518Y-30925499D01*
X20975304Y-30910646D01*
X21088342Y-30853050D01*
X21178050Y-30763342D01*
X21235646Y-30650304D01*
X21235646Y-30650302D01*
X21235647Y-30650301D01*
X21250499Y-30556524D01*
X21250500Y-30556519D01*
X21250499Y-29393482D01*
X21235646Y-29299696D01*
X21235645Y-29299694D01*
X21233795Y-29294000D01*
X21231798Y-29224159D01*
X21264044Y-29167998D01*
X21700232Y-28731810D01*
X22145722Y-28286318D01*
X22207045Y-28252834D01*
X22233403Y-28250000D01*
X22600500Y-28250000D01*
X22667539Y-28269685D01*
X22713294Y-28322489D01*
X22724500Y-28373999D01*
X22724500Y-28572869D01*
X22724501Y-28572876D01*
X22730908Y-28632483D01*
X22781202Y-28767328D01*
X22781206Y-28767335D01*
X22867452Y-28882544D01*
X22867455Y-28882547D01*
X22982663Y-28968792D01*
X22982665Y-28968793D01*
X22982669Y-28968796D01*
X22982673Y-28968797D01*
X22984924Y-28970027D01*
X22986746Y-28971849D01*
X22989769Y-28974112D01*
X22989443Y-28974546D01*
X23034331Y-29019431D01*
X23049500Y-29078861D01*
X23049500Y-29231585D01*
X23029815Y-29298624D01*
X22979961Y-29342985D01*
X22943515Y-29360802D01*
X22860803Y-29443514D01*
X22809426Y-29548608D01*
X22799500Y-29616739D01*
X22799500Y-30383260D01*
X22809426Y-30451391D01*
X22859718Y-30554266D01*
X22871476Y-30623139D01*
X22844133Y-30687436D01*
X22823244Y-30707529D01*
X22757435Y-30757434D01*
X22666079Y-30877904D01*
X22610613Y-31018556D01*
X22600000Y-31106946D01*
X22600000Y-31250000D01*
X24400000Y-31250000D01*
X24400000Y-31106946D01*
X24389386Y-31018556D01*
X24333920Y-30877904D01*
X24242563Y-30757432D01*
X24176756Y-30707529D01*
X24135233Y-30651337D01*
X24130682Y-30581615D01*
X24140282Y-30554265D01*
X24166161Y-30501329D01*
X24190573Y-30451393D01*
X24200500Y-30383260D01*
X24200500Y-29616740D01*
X24190573Y-29548607D01*
X24139198Y-29443517D01*
X24139196Y-29443515D01*
X24139196Y-29443514D01*
X24056484Y-29360802D01*
X24020039Y-29342985D01*
X23968457Y-29295857D01*
X23950500Y-29231585D01*
X23950500Y-29078861D01*
X23970185Y-29011822D01*
X24010418Y-28974362D01*
X24010231Y-28974112D01*
X24012565Y-28972364D01*
X24015076Y-28970027D01*
X24017323Y-28968798D01*
X24017331Y-28968796D01*
X24132546Y-28882546D01*
X24218796Y-28767331D01*
X24269091Y-28632483D01*
X24275500Y-28572873D01*
X24275499Y-28077128D01*
X24269091Y-28017517D01*
X24218796Y-27882669D01*
X24218795Y-27882668D01*
X24218793Y-27882664D01*
X24132547Y-27767455D01*
X24132273Y-27767181D01*
X24132087Y-27766840D01*
X24127232Y-27760355D01*
X24128164Y-27759656D01*
X24098788Y-27705858D01*
X24103772Y-27636166D01*
X24145644Y-27580233D01*
X24211108Y-27555816D01*
X24219954Y-27555500D01*
X26698639Y-27555500D01*
X26700559Y-27555397D01*
X26731297Y-27553749D01*
X26757655Y-27550915D01*
X26764660Y-27550080D01*
X26871407Y-27515297D01*
X26932730Y-27481812D01*
X27002340Y-27429702D01*
X28179702Y-26252340D01*
X28201558Y-26228008D01*
X28218192Y-26207366D01*
X28222553Y-26201825D01*
X28273439Y-26101749D01*
X28293124Y-26034710D01*
X28305500Y-25948638D01*
X28305500Y-11801362D01*
X28303749Y-11768703D01*
X28303621Y-11767517D01*
X28300918Y-11742374D01*
X28300915Y-11742345D01*
X28300080Y-11735340D01*
X28270173Y-11643556D01*
X28265299Y-11628598D01*
X28265295Y-11628588D01*
X28231810Y-11567266D01*
X28179710Y-11497670D01*
X28179705Y-11497665D01*
X28179702Y-11497660D01*
X28179698Y-11497656D01*
X28179692Y-11497649D01*
X26752353Y-10070311D01*
X26752349Y-10070307D01*
X26752340Y-10070298D01*
X26728008Y-10048442D01*
X26707366Y-10031808D01*
X26707363Y-10031806D01*
X26707325Y-10031775D01*
X26701827Y-10027448D01*
X26701825Y-10027447D01*
X26601747Y-9976560D01*
X26534716Y-9956877D01*
X26534710Y-9956876D01*
X26448638Y-9944500D01*
X22051362Y-9944500D01*
X22051361Y-9944500D01*
X22018718Y-9946250D01*
X22018709Y-9946250D01*
X22018703Y-9946251D01*
X22018698Y-9946251D01*
X22018665Y-9946254D01*
X21992374Y-9949081D01*
X21985339Y-9949920D01*
X21985337Y-9949920D01*
X21878598Y-9984700D01*
X21878588Y-9984704D01*
X21817266Y-10018189D01*
X21747670Y-10070289D01*
X21747649Y-10070307D01*
X21734776Y-10083181D01*
X21673453Y-10116666D01*
X21647095Y-10119500D01*
X21399500Y-10119500D01*
X21359588Y-10123790D01*
X21346352Y-10124500D01*
X21186739Y-10124500D01*
X21118608Y-10134426D01*
X21013514Y-10185803D01*
X20930803Y-10268514D01*
X20879426Y-10373608D01*
X20869500Y-10441739D01*
X20869500Y-10758260D01*
X20879425Y-10826388D01*
X20879428Y-10826395D01*
X20901009Y-10870541D01*
X20912767Y-10939414D01*
X20901009Y-10979459D01*
X20879428Y-11023604D01*
X20879425Y-11023611D01*
X20869500Y-11091739D01*
X20869500Y-11408260D01*
X20879425Y-11476388D01*
X20879428Y-11476395D01*
X20901009Y-11520541D01*
X20912767Y-11589414D01*
X20901009Y-11629459D01*
X20879428Y-11673604D01*
X20879425Y-11673611D01*
X20869500Y-11741739D01*
X20869500Y-12058260D01*
X20879426Y-12126391D01*
X20930803Y-12231485D01*
X21013514Y-12314196D01*
X21013515Y-12314196D01*
X21013517Y-12314198D01*
X21118607Y-12365573D01*
X21152673Y-12370536D01*
X21186739Y-12375500D01*
X21186740Y-12375500D01*
X21425500Y-12375500D01*
X21492539Y-12395185D01*
X21538294Y-12447989D01*
X21549500Y-12499500D01*
X21549500Y-12799138D01*
X21529815Y-12866177D01*
X21513181Y-12886819D01*
X21500000Y-12900000D01*
X21500000Y-14699999D01*
X21639324Y-14699999D01*
X21756628Y-14684557D01*
X21756633Y-14684555D01*
X21902585Y-14624100D01*
X22027924Y-14527924D01*
X22124100Y-14402586D01*
X22155596Y-14326548D01*
X22199436Y-14272144D01*
X22265730Y-14250079D01*
X22270157Y-14250000D01*
X22561535Y-14250000D01*
X22628574Y-14269685D01*
X22644194Y-14282272D01*
X22648383Y-14285486D01*
X22648387Y-14285490D01*
X22741956Y-14339511D01*
X22741958Y-14339513D01*
X22751110Y-14344797D01*
X22751111Y-14344797D01*
X22751114Y-14344799D01*
X22865691Y-14375500D01*
X22975249Y-14375500D01*
X23042288Y-14395185D01*
X23074515Y-14425188D01*
X23096703Y-14454827D01*
X23117454Y-14482546D01*
X23117457Y-14482548D01*
X23232664Y-14568793D01*
X23232671Y-14568797D01*
X23277618Y-14585561D01*
X23367517Y-14619091D01*
X23427127Y-14625500D01*
X24072872Y-14625499D01*
X24132483Y-14619091D01*
X24267331Y-14568796D01*
X24382546Y-14482546D01*
X24468796Y-14367331D01*
X24519091Y-14232483D01*
X24525500Y-14172873D01*
X24525499Y-13677128D01*
X24519091Y-13617517D01*
X24518801Y-13616740D01*
X24468797Y-13482671D01*
X24468796Y-13482669D01*
X24424359Y-13423309D01*
X24399942Y-13357845D01*
X24414793Y-13289572D01*
X24464198Y-13240166D01*
X24491904Y-13233094D01*
X24499999Y-13224999D01*
X25000000Y-13224999D01*
X25048308Y-13224999D01*
X25048322Y-13224998D01*
X25147607Y-13214855D01*
X25308481Y-13161547D01*
X25308492Y-13161542D01*
X25452728Y-13072575D01*
X25452732Y-13072572D01*
X25572572Y-12952732D01*
X25572575Y-12952728D01*
X25661542Y-12808492D01*
X25661547Y-12808481D01*
X25714855Y-12647606D01*
X25724999Y-12548322D01*
X25725000Y-12548309D01*
X25725000Y-12525000D01*
X25000000Y-12525000D01*
X25000000Y-13224999D01*
X24499999Y-13224999D01*
X24500000Y-13224998D01*
X24500000Y-12525000D01*
X22874000Y-12525000D01*
X22806961Y-12505315D01*
X22761206Y-12452511D01*
X22750000Y-12401000D01*
X22750000Y-12149000D01*
X22769685Y-12081961D01*
X22822489Y-12036206D01*
X22874000Y-12025000D01*
X25748856Y-12025000D01*
X25757612Y-12020218D01*
X25827304Y-12025197D01*
X25871659Y-12053701D01*
X26158181Y-12340223D01*
X26191666Y-12401546D01*
X26194500Y-12427904D01*
X26194500Y-15704002D01*
X26174815Y-15771041D01*
X26122011Y-15816796D01*
X26052853Y-15826740D01*
X26033610Y-15822388D01*
X25902101Y-15781408D01*
X25831572Y-15775000D01*
X25750000Y-15775000D01*
X25750000Y-16801000D01*
X25730315Y-16868039D01*
X25677511Y-16913794D01*
X25626000Y-16925000D01*
X24586882Y-16925000D01*
X24519843Y-16905315D01*
X24497443Y-16880300D01*
X24472098Y-16861080D01*
X24331443Y-16805613D01*
X24243054Y-16795000D01*
X23750000Y-16795000D01*
X23750000Y-17721000D01*
X23730315Y-17788039D01*
X23677511Y-17833794D01*
X23626000Y-17845000D01*
X22250000Y-17845000D01*
X22250000Y-17888053D01*
X22260613Y-17976443D01*
X22316079Y-18117095D01*
X22390759Y-18215574D01*
X22415582Y-18280886D01*
X22401154Y-18349250D01*
X22352057Y-18398961D01*
X22291955Y-18414500D01*
X21852965Y-18414500D01*
X21785926Y-18394815D01*
X21765284Y-18378181D01*
X21286319Y-17899216D01*
X21252834Y-17837893D01*
X21250000Y-17811535D01*
X21250000Y-17301946D01*
X22250000Y-17301946D01*
X22250000Y-17345000D01*
X23250000Y-17345000D01*
X23250000Y-16795000D01*
X22756946Y-16795000D01*
X22668556Y-16805613D01*
X22527904Y-16861079D01*
X22407435Y-16952435D01*
X22316079Y-17072904D01*
X22260613Y-17213556D01*
X22250000Y-17301946D01*
X21250000Y-17301946D01*
X21250000Y-16524499D01*
X21269685Y-16457460D01*
X21322489Y-16411705D01*
X21374000Y-16400499D01*
X21631517Y-16400499D01*
X21631518Y-16400499D01*
X21725304Y-16385646D01*
X21838342Y-16328050D01*
X21928050Y-16238342D01*
X21938311Y-16218204D01*
X21986286Y-16167409D01*
X22048795Y-16150500D01*
X23100165Y-16150500D01*
X23167204Y-16170185D01*
X23174476Y-16175233D01*
X23231878Y-16218204D01*
X23232668Y-16218795D01*
X23232671Y-16218797D01*
X23245774Y-16223684D01*
X23367517Y-16269091D01*
X23427127Y-16275500D01*
X24072872Y-16275499D01*
X24132483Y-16269091D01*
X24132488Y-16269089D01*
X24162708Y-16257818D01*
X24206041Y-16250000D01*
X24404526Y-16250000D01*
X24471565Y-16269685D01*
X24517320Y-16322489D01*
X24528017Y-16385220D01*
X24525000Y-16418426D01*
X24525000Y-16425000D01*
X25250000Y-16425000D01*
X25250000Y-15775000D01*
X25249999Y-15774999D01*
X25168417Y-15775000D01*
X25094782Y-15781691D01*
X25026236Y-15768153D01*
X24995881Y-15745881D01*
X24539101Y-15289101D01*
X24510600Y-15244752D01*
X24508741Y-15239769D01*
X24479609Y-15161659D01*
X24468798Y-15132673D01*
X24468793Y-15132664D01*
X24382547Y-15017455D01*
X24382544Y-15017452D01*
X24267335Y-14931206D01*
X24267328Y-14931202D01*
X24132486Y-14880910D01*
X24132485Y-14880909D01*
X24132483Y-14880909D01*
X24072873Y-14874500D01*
X24072863Y-14874500D01*
X23427129Y-14874500D01*
X23427123Y-14874501D01*
X23367516Y-14880908D01*
X23232671Y-14931202D01*
X23232664Y-14931206D01*
X23117455Y-15017452D01*
X23117452Y-15017455D01*
X23031206Y-15132664D01*
X23031203Y-15132669D01*
X23017715Y-15168834D01*
X22975843Y-15224767D01*
X22910379Y-15249184D01*
X22901533Y-15249500D01*
X22048795Y-15249500D01*
X21981756Y-15229815D01*
X21938311Y-15181796D01*
X21931706Y-15168834D01*
X21928050Y-15161658D01*
X21928047Y-15161655D01*
X21928045Y-15161652D01*
X21838347Y-15071954D01*
X21838344Y-15071952D01*
X21838342Y-15071950D01*
X21758370Y-15031202D01*
X21725301Y-15014352D01*
X21631524Y-14999500D01*
X21631519Y-14999500D01*
X21237965Y-14999500D01*
X21170926Y-14979815D01*
X21150284Y-14963181D01*
X21031232Y-14844129D01*
X20997747Y-14782806D01*
X21000000Y-14751301D01*
X21000000Y-12900000D01*
X20951362Y-12900000D01*
X20884323Y-12880315D01*
X20863681Y-12863681D01*
X20330813Y-12330813D01*
X20297328Y-12269490D01*
X20302312Y-12199798D01*
X20303140Y-12197641D01*
X20319385Y-12156447D01*
X20319386Y-12156442D01*
X20329167Y-12075000D01*
X19018000Y-12075000D01*
X19018000Y-12151000D01*
X18998315Y-12218039D01*
X18945511Y-12263794D01*
X18894000Y-12275000D01*
X17874000Y-12275000D01*
X17806961Y-12255315D01*
X17761206Y-12202511D01*
X17750000Y-12151000D01*
X17750000Y-11899000D01*
X17769685Y-11831961D01*
X17822489Y-11786206D01*
X17874000Y-11775000D01*
X18807000Y-11775000D01*
X18820681Y-11761319D01*
X18882004Y-11727834D01*
X18908362Y-11725000D01*
X19355358Y-11725000D01*
X19364326Y-11725325D01*
X19366739Y-11725500D01*
X19366740Y-11725500D01*
X19813261Y-11725500D01*
X19815674Y-11725325D01*
X19824642Y-11725000D01*
X20329167Y-11725000D01*
X20319386Y-11643557D01*
X20319386Y-11643556D01*
X20263920Y-11502904D01*
X20172560Y-11382429D01*
X20166819Y-11376688D01*
X20133334Y-11315365D01*
X20130500Y-11289007D01*
X20130500Y-11091739D01*
X20120573Y-11023607D01*
X20098991Y-10979461D01*
X20087231Y-10910589D01*
X20098991Y-10870539D01*
X20120573Y-10826392D01*
X20130500Y-10758260D01*
X20130500Y-10441739D01*
X20120573Y-10373608D01*
X20120573Y-10373607D01*
X20069198Y-10268517D01*
X20069196Y-10268515D01*
X20069196Y-10268514D01*
X19986485Y-10185803D01*
X19881391Y-10134426D01*
X19813261Y-10124500D01*
X19813260Y-10124500D01*
X19644144Y-10124500D01*
X19626497Y-10123238D01*
X19600500Y-10119500D01*
X19600498Y-10119500D01*
X19596081Y-10119184D01*
X19596199Y-10117531D01*
X19535865Y-10099815D01*
X19515223Y-10083181D01*
X19252353Y-9820311D01*
X19252349Y-9820307D01*
X19252340Y-9820298D01*
X19228008Y-9798442D01*
X19207366Y-9781808D01*
X19207363Y-9781806D01*
X19207325Y-9781775D01*
X19201827Y-9777448D01*
X19201825Y-9777447D01*
X19101747Y-9726560D01*
X19034716Y-9706877D01*
X19034710Y-9706876D01*
X18948638Y-9694500D01*
X12801362Y-9694500D01*
X12801361Y-9694500D01*
X12768718Y-9696250D01*
X12768709Y-9696250D01*
X12768703Y-9696251D01*
X12768698Y-9696251D01*
X12768665Y-9696254D01*
X12742374Y-9699081D01*
X12735339Y-9699920D01*
X12735337Y-9699920D01*
X12628598Y-9734700D01*
X12628588Y-9734704D01*
X12567266Y-9768189D01*
X12497670Y-9820289D01*
X12497649Y-9820307D01*
X10159777Y-12158181D01*
X10098454Y-12191666D01*
X10072096Y-12194500D01*
X8624000Y-12194500D01*
X8584088Y-12198790D01*
X8570852Y-12199500D01*
X8366739Y-12199500D01*
X8298608Y-12209426D01*
X8193514Y-12260803D01*
X8110803Y-12343514D01*
X8059426Y-12448608D01*
X8049500Y-12516739D01*
X8049500Y-13483260D01*
X8059426Y-13551391D01*
X8073510Y-13580201D01*
X8110802Y-13656483D01*
X8193517Y-13739198D01*
X8193521Y-13739200D01*
X8198048Y-13742432D01*
X8241173Y-13797405D01*
X8250000Y-13843353D01*
X8250000Y-13933536D01*
X8230315Y-14000575D01*
X8177511Y-14046330D01*
X8171492Y-14048890D01*
X8127905Y-14066078D01*
X8007435Y-14157435D01*
X7916079Y-14277904D01*
X7860613Y-14418556D01*
X7850000Y-14506946D01*
X500500Y-14506946D01*
X500500Y-11498670D01*
X2850000Y-11498670D01*
X2865185Y-11614019D01*
X2865187Y-11614024D01*
X2924633Y-11757541D01*
X2924633Y-11757542D01*
X3019207Y-11880792D01*
X3142458Y-11975366D01*
X3285975Y-12034812D01*
X3285980Y-12034814D01*
X3401329Y-12050000D01*
X5000000Y-12050000D01*
X5500000Y-12050000D01*
X7098671Y-12050000D01*
X7214019Y-12034814D01*
X7214024Y-12034812D01*
X7357541Y-11975366D01*
X7357542Y-11975366D01*
X7480792Y-11880792D01*
X7575366Y-11757542D01*
X7575366Y-11757541D01*
X7634812Y-11614024D01*
X7634814Y-11614019D01*
X7650000Y-11498670D01*
X7650000Y-10900000D01*
X5500000Y-10900000D01*
X5500000Y-12050000D01*
X5000000Y-12050000D01*
X5000000Y-10900000D01*
X2850000Y-10900000D01*
X2850000Y-11498670D01*
X500500Y-11498670D01*
X500500Y-9801329D01*
X2850000Y-9801329D01*
X2850000Y-10400000D01*
X5000000Y-10400000D01*
X5500000Y-10400000D01*
X7650000Y-10400000D01*
X7650000Y-9801329D01*
X7634814Y-9685980D01*
X7634812Y-9685975D01*
X7575366Y-9542458D01*
X7575366Y-9542457D01*
X7480792Y-9419207D01*
X7357541Y-9324633D01*
X7214024Y-9265187D01*
X7214019Y-9265185D01*
X7098671Y-9250000D01*
X5500000Y-9250000D01*
X5500000Y-10400000D01*
X5000000Y-10400000D01*
X5000000Y-9250000D01*
X3401329Y-9250000D01*
X3285980Y-9265185D01*
X3285975Y-9265187D01*
X3142458Y-9324633D01*
X3142457Y-9324633D01*
X3019207Y-9419207D01*
X2924633Y-9542457D01*
X2924633Y-9542458D01*
X2865187Y-9685975D01*
X2865185Y-9685980D01*
X2850000Y-9801329D01*
X500500Y-9801329D01*
X500500Y-8874000D01*
X520185Y-8806961D01*
X572989Y-8761206D01*
X624500Y-8750000D01*
X9750000Y-8750000D01*
X11659353Y-6840646D01*
X11720672Y-6807164D01*
X11790363Y-6812148D01*
X11812129Y-6822793D01*
X11830871Y-6834354D01*
X11830880Y-6834358D01*
X11997302Y-6889505D01*
X11997309Y-6889506D01*
X12100019Y-6899999D01*
X12224999Y-6899999D01*
X12725000Y-6899999D01*
X12849972Y-6899999D01*
X12849986Y-6899998D01*
X12952697Y-6889505D01*
X13119119Y-6834358D01*
X13119124Y-6834356D01*
X13268345Y-6742315D01*
X13392315Y-6618345D01*
X13484356Y-6469124D01*
X13484358Y-6469119D01*
X13539505Y-6302697D01*
X13539506Y-6302690D01*
X13549999Y-6199986D01*
X13550000Y-6199973D01*
X13550000Y-5750000D01*
X12725000Y-5750000D01*
X12725000Y-6899999D01*
X12224999Y-6899999D01*
X12225000Y-6899998D01*
X12225000Y-5374000D01*
X12244685Y-5306961D01*
X12297489Y-5261206D01*
X12349000Y-5250000D01*
X13549999Y-5250000D01*
X13549999Y-4800028D01*
X13549998Y-4800013D01*
X13539505Y-4697302D01*
X13506294Y-4597076D01*
X13500000Y-4558072D01*
X13500000Y-3999997D01*
X14744723Y-3999997D01*
X14744723Y-4000002D01*
X14763793Y-4217975D01*
X14763793Y-4217979D01*
X14820422Y-4429322D01*
X14820424Y-4429326D01*
X14820425Y-4429330D01*
X14865905Y-4526862D01*
X14912897Y-4627638D01*
X14912898Y-4627639D01*
X15038402Y-4806877D01*
X15193123Y-4961598D01*
X15372361Y-5087102D01*
X15570670Y-5179575D01*
X15782023Y-5236207D01*
X15964926Y-5252208D01*
X15999998Y-5255277D01*
X16000000Y-5255277D01*
X16000002Y-5255277D01*
X16028254Y-5252805D01*
X16217977Y-5236207D01*
X16429330Y-5179575D01*
X16627639Y-5087102D01*
X16806877Y-4961598D01*
X16961598Y-4806877D01*
X17087102Y-4627639D01*
X17179575Y-4429330D01*
X17236207Y-4217977D01*
X17255277Y-4000000D01*
X17248155Y-3918592D01*
X18173500Y-3918592D01*
X18173500Y-4081407D01*
X18205259Y-4241073D01*
X18205262Y-4241082D01*
X18267562Y-4391490D01*
X18267563Y-4391492D01*
X18358015Y-4526862D01*
X18358018Y-4526866D01*
X18473133Y-4641981D01*
X18473137Y-4641984D01*
X18608505Y-4732435D01*
X18608506Y-4732435D01*
X18608507Y-4732436D01*
X18608509Y-4732437D01*
X18650911Y-4750000D01*
X18758919Y-4794738D01*
X18758921Y-4794738D01*
X18758926Y-4794740D01*
X18918592Y-4826499D01*
X18918595Y-4826500D01*
X18918597Y-4826500D01*
X19081405Y-4826500D01*
X19081406Y-4826499D01*
X19134629Y-4815912D01*
X19241073Y-4794740D01*
X19241076Y-4794738D01*
X19241081Y-4794738D01*
X19391495Y-4732435D01*
X19526863Y-4641984D01*
X19641984Y-4526863D01*
X19732435Y-4391495D01*
X19794738Y-4241081D01*
X19799334Y-4217979D01*
X19826499Y-4081407D01*
X19826500Y-4081405D01*
X19826500Y-3918594D01*
X19826499Y-3918592D01*
X19794740Y-3758926D01*
X19794737Y-3758917D01*
X19732437Y-3608509D01*
X19732436Y-3608507D01*
X19641984Y-3473137D01*
X19641981Y-3473133D01*
X19526866Y-3358018D01*
X19526862Y-3358015D01*
X19391492Y-3267563D01*
X19391490Y-3267562D01*
X19241082Y-3205262D01*
X19241073Y-3205259D01*
X19081406Y-3173500D01*
X19081403Y-3173500D01*
X18918597Y-3173500D01*
X18918594Y-3173500D01*
X18758926Y-3205259D01*
X18758917Y-3205262D01*
X18608509Y-3267562D01*
X18608507Y-3267563D01*
X18473137Y-3358015D01*
X18473133Y-3358018D01*
X18358018Y-3473133D01*
X18358015Y-3473137D01*
X18267563Y-3608507D01*
X18267562Y-3608509D01*
X18205262Y-3758917D01*
X18205259Y-3758926D01*
X18173500Y-3918592D01*
X17248155Y-3918592D01*
X17236207Y-3782023D01*
X17196436Y-3633596D01*
X17179577Y-3570677D01*
X17179576Y-3570676D01*
X17179575Y-3570670D01*
X17087102Y-3372362D01*
X17087100Y-3372359D01*
X17087099Y-3372357D01*
X16961599Y-3193124D01*
X16941975Y-3173500D01*
X16806877Y-3038402D01*
X16627639Y-2912898D01*
X16627640Y-2912898D01*
X16627638Y-2912897D01*
X16528484Y-2866661D01*
X16429330Y-2820425D01*
X16429326Y-2820424D01*
X16429322Y-2820422D01*
X16217977Y-2763793D01*
X16000002Y-2744723D01*
X15999998Y-2744723D01*
X15854682Y-2757436D01*
X15782023Y-2763793D01*
X15782020Y-2763793D01*
X15570677Y-2820422D01*
X15570668Y-2820426D01*
X15372361Y-2912898D01*
X15372357Y-2912900D01*
X15193121Y-3038402D01*
X15038402Y-3193121D01*
X14912900Y-3372357D01*
X14912898Y-3372361D01*
X14820426Y-3570668D01*
X14820422Y-3570677D01*
X14763793Y-3782020D01*
X14763793Y-3782024D01*
X14744723Y-3999997D01*
X13500000Y-3999997D01*
X13500000Y-3341481D01*
X13506294Y-3302477D01*
X13514505Y-3277697D01*
X13514506Y-3277690D01*
X13524999Y-3174986D01*
X13525000Y-3174973D01*
X13525000Y-2750000D01*
X12336500Y-2750000D01*
X12269461Y-2730315D01*
X12223706Y-2677511D01*
X12212500Y-2626000D01*
X12212500Y-2250000D01*
X12712500Y-2250000D01*
X13524999Y-2250000D01*
X13524999Y-1825028D01*
X13524998Y-1825013D01*
X13514505Y-1722302D01*
X13459358Y-1555880D01*
X13459356Y-1555875D01*
X13367315Y-1406654D01*
X13243345Y-1282684D01*
X13094124Y-1190643D01*
X13094119Y-1190641D01*
X12927697Y-1135494D01*
X12927690Y-1135493D01*
X12824986Y-1125000D01*
X12712500Y-1125000D01*
X12712500Y-2250000D01*
X12212500Y-2250000D01*
X12212500Y-1125000D01*
X12100027Y-1125000D01*
X12100012Y-1125001D01*
X11997302Y-1135494D01*
X11913004Y-1163428D01*
X11843176Y-1165830D01*
X11783134Y-1130098D01*
X11751941Y-1067578D01*
X11750000Y-1045722D01*
X11750000Y-624500D01*
X11769685Y-557461D01*
X11822489Y-511706D01*
X11874000Y-500500D01*
X24679570Y-500500D01*
X24746609Y-520185D01*
G37*
%TD.AperFunction*%
%TD*%
%TA.AperFunction,Conductor*%
%TO.N,GND2*%
G36*
X19628574Y-42519685D02*
G01*
X19649216Y-42536319D01*
X20763181Y-43650284D01*
X20796666Y-43711607D01*
X20799500Y-43737965D01*
X20799500Y-46771809D01*
X20807283Y-46800856D01*
X20821154Y-46852624D01*
X20821161Y-46852647D01*
X20821164Y-46852658D01*
X20830201Y-46886387D01*
X20889511Y-46989114D01*
X20889513Y-46989116D01*
X20948292Y-47047895D01*
X20981777Y-47109218D01*
X20976793Y-47178910D01*
X20936099Y-47233950D01*
X20821718Y-47321718D01*
X20725463Y-47447160D01*
X20664956Y-47593237D01*
X20664955Y-47593239D01*
X20644318Y-47749998D01*
X20644318Y-47750001D01*
X20664955Y-47906760D01*
X20664956Y-47906762D01*
X20719034Y-48037319D01*
X20725464Y-48052841D01*
X20821718Y-48178282D01*
X20947159Y-48274536D01*
X21093238Y-48335044D01*
X21157597Y-48343517D01*
X21249999Y-48355682D01*
X21250000Y-48355682D01*
X21290058Y-48350408D01*
X21359092Y-48361173D01*
X21411348Y-48407553D01*
X21429359Y-48458563D01*
X21435122Y-48506562D01*
X21490639Y-48647343D01*
X21582077Y-48767922D01*
X21702656Y-48859360D01*
X21702657Y-48859360D01*
X21702658Y-48859361D01*
X21843436Y-48914877D01*
X21931898Y-48925500D01*
X21931903Y-48925500D01*
X22643097Y-48925500D01*
X22643102Y-48925500D01*
X22731564Y-48914877D01*
X22872342Y-48859361D01*
X22992922Y-48767922D01*
X23084361Y-48647342D01*
X23139877Y-48506564D01*
X23150500Y-48418102D01*
X23150500Y-47081898D01*
X23139877Y-46993436D01*
X23084361Y-46852658D01*
X23084360Y-46852657D01*
X23084360Y-46852656D01*
X22992922Y-46732077D01*
X22872343Y-46640639D01*
X22764436Y-46598086D01*
X22731564Y-46585123D01*
X22731563Y-46585122D01*
X22731561Y-46585122D01*
X22685926Y-46579642D01*
X22643102Y-46574500D01*
X21931898Y-46574500D01*
X21889623Y-46579576D01*
X21839283Y-46585621D01*
X21770375Y-46574069D01*
X21718651Y-46527096D01*
X21700500Y-46462505D01*
X21700500Y-43439500D01*
X21720185Y-43372461D01*
X21772989Y-43326706D01*
X21824500Y-43315500D01*
X22453457Y-43315500D01*
X22520496Y-43335185D01*
X22541133Y-43351814D01*
X22593517Y-43404198D01*
X22600783Y-43411464D01*
X22598140Y-43414106D01*
X22629482Y-43454081D01*
X22636023Y-43523644D01*
X22603917Y-43585700D01*
X22600717Y-43588471D01*
X22600782Y-43588536D01*
X22510803Y-43678514D01*
X22459426Y-43783608D01*
X22449500Y-43851739D01*
X22449500Y-44418260D01*
X22459426Y-44486391D01*
X22510803Y-44591485D01*
X22600782Y-44681464D01*
X22598139Y-44684106D01*
X22629482Y-44724081D01*
X22636023Y-44793644D01*
X22603917Y-44855700D01*
X22600717Y-44858471D01*
X22600782Y-44858536D01*
X22510803Y-44948514D01*
X22459426Y-45053608D01*
X22449500Y-45121739D01*
X22449500Y-45688260D01*
X22459426Y-45756391D01*
X22510803Y-45861485D01*
X22593514Y-45944196D01*
X22593515Y-45944196D01*
X22593517Y-45944198D01*
X22698607Y-45995573D01*
X22728991Y-46000000D01*
X22766739Y-46005500D01*
X22766740Y-46005500D01*
X23704138Y-46005500D01*
X23771177Y-46025185D01*
X23791819Y-46041819D01*
X24419841Y-46669841D01*
X24453326Y-46731164D01*
X24448342Y-46800856D01*
X24430966Y-46832444D01*
X24415640Y-46852655D01*
X24360122Y-46993438D01*
X24354188Y-47042853D01*
X24349500Y-47081898D01*
X24349500Y-48418102D01*
X24354359Y-48458563D01*
X24360122Y-48506561D01*
X24415639Y-48647343D01*
X24507077Y-48767922D01*
X24627656Y-48859360D01*
X24627657Y-48859360D01*
X24627658Y-48859361D01*
X24768436Y-48914877D01*
X24856898Y-48925500D01*
X25376000Y-48925500D01*
X25443039Y-48945185D01*
X25488794Y-48997989D01*
X25500000Y-49049500D01*
X25500000Y-49570500D01*
X25480315Y-49637539D01*
X25427511Y-49683294D01*
X25376000Y-49694500D01*
X20288195Y-49694500D01*
X20221156Y-49674815D01*
X20175401Y-49622011D01*
X20165457Y-49552853D01*
X20170489Y-49531496D01*
X20214855Y-49397606D01*
X20224999Y-49298322D01*
X20225000Y-49298309D01*
X20225000Y-49250000D01*
X19149000Y-49250000D01*
X19081961Y-49230315D01*
X19036206Y-49177511D01*
X19025000Y-49126000D01*
X19025000Y-48750000D01*
X19525000Y-48750000D01*
X20224999Y-48750000D01*
X20224999Y-48701692D01*
X20224998Y-48701677D01*
X20214855Y-48602392D01*
X20161547Y-48441518D01*
X20161542Y-48441507D01*
X20072575Y-48297271D01*
X20072572Y-48297267D01*
X19987986Y-48212681D01*
X19954501Y-48151358D01*
X19959485Y-48081666D01*
X19987986Y-48037319D01*
X20072572Y-47952732D01*
X20072575Y-47952728D01*
X20161542Y-47808492D01*
X20161547Y-47808481D01*
X20214855Y-47647606D01*
X20224999Y-47548322D01*
X20225000Y-47548309D01*
X20225000Y-47500000D01*
X19525000Y-47500000D01*
X19525000Y-48750000D01*
X19025000Y-48750000D01*
X19025000Y-47000000D01*
X19525000Y-47000000D01*
X20224999Y-47000000D01*
X20224999Y-46951692D01*
X20224998Y-46951677D01*
X20214855Y-46852392D01*
X20161547Y-46691518D01*
X20161542Y-46691507D01*
X20072575Y-46547271D01*
X20072572Y-46547267D01*
X19952732Y-46427427D01*
X19952728Y-46427424D01*
X19808492Y-46338457D01*
X19808481Y-46338452D01*
X19647606Y-46285144D01*
X19548322Y-46275000D01*
X19525000Y-46275000D01*
X19525000Y-47000000D01*
X19025000Y-47000000D01*
X19025000Y-46271496D01*
X18995729Y-46217892D01*
X19000713Y-46148200D01*
X19006357Y-46135341D01*
X19023439Y-46101749D01*
X19043124Y-46034710D01*
X19055500Y-45948638D01*
X19055500Y-45551362D01*
X19053749Y-45518703D01*
X19051211Y-45495095D01*
X19050500Y-45481838D01*
X19050500Y-45121739D01*
X19040573Y-45053608D01*
X19040573Y-45053607D01*
X18989198Y-44948517D01*
X18989196Y-44948515D01*
X18989196Y-44948514D01*
X18899218Y-44858536D01*
X18901864Y-44855889D01*
X18870535Y-44815965D01*
X18863967Y-44746404D01*
X18896048Y-44684335D01*
X18899284Y-44681530D01*
X18899218Y-44681464D01*
X18989196Y-44591485D01*
X18989198Y-44591483D01*
X19040573Y-44486393D01*
X19050500Y-44418260D01*
X19050500Y-43851740D01*
X19040573Y-43783607D01*
X18989198Y-43678517D01*
X18989196Y-43678515D01*
X18989196Y-43678514D01*
X18899218Y-43588536D01*
X18901864Y-43585889D01*
X18870535Y-43545965D01*
X18863967Y-43476404D01*
X18896048Y-43414335D01*
X18899284Y-43411530D01*
X18899218Y-43411464D01*
X18989196Y-43321485D01*
X18989198Y-43321483D01*
X19040573Y-43216393D01*
X19050500Y-43148260D01*
X19050500Y-42624000D01*
X19070185Y-42556961D01*
X19122989Y-42511206D01*
X19174500Y-42500000D01*
X19561535Y-42500000D01*
X19628574Y-42519685D01*
G37*
%TD.AperFunction*%
%TA.AperFunction,Conductor*%
G36*
X14087289Y-36757816D02*
G01*
X14115322Y-36768272D01*
X14159670Y-36796773D01*
X14463681Y-37100784D01*
X14497166Y-37162107D01*
X14500000Y-37188465D01*
X14500000Y-38851000D01*
X14480315Y-38918039D01*
X14427511Y-38963794D01*
X14376000Y-38975000D01*
X13333362Y-38975000D01*
X13266323Y-38955315D01*
X13245681Y-38938681D01*
X13232000Y-38925000D01*
X12374000Y-38925000D01*
X12306961Y-38905315D01*
X12261206Y-38852511D01*
X12250000Y-38801000D01*
X12250000Y-37775000D01*
X12750000Y-37775000D01*
X12750000Y-38425000D01*
X13416638Y-38425000D01*
X13483677Y-38444685D01*
X13504319Y-38461319D01*
X13518000Y-38475000D01*
X14000000Y-38475000D01*
X14000000Y-37775000D01*
X13999999Y-37774999D01*
X13951693Y-37775000D01*
X13951675Y-37775001D01*
X13852392Y-37785144D01*
X13691518Y-37838452D01*
X13691507Y-37838457D01*
X13547271Y-37927424D01*
X13547267Y-37927427D01*
X13470001Y-38004692D01*
X13408678Y-38038177D01*
X13338986Y-38033191D01*
X13294639Y-38004691D01*
X13209875Y-37919926D01*
X13064395Y-37831980D01*
X13064396Y-37831980D01*
X12902105Y-37781409D01*
X12902106Y-37781409D01*
X12831572Y-37775000D01*
X12750000Y-37775000D01*
X12250000Y-37775000D01*
X12250000Y-36983403D01*
X12269685Y-36916364D01*
X12286314Y-36895727D01*
X12395724Y-36786317D01*
X12457046Y-36752834D01*
X12483404Y-36750000D01*
X14043959Y-36750000D01*
X14087289Y-36757816D01*
G37*
%TD.AperFunction*%
%TA.AperFunction,Conductor*%
G36*
X26507174Y-32769685D02*
G01*
X26552929Y-32822489D01*
X26562873Y-32891647D01*
X26558521Y-32910889D01*
X26531409Y-32997896D01*
X26525000Y-33068427D01*
X26525000Y-33075000D01*
X28474999Y-33075000D01*
X28474999Y-33068417D01*
X28468591Y-32997897D01*
X28468590Y-32997892D01*
X28441480Y-32910891D01*
X28440328Y-32841030D01*
X28477129Y-32781638D01*
X28540198Y-32751570D01*
X28559865Y-32750000D01*
X29375500Y-32750000D01*
X29442539Y-32769685D01*
X29488294Y-32822489D01*
X29499500Y-32874000D01*
X29499500Y-56126000D01*
X29479815Y-56193039D01*
X29427011Y-56238794D01*
X29375500Y-56250000D01*
X28559865Y-56250000D01*
X28492826Y-56230315D01*
X28447071Y-56177511D01*
X28437127Y-56108353D01*
X28441479Y-56089111D01*
X28468590Y-56002103D01*
X28475000Y-55931572D01*
X28475000Y-55925000D01*
X26525001Y-55925000D01*
X26525001Y-55931582D01*
X26531408Y-56002102D01*
X26531409Y-56002107D01*
X26558520Y-56089109D01*
X26559672Y-56158970D01*
X26522871Y-56218362D01*
X26459802Y-56248430D01*
X26440135Y-56250000D01*
X24465674Y-56250000D01*
X24398635Y-56230315D01*
X24352880Y-56177511D01*
X24342936Y-56108353D01*
X24350320Y-56080510D01*
X24389385Y-55981446D01*
X24400000Y-55893053D01*
X24400000Y-55750000D01*
X22600000Y-55750000D01*
X22600000Y-55893053D01*
X22610614Y-55981446D01*
X22649680Y-56080510D01*
X22655962Y-56150097D01*
X22623625Y-56212033D01*
X22562936Y-56246654D01*
X22534326Y-56250000D01*
X7774000Y-56250000D01*
X7706961Y-56230315D01*
X7661206Y-56177511D01*
X7650000Y-56126000D01*
X7650000Y-55600000D01*
X2850000Y-55600000D01*
X2850000Y-56126000D01*
X2830315Y-56193039D01*
X2777511Y-56238794D01*
X2726000Y-56250000D01*
X624500Y-56250000D01*
X557461Y-56230315D01*
X511706Y-56177511D01*
X500500Y-56126000D01*
X500500Y-54501329D01*
X2850000Y-54501329D01*
X2850000Y-55100000D01*
X5000000Y-55100000D01*
X5500000Y-55100000D01*
X7650000Y-55100000D01*
X7650000Y-54831582D01*
X15025001Y-54831582D01*
X15031408Y-54902102D01*
X15031409Y-54902107D01*
X15081981Y-55064396D01*
X15169927Y-55209877D01*
X15290122Y-55330072D01*
X15435604Y-55418019D01*
X15435603Y-55418019D01*
X15597894Y-55468590D01*
X15597893Y-55468590D01*
X15668408Y-55474998D01*
X15668426Y-55474999D01*
X15674999Y-55474998D01*
X15675000Y-55474998D01*
X15675000Y-54750000D01*
X15025001Y-54750000D01*
X15025001Y-54831582D01*
X7650000Y-54831582D01*
X7650000Y-54501329D01*
X7634814Y-54385980D01*
X7634812Y-54385975D01*
X7575366Y-54242458D01*
X7575366Y-54242457D01*
X7518560Y-54168427D01*
X15025000Y-54168427D01*
X15025000Y-54250000D01*
X15675000Y-54250000D01*
X15675000Y-53525000D01*
X15674999Y-53524999D01*
X15668436Y-53525000D01*
X15668417Y-53525001D01*
X15597897Y-53531408D01*
X15597892Y-53531409D01*
X15435603Y-53581981D01*
X15290122Y-53669927D01*
X15169927Y-53790122D01*
X15081980Y-53935604D01*
X15031409Y-54097893D01*
X15025000Y-54168427D01*
X7518560Y-54168427D01*
X7480792Y-54119207D01*
X7357541Y-54024633D01*
X7214024Y-53965187D01*
X7214019Y-53965185D01*
X7098671Y-53950000D01*
X5500000Y-53950000D01*
X5500000Y-55100000D01*
X5000000Y-55100000D01*
X5000000Y-53950000D01*
X3401329Y-53950000D01*
X3285980Y-53965185D01*
X3285975Y-53965187D01*
X3142458Y-54024633D01*
X3142457Y-54024633D01*
X3019207Y-54119207D01*
X2924633Y-54242457D01*
X2924633Y-54242458D01*
X2865187Y-54385975D01*
X2865185Y-54385980D01*
X2850000Y-54501329D01*
X500500Y-54501329D01*
X500500Y-51493053D01*
X7850000Y-51493053D01*
X7860613Y-51581443D01*
X7916079Y-51722095D01*
X8007435Y-51842564D01*
X8127906Y-51933921D01*
X8171488Y-51951107D01*
X8226633Y-51994011D01*
X8249827Y-52059919D01*
X8250000Y-52066462D01*
X8250000Y-52156645D01*
X8230315Y-52223684D01*
X8198055Y-52257561D01*
X8193516Y-52260801D01*
X8110803Y-52343514D01*
X8059426Y-52448608D01*
X8049500Y-52516739D01*
X8049500Y-53483260D01*
X8059426Y-53551391D01*
X8110803Y-53656485D01*
X8193514Y-53739196D01*
X8193515Y-53739196D01*
X8193517Y-53739198D01*
X8298607Y-53790573D01*
X8332673Y-53795536D01*
X8366739Y-53800500D01*
X8366740Y-53800500D01*
X11033255Y-53800500D01*
X11033260Y-53800500D01*
X11101393Y-53790573D01*
X11159631Y-53762101D01*
X11166583Y-53758964D01*
X11190973Y-53748852D01*
X11197252Y-53744756D01*
X11204295Y-53740759D01*
X11206479Y-53739199D01*
X11206483Y-53739198D01*
X11206485Y-53739195D01*
X11211801Y-53735401D01*
X11216123Y-53732450D01*
X11332615Y-53656483D01*
X11498035Y-53548608D01*
X11617604Y-53470634D01*
X11684511Y-53450503D01*
X11685338Y-53450500D01*
X11808581Y-53450500D01*
X11875620Y-53470185D01*
X11884067Y-53476124D01*
X11947157Y-53524535D01*
X11947158Y-53524535D01*
X11947159Y-53524536D01*
X12093238Y-53585044D01*
X12171619Y-53595363D01*
X12249999Y-53605682D01*
X12250000Y-53605682D01*
X12250001Y-53605682D01*
X12302254Y-53598802D01*
X12406762Y-53585044D01*
X12552841Y-53524536D01*
X12678282Y-53428282D01*
X12774536Y-53302841D01*
X12835044Y-53156762D01*
X12855682Y-53000000D01*
X12854855Y-52993722D01*
X12835044Y-52843239D01*
X12835044Y-52843238D01*
X12774536Y-52697159D01*
X12678282Y-52571718D01*
X12552841Y-52475464D01*
X12509050Y-52457325D01*
X12443536Y-52430188D01*
X12403308Y-52403308D01*
X11586213Y-51586213D01*
X11552728Y-51524890D01*
X11550555Y-51496766D01*
X11550000Y-51496766D01*
X11550000Y-51250000D01*
X7850000Y-51250000D01*
X7850000Y-51493053D01*
X500500Y-51493053D01*
X500500Y-50506946D01*
X7850000Y-50506946D01*
X7850000Y-50750000D01*
X11500000Y-50750000D01*
X12105131Y-50750000D01*
X12172170Y-50769685D01*
X12217925Y-50822489D01*
X12223030Y-50835584D01*
X12234700Y-50871401D01*
X12234704Y-50871411D01*
X12268189Y-50932733D01*
X12320289Y-51002329D01*
X12320307Y-51002350D01*
X13160522Y-51842564D01*
X13997660Y-52679702D01*
X14017095Y-52697159D01*
X14021993Y-52701559D01*
X14042674Y-52718224D01*
X14048172Y-52722551D01*
X14048175Y-52722553D01*
X14148251Y-52773439D01*
X14215290Y-52793124D01*
X14301362Y-52805500D01*
X14301365Y-52805500D01*
X15948639Y-52805500D01*
X15950559Y-52805397D01*
X15981297Y-52803749D01*
X16007655Y-52800915D01*
X16014660Y-52800080D01*
X16109205Y-52769272D01*
X16121401Y-52765299D01*
X16121401Y-52765298D01*
X16121407Y-52765297D01*
X16182730Y-52731812D01*
X16195099Y-52722553D01*
X16252329Y-52679710D01*
X16252340Y-52679702D01*
X16429702Y-52502340D01*
X16451558Y-52478008D01*
X16468192Y-52457366D01*
X16472553Y-52451825D01*
X16523439Y-52351749D01*
X16543124Y-52284710D01*
X16555500Y-52198638D01*
X16555500Y-51301362D01*
X16553749Y-51268703D01*
X16550915Y-51242345D01*
X16550080Y-51235340D01*
X16515297Y-51128593D01*
X16515295Y-51128588D01*
X16481810Y-51067266D01*
X16429710Y-50997670D01*
X16429705Y-50997665D01*
X16429702Y-50997660D01*
X16429698Y-50997656D01*
X16429692Y-50997649D01*
X15252353Y-49820311D01*
X15252340Y-49820298D01*
X15228008Y-49798442D01*
X15226721Y-49797405D01*
X15207325Y-49781775D01*
X15201827Y-49777448D01*
X15201825Y-49777447D01*
X15101747Y-49726560D01*
X15034717Y-49706877D01*
X15033878Y-49706756D01*
X14984652Y-49699678D01*
X14921099Y-49670653D01*
X14914622Y-49664622D01*
X14341819Y-49091819D01*
X14308334Y-49030496D01*
X14305500Y-49004138D01*
X14305500Y-48801361D01*
X14303922Y-48771936D01*
X14303749Y-48768703D01*
X14300915Y-48742345D01*
X14300080Y-48735340D01*
X14283612Y-48684801D01*
X14265299Y-48628598D01*
X14265295Y-48628588D01*
X14231810Y-48567266D01*
X14179710Y-48497670D01*
X14179705Y-48497665D01*
X14179702Y-48497660D01*
X14179698Y-48497656D01*
X14179692Y-48497649D01*
X14002354Y-48320312D01*
X14002340Y-48320298D01*
X13978008Y-48298442D01*
X13957366Y-48281808D01*
X13957363Y-48281806D01*
X13957325Y-48281775D01*
X13951827Y-48277448D01*
X13951825Y-48277447D01*
X13851747Y-48226560D01*
X13784716Y-48206877D01*
X13784710Y-48206876D01*
X13698638Y-48194500D01*
X8624000Y-48194500D01*
X8584088Y-48198790D01*
X8570852Y-48199500D01*
X8366739Y-48199500D01*
X8298608Y-48209426D01*
X8193514Y-48260803D01*
X8110803Y-48343514D01*
X8059426Y-48448608D01*
X8049500Y-48516739D01*
X8049500Y-49483260D01*
X8059426Y-49551391D01*
X8059427Y-49551393D01*
X8110802Y-49656483D01*
X8193517Y-49739198D01*
X8193521Y-49739200D01*
X8198048Y-49742432D01*
X8241173Y-49797405D01*
X8250000Y-49843353D01*
X8250000Y-49933536D01*
X8230315Y-50000575D01*
X8177511Y-50046330D01*
X8171492Y-50048890D01*
X8127905Y-50066078D01*
X8007435Y-50157435D01*
X7916079Y-50277904D01*
X7860613Y-50418556D01*
X7850000Y-50506946D01*
X500500Y-50506946D01*
X500500Y-47498670D01*
X2850000Y-47498670D01*
X2865185Y-47614019D01*
X2865187Y-47614024D01*
X2924633Y-47757541D01*
X2924633Y-47757542D01*
X3019207Y-47880792D01*
X3142458Y-47975366D01*
X3285975Y-48034812D01*
X3285980Y-48034814D01*
X3401329Y-48050000D01*
X5000000Y-48050000D01*
X5500000Y-48050000D01*
X7098671Y-48050000D01*
X7214019Y-48034814D01*
X7214024Y-48034812D01*
X7357541Y-47975366D01*
X7357542Y-47975366D01*
X7480792Y-47880792D01*
X7575366Y-47757542D01*
X7575366Y-47757541D01*
X7634812Y-47614024D01*
X7634814Y-47614019D01*
X7650000Y-47498670D01*
X7650000Y-46900000D01*
X5500000Y-46900000D01*
X5500000Y-48050000D01*
X5000000Y-48050000D01*
X5000000Y-46900000D01*
X2850000Y-46900000D01*
X2850000Y-47498670D01*
X500500Y-47498670D01*
X500500Y-45801329D01*
X2850000Y-45801329D01*
X2850000Y-46400000D01*
X5000000Y-46400000D01*
X5500000Y-46400000D01*
X7650000Y-46400000D01*
X7650000Y-45801329D01*
X7634814Y-45685980D01*
X7634812Y-45685975D01*
X7575366Y-45542458D01*
X7575366Y-45542457D01*
X7480792Y-45419207D01*
X7357541Y-45324633D01*
X7214024Y-45265187D01*
X7214019Y-45265185D01*
X7098671Y-45250000D01*
X5500000Y-45250000D01*
X5500000Y-46400000D01*
X5000000Y-46400000D01*
X5000000Y-45250000D01*
X3401329Y-45250000D01*
X3285980Y-45265185D01*
X3285975Y-45265187D01*
X3142458Y-45324633D01*
X3142457Y-45324633D01*
X3019207Y-45419207D01*
X2924633Y-45542457D01*
X2924633Y-45542458D01*
X2865187Y-45685975D01*
X2865185Y-45685980D01*
X2850000Y-45801329D01*
X500500Y-45801329D01*
X500500Y-44198670D01*
X2850000Y-44198670D01*
X2865185Y-44314019D01*
X2865187Y-44314024D01*
X2924633Y-44457541D01*
X2924633Y-44457542D01*
X3019207Y-44580792D01*
X3142458Y-44675366D01*
X3285975Y-44734812D01*
X3285980Y-44734814D01*
X3401329Y-44750000D01*
X5000000Y-44750000D01*
X5500000Y-44750000D01*
X7098671Y-44750000D01*
X7214019Y-44734814D01*
X7214024Y-44734812D01*
X7357541Y-44675366D01*
X7357542Y-44675366D01*
X7480792Y-44580792D01*
X7575366Y-44457542D01*
X7575366Y-44457541D01*
X7634812Y-44314024D01*
X7634814Y-44314019D01*
X7650000Y-44198670D01*
X7650000Y-43600000D01*
X5500000Y-43600000D01*
X5500000Y-44750000D01*
X5000000Y-44750000D01*
X5000000Y-43600000D01*
X2850000Y-43600000D01*
X2850000Y-44198670D01*
X500500Y-44198670D01*
X500500Y-42501329D01*
X2850000Y-42501329D01*
X2850000Y-43100000D01*
X5000000Y-43100000D01*
X5500000Y-43100000D01*
X7650000Y-43100000D01*
X7650000Y-42501329D01*
X7634814Y-42385980D01*
X7634812Y-42385975D01*
X7575366Y-42242458D01*
X7575366Y-42242457D01*
X7480792Y-42119207D01*
X7357541Y-42024633D01*
X7214024Y-41965187D01*
X7214019Y-41965185D01*
X7098671Y-41950000D01*
X5500000Y-41950000D01*
X5500000Y-43100000D01*
X5000000Y-43100000D01*
X5000000Y-41950000D01*
X3401329Y-41950000D01*
X3285980Y-41965185D01*
X3285975Y-41965187D01*
X3142458Y-42024633D01*
X3142457Y-42024633D01*
X3019207Y-42119207D01*
X2924633Y-42242457D01*
X2924633Y-42242458D01*
X2865187Y-42385975D01*
X2865185Y-42385980D01*
X2850000Y-42501329D01*
X500500Y-42501329D01*
X500500Y-38506946D01*
X7850000Y-38506946D01*
X7850000Y-38750000D01*
X9826000Y-38750000D01*
X9893039Y-38769685D01*
X9938794Y-38822489D01*
X9950000Y-38874000D01*
X9950000Y-39126000D01*
X9930315Y-39193039D01*
X9877511Y-39238794D01*
X9826000Y-39250000D01*
X7850000Y-39250000D01*
X7850000Y-39493053D01*
X7860613Y-39581443D01*
X7916079Y-39722095D01*
X8007435Y-39842564D01*
X8127906Y-39933921D01*
X8171488Y-39951107D01*
X8226633Y-39994011D01*
X8249827Y-40059919D01*
X8250000Y-40066462D01*
X8250000Y-40156645D01*
X8230315Y-40223684D01*
X8198055Y-40257561D01*
X8193516Y-40260801D01*
X8110803Y-40343514D01*
X8059426Y-40448608D01*
X8049500Y-40516739D01*
X8049500Y-41483260D01*
X8059426Y-41551391D01*
X8110803Y-41656485D01*
X8193514Y-41739196D01*
X8193515Y-41739196D01*
X8193517Y-41739198D01*
X8298607Y-41790573D01*
X8332673Y-41795536D01*
X8366739Y-41800500D01*
X8366740Y-41800500D01*
X11033255Y-41800500D01*
X11033260Y-41800500D01*
X11101393Y-41790573D01*
X11159631Y-41762101D01*
X11166583Y-41758964D01*
X11190973Y-41748852D01*
X11197252Y-41744756D01*
X11204295Y-41740759D01*
X11206479Y-41739199D01*
X11206483Y-41739198D01*
X11206485Y-41739195D01*
X11211801Y-41735401D01*
X11216123Y-41732450D01*
X11300957Y-41677128D01*
X11537316Y-41522992D01*
X11617604Y-41470634D01*
X11684511Y-41450503D01*
X11685338Y-41450500D01*
X11884308Y-41450500D01*
X11884309Y-41450500D01*
X11974673Y-41426286D01*
X11998887Y-41419799D01*
X12101614Y-41360489D01*
X12400285Y-41061816D01*
X12461607Y-41028333D01*
X12487965Y-41025499D01*
X12822871Y-41025499D01*
X12822872Y-41025499D01*
X12882483Y-41019091D01*
X13017331Y-40968796D01*
X13132546Y-40882546D01*
X13159227Y-40846903D01*
X13175485Y-40825188D01*
X13231419Y-40783318D01*
X13274751Y-40775500D01*
X13487819Y-40775500D01*
X13554858Y-40795185D01*
X13586622Y-40824574D01*
X13624920Y-40875077D01*
X13740023Y-40962363D01*
X13740024Y-40962363D01*
X13740025Y-40962364D01*
X13874410Y-41015359D01*
X13958856Y-41025500D01*
X13958862Y-41025500D01*
X14541145Y-41025500D01*
X14569292Y-41022119D01*
X14625590Y-41015359D01*
X14650167Y-41005666D01*
X14719750Y-40999383D01*
X14781687Y-41031717D01*
X14783339Y-41033339D01*
X15211669Y-41461669D01*
X15245154Y-41522992D01*
X15240171Y-41592679D01*
X15230910Y-41617510D01*
X15230909Y-41617516D01*
X15230909Y-41617517D01*
X15224500Y-41677127D01*
X15224500Y-41677134D01*
X15224500Y-41677135D01*
X15224500Y-42172870D01*
X15224501Y-42172876D01*
X15230908Y-42232481D01*
X15230909Y-42232483D01*
X15237442Y-42250000D01*
X15242182Y-42262706D01*
X15250000Y-42306040D01*
X15250000Y-43193959D01*
X15242181Y-43237292D01*
X15230909Y-43267517D01*
X15224500Y-43327127D01*
X15224500Y-43327134D01*
X15224500Y-43327135D01*
X15224500Y-43822870D01*
X15224501Y-43822876D01*
X15230908Y-43882483D01*
X15281202Y-44017328D01*
X15281206Y-44017335D01*
X15367452Y-44132544D01*
X15367455Y-44132547D01*
X15482664Y-44218793D01*
X15482671Y-44218797D01*
X15527618Y-44235561D01*
X15617517Y-44269091D01*
X15677127Y-44275500D01*
X16012033Y-44275499D01*
X16079072Y-44295183D01*
X16099714Y-44311818D01*
X16283386Y-44495490D01*
X16386114Y-44554799D01*
X16500691Y-44585500D01*
X16953457Y-44585500D01*
X17020496Y-44605185D01*
X17041133Y-44621814D01*
X17093517Y-44674198D01*
X17100783Y-44681464D01*
X17098140Y-44684106D01*
X17129482Y-44724081D01*
X17136023Y-44793644D01*
X17103917Y-44855700D01*
X17100717Y-44858471D01*
X17100782Y-44858536D01*
X17010803Y-44948514D01*
X16959426Y-45053608D01*
X16949500Y-45121739D01*
X16949500Y-45507717D01*
X16948238Y-45525364D01*
X16944500Y-45551362D01*
X16944500Y-51198638D01*
X16946250Y-51231281D01*
X16946254Y-51231334D01*
X16949081Y-51257625D01*
X16949920Y-51264660D01*
X16949920Y-51264662D01*
X16984700Y-51371402D01*
X16984703Y-51371407D01*
X16984827Y-51371635D01*
X16984865Y-51371785D01*
X16986972Y-51376665D01*
X16986196Y-51376999D01*
X17000000Y-51431069D01*
X17000000Y-52305357D01*
X16999675Y-52314324D01*
X16999500Y-52316737D01*
X16999500Y-52949137D01*
X16979815Y-53016176D01*
X16963181Y-53036818D01*
X16470162Y-53529836D01*
X16408839Y-53563321D01*
X16345591Y-53560541D01*
X16252101Y-53531408D01*
X16181572Y-53525000D01*
X16175000Y-53525000D01*
X16175000Y-55474999D01*
X16181581Y-55474999D01*
X16252102Y-55468591D01*
X16252107Y-55468590D01*
X16413083Y-55418427D01*
X26525000Y-55418427D01*
X26525000Y-55425000D01*
X27250000Y-55425000D01*
X27750000Y-55425000D01*
X28474999Y-55425000D01*
X28474999Y-55418417D01*
X28468591Y-55347897D01*
X28468590Y-55347892D01*
X28418018Y-55185603D01*
X28330072Y-55040122D01*
X28209877Y-54919927D01*
X28064395Y-54831980D01*
X28064396Y-54831980D01*
X27902105Y-54781409D01*
X27902106Y-54781409D01*
X27831572Y-54775000D01*
X27750000Y-54775000D01*
X27750000Y-55425000D01*
X27250000Y-55425000D01*
X27250000Y-54775000D01*
X27249999Y-54774999D01*
X27168417Y-54775000D01*
X27097897Y-54781408D01*
X27097892Y-54781409D01*
X26935603Y-54831981D01*
X26790122Y-54919927D01*
X26669927Y-55040122D01*
X26581980Y-55185604D01*
X26531409Y-55347893D01*
X26525000Y-55418427D01*
X16413083Y-55418427D01*
X16414396Y-55418018D01*
X16559877Y-55330072D01*
X16603629Y-55286320D01*
X16664952Y-55252834D01*
X16691311Y-55250000D01*
X17193959Y-55250000D01*
X17237292Y-55257818D01*
X17267517Y-55269091D01*
X17327127Y-55275500D01*
X17822872Y-55275499D01*
X17882483Y-55269091D01*
X18017331Y-55218796D01*
X18132546Y-55132546D01*
X18218796Y-55017331D01*
X18269091Y-54882483D01*
X18271428Y-54860742D01*
X18298165Y-54796195D01*
X18355557Y-54756346D01*
X18394717Y-54750000D01*
X19257246Y-54750000D01*
X19324285Y-54769685D01*
X19344922Y-54786314D01*
X19411658Y-54853050D01*
X19524694Y-54910645D01*
X19524698Y-54910647D01*
X19618475Y-54925499D01*
X19618481Y-54925500D01*
X20881518Y-54925499D01*
X20975304Y-54910646D01*
X21088342Y-54853050D01*
X21178050Y-54763342D01*
X21235646Y-54650304D01*
X21235646Y-54650302D01*
X21235647Y-54650301D01*
X21250499Y-54556524D01*
X21250500Y-54556519D01*
X21250499Y-53393482D01*
X21235646Y-53299696D01*
X21235645Y-53299694D01*
X21233795Y-53294000D01*
X21231798Y-53224159D01*
X21264044Y-53167998D01*
X21700232Y-52731810D01*
X22145722Y-52286318D01*
X22207045Y-52252834D01*
X22233403Y-52250000D01*
X22600500Y-52250000D01*
X22667539Y-52269685D01*
X22713294Y-52322489D01*
X22724500Y-52373999D01*
X22724500Y-52572869D01*
X22724501Y-52572876D01*
X22730908Y-52632483D01*
X22781202Y-52767328D01*
X22781206Y-52767335D01*
X22867452Y-52882544D01*
X22867455Y-52882547D01*
X22982663Y-52968792D01*
X22982665Y-52968793D01*
X22982669Y-52968796D01*
X22982673Y-52968797D01*
X22984924Y-52970027D01*
X22986746Y-52971849D01*
X22989769Y-52974112D01*
X22989443Y-52974546D01*
X23034331Y-53019431D01*
X23049500Y-53078861D01*
X23049500Y-53231585D01*
X23029815Y-53298624D01*
X22979961Y-53342985D01*
X22943515Y-53360802D01*
X22860803Y-53443514D01*
X22809426Y-53548608D01*
X22799500Y-53616739D01*
X22799500Y-54383260D01*
X22809426Y-54451391D01*
X22859718Y-54554266D01*
X22871476Y-54623139D01*
X22844133Y-54687436D01*
X22823244Y-54707529D01*
X22757435Y-54757434D01*
X22666079Y-54877904D01*
X22610613Y-55018556D01*
X22600000Y-55106946D01*
X22600000Y-55250000D01*
X24400000Y-55250000D01*
X24400000Y-55106946D01*
X24389386Y-55018556D01*
X24333920Y-54877904D01*
X24242563Y-54757432D01*
X24176756Y-54707529D01*
X24135233Y-54651337D01*
X24130682Y-54581615D01*
X24140282Y-54554265D01*
X24166161Y-54501329D01*
X24190573Y-54451393D01*
X24200500Y-54383260D01*
X24200500Y-53616740D01*
X24190573Y-53548607D01*
X24139198Y-53443517D01*
X24139196Y-53443515D01*
X24139196Y-53443514D01*
X24056484Y-53360802D01*
X24020039Y-53342985D01*
X23968457Y-53295857D01*
X23950500Y-53231585D01*
X23950500Y-53078861D01*
X23970185Y-53011822D01*
X24010418Y-52974362D01*
X24010231Y-52974112D01*
X24012565Y-52972364D01*
X24015076Y-52970027D01*
X24017323Y-52968798D01*
X24017331Y-52968796D01*
X24132546Y-52882546D01*
X24218796Y-52767331D01*
X24269091Y-52632483D01*
X24275500Y-52572873D01*
X24275499Y-52077128D01*
X24269091Y-52017517D01*
X24218796Y-51882669D01*
X24218795Y-51882668D01*
X24218793Y-51882664D01*
X24132547Y-51767455D01*
X24132273Y-51767181D01*
X24132087Y-51766840D01*
X24127232Y-51760355D01*
X24128164Y-51759656D01*
X24098788Y-51705858D01*
X24103772Y-51636166D01*
X24145644Y-51580233D01*
X24211108Y-51555816D01*
X24219954Y-51555500D01*
X26698639Y-51555500D01*
X26700559Y-51555397D01*
X26731297Y-51553749D01*
X26757655Y-51550915D01*
X26764660Y-51550080D01*
X26871407Y-51515297D01*
X26932730Y-51481812D01*
X27002340Y-51429702D01*
X28179702Y-50252340D01*
X28201558Y-50228008D01*
X28218192Y-50207366D01*
X28222553Y-50201825D01*
X28273439Y-50101749D01*
X28293124Y-50034710D01*
X28305500Y-49948638D01*
X28305500Y-35801362D01*
X28303749Y-35768703D01*
X28303621Y-35767517D01*
X28300918Y-35742374D01*
X28300915Y-35742345D01*
X28300080Y-35735340D01*
X28270173Y-35643556D01*
X28265299Y-35628598D01*
X28265295Y-35628588D01*
X28231810Y-35567266D01*
X28179710Y-35497670D01*
X28179705Y-35497665D01*
X28179702Y-35497660D01*
X28179698Y-35497656D01*
X28179692Y-35497649D01*
X27118722Y-34436680D01*
X27085237Y-34375357D01*
X27090221Y-34305665D01*
X27132093Y-34249732D01*
X27197557Y-34225315D01*
X27206402Y-34224999D01*
X27750000Y-34224999D01*
X27831581Y-34224999D01*
X27902102Y-34218591D01*
X27902107Y-34218590D01*
X28064396Y-34168018D01*
X28209877Y-34080072D01*
X28330072Y-33959877D01*
X28418019Y-33814395D01*
X28468590Y-33652106D01*
X28475000Y-33581572D01*
X28475000Y-33575000D01*
X27750000Y-33575000D01*
X27750000Y-34224999D01*
X27206402Y-34224999D01*
X27249999Y-34224998D01*
X27250000Y-34224998D01*
X27250000Y-33575000D01*
X26525001Y-33575000D01*
X26525001Y-33581582D01*
X26531408Y-33652102D01*
X26531409Y-33652107D01*
X26572408Y-33783677D01*
X26573560Y-33853538D01*
X26536759Y-33912930D01*
X26473690Y-33942998D01*
X26453067Y-33943909D01*
X26453067Y-33944500D01*
X22051361Y-33944500D01*
X22018718Y-33946250D01*
X22018709Y-33946250D01*
X22018703Y-33946251D01*
X22018698Y-33946251D01*
X22018665Y-33946254D01*
X21992374Y-33949081D01*
X21985339Y-33949920D01*
X21985337Y-33949920D01*
X21878598Y-33984700D01*
X21878588Y-33984704D01*
X21817266Y-34018189D01*
X21747670Y-34070289D01*
X21747649Y-34070307D01*
X21734776Y-34083181D01*
X21673453Y-34116666D01*
X21647095Y-34119500D01*
X21399500Y-34119500D01*
X21359588Y-34123790D01*
X21346352Y-34124500D01*
X21186739Y-34124500D01*
X21118608Y-34134426D01*
X21013514Y-34185803D01*
X20930803Y-34268514D01*
X20879426Y-34373608D01*
X20869500Y-34441739D01*
X20869500Y-34758260D01*
X20879425Y-34826388D01*
X20879428Y-34826395D01*
X20901009Y-34870541D01*
X20912767Y-34939414D01*
X20901009Y-34979459D01*
X20879428Y-35023604D01*
X20879425Y-35023611D01*
X20869500Y-35091739D01*
X20869500Y-35408260D01*
X20879425Y-35476388D01*
X20879428Y-35476395D01*
X20901009Y-35520541D01*
X20912767Y-35589414D01*
X20901009Y-35629459D01*
X20879428Y-35673604D01*
X20879425Y-35673611D01*
X20869500Y-35741739D01*
X20869500Y-36058260D01*
X20879426Y-36126391D01*
X20930803Y-36231485D01*
X21013514Y-36314196D01*
X21013515Y-36314196D01*
X21013517Y-36314198D01*
X21118607Y-36365573D01*
X21152673Y-36370536D01*
X21186739Y-36375500D01*
X21186740Y-36375500D01*
X21425500Y-36375500D01*
X21492539Y-36395185D01*
X21538294Y-36447989D01*
X21549500Y-36499500D01*
X21549500Y-36799138D01*
X21529815Y-36866177D01*
X21513181Y-36886819D01*
X21500000Y-36900000D01*
X21500000Y-38699999D01*
X21639324Y-38699999D01*
X21756628Y-38684557D01*
X21756633Y-38684555D01*
X21902585Y-38624100D01*
X22027924Y-38527924D01*
X22124100Y-38402586D01*
X22155596Y-38326548D01*
X22199436Y-38272144D01*
X22265730Y-38250079D01*
X22270157Y-38250000D01*
X22561535Y-38250000D01*
X22628574Y-38269685D01*
X22644194Y-38282272D01*
X22648383Y-38285486D01*
X22648387Y-38285490D01*
X22741956Y-38339511D01*
X22741958Y-38339513D01*
X22751110Y-38344797D01*
X22751111Y-38344797D01*
X22751114Y-38344799D01*
X22865691Y-38375500D01*
X22975249Y-38375500D01*
X23042288Y-38395185D01*
X23074515Y-38425188D01*
X23096703Y-38454827D01*
X23117454Y-38482546D01*
X23117457Y-38482548D01*
X23232664Y-38568793D01*
X23232671Y-38568797D01*
X23277618Y-38585561D01*
X23367517Y-38619091D01*
X23427127Y-38625500D01*
X24072872Y-38625499D01*
X24132483Y-38619091D01*
X24267331Y-38568796D01*
X24382546Y-38482546D01*
X24468796Y-38367331D01*
X24519091Y-38232483D01*
X24525500Y-38172873D01*
X24525499Y-37677128D01*
X24519091Y-37617517D01*
X24518801Y-37616740D01*
X24468797Y-37482671D01*
X24468796Y-37482669D01*
X24424359Y-37423309D01*
X24399942Y-37357845D01*
X24414793Y-37289572D01*
X24464198Y-37240166D01*
X24491904Y-37233094D01*
X24499999Y-37224999D01*
X25000000Y-37224999D01*
X25048308Y-37224999D01*
X25048322Y-37224998D01*
X25147607Y-37214855D01*
X25308481Y-37161547D01*
X25308492Y-37161542D01*
X25452728Y-37072575D01*
X25452732Y-37072572D01*
X25572572Y-36952732D01*
X25572575Y-36952728D01*
X25661542Y-36808492D01*
X25661547Y-36808481D01*
X25714855Y-36647606D01*
X25724999Y-36548322D01*
X25725000Y-36548309D01*
X25725000Y-36525000D01*
X25000000Y-36525000D01*
X25000000Y-37224999D01*
X24499999Y-37224999D01*
X24500000Y-37224998D01*
X24500000Y-36525000D01*
X22874000Y-36525000D01*
X22806961Y-36505315D01*
X22761206Y-36452511D01*
X22750000Y-36401000D01*
X22750000Y-36149000D01*
X22769685Y-36081961D01*
X22822489Y-36036206D01*
X22874000Y-36025000D01*
X25748856Y-36025000D01*
X25757612Y-36020218D01*
X25827304Y-36025197D01*
X25871659Y-36053701D01*
X26158181Y-36340223D01*
X26191666Y-36401546D01*
X26194500Y-36427904D01*
X26194500Y-39704002D01*
X26174815Y-39771041D01*
X26122011Y-39816796D01*
X26052853Y-39826740D01*
X26033610Y-39822388D01*
X25902101Y-39781408D01*
X25831572Y-39775000D01*
X25750000Y-39775000D01*
X25750000Y-40801000D01*
X25730315Y-40868039D01*
X25677511Y-40913794D01*
X25626000Y-40925000D01*
X24586882Y-40925000D01*
X24519843Y-40905315D01*
X24497443Y-40880300D01*
X24472098Y-40861080D01*
X24331443Y-40805613D01*
X24243054Y-40795000D01*
X23750000Y-40795000D01*
X23750000Y-41721000D01*
X23730315Y-41788039D01*
X23677511Y-41833794D01*
X23626000Y-41845000D01*
X22250000Y-41845000D01*
X22250000Y-41888053D01*
X22260613Y-41976443D01*
X22316079Y-42117095D01*
X22390759Y-42215574D01*
X22415582Y-42280886D01*
X22401154Y-42349250D01*
X22352057Y-42398961D01*
X22291955Y-42414500D01*
X21852965Y-42414500D01*
X21785926Y-42394815D01*
X21765284Y-42378181D01*
X21286319Y-41899216D01*
X21252834Y-41837893D01*
X21250000Y-41811535D01*
X21250000Y-41301946D01*
X22250000Y-41301946D01*
X22250000Y-41345000D01*
X23250000Y-41345000D01*
X23250000Y-40795000D01*
X22756946Y-40795000D01*
X22668556Y-40805613D01*
X22527904Y-40861079D01*
X22407435Y-40952435D01*
X22316079Y-41072904D01*
X22260613Y-41213556D01*
X22250000Y-41301946D01*
X21250000Y-41301946D01*
X21250000Y-40524499D01*
X21269685Y-40457460D01*
X21322489Y-40411705D01*
X21374000Y-40400499D01*
X21631517Y-40400499D01*
X21631518Y-40400499D01*
X21725304Y-40385646D01*
X21838342Y-40328050D01*
X21928050Y-40238342D01*
X21938311Y-40218204D01*
X21986286Y-40167409D01*
X22048795Y-40150500D01*
X23100165Y-40150500D01*
X23167204Y-40170185D01*
X23174476Y-40175233D01*
X23231878Y-40218204D01*
X23232668Y-40218795D01*
X23232671Y-40218797D01*
X23245774Y-40223684D01*
X23367517Y-40269091D01*
X23427127Y-40275500D01*
X24072872Y-40275499D01*
X24132483Y-40269091D01*
X24132488Y-40269089D01*
X24162708Y-40257818D01*
X24206041Y-40250000D01*
X24404526Y-40250000D01*
X24471565Y-40269685D01*
X24517320Y-40322489D01*
X24528017Y-40385220D01*
X24525000Y-40418426D01*
X24525000Y-40425000D01*
X25250000Y-40425000D01*
X25250000Y-39775000D01*
X25249999Y-39774999D01*
X25168417Y-39775000D01*
X25094782Y-39781691D01*
X25026236Y-39768153D01*
X24995881Y-39745881D01*
X24539101Y-39289101D01*
X24510600Y-39244752D01*
X24508741Y-39239769D01*
X24479609Y-39161659D01*
X24468798Y-39132673D01*
X24468793Y-39132664D01*
X24382547Y-39017455D01*
X24382544Y-39017452D01*
X24267335Y-38931206D01*
X24267328Y-38931202D01*
X24132486Y-38880910D01*
X24132485Y-38880909D01*
X24132483Y-38880909D01*
X24072873Y-38874500D01*
X24072863Y-38874500D01*
X23427129Y-38874500D01*
X23427123Y-38874501D01*
X23367516Y-38880908D01*
X23232671Y-38931202D01*
X23232664Y-38931206D01*
X23117455Y-39017452D01*
X23117452Y-39017455D01*
X23031206Y-39132664D01*
X23031203Y-39132669D01*
X23017715Y-39168834D01*
X22975843Y-39224767D01*
X22910379Y-39249184D01*
X22901533Y-39249500D01*
X22048795Y-39249500D01*
X21981756Y-39229815D01*
X21938311Y-39181796D01*
X21931706Y-39168834D01*
X21928050Y-39161658D01*
X21928047Y-39161655D01*
X21928045Y-39161652D01*
X21838347Y-39071954D01*
X21838344Y-39071952D01*
X21838342Y-39071950D01*
X21758370Y-39031202D01*
X21725301Y-39014352D01*
X21631524Y-38999500D01*
X21631519Y-38999500D01*
X21237965Y-38999500D01*
X21170926Y-38979815D01*
X21150284Y-38963181D01*
X21031232Y-38844129D01*
X20997747Y-38782806D01*
X21000000Y-38751301D01*
X21000000Y-36900000D01*
X20951362Y-36900000D01*
X20884323Y-36880315D01*
X20863681Y-36863681D01*
X20330813Y-36330813D01*
X20297328Y-36269490D01*
X20302312Y-36199798D01*
X20303140Y-36197641D01*
X20319385Y-36156447D01*
X20319386Y-36156442D01*
X20329167Y-36075000D01*
X19018000Y-36075000D01*
X19018000Y-36151000D01*
X18998315Y-36218039D01*
X18945511Y-36263794D01*
X18894000Y-36275000D01*
X17874000Y-36275000D01*
X17806961Y-36255315D01*
X17761206Y-36202511D01*
X17750000Y-36151000D01*
X17750000Y-35899000D01*
X17769685Y-35831961D01*
X17822489Y-35786206D01*
X17874000Y-35775000D01*
X18807000Y-35775000D01*
X18820681Y-35761319D01*
X18882004Y-35727834D01*
X18908362Y-35725000D01*
X19355358Y-35725000D01*
X19364326Y-35725325D01*
X19366739Y-35725500D01*
X19366740Y-35725500D01*
X19813261Y-35725500D01*
X19815674Y-35725325D01*
X19824642Y-35725000D01*
X20329167Y-35725000D01*
X20319386Y-35643557D01*
X20319386Y-35643556D01*
X20263920Y-35502904D01*
X20172560Y-35382429D01*
X20166819Y-35376688D01*
X20133334Y-35315365D01*
X20130500Y-35289007D01*
X20130500Y-35091739D01*
X20120573Y-35023607D01*
X20098991Y-34979461D01*
X20087231Y-34910589D01*
X20098991Y-34870539D01*
X20120573Y-34826392D01*
X20130500Y-34758260D01*
X20130500Y-34441739D01*
X20120573Y-34373608D01*
X20087358Y-34305665D01*
X20069198Y-34268517D01*
X20069196Y-34268515D01*
X20069196Y-34268514D01*
X19986485Y-34185803D01*
X19881391Y-34134426D01*
X19813261Y-34124500D01*
X19813260Y-34124500D01*
X19644144Y-34124500D01*
X19626497Y-34123238D01*
X19600500Y-34119500D01*
X19600498Y-34119500D01*
X19596081Y-34119184D01*
X19596199Y-34117531D01*
X19535865Y-34099815D01*
X19515223Y-34083181D01*
X19252353Y-33820311D01*
X19252349Y-33820307D01*
X19252340Y-33820298D01*
X19228008Y-33798442D01*
X19207366Y-33781808D01*
X19207363Y-33781806D01*
X19207325Y-33781775D01*
X19201827Y-33777448D01*
X19201825Y-33777447D01*
X19101747Y-33726560D01*
X19034716Y-33706877D01*
X19034710Y-33706876D01*
X18948638Y-33694500D01*
X12801362Y-33694500D01*
X12801361Y-33694500D01*
X12768718Y-33696250D01*
X12768709Y-33696250D01*
X12768703Y-33696251D01*
X12768698Y-33696251D01*
X12768665Y-33696254D01*
X12742374Y-33699081D01*
X12735339Y-33699920D01*
X12735337Y-33699920D01*
X12628598Y-33734700D01*
X12628588Y-33734704D01*
X12567266Y-33768189D01*
X12497670Y-33820289D01*
X12497649Y-33820307D01*
X10159777Y-36158181D01*
X10098454Y-36191666D01*
X10072096Y-36194500D01*
X8624000Y-36194500D01*
X8584088Y-36198790D01*
X8570852Y-36199500D01*
X8366739Y-36199500D01*
X8298608Y-36209426D01*
X8193514Y-36260803D01*
X8110803Y-36343514D01*
X8059426Y-36448608D01*
X8049500Y-36516739D01*
X8049500Y-37483260D01*
X8059426Y-37551391D01*
X8071512Y-37576113D01*
X8110802Y-37656483D01*
X8193517Y-37739198D01*
X8193521Y-37739200D01*
X8198048Y-37742432D01*
X8241173Y-37797405D01*
X8250000Y-37843353D01*
X8250000Y-37933536D01*
X8230315Y-38000575D01*
X8177511Y-38046330D01*
X8171492Y-38048890D01*
X8127905Y-38066078D01*
X8007435Y-38157435D01*
X7916079Y-38277904D01*
X7860613Y-38418556D01*
X7850000Y-38506946D01*
X500500Y-38506946D01*
X500500Y-35498670D01*
X2850000Y-35498670D01*
X2865185Y-35614019D01*
X2865187Y-35614024D01*
X2924633Y-35757541D01*
X2924633Y-35757542D01*
X3019207Y-35880792D01*
X3142458Y-35975366D01*
X3285975Y-36034812D01*
X3285980Y-36034814D01*
X3401329Y-36050000D01*
X5000000Y-36050000D01*
X5500000Y-36050000D01*
X7098671Y-36050000D01*
X7214019Y-36034814D01*
X7214024Y-36034812D01*
X7357541Y-35975366D01*
X7357542Y-35975366D01*
X7480792Y-35880792D01*
X7575366Y-35757542D01*
X7575366Y-35757541D01*
X7634812Y-35614024D01*
X7634814Y-35614019D01*
X7650000Y-35498670D01*
X7650000Y-34900000D01*
X5500000Y-34900000D01*
X5500000Y-36050000D01*
X5000000Y-36050000D01*
X5000000Y-34900000D01*
X2850000Y-34900000D01*
X2850000Y-35498670D01*
X500500Y-35498670D01*
X500500Y-33801329D01*
X2850000Y-33801329D01*
X2850000Y-34400000D01*
X5000000Y-34400000D01*
X5500000Y-34400000D01*
X7650000Y-34400000D01*
X7650000Y-33801329D01*
X7634814Y-33685980D01*
X7634812Y-33685975D01*
X7575366Y-33542458D01*
X7575366Y-33542457D01*
X7480792Y-33419207D01*
X7357541Y-33324633D01*
X7214024Y-33265187D01*
X7214019Y-33265185D01*
X7098671Y-33250000D01*
X5500000Y-33250000D01*
X5500000Y-34400000D01*
X5000000Y-34400000D01*
X5000000Y-33250000D01*
X3401329Y-33250000D01*
X3285980Y-33265185D01*
X3285975Y-33265187D01*
X3142458Y-33324633D01*
X3142457Y-33324633D01*
X3019207Y-33419207D01*
X2924633Y-33542457D01*
X2924633Y-33542458D01*
X2865187Y-33685975D01*
X2865185Y-33685980D01*
X2850000Y-33801329D01*
X500500Y-33801329D01*
X500500Y-32874000D01*
X520185Y-32806961D01*
X572989Y-32761206D01*
X624500Y-32750000D01*
X26440135Y-32750000D01*
X26507174Y-32769685D01*
G37*
%TD.AperFunction*%
%TD*%
%TA.AperFunction,Conductor*%
%TO.N,ACCEL1_SIG_IN_V*%
G36*
X11022538Y-16506187D02*
G01*
X11024097Y-16507042D01*
X11544692Y-16846538D01*
X11549749Y-16853926D01*
X11550000Y-16856337D01*
X11550000Y-17143662D01*
X11546573Y-17151935D01*
X11544691Y-17153462D01*
X11024096Y-17492957D01*
X11015294Y-17494606D01*
X11013589Y-17494109D01*
X9728138Y-17010952D01*
X9721599Y-17004833D01*
X9721302Y-16995884D01*
X9727421Y-16989345D01*
X9728138Y-16989048D01*
X10107291Y-16846537D01*
X11013589Y-16505890D01*
X11022538Y-16506187D01*
G37*
%TD.AperFunction*%
%TD*%
%TA.AperFunction,Conductor*%
%TO.N,ACCEL2_SIG_IN_V*%
G36*
X11022538Y-40506187D02*
G01*
X11024097Y-40507042D01*
X11544692Y-40846538D01*
X11549749Y-40853926D01*
X11550000Y-40856337D01*
X11550000Y-41143662D01*
X11546573Y-41151935D01*
X11544691Y-41153462D01*
X11024096Y-41492957D01*
X11015294Y-41494606D01*
X11013589Y-41494109D01*
X9728138Y-41010952D01*
X9721599Y-41004833D01*
X9721302Y-40995884D01*
X9727421Y-40989345D01*
X9728138Y-40989048D01*
X10107291Y-40846537D01*
X11013589Y-40505890D01*
X11022538Y-40506187D01*
G37*
%TD.AperFunction*%
%TD*%
%TA.AperFunction,Conductor*%
%TO.N,BRAKE_SIG_IN_V*%
G36*
X11022538Y-64506187D02*
G01*
X11024097Y-64507042D01*
X11544692Y-64846538D01*
X11549749Y-64853926D01*
X11550000Y-64856337D01*
X11550000Y-65143662D01*
X11546573Y-65151935D01*
X11544691Y-65153462D01*
X11024096Y-65492957D01*
X11015294Y-65494606D01*
X11013589Y-65494109D01*
X9728138Y-65010952D01*
X9721599Y-65004833D01*
X9721302Y-64995884D01*
X9727421Y-64989345D01*
X9728138Y-64989048D01*
X10107291Y-64846537D01*
X11013589Y-64505890D01*
X11022538Y-64506187D01*
G37*
%TD.AperFunction*%
%TD*%
%TA.AperFunction,Conductor*%
%TO.N,ACCEL1_SIG_OUT_I*%
G36*
X11022538Y-28506187D02*
G01*
X11024097Y-28507042D01*
X11544692Y-28846538D01*
X11549749Y-28853926D01*
X11550000Y-28856337D01*
X11550000Y-29143662D01*
X11546573Y-29151935D01*
X11544691Y-29153462D01*
X11024096Y-29492957D01*
X11015294Y-29494606D01*
X11013589Y-29494109D01*
X9728138Y-29010952D01*
X9721599Y-29004833D01*
X9721302Y-28995884D01*
X9727421Y-28989345D01*
X9728138Y-28989048D01*
X10107291Y-28846537D01*
X11013589Y-28505890D01*
X11022538Y-28506187D01*
G37*
%TD.AperFunction*%
%TD*%
%TA.AperFunction,Conductor*%
%TO.N,ACCEL2_SIG_OUT_I*%
G36*
X11022538Y-52506187D02*
G01*
X11024097Y-52507042D01*
X11544692Y-52846538D01*
X11549749Y-52853926D01*
X11550000Y-52856337D01*
X11550000Y-53143662D01*
X11546573Y-53151935D01*
X11544691Y-53153462D01*
X11024096Y-53492957D01*
X11015294Y-53494606D01*
X11013589Y-53494109D01*
X9728138Y-53010952D01*
X9721599Y-53004833D01*
X9721302Y-52995884D01*
X9727421Y-52989345D01*
X9728138Y-52989048D01*
X10107291Y-52846537D01*
X11013589Y-52505890D01*
X11022538Y-52506187D01*
G37*
%TD.AperFunction*%
%TD*%
%TA.AperFunction,Conductor*%
%TO.N,BRAKE_SIG_OUT_I*%
G36*
X11022538Y-76506187D02*
G01*
X11024097Y-76507042D01*
X11544692Y-76846538D01*
X11549749Y-76853926D01*
X11550000Y-76856337D01*
X11550000Y-77143662D01*
X11546573Y-77151935D01*
X11544691Y-77153462D01*
X11024096Y-77492957D01*
X11015294Y-77494606D01*
X11013589Y-77494109D01*
X9728138Y-77010952D01*
X9721599Y-77004833D01*
X9721302Y-76995884D01*
X9727421Y-76989345D01*
X9728138Y-76989048D01*
X10107291Y-76846537D01*
X11013589Y-76505890D01*
X11022538Y-76506187D01*
G37*
%TD.AperFunction*%
%TD*%
M02*
