%TF.GenerationSoftware,KiCad,Pcbnew,8.0.4*%
%TF.CreationDate,2024-08-16T18:46:30+09:00*%
%TF.ProjectId,accel-brake-sig-converter-board,61636365-6c2d-4627-9261-6b652d736967,rev?*%
%TF.SameCoordinates,Original*%
%TF.FileFunction,Soldermask,Bot*%
%TF.FilePolarity,Negative*%
%FSLAX46Y46*%
G04 Gerber Fmt 4.6, Leading zero omitted, Abs format (unit mm)*
G04 Created by KiCad (PCBNEW 8.0.4) date 2024-08-16 18:46:30*
%MOMM*%
%LPD*%
G01*
G04 APERTURE LIST*
G04 APERTURE END LIST*
G36*
X4525791Y-82792814D02*
G01*
X4869467Y-82868463D01*
X5202949Y-82980826D01*
X5522327Y-83128586D01*
X5823858Y-83310011D01*
X6104005Y-83522973D01*
X6359485Y-83764977D01*
X6587302Y-84033184D01*
X6784786Y-84324450D01*
X6949620Y-84635360D01*
X7079873Y-84962270D01*
X7174017Y-85301346D01*
X7230948Y-85648613D01*
X7250000Y-86000000D01*
X7230948Y-86351387D01*
X7174017Y-86698654D01*
X7079873Y-87037730D01*
X6949620Y-87364640D01*
X6784786Y-87675550D01*
X6587302Y-87966816D01*
X6359485Y-88235023D01*
X6104005Y-88477027D01*
X5823858Y-88689989D01*
X5522327Y-88871414D01*
X5202949Y-89019174D01*
X4869467Y-89131537D01*
X4525791Y-89207186D01*
X4175951Y-89245234D01*
X3824049Y-89245234D01*
X3474209Y-89207186D01*
X3130533Y-89131537D01*
X2797051Y-89019174D01*
X2477673Y-88871414D01*
X2176142Y-88689989D01*
X1895995Y-88477027D01*
X1640515Y-88235023D01*
X1412698Y-87966816D01*
X1215214Y-87675550D01*
X1050380Y-87364640D01*
X920127Y-87037730D01*
X825983Y-86698654D01*
X769052Y-86351387D01*
X750000Y-86000000D01*
X769052Y-85648613D01*
X825983Y-85301346D01*
X920127Y-84962270D01*
X1050380Y-84635360D01*
X1215214Y-84324450D01*
X1412698Y-84033184D01*
X1640515Y-83764977D01*
X1895995Y-83522973D01*
X2176142Y-83310011D01*
X2477673Y-83128586D01*
X2797051Y-82980826D01*
X3130533Y-82868463D01*
X3474209Y-82792814D01*
X3824049Y-82754766D01*
X4175951Y-82754766D01*
X4525791Y-82792814D01*
G37*
G36*
X26525791Y-82792814D02*
G01*
X26869467Y-82868463D01*
X27202949Y-82980826D01*
X27522327Y-83128586D01*
X27823858Y-83310011D01*
X28104005Y-83522973D01*
X28359485Y-83764977D01*
X28587302Y-84033184D01*
X28784786Y-84324450D01*
X28949620Y-84635360D01*
X29079873Y-84962270D01*
X29174017Y-85301346D01*
X29230948Y-85648613D01*
X29250000Y-86000000D01*
X29230948Y-86351387D01*
X29174017Y-86698654D01*
X29079873Y-87037730D01*
X28949620Y-87364640D01*
X28784786Y-87675550D01*
X28587302Y-87966816D01*
X28359485Y-88235023D01*
X28104005Y-88477027D01*
X27823858Y-88689989D01*
X27522327Y-88871414D01*
X27202949Y-89019174D01*
X26869467Y-89131537D01*
X26525791Y-89207186D01*
X26175951Y-89245234D01*
X25824049Y-89245234D01*
X25474209Y-89207186D01*
X25130533Y-89131537D01*
X24797051Y-89019174D01*
X24477673Y-88871414D01*
X24176142Y-88689989D01*
X23895995Y-88477027D01*
X23640515Y-88235023D01*
X23412698Y-87966816D01*
X23215214Y-87675550D01*
X23050380Y-87364640D01*
X22920127Y-87037730D01*
X22825983Y-86698654D01*
X22769052Y-86351387D01*
X22750000Y-86000000D01*
X22769052Y-85648613D01*
X22825983Y-85301346D01*
X22920127Y-84962270D01*
X23050380Y-84635360D01*
X23215214Y-84324450D01*
X23412698Y-84033184D01*
X23640515Y-83764977D01*
X23895995Y-83522973D01*
X24176142Y-83310011D01*
X24477673Y-83128586D01*
X24797051Y-82980826D01*
X25130533Y-82868463D01*
X25474209Y-82792814D01*
X25824049Y-82754766D01*
X26175951Y-82754766D01*
X26525791Y-82792814D01*
G37*
G36*
X10230493Y-85392239D02*
G01*
X10369242Y-85465060D01*
X10486532Y-85568970D01*
X10575546Y-85697930D01*
X10631112Y-85844445D01*
X10650000Y-86000000D01*
X10631112Y-86155555D01*
X10575546Y-86302070D01*
X10486532Y-86431030D01*
X10369242Y-86534940D01*
X10230493Y-86607761D01*
X10078349Y-86645261D01*
X9921651Y-86645261D01*
X9769507Y-86607761D01*
X9630758Y-86534940D01*
X9513468Y-86431030D01*
X9424454Y-86302070D01*
X9368888Y-86155555D01*
X9350000Y-86000000D01*
X9368888Y-85844445D01*
X9424454Y-85697930D01*
X9513468Y-85568970D01*
X9630758Y-85465060D01*
X9769507Y-85392239D01*
X9921651Y-85354739D01*
X10078349Y-85354739D01*
X10230493Y-85392239D01*
G37*
G36*
X20230493Y-85392239D02*
G01*
X20369242Y-85465060D01*
X20486532Y-85568970D01*
X20575546Y-85697930D01*
X20631112Y-85844445D01*
X20650000Y-86000000D01*
X20631112Y-86155555D01*
X20575546Y-86302070D01*
X20486532Y-86431030D01*
X20369242Y-86534940D01*
X20230493Y-86607761D01*
X20078349Y-86645261D01*
X19921651Y-86645261D01*
X19769507Y-86607761D01*
X19630758Y-86534940D01*
X19513468Y-86431030D01*
X19424454Y-86302070D01*
X19368888Y-86155555D01*
X19350000Y-86000000D01*
X19368888Y-85844445D01*
X19424454Y-85697930D01*
X19513468Y-85568970D01*
X19630758Y-85465060D01*
X19769507Y-85392239D01*
X19921651Y-85354739D01*
X20078349Y-85354739D01*
X20230493Y-85392239D01*
G37*
G36*
X4525791Y-792814D02*
G01*
X4869467Y-868463D01*
X5202949Y-980826D01*
X5522327Y-1128586D01*
X5823858Y-1310011D01*
X6104005Y-1522973D01*
X6359485Y-1764977D01*
X6587302Y-2033184D01*
X6784786Y-2324450D01*
X6949620Y-2635360D01*
X7079873Y-2962270D01*
X7174017Y-3301346D01*
X7230948Y-3648613D01*
X7250000Y-4000000D01*
X7230948Y-4351387D01*
X7174017Y-4698654D01*
X7079873Y-5037730D01*
X6949620Y-5364640D01*
X6784786Y-5675550D01*
X6587302Y-5966816D01*
X6359485Y-6235023D01*
X6104005Y-6477027D01*
X5823858Y-6689989D01*
X5522327Y-6871414D01*
X5202949Y-7019174D01*
X4869467Y-7131537D01*
X4525791Y-7207186D01*
X4175951Y-7245234D01*
X3824049Y-7245234D01*
X3474209Y-7207186D01*
X3130533Y-7131537D01*
X2797051Y-7019174D01*
X2477673Y-6871414D01*
X2176142Y-6689989D01*
X1895995Y-6477027D01*
X1640515Y-6235023D01*
X1412698Y-5966816D01*
X1215214Y-5675550D01*
X1050380Y-5364640D01*
X920127Y-5037730D01*
X825983Y-4698654D01*
X769052Y-4351387D01*
X750000Y-4000000D01*
X769052Y-3648613D01*
X825983Y-3301346D01*
X920127Y-2962270D01*
X1050380Y-2635360D01*
X1215214Y-2324450D01*
X1412698Y-2033184D01*
X1640515Y-1764977D01*
X1895995Y-1522973D01*
X2176142Y-1310011D01*
X2477673Y-1128586D01*
X2797051Y-980826D01*
X3130533Y-868463D01*
X3474209Y-792814D01*
X3824049Y-754766D01*
X4175951Y-754766D01*
X4525791Y-792814D01*
G37*
G36*
X26525791Y-792814D02*
G01*
X26869467Y-868463D01*
X27202949Y-980826D01*
X27522327Y-1128586D01*
X27823858Y-1310011D01*
X28104005Y-1522973D01*
X28359485Y-1764977D01*
X28587302Y-2033184D01*
X28784786Y-2324450D01*
X28949620Y-2635360D01*
X29079873Y-2962270D01*
X29174017Y-3301346D01*
X29230948Y-3648613D01*
X29250000Y-4000000D01*
X29230948Y-4351387D01*
X29174017Y-4698654D01*
X29079873Y-5037730D01*
X28949620Y-5364640D01*
X28784786Y-5675550D01*
X28587302Y-5966816D01*
X28359485Y-6235023D01*
X28104005Y-6477027D01*
X27823858Y-6689989D01*
X27522327Y-6871414D01*
X27202949Y-7019174D01*
X26869467Y-7131537D01*
X26525791Y-7207186D01*
X26175951Y-7245234D01*
X25824049Y-7245234D01*
X25474209Y-7207186D01*
X25130533Y-7131537D01*
X24797051Y-7019174D01*
X24477673Y-6871414D01*
X24176142Y-6689989D01*
X23895995Y-6477027D01*
X23640515Y-6235023D01*
X23412698Y-5966816D01*
X23215214Y-5675550D01*
X23050380Y-5364640D01*
X22920127Y-5037730D01*
X22825983Y-4698654D01*
X22769052Y-4351387D01*
X22750000Y-4000000D01*
X22769052Y-3648613D01*
X22825983Y-3301346D01*
X22920127Y-2962270D01*
X23050380Y-2635360D01*
X23215214Y-2324450D01*
X23412698Y-2033184D01*
X23640515Y-1764977D01*
X23895995Y-1522973D01*
X24176142Y-1310011D01*
X24477673Y-1128586D01*
X24797051Y-980826D01*
X25130533Y-868463D01*
X25474209Y-792814D01*
X25824049Y-754766D01*
X26175951Y-754766D01*
X26525791Y-792814D01*
G37*
G36*
X19230493Y-3392239D02*
G01*
X19369242Y-3465060D01*
X19486532Y-3568970D01*
X19575546Y-3697930D01*
X19631112Y-3844445D01*
X19650000Y-4000000D01*
X19631112Y-4155555D01*
X19575546Y-4302070D01*
X19486532Y-4431030D01*
X19369242Y-4534940D01*
X19230493Y-4607761D01*
X19078349Y-4645261D01*
X18921651Y-4645261D01*
X18769507Y-4607761D01*
X18630758Y-4534940D01*
X18513468Y-4431030D01*
X18424454Y-4302070D01*
X18368888Y-4155555D01*
X18350000Y-4000000D01*
X18368888Y-3844445D01*
X18424454Y-3697930D01*
X18513468Y-3568970D01*
X18630758Y-3465060D01*
X18769507Y-3392239D01*
X18921651Y-3354739D01*
X19078349Y-3354739D01*
X19230493Y-3392239D01*
G37*
M02*
